<svg width="268" height="78" viewBox="0 0 268 78" fill="none" xmlns="http://www.w3.org/2000/svg">
<mask id="path-1-outside-1_77_260" maskUnits="userSpaceOnUse" x="-7" y="-5" width="280" height="88" fill="black">
<rect fill="white" x="-7" y="-5" width="280" height="88"/>
<path d="M46.904 65.096H21.752L17.72 77H0.536L24.92 9.608H43.928L68.312 77H50.936L46.904 65.096ZM42.68 52.424L34.328 27.752L26.072 52.424H42.68ZM92.1493 32.36C94.0693 29.416 96.4693 27.112 99.3493 25.448C102.229 23.72 105.429 22.856 108.949 22.856V40.232H104.437C100.341 40.232 97.2693 41.128 95.2213 42.92C93.1733 44.648 92.1493 47.72 92.1493 52.136V77H75.7333V23.432H92.1493V32.36ZM146.652 63.08V77H138.3C132.348 77 127.708 75.56 124.38 72.68C121.052 69.736 119.388 64.968 119.388 58.376V37.064H112.86V23.432H119.388V10.376H135.804V23.432H146.556V37.064H135.804V58.568C135.804 60.168 136.188 61.32 136.956 62.024C137.724 62.728 139.004 63.08 140.796 63.08H146.652ZM164.052 17.864C161.172 17.864 158.804 17.032 156.948 15.368C155.156 13.64 154.26 11.528 154.26 9.032C154.26 6.472 155.156 4.36 156.948 2.696C158.804 0.967995 161.172 0.103994 164.052 0.103994C166.868 0.103994 169.172 0.967995 170.964 2.696C172.82 4.36 173.748 6.472 173.748 9.032C173.748 11.528 172.82 13.64 170.964 15.368C169.172 17.032 166.868 17.864 164.052 17.864ZM172.212 23.432V77H155.796V23.432H172.212ZM205.9 77.768C201.228 77.768 197.068 76.968 193.42 75.368C189.772 73.768 186.892 71.592 184.78 68.84C182.668 66.024 181.484 62.888 181.228 59.432H197.452C197.644 61.288 198.508 62.792 200.044 63.944C201.58 65.096 203.468 65.672 205.708 65.672C207.756 65.672 209.324 65.288 210.412 64.52C211.564 63.688 212.14 62.632 212.14 61.352C212.14 59.816 211.34 58.696 209.74 57.992C208.14 57.224 205.548 56.392 201.964 55.496C198.124 54.6 194.924 53.672 192.364 52.712C189.804 51.688 187.596 50.12 185.74 48.008C183.884 45.832 182.956 42.92 182.956 39.272C182.956 36.2 183.788 33.416 185.452 30.92C187.18 28.36 189.676 26.344 192.94 24.872C196.268 23.4 200.204 22.664 204.748 22.664C211.468 22.664 216.748 24.328 220.588 27.656C224.492 30.984 226.732 35.4 227.308 40.904H212.14C211.884 39.048 211.052 37.576 209.644 36.488C208.3 35.4 206.508 34.856 204.268 34.856C202.348 34.856 200.876 35.24 199.852 36.008C198.828 36.712 198.316 37.704 198.316 38.984C198.316 40.52 199.116 41.672 200.716 42.44C202.38 43.208 204.94 43.976 208.396 44.744C212.364 45.768 215.596 46.792 218.092 47.816C220.588 48.776 222.764 50.376 224.62 52.616C226.54 54.792 227.532 57.736 227.596 61.448C227.596 64.584 226.7 67.4 224.908 69.896C223.18 72.328 220.652 74.248 217.324 75.656C214.06 77.064 210.252 77.768 205.9 77.768ZM267.496 63.08V77H259.144C253.192 77 248.552 75.56 245.224 72.68C241.896 69.736 240.232 64.968 240.232 58.376V37.064H233.704V23.432H240.232V10.376H256.648V23.432H267.4V37.064H256.648V58.568C256.648 60.168 257.032 61.32 257.8 62.024C258.568 62.728 259.848 63.08 261.64 63.08H267.496Z"/>
</mask>
<path d="M46.904 65.096H21.752L17.72 77H0.536L24.92 9.608H43.928L68.312 77H50.936L46.904 65.096ZM42.68 52.424L34.328 27.752L26.072 52.424H42.68ZM92.1493 32.36C94.0693 29.416 96.4693 27.112 99.3493 25.448C102.229 23.72 105.429 22.856 108.949 22.856V40.232H104.437C100.341 40.232 97.2693 41.128 95.2213 42.92C93.1733 44.648 92.1493 47.72 92.1493 52.136V77H75.7333V23.432H92.1493V32.36ZM146.652 63.08V77H138.3C132.348 77 127.708 75.56 124.38 72.68C121.052 69.736 119.388 64.968 119.388 58.376V37.064H112.86V23.432H119.388V10.376H135.804V23.432H146.556V37.064H135.804V58.568C135.804 60.168 136.188 61.32 136.956 62.024C137.724 62.728 139.004 63.08 140.796 63.08H146.652ZM164.052 17.864C161.172 17.864 158.804 17.032 156.948 15.368C155.156 13.64 154.26 11.528 154.26 9.032C154.26 6.472 155.156 4.36 156.948 2.696C158.804 0.967995 161.172 0.103994 164.052 0.103994C166.868 0.103994 169.172 0.967995 170.964 2.696C172.82 4.36 173.748 6.472 173.748 9.032C173.748 11.528 172.82 13.64 170.964 15.368C169.172 17.032 166.868 17.864 164.052 17.864ZM172.212 23.432V77H155.796V23.432H172.212ZM205.9 77.768C201.228 77.768 197.068 76.968 193.42 75.368C189.772 73.768 186.892 71.592 184.78 68.84C182.668 66.024 181.484 62.888 181.228 59.432H197.452C197.644 61.288 198.508 62.792 200.044 63.944C201.58 65.096 203.468 65.672 205.708 65.672C207.756 65.672 209.324 65.288 210.412 64.52C211.564 63.688 212.14 62.632 212.14 61.352C212.14 59.816 211.34 58.696 209.74 57.992C208.14 57.224 205.548 56.392 201.964 55.496C198.124 54.6 194.924 53.672 192.364 52.712C189.804 51.688 187.596 50.12 185.74 48.008C183.884 45.832 182.956 42.92 182.956 39.272C182.956 36.2 183.788 33.416 185.452 30.92C187.18 28.36 189.676 26.344 192.94 24.872C196.268 23.4 200.204 22.664 204.748 22.664C211.468 22.664 216.748 24.328 220.588 27.656C224.492 30.984 226.732 35.4 227.308 40.904H212.14C211.884 39.048 211.052 37.576 209.644 36.488C208.3 35.4 206.508 34.856 204.268 34.856C202.348 34.856 200.876 35.24 199.852 36.008C198.828 36.712 198.316 37.704 198.316 38.984C198.316 40.52 199.116 41.672 200.716 42.44C202.38 43.208 204.94 43.976 208.396 44.744C212.364 45.768 215.596 46.792 218.092 47.816C220.588 48.776 222.764 50.376 224.62 52.616C226.54 54.792 227.532 57.736 227.596 61.448C227.596 64.584 226.7 67.4 224.908 69.896C223.18 72.328 220.652 74.248 217.324 75.656C214.06 77.064 210.252 77.768 205.9 77.768ZM267.496 63.08V77H259.144C253.192 77 248.552 75.56 245.224 72.68C241.896 69.736 240.232 64.968 240.232 58.376V37.064H233.704V23.432H240.232V10.376H256.648V23.432H267.4V37.064H256.648V58.568C256.648 60.168 257.032 61.32 257.8 62.024C258.568 62.728 259.848 63.08 261.64 63.08H267.496Z" fill="#E3E3E3"/>
<path d="M46.904 65.096L51.6397 63.492L50.4895 60.096H46.904V65.096ZM21.752 65.096V60.096H18.1665L17.0163 63.492L21.752 65.096ZM17.72 77V82H21.3055L22.4557 78.604L17.72 77ZM0.536 77L-4.1657 75.2988L-6.59034 82H0.536V77ZM24.92 9.608V4.608H21.4119L20.2183 7.90681L24.92 9.608ZM43.928 9.608L48.6297 7.90681L47.4361 4.608H43.928V9.608ZM68.312 77V82H75.4383L73.0137 75.2988L68.312 77ZM50.936 77L46.2003 78.604L47.3505 82H50.936V77ZM42.68 52.424V57.424H49.6513L47.416 50.8208L42.68 52.424ZM34.328 27.752L39.064 26.1488L34.3006 12.0776L29.5864 26.1653L34.328 27.752ZM26.072 52.424L21.3304 50.8373L19.1263 57.424H26.072V52.424ZM46.904 60.096H21.752V70.096H46.904V60.096ZM17.0163 63.492L12.9843 75.396L22.4557 78.604L26.4877 66.7L17.0163 63.492ZM17.72 72H0.536V82H17.72V72ZM5.2377 78.7012L29.6217 11.3092L20.2183 7.90681L-4.1657 75.2988L5.2377 78.7012ZM24.92 14.608H43.928V4.608H24.92V14.608ZM39.2263 11.3092L63.6103 78.7012L73.0137 75.2988L48.6297 7.90681L39.2263 11.3092ZM68.312 72H50.936V82H68.312V72ZM55.6717 75.396L51.6397 63.492L42.1683 66.7L46.2003 78.604L55.6717 75.396ZM47.416 50.8208L39.064 26.1488L29.592 29.3552L37.944 54.0272L47.416 50.8208ZM29.5864 26.1653L21.3304 50.8373L30.8136 54.0107L39.0696 29.3387L29.5864 26.1653ZM26.072 57.424H42.68V47.424H26.072V57.424ZM92.1493 32.36H87.1493V49.1797L96.3373 35.0913L92.1493 32.36ZM99.3493 25.448L101.851 29.7773L101.886 29.7567L101.922 29.7355L99.3493 25.448ZM108.949 22.856H113.949V17.856H108.949V22.856ZM108.949 40.232V45.232H113.949V40.232H108.949ZM95.2213 42.92L98.4456 46.7415L98.4799 46.7125L98.5138 46.6829L95.2213 42.92ZM92.1493 77V82H97.1493V77H92.1493ZM75.7333 77H70.7333V82H75.7333V77ZM75.7333 23.432V18.432H70.7333V23.432H75.7333ZM92.1493 23.432H97.1493V18.432H92.1493V23.432ZM96.3373 35.0913C97.8534 32.7667 99.6891 31.0262 101.851 29.7773L96.8479 21.1187C93.2494 23.1978 90.2851 26.0653 87.9612 29.6287L96.3373 35.0913ZM101.922 29.7355C103.987 28.4966 106.29 27.856 108.949 27.856V17.856C104.569 17.856 100.472 18.9434 96.7768 21.1605L101.922 29.7355ZM103.949 22.856V40.232H113.949V22.856H103.949ZM108.949 35.232H104.437V45.232H108.949V35.232ZM104.437 35.232C99.7223 35.232 95.2523 36.249 91.9287 39.1571L98.5138 46.6829C99.2862 46.007 100.96 45.232 104.437 45.232V35.232ZM91.9969 39.0985C88.2656 42.2468 87.1493 47.1786 87.1493 52.136H97.1493C97.1493 48.2614 98.0809 47.0492 98.4456 46.7415L91.9969 39.0985ZM87.1493 52.136V77H97.1493V52.136H87.1493ZM92.1493 72H75.7333V82H92.1493V72ZM80.7333 77V23.432H70.7333V77H80.7333ZM75.7333 28.432H92.1493V18.432H75.7333V28.432ZM87.1493 23.432V32.36H97.1493V23.432H87.1493ZM146.652 63.08H151.652V58.08H146.652V63.08ZM146.652 77V82H151.652V77H146.652ZM124.38 72.68L121.067 76.425L121.087 76.443L121.108 76.4608L124.38 72.68ZM119.388 37.064H124.388V32.064H119.388V37.064ZM112.86 37.064H107.86V42.064H112.86V37.064ZM112.86 23.432V18.432H107.86V23.432H112.86ZM119.388 23.432V28.432H124.388V23.432H119.388ZM119.388 10.376V5.376H114.388V10.376H119.388ZM135.804 10.376H140.804V5.376H135.804V10.376ZM135.804 23.432H130.804V28.432H135.804V23.432ZM146.556 23.432H151.556V18.432H146.556V23.432ZM146.556 37.064V42.064H151.556V37.064H146.556ZM135.804 37.064V32.064H130.804V37.064H135.804ZM136.956 62.024L133.577 65.7098L136.956 62.024ZM141.652 63.08V77H151.652V63.08H141.652ZM146.652 72H138.3V82H146.652V72ZM138.3 72C133.123 72 129.794 70.7528 127.652 68.8992L121.108 76.4608C125.622 80.3672 131.572 82 138.3 82V72ZM127.693 68.935C125.87 67.3223 124.388 64.2367 124.388 58.376H114.388C114.388 65.6993 116.234 72.1497 121.067 76.425L127.693 68.935ZM124.388 58.376V37.064H114.388V58.376H124.388ZM119.388 32.064H112.86V42.064H119.388V32.064ZM117.86 37.064V23.432H107.86V37.064H117.86ZM112.86 28.432H119.388V18.432H112.86V28.432ZM124.388 23.432V10.376H114.388V23.432H124.388ZM119.388 15.376H135.804V5.376H119.388V15.376ZM130.804 10.376V23.432H140.804V10.376H130.804ZM135.804 28.432H146.556V18.432H135.804V28.432ZM141.556 23.432V37.064H151.556V23.432H141.556ZM146.556 32.064H135.804V42.064H146.556V32.064ZM130.804 37.064V58.568H140.804V37.064H130.804ZM130.804 58.568C130.804 60.8245 131.332 63.6513 133.577 65.7098L140.334 58.3382C140.495 58.4852 140.615 58.6383 140.7 58.7752C140.783 58.9091 140.821 59.0095 140.835 59.0509C140.848 59.0905 140.839 59.0768 140.828 58.993C140.816 58.9092 140.804 58.7707 140.804 58.568H130.804ZM133.577 65.7098C135.736 67.6888 138.582 68.08 140.796 68.08V58.08C140.509 58.08 140.285 58.0658 140.117 58.0465C139.948 58.0271 139.853 58.0047 139.818 57.995C139.738 57.9732 139.996 58.0277 140.334 58.3382L133.577 65.7098ZM140.796 68.08H146.652V58.08H140.796V68.08ZM156.948 15.368L153.477 18.9672L153.542 19.0302L153.61 19.0908L156.948 15.368ZM156.948 2.696L160.35 6.35996L160.355 6.35546L156.948 2.696ZM170.964 2.696L167.493 6.29522L167.558 6.35823L167.626 6.41884L170.964 2.696ZM170.964 15.368L174.366 19.032L174.371 19.0275L170.964 15.368ZM172.212 23.432H177.212V18.432H172.212V23.432ZM172.212 77V82H177.212V77H172.212ZM155.796 77H150.796V82H155.796V77ZM155.796 23.432V18.432H150.796V23.432H155.796ZM164.052 12.864C162.2 12.864 161.083 12.3601 160.285 11.6451L153.61 19.0908C156.525 21.7038 160.144 22.864 164.052 22.864V12.864ZM160.418 11.7688C159.607 10.986 159.26 10.1744 159.26 9.032H149.26C149.26 12.8815 150.705 16.294 153.477 18.9672L160.418 11.7688ZM159.26 9.032C159.26 7.78893 159.629 7.02908 160.35 6.35996L153.545 -0.96797C150.682 1.69092 149.26 5.15507 149.26 9.032H159.26ZM160.355 6.35546C161.159 5.60713 162.251 5.104 164.052 5.104V-4.89601C160.092 -4.89601 156.449 -3.67114 153.541 -0.963474L160.355 6.35546ZM164.052 5.104C165.757 5.104 166.758 5.58598 167.493 6.29522L174.434 -0.903227C171.586 -3.64999 167.978 -4.89601 164.052 -4.89601V5.104ZM167.626 6.41884C168.392 7.10564 168.748 7.84906 168.748 9.032H178.748C178.748 5.09494 177.247 1.61436 174.301 -1.02685L167.626 6.41884ZM168.748 9.032C168.748 10.115 168.415 10.9092 167.557 11.7085L174.371 19.0275C177.224 16.3708 178.748 12.941 178.748 9.032H168.748ZM167.561 11.704C166.834 12.3793 165.811 12.864 164.052 12.864V22.864C167.925 22.864 171.509 21.6847 174.366 19.032L167.561 11.704ZM167.212 23.432V77H177.212V23.432H167.212ZM172.212 72H155.796V82H172.212V72ZM160.796 77V23.432H150.796V77H160.796ZM155.796 28.432H172.212V18.432H155.796V28.432ZM193.42 75.368L195.429 70.7891L193.42 75.368ZM184.78 68.84L180.78 71.84L180.797 71.8621L180.814 71.8841L184.78 68.84ZM181.228 59.432V54.432H175.844L176.242 59.8014L181.228 59.432ZM197.452 59.432L202.426 58.9175L201.962 54.432H197.452V59.432ZM200.044 63.944L203.044 59.944L200.044 63.944ZM210.412 64.52L213.296 68.6048L213.318 68.5892L213.34 68.5734L210.412 64.52ZM209.74 57.992L207.577 62.4996L207.651 62.5353L207.727 62.5686L209.74 57.992ZM201.964 55.496L203.177 50.6453L203.139 50.6357L203.1 50.6268L201.964 55.496ZM192.364 52.712L190.507 57.3544L190.558 57.3746L190.609 57.3936L192.364 52.712ZM185.74 48.008L181.936 51.2527L181.96 51.2808L181.984 51.3086L185.74 48.008ZM185.452 30.92L181.308 28.1226L181.3 28.1345L181.292 28.1465L185.452 30.92ZM192.94 24.872L190.918 20.2993L190.901 20.3066L190.885 20.3141L192.94 24.872ZM220.588 27.656L217.314 31.4344L217.329 31.4478L217.345 31.4611L220.588 27.656ZM227.308 40.904V45.904H232.859L232.281 40.3836L227.308 40.904ZM212.14 40.904L207.187 41.5872L207.783 45.904H212.14V40.904ZM209.644 36.488L206.498 40.3742L206.542 40.4098L206.587 40.4444L209.644 36.488ZM199.852 36.008L202.685 40.1282L202.77 40.0698L202.852 40.008L199.852 36.008ZM200.716 42.44L198.553 46.9476L198.587 46.964L198.621 46.9798L200.716 42.44ZM208.396 44.744L209.646 39.9026L209.564 39.8814L209.481 39.8631L208.396 44.744ZM218.092 47.816L216.194 52.4418L216.246 52.4629L216.297 52.4827L218.092 47.816ZM224.62 52.616L220.77 55.8061L220.82 55.8659L220.871 55.9241L224.62 52.616ZM227.596 61.448H232.596V61.4049L232.596 61.3618L227.596 61.448ZM224.908 69.896L220.847 66.98L220.839 66.9899L220.832 67L224.908 69.896ZM217.324 75.656L215.376 71.0512L215.36 71.058L215.344 71.0649L217.324 75.656ZM205.9 72.768C201.801 72.768 198.344 72.0676 195.429 70.7891L191.412 79.9469C195.793 81.8684 200.655 82.768 205.9 82.768V72.768ZM195.429 70.7891C192.437 69.4768 190.274 67.786 188.747 65.7959L180.814 71.8841C183.51 75.398 187.108 78.0592 191.412 79.9469L195.429 70.7891ZM188.78 65.84C187.232 63.7758 186.399 61.5497 186.215 59.0626L176.242 59.8014C176.57 64.2262 178.104 68.2722 180.78 71.84L188.78 65.84ZM181.228 64.432H197.452V54.432H181.228V64.432ZM192.479 59.9465C192.819 63.2334 194.43 65.9834 197.044 67.944L203.044 59.944C202.586 59.6006 202.47 59.3426 202.426 58.9175L192.479 59.9465ZM197.044 67.944C199.584 69.849 202.573 70.672 205.708 70.672V60.672C204.363 60.672 203.576 60.343 203.044 59.944L197.044 67.944ZM205.708 70.672C208.27 70.672 211.021 70.2104 213.296 68.6048L207.529 60.4352C207.592 60.3905 207.532 60.4537 207.231 60.5275C206.924 60.6027 206.433 60.672 205.708 60.672V70.672ZM213.34 68.5734C215.627 66.9214 217.14 64.4321 217.14 61.352H207.14C207.14 61.2107 207.18 60.9633 207.319 60.7097C207.447 60.4741 207.565 60.409 207.485 60.4666L213.34 68.5734ZM217.14 61.352C217.14 59.6682 216.684 57.9591 215.609 56.4538C214.563 54.9897 213.158 54.0331 211.754 53.4154L207.727 62.5686C207.923 62.6549 207.717 62.6103 207.472 62.2662C207.351 62.0973 207.259 61.908 207.203 61.72C207.148 61.5371 207.14 61.4045 207.14 61.352H217.14ZM211.904 53.4844C209.822 52.485 206.816 51.5551 203.177 50.6453L200.752 60.3467C204.28 61.2289 206.459 61.963 207.577 62.4996L211.904 53.4844ZM203.1 50.6268C199.387 49.7604 196.411 48.8895 194.12 48.0303L190.609 57.3936C193.438 58.4545 196.861 59.4396 200.828 60.3652L203.1 50.6268ZM194.221 48.0696C192.406 47.3434 190.844 46.2412 189.496 44.7074L181.984 51.3086C184.349 53.9987 187.203 56.0326 190.507 57.3544L194.221 48.0696ZM189.544 44.7633C188.653 43.7186 187.956 42.0665 187.956 39.272H177.956C177.956 43.7735 179.115 47.9454 181.936 51.2527L189.544 44.7633ZM187.956 39.272C187.956 37.1619 188.51 35.3474 189.613 33.6935L181.292 28.1465C179.067 31.4846 177.956 35.2381 177.956 39.272H187.956ZM189.596 33.7174C190.727 32.0426 192.441 30.5822 194.996 29.4299L190.885 20.3141C186.912 22.1058 183.634 24.6774 181.308 28.1226L189.596 33.7174ZM194.963 29.4447C197.516 28.3153 200.733 27.664 204.748 27.664V17.664C199.676 17.664 195.02 18.4847 190.918 20.2993L194.963 29.4447ZM204.748 27.664C210.659 27.664 214.641 29.1186 217.314 31.4344L223.863 23.8776C218.855 19.5374 212.278 17.664 204.748 17.664V27.664ZM217.345 31.4611C220.191 33.8874 221.881 37.0864 222.335 41.4244L232.281 40.3836C231.583 33.7136 228.794 28.0806 223.832 23.8509L217.345 31.4611ZM227.308 35.904H212.14V45.904H227.308V35.904ZM217.093 40.2208C216.669 37.1437 215.205 34.4661 212.701 32.5316L206.587 40.4444C206.9 40.6859 207.1 40.9523 207.187 41.5872L217.093 40.2208ZM212.79 32.6018C210.322 30.6037 207.311 29.856 204.268 29.856V39.856C205.706 39.856 206.279 40.1963 206.498 40.3742L212.79 32.6018ZM204.268 29.856C201.781 29.856 199.078 30.3384 196.852 32.008L202.852 40.008C202.757 40.0796 202.762 40.0405 202.986 39.9821C203.219 39.9213 203.628 39.856 204.268 39.856V29.856ZM197.02 31.8878C194.591 33.5576 193.316 36.1166 193.316 38.984H203.316C203.316 39.0242 203.304 39.2626 203.143 39.5732C202.98 39.8896 202.774 40.067 202.685 40.1282L197.02 31.8878ZM193.316 38.984C193.316 40.6699 193.773 42.3588 194.809 43.852C195.817 45.3036 197.176 46.2868 198.553 46.9476L202.88 37.9324C202.657 37.8252 202.815 37.8484 203.023 38.148C203.126 38.2958 203.207 38.465 203.259 38.6377C203.309 38.8065 203.316 38.9307 203.316 38.984H193.316ZM198.621 46.9798C200.783 47.9778 203.766 48.837 207.312 49.6249L209.481 39.8631C206.115 39.115 203.977 38.4382 202.812 37.9002L198.621 46.9798ZM207.147 49.5854C210.995 50.5784 213.988 51.5365 216.194 52.4418L219.99 43.1902C217.205 42.0475 213.734 40.9576 209.646 39.9026L207.147 49.5854ZM216.297 52.4827C217.924 53.1083 219.412 54.1668 220.77 55.8061L228.47 49.4259C226.117 46.5852 223.253 44.4437 219.887 43.1493L216.297 52.4827ZM220.871 55.9241C221.806 56.9834 222.548 58.6707 222.597 61.5342L232.596 61.3618C232.517 56.8013 231.275 52.6006 228.369 49.3079L220.871 55.9241ZM222.596 61.448C222.596 63.5609 222.015 65.3524 220.847 66.98L228.97 72.812C231.385 69.4476 232.596 65.6071 232.596 61.448H222.596ZM220.832 67C219.745 68.5304 218.031 69.9278 215.376 71.0512L219.272 80.2608C223.273 78.5682 226.616 76.1256 228.984 72.792L220.832 67ZM215.344 71.0649C212.829 72.1499 209.72 72.768 205.9 72.768V82.768C210.785 82.768 215.292 81.9781 219.305 80.2471L215.344 71.0649ZM267.496 63.08H272.496V58.08H267.496V63.08ZM267.496 77V82H272.496V77H267.496ZM245.223 72.68L241.911 76.425L241.931 76.443L241.952 76.4608L245.223 72.68ZM240.232 37.064H245.232V32.064H240.232V37.064ZM233.704 37.064H228.704V42.064H233.704V37.064ZM233.704 23.432V18.432H228.704V23.432H233.704ZM240.232 23.432V28.432H245.232V23.432H240.232ZM240.232 10.376V5.376H235.232V10.376H240.232ZM256.647 10.376H261.647V5.376H256.647V10.376ZM256.647 23.432H251.648V28.432H256.647V23.432ZM267.4 23.432H272.4V18.432H267.4V23.432ZM267.4 37.064V42.064H272.4V37.064H267.4ZM256.647 37.064V32.064H251.648V37.064H256.647ZM257.799 62.024L254.421 65.7098L257.799 62.024ZM262.496 63.08V77H272.496V63.08H262.496ZM267.496 72H259.143V82H267.496V72ZM259.143 72C253.967 72 250.637 70.7528 248.495 68.8992L241.952 76.4608C246.466 80.3672 252.416 82 259.143 82V72ZM248.536 68.935C246.713 67.3223 245.232 64.2367 245.232 58.376H235.232C235.232 65.6993 237.078 72.1497 241.911 76.425L248.536 68.935ZM245.232 58.376V37.064H235.232V58.376H245.232ZM240.232 32.064H233.704V42.064H240.232V32.064ZM238.704 37.064V23.432H228.704V37.064H238.704ZM233.704 28.432H240.232V18.432H233.704V28.432ZM245.232 23.432V10.376H235.232V23.432H245.232ZM240.232 15.376H256.647V5.376H240.232V15.376ZM251.648 10.376V23.432H261.647V10.376H251.648ZM256.647 28.432H267.4V18.432H256.647V28.432ZM262.4 23.432V37.064H272.4V23.432H262.4ZM267.4 32.064H256.647V42.064H267.4V32.064ZM251.648 37.064V58.568H261.647V37.064H251.648ZM251.648 58.568C251.648 60.8245 252.175 63.6513 254.421 65.7098L261.178 58.3382C261.338 58.4852 261.459 58.6383 261.544 58.7752C261.627 58.9091 261.665 59.0095 261.679 59.0509C261.692 59.0905 261.683 59.0768 261.672 58.993C261.66 58.9092 261.647 58.7707 261.647 58.568H251.648ZM254.421 65.7098C256.58 67.6888 259.426 68.08 261.639 68.08V58.08C261.353 58.08 261.129 58.0658 260.961 58.0465C260.792 58.0271 260.697 58.0047 260.661 57.995C260.582 57.9732 260.839 58.0277 261.178 58.3382L254.421 65.7098ZM261.639 68.08H267.496V58.08H261.639V68.08Z" fill="black" mask="url(#path-1-outside-1_77_260)"/>
</svg>
