<svg width="342" height="51" viewBox="0 0 342 51" fill="none" xmlns="http://www.w3.org/2000/svg">
<path d="M21.376 19.72C23.328 20.136 24.896 21.112 26.08 22.648C27.264 24.152 27.856 25.88 27.856 27.832C27.856 30.648 26.864 32.888 24.88 34.552C22.928 36.184 20.192 37 16.672 37H0.976V3.304H16.144C19.568 3.304 22.24 4.088 24.16 5.656C26.112 7.224 27.088 9.352 27.088 12.04C27.088 14.024 26.56 15.672 25.504 16.984C24.48 18.296 23.104 19.208 21.376 19.72ZM9.184 16.936H14.56C15.904 16.936 16.928 16.648 17.632 16.072C18.368 15.464 18.736 14.584 18.736 13.432C18.736 12.28 18.368 11.4 17.632 10.792C16.928 10.184 15.904 9.88 14.56 9.88H9.184V16.936ZM15.232 30.376C16.608 30.376 17.664 30.072 18.4 29.464C19.168 28.824 19.552 27.912 19.552 26.728C19.552 25.544 19.152 24.616 18.352 23.944C17.584 23.272 16.512 22.936 15.136 22.936H9.184V30.376H15.232ZM49.0806 9.928C52.1526 9.928 54.6166 10.952 56.4726 13C58.3286 15.016 59.2566 17.8 59.2566 21.352V37H51.0966V22.456C51.0966 20.664 50.6326 19.272 49.7046 18.28C48.7766 17.288 47.5286 16.792 45.9606 16.792C44.3926 16.792 43.1446 17.288 42.2166 18.28C41.2886 19.272 40.8246 20.664 40.8246 22.456V37H32.6166V1.48H40.8246V13.816C41.6566 12.632 42.7926 11.688 44.2326 10.984C45.6726 10.28 47.2886 9.928 49.0806 9.928ZM77.1524 37.384C74.5284 37.384 72.1604 36.824 70.0484 35.704C67.9684 34.584 66.3204 32.984 65.1044 30.904C63.9204 28.824 63.3284 26.392 63.3284 23.608C63.3284 20.856 63.9364 18.44 65.1524 16.36C66.3684 14.248 68.0324 12.632 70.1444 11.512C72.2564 10.392 74.6244 9.832 77.2484 9.832C79.8724 9.832 82.2404 10.392 84.3524 11.512C86.4644 12.632 88.1284 14.248 89.3444 16.36C90.5604 18.44 91.1684 20.856 91.1684 23.608C91.1684 26.36 90.5444 28.792 89.2964 30.904C88.0804 32.984 86.4004 34.584 84.2564 35.704C82.1444 36.824 79.7764 37.384 77.1524 37.384ZM77.1524 30.28C78.7204 30.28 80.0484 29.704 81.1364 28.552C82.2564 27.4 82.8164 25.752 82.8164 23.608C82.8164 21.464 82.2724 19.816 81.1844 18.664C80.1284 17.512 78.8164 16.936 77.2484 16.936C75.6484 16.936 74.3204 17.512 73.2644 18.664C72.2084 19.784 71.6804 21.432 71.6804 23.608C71.6804 25.752 72.1924 27.4 73.2164 28.552C74.2724 29.704 75.5844 30.28 77.1524 30.28ZM107.715 37.384C105.091 37.384 102.723 36.824 100.611 35.704C98.5309 34.584 96.8829 32.984 95.6669 30.904C94.4829 28.824 93.8909 26.392 93.8909 23.608C93.8909 20.856 94.4989 18.44 95.7149 16.36C96.9309 14.248 98.5949 12.632 100.707 11.512C102.819 10.392 105.187 9.832 107.811 9.832C110.435 9.832 112.803 10.392 114.915 11.512C117.027 12.632 118.691 14.248 119.907 16.36C121.123 18.44 121.731 20.856 121.731 23.608C121.731 26.36 121.107 28.792 119.859 30.904C118.643 32.984 116.963 34.584 114.819 35.704C112.707 36.824 110.339 37.384 107.715 37.384ZM107.715 30.28C109.283 30.28 110.611 29.704 111.699 28.552C112.819 27.4 113.379 25.752 113.379 23.608C113.379 21.464 112.835 19.816 111.747 18.664C110.691 17.512 109.379 16.936 107.811 16.936C106.211 16.936 104.883 17.512 103.827 18.664C102.771 19.784 102.243 21.432 102.243 23.608C102.243 25.752 102.755 27.4 103.779 28.552C104.835 29.704 106.147 30.28 107.715 30.28ZM136.261 9.832C138.149 9.832 139.797 10.216 141.205 10.984C142.645 11.752 143.749 12.76 144.517 14.008V10.216H152.725V36.952C152.725 39.416 152.229 41.64 151.237 43.624C150.277 45.64 148.789 47.24 146.773 48.424C144.789 49.608 142.309 50.2 139.333 50.2C135.365 50.2 132.149 49.256 129.685 47.368C127.221 45.512 125.813 42.984 125.461 39.784H133.573C133.829 40.808 134.437 41.608 135.397 42.184C136.357 42.792 137.541 43.096 138.949 43.096C140.645 43.096 141.989 42.6 142.981 41.608C144.005 40.648 144.517 39.096 144.517 36.952V33.16C143.717 34.408 142.613 35.432 141.205 36.232C139.797 37 138.149 37.384 136.261 37.384C134.053 37.384 132.053 36.824 130.261 35.704C128.469 34.552 127.045 32.936 125.989 30.856C124.965 28.744 124.453 26.312 124.453 23.56C124.453 20.808 124.965 18.392 125.989 16.312C127.045 14.232 128.469 12.632 130.261 11.512C132.053 10.392 134.053 9.832 136.261 9.832ZM144.517 23.608C144.517 21.56 143.941 19.944 142.789 18.76C141.669 17.576 140.293 16.984 138.661 16.984C137.029 16.984 135.637 17.576 134.485 18.76C133.365 19.912 132.805 21.512 132.805 23.56C132.805 25.608 133.365 27.24 134.485 28.456C135.637 29.64 137.029 30.232 138.661 30.232C140.293 30.232 141.669 29.64 142.789 28.456C143.941 27.272 144.517 25.656 144.517 23.608ZM170.856 37.384C168.232 37.384 165.864 36.824 163.752 35.704C161.672 34.584 160.024 32.984 158.808 30.904C157.624 28.824 157.032 26.392 157.032 23.608C157.032 20.856 157.64 18.44 158.855 16.36C160.072 14.248 161.736 12.632 163.848 11.512C165.96 10.392 168.328 9.832 170.952 9.832C173.576 9.832 175.944 10.392 178.056 11.512C180.168 12.632 181.832 14.248 183.048 16.36C184.264 18.44 184.872 20.856 184.872 23.608C184.872 26.36 184.248 28.792 183 30.904C181.784 32.984 180.104 34.584 177.96 35.704C175.848 36.824 173.48 37.384 170.856 37.384ZM170.856 30.28C172.424 30.28 173.752 29.704 174.84 28.552C175.96 27.4 176.52 25.752 176.52 23.608C176.52 21.464 175.976 19.816 174.888 18.664C173.832 17.512 172.52 16.936 170.952 16.936C169.352 16.936 168.024 17.512 166.968 18.664C165.912 19.784 165.384 21.432 165.384 23.608C165.384 25.752 165.896 27.4 166.92 28.552C167.976 29.704 169.288 30.28 170.856 30.28ZM197.434 1.48V37H189.226V1.48H197.434ZM237.794 3.304V9.88H228.866V37H220.658V9.88H211.73V3.304H237.794ZM267.161 23.176C267.161 23.944 267.114 24.744 267.018 25.576H248.442C248.57 27.24 249.098 28.52 250.026 29.416C250.986 30.28 252.154 30.712 253.53 30.712C255.578 30.712 257.002 29.848 257.802 28.12H266.538C266.09 29.88 265.274 31.464 264.09 32.872C262.938 34.28 261.482 35.384 259.722 36.184C257.962 36.984 255.994 37.384 253.818 37.384C251.194 37.384 248.858 36.824 246.81 35.704C244.762 34.584 243.162 32.984 242.01 30.904C240.858 28.824 240.282 26.392 240.282 23.608C240.282 20.824 240.842 18.392 241.962 16.312C243.114 14.232 244.714 12.632 246.762 11.512C248.81 10.392 251.162 9.832 253.818 9.832C256.41 9.832 258.714 10.376 260.73 11.464C262.746 12.552 264.314 14.104 265.434 16.12C266.586 18.136 267.161 20.488 267.161 23.176ZM258.762 21.016C258.762 19.608 258.282 18.488 257.322 17.656C256.362 16.824 255.162 16.408 253.722 16.408C252.346 16.408 251.178 16.808 250.218 17.608C249.29 18.408 248.714 19.544 248.49 21.016H258.762ZM269.86 23.608C269.86 20.824 270.42 18.392 271.54 16.312C272.692 14.232 274.276 12.632 276.292 11.512C278.34 10.392 280.676 9.832 283.3 9.832C286.66 9.832 289.46 10.712 291.7 12.472C293.972 14.232 295.46 16.712 296.164 19.912H287.428C286.692 17.864 285.268 16.84 283.156 16.84C281.652 16.84 280.452 17.432 279.556 18.616C278.66 19.768 278.212 21.432 278.212 23.608C278.212 25.784 278.66 27.464 279.556 28.648C280.452 29.8 281.652 30.376 283.156 30.376C285.268 30.376 286.692 29.352 287.428 27.304H296.164C295.46 30.44 293.972 32.904 291.7 34.696C289.428 36.488 286.628 37.384 283.3 37.384C280.676 37.384 278.34 36.824 276.292 35.704C274.276 34.584 272.692 32.984 271.54 30.904C270.42 28.824 269.86 26.392 269.86 23.608ZM317.018 9.928C320.09 9.928 322.554 10.952 324.41 13C326.266 15.016 327.194 17.8 327.194 21.352V37H319.034V22.456C319.034 20.664 318.57 19.272 317.642 18.28C316.714 17.288 315.466 16.792 313.898 16.792C312.33 16.792 311.082 17.288 310.154 18.28C309.226 19.272 308.762 20.664 308.762 22.456V37H300.554V1.48H308.762V13.816C309.594 12.632 310.73 11.688 312.17 10.984C313.61 10.28 315.226 9.928 317.018 9.928ZM336.738 37.384C335.298 37.384 334.114 36.968 333.186 36.136C332.29 35.272 331.842 34.216 331.842 32.968C331.842 31.688 332.29 30.616 333.186 29.752C334.114 28.888 335.298 28.456 336.738 28.456C338.146 28.456 339.298 28.888 340.194 29.752C341.122 30.616 341.586 31.688 341.586 32.968C341.586 34.216 341.122 35.272 340.194 36.136C339.298 36.968 338.146 37.384 336.738 37.384Z" fill="white"/>
</svg>
