<svg width="289" height="141" viewBox="0 0 289 141" fill="none" xmlns="http://www.w3.org/2000/svg">
<mask id="path-1-outside-1_46_226" maskUnits="userSpaceOnUse" x="-10" y="-10" width="309" height="161" fill="black">
<rect fill="white" x="-10" y="-10" width="309" height="161"/>
<path d="M3.70703 0.301758C5.08789 0.301758 6.33724 2.27441 7.45508 6.21973H8.04688C10.2826 4.51009 13.4059 3.49089 17.417 3.16211C29.0557 3.16211 36.8477 13.6829 40.793 34.7246L42.2725 51.1963C42.2725 70.0023 35.5654 82.2327 22.1514 87.8877L17.0225 88.4795H16.8252C15.3786 88.4795 13.2087 87.9863 10.3154 87V87.8877L10.6113 89.7617C10.6113 90.6823 9.69076 91.6029 7.84961 92.5234C5.35091 92.5234 4.10156 89.8275 4.10156 84.4355C2.39193 61.3555 1.53711 47.1852 1.53711 41.9248L2.52344 12.9268C2.52344 9.96777 1.80013 6.71289 0.353516 3.16211C0.353516 1.64974 1.47135 0.696289 3.70703 0.301758ZM7.45508 41.5303L8.93457 74.1777C10.5785 79.8327 12.9785 82.6602 16.1348 82.6602H18.6992C22.25 82.6602 26.1624 79.9642 30.4365 74.5723C34.1846 68.5885 36.0586 61.5199 36.0586 53.3662V48.1387C36.0586 34.9876 33.3626 23.9079 27.9707 14.8994C24.8145 11.1514 21.9212 9.27734 19.291 9.27734H15.543C11.3346 9.27734 8.93457 11.8747 8.34277 17.0693L7.45508 41.5303ZM57.4619 51.7881C61.1442 51.7881 63.6429 55.1087 64.958 61.75C63.2484 69.1803 59.7305 72.8955 54.4043 72.8955H54.0098V73.1914C55.0618 79.1751 57.8564 82.167 62.3936 82.167C65.8786 82.167 68.7061 79.1751 70.876 73.1914L73.0459 72.3037C74.4925 72.3037 75.4131 73.4215 75.8076 75.6572C75.8076 79.734 72.6185 83.5807 66.2402 87.1973L61.5059 88.085C55.8509 88.085 51.6097 84.041 48.7822 75.9531C47.9932 72.7311 47.5986 70.068 47.5986 67.9639V66.6816C47.5986 59.9746 50.3932 55.1087 55.9824 52.084L57.4619 51.7881ZM53.8125 64.2158V64.4131L55.9824 66.6816C56.9688 66.6816 57.8893 65.3337 58.7441 62.6377V61.0596C58.4154 59.0212 57.988 58.002 57.4619 58.002H56.8701C55.8838 58.002 54.8646 60.0732 53.8125 64.2158ZM92.6738 49.5195C96.0931 49.5195 98.1644 50.9661 98.8877 53.8594C98.8877 55.2402 97.9671 56.0951 96.126 56.4238H95.2383C94.3835 55.832 93.6273 55.5361 92.9697 55.5361H92.082C87.7422 57.3773 85.5723 60.139 85.5723 63.8213V64.709C85.901 66.8789 86.9202 67.9639 88.6299 67.9639H89.5176L96.3232 66.6816C99.6768 67.0762 101.354 68.7201 101.354 71.6133C101.354 75.8874 98.7562 80.4574 93.5615 85.3232C91.1286 87.1644 88.6628 88.085 86.1641 88.085C81.627 87.0986 79.3584 85.2246 79.3584 82.4629C80.016 80.819 81.1338 79.9971 82.7119 79.9971L85.7695 82.167H87.3477C92.1478 80.3258 94.5479 77.334 94.5479 73.1914L94.1533 72.7969C92.5094 73.3887 90.6683 73.6846 88.6299 73.6846C83.764 73.6846 80.7721 70.5283 79.6543 64.2158C79.6543 58.4951 82.8434 53.8265 89.2217 50.21L92.6738 49.5195ZM111.414 36.8945C113.124 36.8945 114.176 38.0124 114.57 40.248C114.57 41.3001 113.847 42.3193 112.4 43.3057H111.414C109.573 43.3057 108.652 42.1878 108.652 39.9521C109.178 37.9137 110.099 36.8945 111.414 36.8945ZM112.104 50.21C114.34 50.5387 114.965 53.8594 113.979 60.1719C113.189 65.3665 113.058 74.0791 113.584 86.3096C112.598 88.2165 111.315 89.0384 109.737 88.7754C107.896 88.5124 107.14 85.2575 107.469 79.0107C107.337 68.0954 107.896 58.9554 109.146 51.5908C109.277 50.6045 110.263 50.1442 112.104 50.21ZM141.497 51.5908C143.996 51.5908 145.245 55.0758 145.245 62.0459C145.64 65.8597 145.837 74.5723 145.837 88.1836C145.837 104.951 144.292 119.976 141.201 133.259C138.571 138.256 135.02 140.755 130.549 140.755C124.565 140.755 118.055 137.204 111.02 130.103L110.428 128.623C110.888 126.519 111.94 125.467 113.584 125.467C114.176 125.467 115.82 126.815 118.516 129.511C123.316 133.062 127.031 134.837 129.661 134.837H131.535C135.612 134.837 137.979 126.65 138.637 110.277C139.557 102.847 140.018 94.9564 140.018 86.6055V83.1533C136.927 84.6657 134.527 85.4219 132.817 85.4219C127.425 85.4219 123.612 82.1999 121.376 75.7559C120.455 73.3887 119.995 70.89 119.995 68.2598C119.995 60.9609 123.02 55.832 129.069 52.873L133.212 52.4785C134.724 52.4785 136.237 52.9717 137.749 53.958H138.439C139.689 52.3799 140.708 51.5908 141.497 51.5908ZM129.957 58.2979C127.327 60.5993 126.012 64.1172 126.012 68.8516C126.012 74.901 127.984 78.4518 131.93 79.5039H133.212C136.828 79.5039 138.637 76.1833 138.637 69.542C138.111 62.3089 136.368 58.6924 133.409 58.6924L129.957 58.2979ZM167.931 52.084C174.572 52.61 177.268 60.5993 176.019 76.0518L175.229 84.8301C174.835 87.1973 173.684 88.3151 171.777 88.1836C170.002 88.0521 169.213 86.8685 169.41 84.6328L170.101 75.0654C171.021 63.8213 170.035 58.1006 167.142 57.9033C164.051 57.6403 161.815 63.4925 160.435 75.46L160.829 86.1123C160.698 87.4932 159.58 88.2165 157.476 88.2822C155.043 88.085 154.122 84.5999 154.714 77.8271L152.347 55.2402C152.478 53.7279 153.695 52.9059 155.996 52.7744C157.377 52.8402 158.199 54.3197 158.462 57.2129L158.856 57.3115C161.815 53.6292 164.84 51.8867 167.931 52.084ZM191.8 51.7881C195.482 51.7881 197.981 55.1087 199.296 61.75C197.586 69.1803 194.068 72.8955 188.742 72.8955H188.348V73.1914C189.4 79.1751 192.194 82.167 196.731 82.167C200.216 82.167 203.044 79.1751 205.214 73.1914L207.384 72.3037C208.83 72.3037 209.751 73.4215 210.146 75.6572C210.146 79.734 206.956 83.5807 200.578 87.1973L195.844 88.085C190.189 88.085 185.948 84.041 183.12 75.9531C182.331 72.7311 181.937 70.068 181.937 67.9639V66.6816C181.937 59.9746 184.731 55.1087 190.32 52.084L191.8 51.7881ZM188.15 64.2158V64.4131L190.32 66.6816C191.307 66.6816 192.227 65.3337 193.082 62.6377V61.0596C192.753 59.0212 192.326 58.002 191.8 58.002H191.208C190.222 58.002 189.202 60.0732 188.15 64.2158ZM215.472 47.3496C217.247 47.3496 218.595 49.4867 219.516 53.7607H219.812C222.31 50.8018 225.006 49.3223 227.899 49.3223C232.634 50.1771 235.001 51.6566 235.001 53.7607C234.409 55.6019 233.39 56.5225 231.943 56.5225L228.195 55.3389H227.209C223.329 56.0622 221.39 64.0514 221.39 79.3066V83.9424C220.995 85.9808 220.075 87 218.628 87C216.524 87 215.472 85.7507 215.472 83.252V71.8105C215.472 63.3939 214.42 56.0293 212.315 49.7168C212.841 48.1387 213.894 47.3496 215.472 47.3496ZM280.076 20.0283C281.983 20.0283 282.937 21.179 282.937 23.4805V38.0781C282.937 39.2617 282.18 40.3138 280.668 41.2344H279.188C278.071 40.3796 277.117 39.9521 276.328 39.9521H275.145C274.224 39.9521 273.369 41.2015 272.58 43.7002V44.6865L273.862 45.7715H274.158C276.591 45.7715 279.057 45.1797 281.556 43.9961C283.265 43.9961 284.317 45.1468 284.712 47.4482C284.449 48.2373 281.753 50.3743 276.624 53.8594L274.158 57.0156V58.6924H275.44C276.229 58.6924 279.649 57.4102 285.698 54.8457H285.896C287.605 55.3717 288.46 56.4238 288.46 58.002C284.12 66.0241 281.95 72.9613 281.95 78.8135C281.161 79.734 280.241 80.2601 279.188 80.3916C277.282 79.9313 276.328 78.7477 276.328 76.8408C276.328 74.8682 277.15 70.6598 278.794 64.2158L274.849 64.4131C270.969 64.4131 268.766 62.1445 268.24 57.6074C268.24 56.5553 269.194 54.3854 271.101 51.0977C268.142 49.4538 266.662 46.988 266.662 43.7002C266.662 39.3604 269.259 36.237 274.454 34.3301L276.92 34.0342V23.7764C276.92 21.2777 277.972 20.0283 280.076 20.0283Z"/>
</mask>
<path d="M3.70703 0.301758C5.08789 0.301758 6.33724 2.27441 7.45508 6.21973H8.04688C10.2826 4.51009 13.4059 3.49089 17.417 3.16211C29.0557 3.16211 36.8477 13.6829 40.793 34.7246L42.2725 51.1963C42.2725 70.0023 35.5654 82.2327 22.1514 87.8877L17.0225 88.4795H16.8252C15.3786 88.4795 13.2087 87.9863 10.3154 87V87.8877L10.6113 89.7617C10.6113 90.6823 9.69076 91.6029 7.84961 92.5234C5.35091 92.5234 4.10156 89.8275 4.10156 84.4355C2.39193 61.3555 1.53711 47.1852 1.53711 41.9248L2.52344 12.9268C2.52344 9.96777 1.80013 6.71289 0.353516 3.16211C0.353516 1.64974 1.47135 0.696289 3.70703 0.301758ZM7.45508 41.5303L8.93457 74.1777C10.5785 79.8327 12.9785 82.6602 16.1348 82.6602H18.6992C22.25 82.6602 26.1624 79.9642 30.4365 74.5723C34.1846 68.5885 36.0586 61.5199 36.0586 53.3662V48.1387C36.0586 34.9876 33.3626 23.9079 27.9707 14.8994C24.8145 11.1514 21.9212 9.27734 19.291 9.27734H15.543C11.3346 9.27734 8.93457 11.8747 8.34277 17.0693L7.45508 41.5303ZM57.4619 51.7881C61.1442 51.7881 63.6429 55.1087 64.958 61.75C63.2484 69.1803 59.7305 72.8955 54.4043 72.8955H54.0098V73.1914C55.0618 79.1751 57.8564 82.167 62.3936 82.167C65.8786 82.167 68.7061 79.1751 70.876 73.1914L73.0459 72.3037C74.4925 72.3037 75.4131 73.4215 75.8076 75.6572C75.8076 79.734 72.6185 83.5807 66.2402 87.1973L61.5059 88.085C55.8509 88.085 51.6097 84.041 48.7822 75.9531C47.9932 72.7311 47.5986 70.068 47.5986 67.9639V66.6816C47.5986 59.9746 50.3932 55.1087 55.9824 52.084L57.4619 51.7881ZM53.8125 64.2158V64.4131L55.9824 66.6816C56.9688 66.6816 57.8893 65.3337 58.7441 62.6377V61.0596C58.4154 59.0212 57.988 58.002 57.4619 58.002H56.8701C55.8838 58.002 54.8646 60.0732 53.8125 64.2158ZM92.6738 49.5195C96.0931 49.5195 98.1644 50.9661 98.8877 53.8594C98.8877 55.2402 97.9671 56.0951 96.126 56.4238H95.2383C94.3835 55.832 93.6273 55.5361 92.9697 55.5361H92.082C87.7422 57.3773 85.5723 60.139 85.5723 63.8213V64.709C85.901 66.8789 86.9202 67.9639 88.6299 67.9639H89.5176L96.3232 66.6816C99.6768 67.0762 101.354 68.7201 101.354 71.6133C101.354 75.8874 98.7562 80.4574 93.5615 85.3232C91.1286 87.1644 88.6628 88.085 86.1641 88.085C81.627 87.0986 79.3584 85.2246 79.3584 82.4629C80.016 80.819 81.1338 79.9971 82.7119 79.9971L85.7695 82.167H87.3477C92.1478 80.3258 94.5479 77.334 94.5479 73.1914L94.1533 72.7969C92.5094 73.3887 90.6683 73.6846 88.6299 73.6846C83.764 73.6846 80.7721 70.5283 79.6543 64.2158C79.6543 58.4951 82.8434 53.8265 89.2217 50.21L92.6738 49.5195ZM111.414 36.8945C113.124 36.8945 114.176 38.0124 114.57 40.248C114.57 41.3001 113.847 42.3193 112.4 43.3057H111.414C109.573 43.3057 108.652 42.1878 108.652 39.9521C109.178 37.9137 110.099 36.8945 111.414 36.8945ZM112.104 50.21C114.34 50.5387 114.965 53.8594 113.979 60.1719C113.189 65.3665 113.058 74.0791 113.584 86.3096C112.598 88.2165 111.315 89.0384 109.737 88.7754C107.896 88.5124 107.14 85.2575 107.469 79.0107C107.337 68.0954 107.896 58.9554 109.146 51.5908C109.277 50.6045 110.263 50.1442 112.104 50.21ZM141.497 51.5908C143.996 51.5908 145.245 55.0758 145.245 62.0459C145.64 65.8597 145.837 74.5723 145.837 88.1836C145.837 104.951 144.292 119.976 141.201 133.259C138.571 138.256 135.02 140.755 130.549 140.755C124.565 140.755 118.055 137.204 111.02 130.103L110.428 128.623C110.888 126.519 111.94 125.467 113.584 125.467C114.176 125.467 115.82 126.815 118.516 129.511C123.316 133.062 127.031 134.837 129.661 134.837H131.535C135.612 134.837 137.979 126.65 138.637 110.277C139.557 102.847 140.018 94.9564 140.018 86.6055V83.1533C136.927 84.6657 134.527 85.4219 132.817 85.4219C127.425 85.4219 123.612 82.1999 121.376 75.7559C120.455 73.3887 119.995 70.89 119.995 68.2598C119.995 60.9609 123.02 55.832 129.069 52.873L133.212 52.4785C134.724 52.4785 136.237 52.9717 137.749 53.958H138.439C139.689 52.3799 140.708 51.5908 141.497 51.5908ZM129.957 58.2979C127.327 60.5993 126.012 64.1172 126.012 68.8516C126.012 74.901 127.984 78.4518 131.93 79.5039H133.212C136.828 79.5039 138.637 76.1833 138.637 69.542C138.111 62.3089 136.368 58.6924 133.409 58.6924L129.957 58.2979ZM167.931 52.084C174.572 52.61 177.268 60.5993 176.019 76.0518L175.229 84.8301C174.835 87.1973 173.684 88.3151 171.777 88.1836C170.002 88.0521 169.213 86.8685 169.41 84.6328L170.101 75.0654C171.021 63.8213 170.035 58.1006 167.142 57.9033C164.051 57.6403 161.815 63.4925 160.435 75.46L160.829 86.1123C160.698 87.4932 159.58 88.2165 157.476 88.2822C155.043 88.085 154.122 84.5999 154.714 77.8271L152.347 55.2402C152.478 53.7279 153.695 52.9059 155.996 52.7744C157.377 52.8402 158.199 54.3197 158.462 57.2129L158.856 57.3115C161.815 53.6292 164.84 51.8867 167.931 52.084ZM191.8 51.7881C195.482 51.7881 197.981 55.1087 199.296 61.75C197.586 69.1803 194.068 72.8955 188.742 72.8955H188.348V73.1914C189.4 79.1751 192.194 82.167 196.731 82.167C200.216 82.167 203.044 79.1751 205.214 73.1914L207.384 72.3037C208.83 72.3037 209.751 73.4215 210.146 75.6572C210.146 79.734 206.956 83.5807 200.578 87.1973L195.844 88.085C190.189 88.085 185.948 84.041 183.12 75.9531C182.331 72.7311 181.937 70.068 181.937 67.9639V66.6816C181.937 59.9746 184.731 55.1087 190.32 52.084L191.8 51.7881ZM188.15 64.2158V64.4131L190.32 66.6816C191.307 66.6816 192.227 65.3337 193.082 62.6377V61.0596C192.753 59.0212 192.326 58.002 191.8 58.002H191.208C190.222 58.002 189.202 60.0732 188.15 64.2158ZM215.472 47.3496C217.247 47.3496 218.595 49.4867 219.516 53.7607H219.812C222.31 50.8018 225.006 49.3223 227.899 49.3223C232.634 50.1771 235.001 51.6566 235.001 53.7607C234.409 55.6019 233.39 56.5225 231.943 56.5225L228.195 55.3389H227.209C223.329 56.0622 221.39 64.0514 221.39 79.3066V83.9424C220.995 85.9808 220.075 87 218.628 87C216.524 87 215.472 85.7507 215.472 83.252V71.8105C215.472 63.3939 214.42 56.0293 212.315 49.7168C212.841 48.1387 213.894 47.3496 215.472 47.3496ZM280.076 20.0283C281.983 20.0283 282.937 21.179 282.937 23.4805V38.0781C282.937 39.2617 282.18 40.3138 280.668 41.2344H279.188C278.071 40.3796 277.117 39.9521 276.328 39.9521H275.145C274.224 39.9521 273.369 41.2015 272.58 43.7002V44.6865L273.862 45.7715H274.158C276.591 45.7715 279.057 45.1797 281.556 43.9961C283.265 43.9961 284.317 45.1468 284.712 47.4482C284.449 48.2373 281.753 50.3743 276.624 53.8594L274.158 57.0156V58.6924H275.44C276.229 58.6924 279.649 57.4102 285.698 54.8457H285.896C287.605 55.3717 288.46 56.4238 288.46 58.002C284.12 66.0241 281.95 72.9613 281.95 78.8135C281.161 79.734 280.241 80.2601 279.188 80.3916C277.282 79.9313 276.328 78.7477 276.328 76.8408C276.328 74.8682 277.15 70.6598 278.794 64.2158L274.849 64.4131C270.969 64.4131 268.766 62.1445 268.24 57.6074C268.24 56.5553 269.194 54.3854 271.101 51.0977C268.142 49.4538 266.662 46.988 266.662 43.7002C266.662 39.3604 269.259 36.237 274.454 34.3301L276.92 34.0342V23.7764C276.92 21.2777 277.972 20.0283 280.076 20.0283Z" fill="black"/>
<path d="M3.70703 0.301758V-9.69824H2.83144L1.96918 -9.54608L3.70703 0.301758ZM7.45508 6.21973L-2.16619 8.94575L-0.10523 16.2197H7.45508V6.21973ZM8.04688 6.21973V16.2197H11.4322L14.1214 14.1633L8.04688 6.21973ZM17.417 3.16211V-6.83789H17.0078L16.6001 -6.80447L17.417 3.16211ZM40.793 34.7246L50.7529 33.83L50.71 33.3527L50.6217 32.8817L40.793 34.7246ZM42.2725 51.1963H52.2725V50.7481L52.2324 50.3017L42.2725 51.1963ZM22.1514 87.8877L23.2976 97.8218L24.7182 97.6579L26.036 97.1023L22.1514 87.8877ZM17.0225 88.4795V98.4795H17.5975L18.1687 98.4136L17.0225 88.4795ZM10.3154 87L13.5422 77.5349L0.31543 73.0258V87H10.3154ZM10.3154 87.8877H0.31543V88.6723L0.4378 89.4473L10.3154 87.8877ZM10.6113 89.7617H20.6113V88.9771L20.489 88.2021L10.6113 89.7617ZM7.84961 92.5234V102.523H10.2103L12.3217 101.468L7.84961 92.5234ZM4.10156 84.4355H14.1016V84.0657L14.0742 83.6968L4.10156 84.4355ZM1.53711 41.9248L-8.45711 41.5849L-8.46289 41.7548V41.9248H1.53711ZM2.52344 12.9268L12.5177 13.2667L12.5234 13.0968V12.9268H2.52344ZM0.353516 3.16211H-9.64648V5.12098L-8.90741 6.93508L0.353516 3.16211ZM7.45508 41.5303L-2.53834 41.1676L-2.55314 41.5754L-2.53467 41.983L7.45508 41.5303ZM8.93457 74.1777L-1.05518 74.6304L-1.00114 75.8229L-0.667927 76.9692L8.93457 74.1777ZM30.4365 74.5723L38.2731 80.7842L38.6172 80.3501L38.9113 79.8806L30.4365 74.5723ZM27.9707 14.8994L36.5512 9.76367L36.138 9.0734L35.6198 8.45806L27.9707 14.8994ZM8.34277 17.0693L-1.59296 15.9374L-1.63665 16.3209L-1.65065 16.7067L8.34277 17.0693ZM3.70703 10.3018C1.49904 10.3018 -0.219724 9.46833 -1.28198 8.67163C-2.23841 7.95431 -2.68309 7.26663 -2.7685 7.13177C-2.90689 6.91327 -2.62882 7.31295 -2.16619 8.94575L17.0763 3.4937C16.4211 1.18119 15.5156 -1.37811 14.1279 -3.56927C12.9548 -5.42157 9.68166 -9.69824 3.70703 -9.69824V10.3018ZM7.45508 16.2197H8.04688V-3.78027H7.45508V16.2197ZM14.1214 14.1633C14.3127 14.017 15.3511 13.365 18.2339 13.1287L16.6001 -6.80447C11.4607 -6.38321 6.25245 -4.99685 1.97237 -1.72385L14.1214 14.1633ZM17.417 13.1621C19.6387 13.1621 21.6733 13.925 23.954 17.0044C26.5527 20.5132 29.1141 26.7003 30.9642 36.5675L50.6217 32.8817C48.5265 21.7073 45.2193 12.1131 40.026 5.10106C34.5147 -2.34032 26.834 -6.83789 17.417 -6.83789V13.1621ZM30.8331 35.6192L32.3126 52.0909L52.2324 50.3017L50.7529 33.83L30.8331 35.6192ZM32.2725 51.1963C32.2725 59.4797 30.7868 65.4481 28.4741 69.6653C26.2549 73.7121 22.9934 76.6804 18.2668 78.673L26.036 97.1023C34.7234 93.44 41.5225 87.4657 46.0103 79.282C50.4047 71.2687 52.2725 61.7189 52.2725 51.1963H32.2725ZM21.0051 77.9536L15.8762 78.5454L18.1687 98.4136L23.2976 97.8218L21.0051 77.9536ZM17.0225 78.4795H16.8252V98.4795H17.0225V78.4795ZM16.8252 78.4795C17.1329 78.4795 17.031 78.5178 16.329 78.3583C15.685 78.2119 14.77 77.9535 13.5422 77.5349L7.08869 96.4651C10.1288 97.5015 13.6241 98.4795 16.8252 98.4795V78.4795ZM0.31543 87V87.8877H20.3154V87H0.31543ZM0.4378 89.4473L0.733698 91.3213L20.489 88.2021L20.1931 86.3281L0.4378 89.4473ZM0.611328 89.7617C0.611328 86.6344 2.22015 84.7012 2.84983 84.0715C3.45905 83.4623 3.82747 83.3542 3.37747 83.5792L12.3217 101.468C13.7129 100.772 15.4622 99.7434 16.992 98.2136C18.5422 96.6634 20.6113 93.8096 20.6113 89.7617H0.611328ZM7.84961 82.5234C9.13829 82.5234 10.6743 82.911 12.0491 83.8999C13.3226 84.8159 13.9035 85.8476 14.1117 86.2969C14.3102 86.7252 14.2814 86.854 14.2186 86.4474C14.1605 86.0711 14.1016 85.4228 14.1016 84.4355H-5.89844C-5.89844 87.5887 -5.58249 91.3657 -4.03453 94.7061C-3.20168 96.5033 -1.83998 98.546 0.370544 100.136C2.68238 101.799 5.31158 102.523 7.84961 102.523V82.5234ZM14.0742 83.6968C12.3526 60.4553 11.5371 46.7259 11.5371 41.9248H-8.46289C-8.46289 47.6446 -7.56879 62.2556 -5.87111 85.1743L14.0742 83.6968ZM11.5313 42.2647L12.5177 13.2667L-7.47078 12.5868L-8.45711 41.5849L11.5313 42.2647ZM12.5234 12.9268C12.5234 8.35345 11.4115 3.80005 9.61444 -0.610859L-8.90741 6.93508C-7.81122 9.62573 -7.47656 11.5821 -7.47656 12.9268H12.5234ZM10.3535 3.16211C10.3535 4.04043 10.1847 5.12816 9.67093 6.26151C9.15362 7.40264 8.42284 8.28865 7.68136 8.92109C6.3378 10.0671 5.20533 10.1919 5.44488 10.1496L1.96918 -9.54608C-0.0269432 -9.19382 -2.83617 -8.39503 -5.29757 -6.2956C-8.15805 -3.85577 -9.64648 -0.423061 -9.64648 3.16211H10.3535ZM-2.53467 41.983L-1.05518 74.6304L18.9243 73.725L17.4448 41.0776L-2.53467 41.983ZM-0.667927 76.9692C0.341706 80.4423 1.85328 84.0769 4.34376 87.0109C7.07564 90.2293 11.0957 92.6602 16.1348 92.6602V72.6602C16.9015 72.6602 17.7161 72.8468 18.4447 73.2176C19.1329 73.5678 19.4935 73.953 19.5913 74.0682C19.6762 74.1682 19.5634 74.0624 19.3359 73.5854C19.1125 73.1167 18.8332 72.4051 18.5371 71.3863L-0.667927 76.9692ZM16.1348 92.6602H18.6992V72.6602H16.1348V92.6602ZM18.6992 92.6602C27.2036 92.6602 33.7276 86.5185 38.2731 80.7842L22.5999 68.3603C20.829 70.5944 19.4853 71.8093 18.6225 72.4038C17.7808 72.9838 17.8657 72.6602 18.6992 72.6602V92.6602ZM38.9113 79.8806C43.8025 72.0718 46.0586 63.1008 46.0586 53.3662H26.0586C26.0586 59.9389 24.5666 65.1053 21.9618 69.2639L38.9113 79.8806ZM46.0586 53.3662V48.1387H26.0586V53.3662H46.0586ZM46.0586 48.1387C46.0586 33.6315 43.0798 20.6713 36.5512 9.76367L19.3903 20.0352C23.6455 27.1445 26.0586 36.3438 26.0586 48.1387H46.0586ZM35.6198 8.45806C32.0763 4.25011 26.6069 -0.722656 19.291 -0.722656V19.2773C18.162 19.2773 17.6753 18.8676 17.9971 19.076C18.3457 19.3018 19.1355 19.9323 20.3216 21.3408L35.6198 8.45806ZM19.291 -0.722656H15.543V19.2773H19.291V-0.722656ZM15.543 -0.722656C11.2256 -0.722656 6.69352 0.703691 3.2422 4.43868C0.0569079 7.88578 -1.16616 12.1911 -1.59296 15.9374L18.2785 18.2013C18.4435 16.7529 18.7164 17.1622 17.9311 18.012C17.5039 18.4744 16.9551 18.8467 16.3837 19.0713C15.8503 19.281 15.5155 19.2773 15.543 19.2773V-0.722656ZM-1.65065 16.7067L-2.53834 41.1676L17.4485 41.8929L18.3362 17.432L-1.65065 16.7067ZM57.4619 51.7881V41.7881H56.4717L55.5008 41.9823L57.4619 51.7881ZM64.958 61.75L74.7034 63.9923L75.1832 61.9068L74.7675 59.8075L64.958 61.75ZM54.0098 72.8955V62.8955H44.0098V72.8955H54.0098ZM54.0098 73.1914H44.0098V74.0638L44.1608 74.9231L54.0098 73.1914ZM70.876 73.1914L67.0896 63.9359L62.9864 65.6145L61.475 69.7823L70.876 73.1914ZM73.0459 72.3037V62.3037H71.0795L69.2596 63.0482L73.0459 72.3037ZM75.8076 75.6572H85.8076V74.7816L85.6555 73.9194L75.8076 75.6572ZM66.2402 87.1973L68.0831 97.026L69.7221 96.7187L71.1726 95.8962L66.2402 87.1973ZM61.5059 88.085V98.085H62.4353L63.3487 97.9137L61.5059 88.085ZM48.7822 75.9531L39.0693 78.3318L39.1837 78.7991L39.3424 79.2532L48.7822 75.9531ZM55.9824 52.084L54.0213 42.2782L52.546 42.5732L51.2229 43.2893L55.9824 52.084ZM53.8125 64.2158L44.1202 61.7543L43.8125 62.9658V64.2158H53.8125ZM53.8125 64.4131H43.8125V68.4257L46.5861 71.3253L53.8125 64.4131ZM55.9824 66.6816L48.756 73.5939L51.7095 76.6816H55.9824V66.6816ZM58.7441 62.6377L68.2764 65.6601L68.7441 64.1851V62.6377H58.7441ZM58.7441 61.0596H68.7441V60.2583L68.6166 59.4672L58.7441 61.0596ZM57.4619 61.7881C56.8156 61.7881 56.0243 61.6257 55.2691 61.2199C54.5522 60.8348 54.1943 60.407 54.1072 60.2912C54.0383 60.1997 54.1784 60.36 54.4108 60.967C54.639 61.5633 54.9021 62.4481 55.1485 63.6925L74.7675 59.8075C73.9801 55.8312 72.638 51.6545 70.0882 48.2659C67.2277 44.4645 62.8805 41.7881 57.4619 41.7881V61.7881ZM55.2126 59.5077C54.5755 62.2767 53.8498 63.1557 53.7761 63.2335C53.7716 63.2382 53.8076 63.1998 53.8885 63.143C53.9709 63.0852 54.0732 63.0271 54.187 62.9793C54.4365 62.8745 54.553 62.8955 54.4043 62.8955V82.8955C59.6875 82.8955 64.5657 80.927 68.2986 76.9848C71.7428 73.3474 73.6308 68.6537 74.7034 63.9923L55.2126 59.5077ZM54.4043 62.8955H54.0098V82.8955H54.4043V62.8955ZM44.0098 72.8955V73.1914H64.0098V72.8955H44.0098ZM44.1608 74.9231C44.8698 78.9552 46.3719 83.3072 49.5869 86.7491C53.0908 90.5004 57.6869 92.167 62.3936 92.167V72.167C62.3674 72.167 62.6505 72.1656 63.0957 72.3472C63.5638 72.5383 63.9489 72.8254 64.2027 73.0971C64.43 73.3404 64.4274 73.4365 64.317 73.179C64.2027 72.9124 64.0192 72.3729 63.8587 71.4597L44.1608 74.9231ZM62.3936 92.167C72.8837 92.167 77.9484 83.0216 80.2769 76.6005L61.475 69.7823C61.0735 70.8896 60.7003 71.6932 60.3882 72.2536C60.0728 72.8201 59.8754 73.0382 59.86 73.0545C59.8559 73.0589 60.0885 72.8126 60.6011 72.5696C61.1476 72.3106 61.78 72.167 62.3936 72.167V92.167ZM74.6623 82.4469L76.8322 81.5592L69.2596 63.0482L67.0896 63.9359L74.6623 82.4469ZM73.0459 82.3037C72.0879 82.3037 70.9364 82.1103 69.7622 81.5558C68.5882 81.0014 67.7088 80.236 67.102 79.4992C66.014 78.1781 65.9077 77.0997 65.9598 77.3951L85.6555 73.9194C85.313 71.9791 84.5491 69.2239 82.5406 66.785C80.183 63.9222 76.7609 62.3037 73.0459 62.3037V82.3037ZM65.8076 75.6572C65.8076 74.8733 66.1717 74.6695 65.7174 75.2174C65.1687 75.8793 63.8904 77.034 61.3078 78.4983L71.1726 95.8962C78.17 91.9286 85.8076 85.5063 85.8076 75.6572H65.8076ZM64.3973 77.3685L59.663 78.2562L63.3487 97.9137L68.0831 97.026L64.3973 77.3685ZM61.5059 78.085C61.3977 78.085 61.3413 78.0756 61.3247 78.0724C61.3198 78.0715 61.3165 78.0707 61.3145 78.0702C61.3126 78.0698 61.3117 78.0695 61.3115 78.0695C61.3114 78.0694 61.3116 78.0695 61.312 78.0696C61.3125 78.0698 61.3127 78.0699 61.3125 78.0698C61.3123 78.0697 61.3112 78.0693 61.3093 78.0684C61.3074 78.0675 61.3041 78.0659 61.2995 78.0634C61.2905 78.0587 61.2739 78.0494 61.2495 78.0332C61.2017 78.0017 61.112 77.9362 60.9845 77.8146C60.4164 77.273 59.3367 75.8417 58.222 72.653L39.3424 79.2532C42.7175 88.9073 49.4877 98.085 61.5059 98.085V78.085ZM58.4952 73.5744C57.8009 70.7395 57.5986 68.9446 57.5986 67.9639H37.5986C37.5986 71.1915 38.1854 74.7227 39.0693 78.3318L58.4952 73.5744ZM57.5986 67.9639V66.6816H37.5986V67.9639H57.5986ZM57.5986 66.6816C57.5986 64.7339 57.995 63.6285 58.3662 62.9823C58.7208 62.3649 59.3583 61.6275 60.7419 60.8787L51.2229 43.2893C47.0173 45.5652 43.463 48.7732 41.023 53.0216C38.5995 57.2413 37.5986 61.9223 37.5986 66.6816H57.5986ZM57.9436 61.8898L59.4231 61.5939L55.5008 41.9823L54.0213 42.2782L57.9436 61.8898ZM43.8125 64.2158V64.4131H63.8125V64.2158H43.8125ZM46.5861 71.3253L48.756 73.5939L63.2088 59.7694L61.0389 57.5009L46.5861 71.3253ZM55.9824 76.6816C61.4879 76.6816 64.5803 72.9068 65.6706 71.3103C66.9404 69.4509 67.7362 67.3639 68.2764 65.6601L49.2118 59.6153C48.8972 60.6075 48.8053 60.5425 49.1546 60.031C49.3488 59.7466 49.9005 58.9962 50.9375 58.2631C52.0691 57.4632 53.8032 56.6816 55.9824 56.6816V76.6816ZM68.7441 62.6377V61.0596H48.7441V62.6377H68.7441ZM68.6166 59.4672C68.4149 58.2167 68.0776 56.5174 67.3989 54.8991C67.0694 54.1132 66.4028 52.7107 65.1407 51.3615C63.7765 49.9032 61.1828 48.002 57.4619 48.002V68.002C54.0041 68.002 51.661 66.2281 50.5352 65.0246C49.5114 63.9302 49.0709 62.9099 48.9551 62.6336C48.7038 62.0346 48.7447 61.864 48.8717 62.6519L68.6166 59.4672ZM57.4619 48.002H56.8701V68.002H57.4619V48.002ZM56.8701 48.002C52.876 48.002 50.2021 50.1307 48.94 51.4342C47.6627 52.7534 46.8667 54.1784 46.3934 55.1403C45.4193 57.12 44.699 59.475 44.1202 61.7543L63.5048 66.6774C63.7248 65.8111 63.9194 65.1481 64.0822 64.6595C64.2522 64.1497 64.3466 63.9541 64.3385 63.9705C64.3305 63.9868 64.2644 64.1208 64.128 64.3303C63.998 64.5301 63.7347 64.9062 63.3084 65.3464C62.5477 66.1321 60.3711 68.002 56.8701 68.002V48.002ZM92.6738 49.5195V39.5195H91.6836L90.7127 39.7137L92.6738 49.5195ZM98.8877 53.8594H108.888V52.6283L108.589 51.434L98.8877 53.8594ZM96.126 56.4238V66.4238H97.0118L97.8839 66.2681L96.126 56.4238ZM95.2383 56.4238L89.5462 64.6458L92.1145 66.4238H95.2383V56.4238ZM92.082 55.5361V45.5361H90.0485L88.1765 46.3303L92.082 55.5361ZM85.5723 64.709H75.5723V65.4623L75.6851 66.207L85.5723 64.709ZM89.5176 67.9639V77.9639H90.4514L91.3691 77.791L89.5176 67.9639ZM96.3232 66.6816L97.4917 56.7501L95.9737 56.5716L94.4718 56.8545L96.3232 66.6816ZM93.5615 85.3232L99.5959 93.2973L100.015 92.9805L100.398 92.6215L93.5615 85.3232ZM86.1641 88.085L84.0398 97.8567L85.0897 98.085H86.1641V88.085ZM79.3584 82.4629L70.0736 78.749L69.3584 80.5371V82.4629H79.3584ZM82.7119 79.9971L88.4994 71.842L85.8997 69.9971H82.7119V79.9971ZM85.7695 82.167L79.9821 90.3221L82.5817 92.167H85.7695V82.167ZM87.3477 82.167V92.167H89.1997L90.9289 91.5037L87.3477 82.167ZM94.5479 73.1914H104.548V69.0493L101.619 66.1203L94.5479 73.1914ZM94.1533 72.7969L101.224 65.7258L96.7371 61.2385L90.7661 63.388L94.1533 72.7969ZM79.6543 64.2158H69.6543V65.0944L69.8075 65.9595L79.6543 64.2158ZM89.2217 50.21L87.2605 40.4042L85.686 40.719L84.2893 41.511L89.2217 50.21ZM92.6738 59.5195C93.0445 59.5195 92.2096 59.6017 91.0659 58.8029C89.7769 57.9027 89.2986 56.734 89.1863 56.2847L108.589 51.434C107.754 48.0916 105.878 44.7529 102.518 42.4061C99.3026 40.1607 95.7224 39.5195 92.6738 39.5195V59.5195ZM88.8877 53.8594C88.8877 52.0759 89.601 49.872 91.3928 48.2082C92.8677 46.8386 94.2655 46.5979 94.3681 46.5796L97.8839 66.2681C99.8276 65.921 102.606 65.0884 105.002 62.8641C107.714 60.3455 108.888 57.0238 108.888 53.8594H88.8877ZM96.126 46.4238H95.2383V66.4238H96.126V46.4238ZM100.93 48.2019C99.2995 47.0729 96.5312 45.5361 92.9697 45.5361V65.5361C91.7967 65.5361 90.9054 65.2737 90.386 65.0705C89.8729 64.8697 89.5886 64.6751 89.5462 64.6458L100.93 48.2019ZM92.9697 45.5361H92.082V65.5361H92.9697V45.5361ZM88.1765 46.3303C84.9639 47.6933 81.7603 49.7253 79.3365 52.8101C76.7968 56.0424 75.5723 59.8562 75.5723 63.8213H95.5723C95.5723 63.8957 95.5589 64.1186 95.4562 64.4235C95.3517 64.7339 95.2011 64.9906 95.0629 65.1665C94.8091 65.4896 94.8603 65.2202 95.9875 64.742L88.1765 46.3303ZM75.5723 63.8213V64.709H95.5723V63.8213H75.5723ZM75.6851 66.207C76.0167 68.3956 76.8814 71.4278 79.2948 73.9969C81.9815 76.857 85.4637 77.9639 88.6299 77.9639V57.9639C90.0865 57.9639 92.2042 58.5283 93.8717 60.3034C95.2659 61.7875 95.4566 63.1923 95.4594 63.2109L75.6851 66.207ZM88.6299 77.9639H89.5176V57.9639H88.6299V77.9639ZM91.3691 77.791L98.1747 76.5087L94.4718 56.8545L87.6661 58.1368L91.3691 77.791ZM95.1548 76.6131C95.5662 76.6615 94.3993 76.6297 93.0952 75.3512C91.588 73.8735 91.3535 72.1893 91.3535 71.6133H111.354C111.354 68.1441 110.281 64.1912 107.097 61.0697C104.116 58.1473 100.434 57.0963 97.4917 56.7501L95.1548 76.6131ZM91.3535 71.6133C91.3535 71.753 91.1844 73.848 86.7252 78.025L100.398 92.6215C106.328 87.0667 111.354 80.0217 111.354 71.6133H91.3535ZM87.5271 77.3492C86.964 77.7753 86.5829 77.9541 86.3899 78.0261C86.294 78.0619 86.2351 78.0751 86.2087 78.08C86.1832 78.0847 86.1708 78.085 86.1641 78.085V98.085C91.2876 98.085 95.8191 96.1555 99.5959 93.2973L87.5271 77.3492ZM88.2884 78.3132C87.6076 78.1652 87.2241 78.0284 87.0612 77.9599C86.8929 77.8892 87.0795 77.9417 87.4286 78.2301C87.8048 78.5408 88.342 79.106 88.7659 79.9722C89.1985 80.8562 89.3584 81.739 89.3584 82.4629H69.3584C69.3584 87.0431 71.4294 90.9549 74.691 93.6493C77.5659 96.0242 81.0225 97.2008 84.0398 97.8567L88.2884 78.3132ZM88.6432 86.1768C88.4679 86.6151 87.9217 87.7084 86.6138 88.67C85.225 89.6913 83.7488 89.9971 82.7119 89.9971V69.9971C80.0969 69.9971 77.2727 70.7139 74.766 72.557C72.3404 74.3406 70.9065 76.6669 70.0736 78.749L88.6432 86.1768ZM76.9244 88.1521L79.9821 90.3221L91.557 74.0119L88.4994 71.842L76.9244 88.1521ZM85.7695 92.167H87.3477V72.167H85.7695V92.167ZM90.9289 91.5037C94.4393 90.1573 97.9242 88.0705 100.548 84.7996C103.289 81.3826 104.548 77.3432 104.548 73.1914H84.5479C84.5479 73.2515 84.5411 73.1279 84.6198 72.8941C84.7016 72.6508 84.8266 72.4355 84.9475 72.2848C85.0585 72.1465 85.0909 72.1557 84.9245 72.2674C84.7499 72.3846 84.3911 72.5907 83.7664 72.8302L90.9289 91.5037ZM101.619 66.1203L101.224 65.7258L87.0823 79.8679L87.4768 80.2625L101.619 66.1203ZM90.7661 63.388C90.3731 63.5295 89.7023 63.6846 88.6299 63.6846V83.6846C91.6343 83.6846 94.6458 83.2479 97.5405 82.2057L90.7661 63.388ZM88.6299 63.6846C88.5018 63.6846 88.693 63.6663 89.0591 63.8134C89.4495 63.9702 89.7794 64.2114 89.9941 64.4378C90.1832 64.6373 90.1511 64.6852 90.0173 64.377C89.879 64.0584 89.6756 63.4576 89.5011 62.4721L69.8075 65.9595C70.5551 70.1815 72.1382 74.6725 75.479 78.1969C79.0974 82.0141 83.8118 83.6846 88.6299 83.6846V63.6846ZM89.6543 64.2158C89.6543 63.1343 89.8856 61.3292 94.1541 58.9089L84.2893 41.511C75.8013 46.3238 69.6543 53.8559 69.6543 64.2158H89.6543ZM91.1828 60.0158L94.635 59.3253L90.7127 39.7137L87.2605 40.4042L91.1828 60.0158ZM114.57 40.248H124.57V39.3725L124.418 38.5102L114.57 40.248ZM112.4 43.3057V53.3057H115.485L118.034 51.5679L112.4 43.3057ZM108.652 39.9521L98.9696 37.4534L98.6523 38.6826V39.9521H108.652ZM112.104 50.21L113.559 40.3164L113.013 40.236L112.461 40.2163L112.104 50.21ZM113.979 60.1719L104.098 58.6281L104.095 58.6491L104.092 58.6701L113.979 60.1719ZM113.584 86.3096L122.466 90.9038L123.689 88.5394L123.575 85.8799L113.584 86.3096ZM109.737 88.7754L111.381 78.9115L111.267 78.8923L111.152 78.8759L109.737 88.7754ZM107.469 79.0107L117.455 79.5363L117.472 79.2135L117.468 78.8903L107.469 79.0107ZM109.146 51.5908L119.005 53.2634L119.034 53.0884L119.058 52.9125L109.146 51.5908ZM111.414 46.8945C110.744 46.8945 109.831 46.7822 108.821 46.3736C107.788 45.9554 106.898 45.3247 106.203 44.5866C105.535 43.8761 105.164 43.1927 104.969 42.7418C104.779 42.3007 104.728 42.0148 104.722 41.9859L124.418 38.5102C124.035 36.339 123.125 33.3844 120.767 30.8793C118.126 28.0733 114.68 26.8945 111.414 26.8945V46.8945ZM104.57 40.248C104.57 38.3337 105.265 36.8699 105.873 36.014C106.413 35.2522 106.873 34.9712 106.767 35.0434L118.034 51.5679C120.383 49.9664 124.57 46.3323 124.57 40.248H104.57ZM112.4 33.3057H111.414V53.3057H112.4V33.3057ZM111.414 33.3057C112.602 33.3057 115.127 33.76 117.062 36.1102C118.691 38.0887 118.652 39.9496 118.652 39.9521H98.6523C98.6523 42.1904 99.0736 45.728 101.623 48.8244C104.48 52.2924 108.385 53.3057 111.414 53.3057V33.3057ZM118.335 42.4509C118.39 42.2364 118.206 43.2023 117.158 44.3618C116.581 45.0012 115.752 45.682 114.65 46.1847C113.537 46.6921 112.414 46.8945 111.414 46.8945V26.8945C107.789 26.8945 104.577 28.4527 102.316 30.9561C100.348 33.1348 99.4403 35.6295 98.9696 37.4534L118.335 42.4509ZM110.65 60.1036C109.736 59.9692 108.752 59.6538 107.802 59.0958C106.857 58.5403 106.133 57.855 105.609 57.1863C104.628 55.9356 104.437 54.8726 104.422 54.7958C104.396 54.656 104.451 54.8767 104.423 55.6233C104.397 56.3339 104.303 57.3207 104.098 58.6281L123.859 61.7156C124.4 58.251 124.712 54.4741 124.077 51.0983C123.751 49.3612 123.045 47.0118 121.35 44.8487C119.456 42.4325 116.728 40.7823 113.559 40.3164L110.65 60.1036ZM104.092 58.6701C103.143 64.9148 103.066 74.4857 103.593 86.7393L123.575 85.8799C123.05 73.6725 123.236 65.8183 123.865 61.6736L104.092 58.6701ZM104.702 81.7153C104.702 81.7152 105.166 80.7834 106.486 79.9374C108.044 78.9386 109.861 78.658 111.381 78.9115L108.093 98.6393C111.192 99.1558 114.439 98.5957 117.279 96.775C119.881 95.107 121.48 92.8108 122.466 90.9038L104.702 81.7153ZM111.152 78.8759C112.352 79.0475 113.503 79.4791 114.512 80.129C115.493 80.7608 116.168 81.4857 116.605 82.0775C117.032 82.6565 117.264 83.1492 117.377 83.4251C117.436 83.5708 117.474 83.6836 117.497 83.7551C117.519 83.827 117.529 83.8684 117.53 83.874C117.531 83.8795 117.51 83.7873 117.484 83.5734C117.458 83.3629 117.433 83.0707 117.415 82.6855C117.38 81.9052 117.385 80.8679 117.455 79.5363L97.4826 78.4852C97.3038 81.8809 97.3476 85.382 98.0487 88.3999C98.562 90.6092 100.687 97.5841 108.323 98.6749L111.152 78.8759ZM117.468 78.8903C117.341 68.3278 117.89 59.8333 119.005 53.2634L99.2864 49.9183C97.9022 58.0775 97.3337 67.8629 97.4695 79.1312L117.468 78.8903ZM119.058 52.9125C118.879 54.2523 118.349 55.7294 117.317 57.0642C116.312 58.365 115.138 59.1361 114.213 59.5677C112.603 60.3187 111.452 60.193 111.748 60.2036L112.461 40.2163C110.916 40.1611 108.351 40.2327 105.755 41.444C102.517 42.9552 99.7979 46.0344 99.2332 50.2692L119.058 52.9125ZM145.245 62.0459H135.245V62.5618L135.298 63.0749L145.245 62.0459ZM141.201 133.259L150.05 137.916L150.649 136.778L150.941 135.525L141.201 133.259ZM111.02 130.103L101.735 133.816L102.488 135.7L103.916 137.141L111.02 130.103ZM110.428 128.623L100.659 126.486L100.003 129.486L101.143 132.337L110.428 128.623ZM118.516 129.511L111.445 136.582L111.971 137.108L112.569 137.55L118.516 129.511ZM138.637 110.277L128.713 109.048L128.661 109.461L128.645 109.876L138.637 110.277ZM140.018 83.1533H150.018V67.1265L135.622 74.1712L140.018 83.1533ZM121.376 75.7559L130.824 72.4781L130.763 72.3036L130.696 72.1314L121.376 75.7559ZM129.069 52.873L128.121 42.9181L126.31 43.0906L124.675 43.8901L129.069 52.873ZM133.212 52.4785V42.4785H132.737L132.264 42.5236L133.212 52.4785ZM137.749 53.958L132.286 62.3341L134.776 63.958H137.749V53.958ZM138.439 53.958V63.958H143.277L146.28 60.165L138.439 53.958ZM129.957 58.2979L131.092 48.3625L126.7 47.8605L123.372 50.7721L129.957 58.2979ZM131.93 79.5039L129.353 89.1663L130.619 89.5039H131.93V79.5039ZM138.637 69.542H148.637V69.1788L148.61 68.8166L138.637 69.542ZM133.409 58.6924L132.274 68.6277L132.84 68.6924H133.409V58.6924ZM141.497 61.5908C140.621 61.5908 139.649 61.4326 138.674 61.0438C137.702 60.6565 136.919 60.1179 136.327 59.5676C135.219 58.5371 134.898 57.5876 134.895 57.5792C134.872 57.5156 134.98 57.8124 135.082 58.6583C135.178 59.4691 135.245 60.5814 135.245 62.0459H155.245C155.245 58.24 154.94 54.2288 153.721 50.83C153.094 49.0791 151.992 46.8226 149.946 44.9209C147.677 42.8109 144.715 41.5908 141.497 41.5908V61.5908ZM135.298 63.0749C135.629 66.2706 135.837 74.422 135.837 88.1836H155.837C155.837 74.7225 155.651 65.4488 155.192 61.0169L135.298 63.0749ZM135.837 88.1836C135.837 104.355 134.345 118.6 131.461 130.993L150.941 135.525C154.238 121.353 155.837 105.547 155.837 88.1836H135.837ZM132.352 128.601C131.561 130.105 130.96 130.598 130.811 130.703C130.744 130.749 130.733 130.746 130.756 130.739C130.776 130.733 130.723 130.755 130.549 130.755V150.755C139.76 150.755 146.228 145.179 150.05 137.916L132.352 128.601ZM130.549 130.755C128.549 130.755 124.473 129.473 118.123 123.064L103.916 137.141C111.638 144.935 120.581 150.755 130.549 150.755V130.755ZM120.304 126.389L119.713 124.909L101.143 132.337L101.735 133.816L120.304 126.389ZM120.197 130.76C120.191 130.784 119.937 132.023 118.633 133.327C117.078 134.882 115.109 135.467 113.584 135.467V115.467C110.415 115.467 107.098 116.578 104.491 119.185C102.134 121.541 101.124 124.358 100.659 126.486L120.197 130.76ZM113.584 135.467C112.693 135.467 111.958 135.343 111.438 135.222C110.911 135.099 110.487 134.951 110.188 134.833C109.611 134.606 109.218 134.378 109.062 134.283C108.755 134.098 108.681 134.015 108.92 134.21C109.364 134.574 110.178 135.315 111.445 136.582L125.587 122.44C124.157 121.01 122.802 119.729 121.602 118.745C121.019 118.267 120.254 117.678 119.389 117.156C119.015 116.931 116.722 115.467 113.584 115.467V135.467ZM112.569 137.55C115.274 139.552 117.964 141.273 120.59 142.528C123.111 143.733 126.247 144.837 129.661 144.837V124.837C130.445 124.837 130.408 125.054 129.214 124.483C128.125 123.962 126.557 123.021 124.463 121.471L112.569 137.55ZM129.661 144.837H131.535V124.837H129.661V144.837ZM131.535 144.837C136.442 144.837 140.003 142.189 142.13 139.487C144.08 137.01 145.224 134.072 145.975 131.475C147.502 126.192 148.291 119.076 148.629 110.679L128.645 109.876C128.324 117.852 127.601 123.015 126.762 125.919C126.329 127.416 126.076 127.547 126.415 127.117C126.93 126.462 128.666 124.837 131.535 124.837V144.837ZM148.561 111.507C149.537 103.625 150.018 95.3212 150.018 86.6055H130.018C130.018 94.5916 129.577 102.069 128.713 109.048L148.561 111.507ZM150.018 86.6055V83.1533H130.018V86.6055H150.018ZM135.622 74.1712C134.375 74.7814 133.481 75.1322 132.895 75.3169C132.253 75.519 132.295 75.4219 132.817 75.4219V95.4219C136.934 95.4219 141.068 93.7724 144.413 92.1355L135.622 74.1712ZM132.817 75.4219C132.642 75.4219 132.526 75.4088 132.461 75.3983C132.428 75.3929 132.405 75.3879 132.392 75.3846C132.385 75.3829 132.38 75.3815 132.377 75.3806C132.374 75.3797 132.373 75.3792 132.373 75.3792C132.373 75.3791 132.374 75.3794 132.375 75.3801C132.377 75.3808 132.379 75.3818 132.382 75.383C132.388 75.3856 132.393 75.3883 132.397 75.3906C132.407 75.3964 132.397 75.3924 132.367 75.3665C132.244 75.2632 131.56 74.6008 130.824 72.4781L111.928 79.0336C113.428 83.355 115.768 87.5255 119.46 90.6442C123.321 93.9063 127.962 95.4219 132.817 95.4219V75.4219ZM130.696 72.1314C130.241 70.9608 129.995 69.695 129.995 68.2598H109.995C109.995 72.085 110.67 75.8165 112.056 79.3803L130.696 72.1314ZM129.995 68.2598C129.995 65.9952 130.457 64.7315 130.877 64.0188C131.269 63.3547 131.959 62.5918 133.463 61.856L124.675 43.8901C120.13 46.1133 116.283 49.3943 113.65 53.8591C111.046 58.2753 109.995 63.2255 109.995 68.2598H129.995ZM130.017 62.828L134.16 62.4335L132.264 42.5236L128.121 42.9181L130.017 62.828ZM133.212 62.4785C132.862 62.4785 132.573 62.4185 132.38 62.3557C132.199 62.2967 132.168 62.2566 132.286 62.3341L143.212 45.5819C140.394 43.7443 137.013 42.4785 133.212 42.4785V62.4785ZM137.749 63.958H138.439V43.958H137.749V63.958ZM146.28 60.165C146.649 59.6983 146.645 59.7939 146.263 60.0899C146.052 60.253 145.582 60.5897 144.862 60.9042C144.132 61.2226 142.975 61.5908 141.497 61.5908V41.5908C137.87 41.5908 135.258 43.3161 134.019 44.2754C132.618 45.3604 131.479 46.6396 130.599 47.751L146.28 60.165ZM123.372 50.7721C117.877 55.5804 116.012 62.307 116.012 68.8516H136.012C136.012 67.3814 136.219 66.5537 136.365 66.164C136.434 65.9781 136.49 65.8903 136.508 65.8636C136.524 65.8398 136.532 65.8326 136.542 65.8236L123.372 50.7721ZM116.012 68.8516C116.012 72.8063 116.631 77.0949 118.75 80.9082C121.062 85.0696 124.774 87.9452 129.353 89.1663L134.506 69.8416C134.698 69.8926 135.071 70.0351 135.48 70.3528C135.889 70.6713 136.127 71.0051 136.233 71.1953C136.323 71.3577 136.26 71.31 136.177 70.9074C136.094 70.5024 136.012 69.8383 136.012 68.8516H116.012ZM131.93 89.5039H133.212V69.5039H131.93V89.5039ZM133.212 89.5039C135.7 89.5039 138.35 88.9139 140.806 87.4103C143.239 85.9209 144.931 83.8735 146.063 81.7959C148.162 77.9413 148.637 73.443 148.637 69.542H128.637C128.637 70.7769 128.55 71.6076 128.458 72.1143C128.363 72.643 128.301 72.5934 128.498 72.231C128.725 71.8137 129.288 71.0115 130.365 70.3523C131.465 69.6788 132.532 69.5039 133.212 69.5039V89.5039ZM148.61 68.8166C148.318 64.7911 147.637 60.5784 145.944 57.0642C144.102 53.2401 140.107 48.6924 133.409 48.6924V68.6924C131.938 68.6924 130.459 68.186 129.303 67.2967C128.296 66.5218 127.94 65.7743 127.926 65.7454C127.906 65.7021 128.05 66.0022 128.226 66.8419C128.395 67.6533 128.555 68.7761 128.663 70.2673L148.61 68.8166ZM134.545 48.7571L131.092 48.3625L128.822 68.2332L132.274 68.6277L134.545 48.7571ZM167.931 52.084L168.72 42.1152L168.644 42.1092L168.568 42.1043L167.931 52.084ZM176.019 76.0518L185.978 76.947L185.982 76.9024L185.986 76.8576L176.019 76.0518ZM175.229 84.8301L185.093 86.4741L185.156 86.1015L185.189 85.7253L175.229 84.8301ZM171.777 88.1836L171.039 98.1563L171.064 98.1581L171.089 98.1599L171.777 88.1836ZM169.41 84.6328L179.371 85.5117L179.378 85.4322L179.384 85.3526L169.41 84.6328ZM170.101 75.0654L160.134 74.2494L160.13 74.2975L160.127 74.3456L170.101 75.0654ZM167.142 57.9033L166.294 67.8673L166.377 67.8744L166.461 67.8802L167.142 57.9033ZM160.435 75.46L150.5 74.3137L150.413 75.0696L150.441 75.8301L160.435 75.46ZM160.829 86.1123L170.784 87.0604L170.847 86.4026L170.822 85.7422L160.829 86.1123ZM157.476 88.2822L156.667 98.2495L157.227 98.2949L157.788 98.2773L157.476 88.2822ZM154.714 77.8271L164.676 78.6976L164.76 77.7404L164.659 76.7848L154.714 77.8271ZM152.347 55.2402L142.384 54.3739L142.301 55.3291L142.401 56.2826L152.347 55.2402ZM155.996 52.7744L156.472 42.7857L155.949 42.7608L155.426 42.7907L155.996 52.7744ZM158.462 57.2129L148.503 58.1182L149.146 65.1917L156.037 66.9143L158.462 57.2129ZM158.856 57.3115L156.431 67.0129L162.642 68.5656L166.652 63.5754L158.856 57.3115ZM167.141 62.0528C166.716 62.0191 166.001 61.7841 165.434 61.2667C164.998 60.8697 165.152 60.7595 165.459 61.6678C166.147 63.7077 166.643 67.9282 166.051 75.2459L185.986 76.8576C186.644 68.7228 186.416 61.2224 184.409 55.2731C183.367 52.1868 181.68 49.0149 178.91 46.4891C176.009 43.8428 172.466 42.4119 168.72 42.1152L167.141 62.0528ZM166.059 75.1565L165.27 83.9348L185.189 85.7253L185.978 76.947L166.059 75.1565ZM165.366 83.1861C165.371 83.1513 165.427 82.8201 165.65 82.3178C165.88 81.7998 166.318 81.0336 167.103 80.2711C168.956 78.4711 171.177 78.1184 172.465 78.2073L171.089 98.1599C174.285 98.3803 178.035 97.5344 181.038 94.6166C183.735 91.9973 184.711 88.7714 185.093 86.4741L165.366 83.1861ZM172.516 78.2109C173.851 78.3098 176.436 79.0418 178.174 81.6503C178.901 82.7395 179.188 83.7557 179.301 84.4069C179.41 85.0396 179.377 85.446 179.371 85.5117L159.449 83.7539C159.259 85.9086 159.33 89.4393 161.534 92.7443C164.062 96.5363 167.928 97.9258 171.039 98.1563L172.516 78.2109ZM179.384 85.3526L180.075 75.7852L160.127 74.3456L159.436 83.913L179.384 85.3526ZM180.067 75.8814C180.545 70.0512 180.62 64.7854 179.906 60.6427C179.557 58.6198 178.883 55.9935 177.317 53.6044C175.537 50.8896 172.363 48.2361 167.822 47.9265L166.461 67.8802C165.125 67.789 163.807 67.3518 162.669 66.6089C161.588 65.9027 160.938 65.0984 160.591 64.5694C159.995 63.6598 160.052 63.2034 160.197 64.0409C160.469 65.6189 160.577 68.8356 160.134 74.2494L180.067 75.8814ZM167.99 47.9393C163.469 47.5546 159.941 49.6495 157.745 51.954C155.77 54.0257 154.579 56.5021 153.805 58.5265C152.23 62.6514 151.216 68.1138 150.5 74.3137L170.369 76.6062C171.034 70.8386 171.829 67.3912 172.489 65.6639C172.833 64.7622 172.866 65.0769 172.223 65.7513C171.359 66.6586 169.269 68.1205 166.294 67.8673L167.99 47.9393ZM150.441 75.8301L150.836 86.4824L170.822 85.7422L170.428 75.0898L150.441 75.8301ZM150.874 85.1642C150.962 84.2375 151.255 83.0847 151.947 81.9193C152.646 80.7419 153.56 79.8766 154.46 79.2947C155.315 78.741 156.064 78.501 156.49 78.3966C156.712 78.3424 156.882 78.3158 156.989 78.3026C157.096 78.2894 157.157 78.2873 157.163 78.2871L157.788 98.2773C159.698 98.2177 162.591 97.8548 165.325 96.0861C168.572 93.9848 170.443 90.6465 170.784 87.0604L150.874 85.1642ZM158.284 78.3149C159.162 78.3862 160.126 78.6237 161.078 79.0956C162.026 79.5658 162.773 80.1751 163.328 80.7845C164.368 81.9266 164.619 82.93 164.629 82.9666C164.654 83.0602 164.575 82.7872 164.548 81.9699C164.523 81.1885 164.552 80.1136 164.676 78.6976L144.752 76.9567C144.428 80.6612 144.38 84.6235 145.292 88.0744C145.762 89.8535 146.663 92.1885 148.541 94.2511C150.628 96.5428 153.478 97.9909 156.667 98.2495L158.284 78.3149ZM164.659 76.7848L162.292 54.1979L142.401 56.2826L144.768 78.8695L164.659 76.7848ZM162.309 56.1065C162.231 57.0004 161.959 58.1102 161.309 59.2362C160.653 60.3715 159.794 61.2091 158.956 61.7754C157.451 62.7924 156.28 62.7745 156.567 62.7581L155.426 42.7907C153.411 42.9058 150.481 43.3647 147.759 45.2036C144.555 47.3686 142.701 50.7314 142.384 54.3739L162.309 56.1065ZM155.52 62.7631C154.03 62.6921 152.503 62.2005 151.184 61.2754C149.943 60.4051 149.251 59.4105 148.907 58.7898C148.321 57.7362 148.42 57.2044 148.503 58.1182L168.421 56.3075C168.241 54.3281 167.797 51.61 166.39 49.0769C164.734 46.0965 161.432 43.0219 156.472 42.7857L155.52 62.7631ZM156.037 66.9143L156.431 67.0129L161.282 47.6101L160.887 47.5115L156.037 66.9143ZM166.652 63.5754C167.611 62.3813 168.205 61.9832 168.336 61.9079C168.38 61.8824 168.291 61.9405 168.075 61.995C167.85 62.0518 167.578 62.0818 167.294 62.0637L168.568 42.1043C160.786 41.6076 154.944 46.2162 151.061 51.0476L166.652 63.5754ZM191.8 51.7881V41.7881H190.81L189.839 41.9823L191.8 51.7881ZM199.296 61.75L209.041 63.9923L209.521 61.9068L209.105 59.8075L199.296 61.75ZM188.348 72.8955V62.8955H178.348V72.8955H188.348ZM188.348 73.1914H178.348V74.0638L178.499 74.9231L188.348 73.1914ZM205.214 73.1914L201.428 63.9359L197.324 65.6145L195.813 69.7823L205.214 73.1914ZM207.384 72.3037V62.3037H205.417L203.597 63.0482L207.384 72.3037ZM210.146 75.6572H220.146V74.7816L219.993 73.9194L210.146 75.6572ZM200.578 87.1973L202.421 97.026L204.06 96.7187L205.511 95.8962L200.578 87.1973ZM195.844 88.085V98.085H196.773L197.687 97.9137L195.844 88.085ZM183.12 75.9531L173.407 78.3318L173.522 78.7991L173.68 79.2532L183.12 75.9531ZM190.32 52.084L188.359 42.2782L186.884 42.5732L185.561 43.2893L190.32 52.084ZM188.15 64.2158L178.458 61.7543L178.15 62.9658V64.2158H188.15ZM188.15 64.4131H178.15V68.4257L180.924 71.3253L188.15 64.4131ZM190.32 66.6816L183.094 73.5939L186.047 76.6816H190.32V66.6816ZM193.082 62.6377L202.614 65.6601L203.082 64.1851V62.6377H193.082ZM193.082 61.0596H203.082V60.2583L202.954 59.4672L193.082 61.0596ZM191.8 61.7881C191.153 61.7881 190.362 61.6257 189.607 61.2199C188.89 60.8348 188.532 60.407 188.445 60.2912C188.376 60.1997 188.516 60.36 188.749 60.967C188.977 61.5633 189.24 62.4481 189.486 63.6925L209.105 59.8075C208.318 55.8312 206.976 51.6545 204.426 48.2659C201.566 44.4645 197.218 41.7881 191.8 41.7881V61.7881ZM189.551 59.5077C188.913 62.2767 188.188 63.1557 188.114 63.2335C188.11 63.2382 188.146 63.1998 188.226 63.143C188.309 63.0852 188.411 63.0271 188.525 62.9793C188.774 62.8745 188.891 62.8955 188.742 62.8955V82.8955C194.025 82.8955 198.904 80.927 202.636 76.9848C206.081 73.3474 207.969 68.6537 209.041 63.9923L189.551 59.5077ZM188.742 62.8955H188.348V82.8955H188.742V62.8955ZM178.348 72.8955V73.1914H198.348V72.8955H178.348ZM178.499 74.9231C179.208 78.9552 180.71 83.3072 183.925 86.7491C187.429 90.5004 192.025 92.167 196.731 92.167V72.167C196.705 72.167 196.988 72.1656 197.434 72.3472C197.902 72.5383 198.287 72.8254 198.541 73.0971C198.768 73.3404 198.765 73.4365 198.655 73.179C198.541 72.9124 198.357 72.3729 198.197 71.4597L178.499 74.9231ZM196.731 92.167C207.222 92.167 212.286 83.0216 214.615 76.6005L195.813 69.7823C195.411 70.8896 195.038 71.6932 194.726 72.2536C194.411 72.8201 194.213 73.0382 194.198 73.0545C194.194 73.0589 194.426 72.8126 194.939 72.5696C195.486 72.3106 196.118 72.167 196.731 72.167V92.167ZM209 82.4469L211.17 81.5592L203.597 63.0482L201.428 63.9359L209 82.4469ZM207.384 82.3037C206.426 82.3037 205.274 82.1103 204.1 81.5558C202.926 81.0014 202.047 80.236 201.44 79.4992C200.352 78.1781 200.246 77.0997 200.298 77.3951L219.993 73.9194C219.651 71.9791 218.887 69.2239 216.878 66.785C214.521 63.9222 211.099 62.3037 207.384 62.3037V82.3037ZM200.146 75.6572C200.146 74.8733 200.51 74.6695 200.055 75.2174C199.507 75.8793 198.228 77.034 195.646 78.4983L205.511 95.8962C212.508 91.9286 220.146 85.5063 220.146 75.6572H200.146ZM198.735 77.3685L194.001 78.2562L197.687 97.9137L202.421 97.026L198.735 77.3685ZM195.844 78.085C195.736 78.085 195.679 78.0756 195.663 78.0724C195.658 78.0715 195.654 78.0707 195.652 78.0702C195.65 78.0698 195.65 78.0695 195.649 78.0695C195.649 78.0694 195.65 78.0695 195.65 78.0696C195.65 78.0698 195.651 78.0699 195.65 78.0698C195.65 78.0697 195.649 78.0693 195.647 78.0684C195.645 78.0675 195.642 78.0659 195.637 78.0634C195.628 78.0587 195.612 78.0494 195.587 78.0332C195.54 78.0017 195.45 77.9362 195.322 77.8146C194.754 77.273 193.675 75.8417 192.56 72.653L173.68 79.2532C177.055 88.9073 183.826 98.085 195.844 98.085V78.085ZM192.833 73.5744C192.139 70.7395 191.937 68.9446 191.937 67.9639H171.937C171.937 71.1915 172.523 74.7227 173.407 78.3318L192.833 73.5744ZM191.937 67.9639V66.6816H171.937V67.9639H191.937ZM191.937 66.6816C191.937 64.7339 192.333 63.6285 192.704 62.9823C193.059 62.3649 193.696 61.6275 195.08 60.8787L185.561 43.2893C181.355 45.5652 177.801 48.7732 175.361 53.0216C172.937 57.2413 171.937 61.9223 171.937 66.6816H191.937ZM192.281 61.8898L193.761 61.5939L189.839 41.9823L188.359 42.2782L192.281 61.8898ZM178.15 64.2158V64.4131H198.15V64.2158H178.15ZM180.924 71.3253L183.094 73.5939L197.547 59.7694L195.377 57.5009L180.924 71.3253ZM190.32 76.6816C195.826 76.6816 198.918 72.9068 200.008 71.3103C201.278 69.4509 202.074 67.3639 202.614 65.6601L183.55 59.6153C183.235 60.6075 183.143 60.5425 183.492 60.031C183.687 59.7466 184.238 58.9962 185.275 58.2631C186.407 57.4632 188.141 56.6816 190.32 56.6816V76.6816ZM203.082 62.6377V61.0596H183.082V62.6377H203.082ZM202.954 59.4672C202.753 58.2167 202.415 56.5174 201.737 54.8991C201.407 54.1132 200.741 52.7107 199.479 51.3615C198.114 49.9032 195.521 48.002 191.8 48.002V68.002C188.342 68.002 185.999 66.2281 184.873 65.0246C183.849 63.9302 183.409 62.9099 183.293 62.6336C183.042 62.0346 183.083 61.864 183.21 62.6519L202.954 59.4672ZM191.8 48.002H191.208V68.002H191.8V48.002ZM191.208 48.002C187.214 48.002 184.54 50.1307 183.278 51.4342C182.001 52.7534 181.205 54.1784 180.731 55.1403C179.757 57.12 179.037 59.475 178.458 61.7543L197.843 66.6774C198.063 65.8111 198.257 65.1481 198.42 64.6595C198.59 64.1497 198.684 63.9541 198.676 63.9705C198.668 63.9868 198.602 64.1208 198.466 64.3303C198.336 64.5301 198.073 64.9062 197.646 65.3464C196.886 66.1321 194.709 68.002 191.208 68.002V48.002ZM219.516 53.7607L209.74 55.8663L211.44 63.7607H219.516V53.7607ZM219.812 53.7607V63.7607H224.456L227.452 60.2125L219.812 53.7607ZM227.899 49.3223L229.676 39.4814L228.795 39.3223H227.899V49.3223ZM235.001 53.7607L244.521 56.8208L245.001 55.3284V53.7607H235.001ZM231.943 56.5225L228.932 66.0583L230.402 66.5225H231.943V56.5225ZM228.195 55.3389L231.207 45.803L229.737 45.3389H228.195V55.3389ZM227.209 55.3389V45.3389H226.285L225.376 45.5083L227.209 55.3389ZM221.39 83.9424L231.207 85.8426L231.39 84.9012V83.9424H221.39ZM212.315 49.7168L202.829 46.5545L201.775 49.7168L202.829 52.8791L212.315 49.7168ZM215.472 57.3496C213.765 57.3496 212.234 56.7953 211.076 56.0034C210.031 55.288 209.516 54.541 209.356 54.2874C209.188 54.0202 209.203 53.9669 209.318 54.2917C209.426 54.5963 209.576 55.1037 209.74 55.8663L229.291 51.6552C228.737 49.083 227.867 46.1464 226.272 43.6174C224.613 40.9874 221.125 37.3496 215.472 37.3496V57.3496ZM219.516 63.7607H219.812V43.7607H219.516V63.7607ZM227.452 60.2125C228.106 59.4382 228.487 59.2159 228.518 59.1986C228.526 59.1943 228.459 59.2312 228.325 59.2667C228.188 59.303 228.039 59.3223 227.899 59.3223V39.3223C221.146 39.3223 215.888 42.9079 212.171 47.3089L227.452 60.2125ZM226.123 59.1631C226.972 59.3166 227.54 59.4675 227.884 59.5805C228.247 59.7 228.201 59.7253 227.926 59.553C227.651 59.3815 226.907 58.8615 226.213 57.8114C225.452 56.6598 225.001 55.2369 225.001 53.7607H245.001C245.001 48.161 241.56 44.4894 238.526 42.593C235.755 40.8616 232.521 39.9951 229.676 39.4814L226.123 59.1631ZM225.481 50.7007C225.515 50.5937 225.866 49.5165 227.09 48.411C228.523 47.1169 230.335 46.5225 231.943 46.5225V66.5225C234.999 66.5225 238.044 65.4678 240.496 63.2531C242.739 61.227 243.895 58.7689 244.521 56.8208L225.481 50.7007ZM234.955 46.9866L231.207 45.803L225.184 64.8747L228.932 66.0583L234.955 46.9866ZM228.195 45.3389H227.209V65.3389H228.195V45.3389ZM225.376 45.5083C220.975 46.3288 218.062 49.1218 216.347 51.6895C214.707 54.1459 213.749 56.951 213.127 59.5139C211.873 64.6785 211.39 71.4373 211.39 79.3066H231.39C231.39 71.9208 231.876 67.0574 232.562 64.2327C232.91 62.8009 233.165 62.5197 232.979 62.798C232.719 63.1874 231.503 64.7105 229.042 65.1695L225.376 45.5083ZM211.39 79.3066V83.9424H231.39V79.3066H211.39ZM211.572 82.0422C211.578 82.0126 211.63 81.7441 211.809 81.329C211.989 80.9097 212.34 80.2436 212.982 79.5327C213.651 78.7921 214.549 78.1021 215.66 77.6241C216.757 77.1514 217.796 77 218.628 77V97C222.009 97 225.357 95.6705 227.824 92.9385C229.979 90.5535 230.828 87.8027 231.207 85.8426L211.572 82.0422ZM218.628 77C219.611 77 222.016 77.3733 223.91 79.6216C224.725 80.589 225.116 81.544 225.297 82.1892C225.471 82.8081 225.472 83.2075 225.472 83.252H205.472C205.472 85.6635 205.943 89.3358 208.612 92.5043C211.557 96.0021 215.541 97 218.628 97V77ZM225.472 83.252V71.8105H205.472V83.252H225.472ZM225.472 71.8105C225.472 62.5904 224.323 54.1156 221.802 46.5545L202.829 52.8791C204.517 57.9429 205.472 64.1974 205.472 71.8105H225.472ZM221.802 52.8791C221.593 53.5075 220.984 54.8274 219.499 55.9414C217.969 57.0889 216.401 57.3496 215.472 57.3496V37.3496C212.964 37.3496 210.081 38.0048 207.499 39.9414C204.962 41.8445 203.564 44.3479 202.829 46.5545L221.802 52.8791ZM280.668 41.2344V51.2344H283.472L285.867 49.7764L280.668 41.2344ZM279.188 41.2344L273.114 49.178L275.803 51.2344H279.188V41.2344ZM272.58 43.7002L263.044 40.6889L262.58 42.1588V43.7002H272.58ZM272.58 44.6865H262.58V49.3245L266.121 52.3204L272.58 44.6865ZM273.862 45.7715L267.403 53.4053L270.199 55.7715H273.862V45.7715ZM281.556 43.9961V33.9961H279.307L277.275 34.9587L281.556 43.9961ZM284.712 47.4482L294.199 50.6105L294.992 48.2309L294.568 45.7586L284.712 47.4482ZM276.624 53.8594L271.004 45.5881L269.708 46.4685L268.744 47.7029L276.624 53.8594ZM274.158 57.0156L266.278 50.8592L264.158 53.5725V57.0156H274.158ZM274.158 58.6924H264.158V68.6924H274.158V58.6924ZM285.698 54.8457V44.8457H283.666L281.795 45.6388L285.698 54.8457ZM285.896 54.8457L288.836 45.2879L287.399 44.8457H285.896V54.8457ZM288.46 58.002L297.255 62.7601L298.46 60.5335V58.002H288.46ZM281.95 78.8135L289.543 85.3214L291.95 82.5127V78.8135H281.95ZM279.188 80.3916L276.842 90.1124L278.617 90.5409L280.429 90.3144L279.188 80.3916ZM278.794 64.2158L288.484 66.6877L291.835 53.5513L278.295 54.2283L278.794 64.2158ZM274.849 64.4131V74.4131H275.098L275.348 74.4006L274.849 64.4131ZM268.24 57.6074H258.24V58.1852L258.307 58.7591L268.24 57.6074ZM271.101 51.0977L279.751 56.1148L284.862 47.3031L275.957 42.3561L271.101 51.0977ZM274.454 34.3301L273.263 24.4013L272.104 24.5404L271.008 24.9426L274.454 34.3301ZM276.92 34.0342L278.111 43.963L286.92 42.9059V34.0342H276.92ZM280.076 30.0283C278.941 30.0283 276.447 29.5957 274.521 27.2715C273.697 26.277 273.302 25.2977 273.119 24.6324C272.941 23.9911 272.937 23.5629 272.937 23.4805H292.937C292.937 21.198 292.502 17.6259 289.922 14.5112C287.043 11.0363 283.118 10.0283 280.076 10.0283V30.0283ZM272.937 23.4805V38.0781H292.937V23.4805H272.937ZM272.937 38.0781C272.937 36.3763 273.527 34.9238 274.249 33.9185C274.577 33.4627 274.889 33.1555 275.099 32.9732C275.307 32.7918 275.448 32.7052 275.469 32.6924L285.867 49.7764C288.768 48.011 292.937 44.2808 292.937 38.0781H272.937ZM280.668 31.2344H279.188V51.2344H280.668V31.2344ZM285.263 33.2908C283.611 32.0272 280.461 29.9521 276.328 29.9521V49.9521C274.934 49.9521 273.957 49.5829 273.544 49.3978C273.122 49.2083 272.972 49.0693 273.114 49.178L285.263 33.2908ZM276.328 29.9521H275.145V49.9521H276.328V29.9521ZM275.145 29.9521C269.695 29.9521 266.634 33.6719 265.56 35.2423C264.317 37.0595 263.552 39.0802 263.044 40.6889L282.116 46.7115C282.397 45.8215 282.455 45.9681 282.066 46.536C281.846 46.857 279.674 49.9521 275.145 49.9521V29.9521ZM262.58 43.7002V44.6865H282.58V43.7002H262.58ZM266.121 52.3204L267.403 53.4053L280.322 38.1376L279.039 37.0527L266.121 52.3204ZM273.862 55.7715H274.158V35.7715H273.862V55.7715ZM274.158 55.7715C278.262 55.7715 282.183 54.7642 285.837 53.0335L277.275 34.9587C275.931 35.5952 274.921 35.7715 274.158 35.7715V55.7715ZM281.556 53.9961C280.85 53.9961 279.904 53.874 278.868 53.4426C277.812 53.0023 276.924 52.3478 276.247 51.6068C275.597 50.8959 275.247 50.2247 275.07 49.8028C274.98 49.5891 274.927 49.4209 274.897 49.3136C274.868 49.2059 274.857 49.1441 274.856 49.1379L294.568 45.7586C294.198 43.5984 293.319 40.6398 291.007 38.1114C288.392 35.251 284.916 33.9961 281.556 33.9961V53.9961ZM275.225 44.286C275.494 43.4788 275.817 42.8764 276.03 42.516C276.253 42.1387 276.458 41.8588 276.59 41.6879C276.727 41.5105 276.839 41.3836 276.904 41.3122C276.971 41.2383 277.015 41.1942 277.027 41.1823C277.029 41.1801 276.827 41.3731 276.281 41.8062C275.219 42.648 273.498 43.8931 271.004 45.5881L282.244 62.1306C284.878 60.3407 287.071 58.7747 288.705 57.4794C289.506 56.844 290.348 56.137 291.09 55.4032C291.46 55.0375 291.937 54.536 292.408 53.9267C292.788 53.4354 293.644 52.2735 294.199 50.6105L275.225 44.286ZM268.744 47.7029L266.278 50.8592L282.038 63.1721L284.504 60.0158L268.744 47.7029ZM264.158 57.0156V58.6924H284.158V57.0156H264.158ZM274.158 68.6924H275.44V48.6924H274.158V68.6924ZM275.44 68.6924C277.348 68.6924 279.087 68.1254 279.44 68.0178C280.254 67.7697 281.166 67.4471 282.108 67.094C284.014 66.3793 286.531 65.3539 289.601 64.0526L281.795 45.6388C278.816 46.902 276.599 47.7999 275.085 48.3674C274.318 48.6554 273.848 48.8137 273.611 48.8861C273.489 48.9231 273.535 48.9048 273.696 48.8691C273.722 48.8634 274.432 48.6924 275.44 48.6924V68.6924ZM285.698 64.8457H285.896V44.8457H285.698V64.8457ZM282.955 64.4035C282.511 64.2671 281.222 63.7678 280.058 62.3352C278.806 60.7943 278.46 59.1142 278.46 58.002H298.46C298.46 55.3116 297.687 52.3164 295.58 49.7234C293.561 47.2387 290.989 45.9503 288.836 45.2879L282.955 64.4035ZM279.665 53.2438C274.935 61.9869 271.95 70.6236 271.95 78.8135H291.95C291.95 75.2989 293.306 70.0612 297.255 62.7601L279.665 53.2438ZM274.358 72.3056C274.603 72.0187 275.04 71.5969 275.707 71.216C276.393 70.824 277.164 70.5668 277.948 70.4688L280.429 90.3144C284.304 89.83 287.384 87.8404 289.543 85.3214L274.358 72.3056ZM281.535 70.6708C282.098 70.8067 283.567 71.3163 284.831 72.8854C286.119 74.4845 286.328 76.1065 286.328 76.8408H266.328C266.328 79.4821 267.014 82.6493 269.256 85.432C271.473 88.1847 274.372 89.5163 276.842 90.1124L281.535 70.6708ZM286.328 76.8408C286.328 76.8883 286.363 76.1516 286.759 74.122C287.12 72.2757 287.686 69.8139 288.484 66.6877L269.104 61.744C268.258 65.0617 267.591 67.9261 267.13 70.2882C266.704 72.4669 266.328 74.8206 266.328 76.8408H286.328ZM278.295 54.2283L274.349 54.4256L275.348 74.4006L279.293 74.2033L278.295 54.2283ZM274.849 54.4131C274.849 54.4131 274.935 54.413 275.09 54.4384C275.247 54.4642 275.474 54.5159 275.748 54.6182C276.339 54.8388 276.951 55.2198 277.461 55.7453C278.445 56.7588 278.292 57.4762 278.174 56.4557L258.307 58.7591C258.715 62.2758 259.926 66.396 263.113 69.678C266.509 73.1759 270.861 74.4131 274.849 74.4131V54.4131ZM278.24 57.6074C278.24 58.2061 278.175 58.6629 278.128 58.9226C278.08 59.1933 278.029 59.3748 278.008 59.4463C277.97 59.5736 277.979 59.5136 278.111 59.2137C278.376 58.6092 278.887 57.6038 279.751 56.1148L262.45 46.0805C261.407 47.8793 260.488 49.6027 259.8 51.1682C259.293 52.3222 258.24 54.8092 258.24 57.6074H278.24ZM275.957 42.3561C275.738 42.2342 276.035 42.3517 276.347 42.8704C276.489 43.1077 276.577 43.338 276.624 43.5215C276.67 43.6973 276.662 43.7705 276.662 43.7002H256.662C256.662 46.8917 257.397 50.1609 259.197 53.1603C260.987 56.1448 263.505 58.3173 266.244 59.8392L275.957 42.3561ZM276.662 43.7002C276.662 43.6245 276.671 43.7375 276.594 43.9602C276.513 44.1918 276.394 44.3818 276.299 44.4967C276.136 44.6928 276.381 44.2751 277.9 43.7176L271.008 24.9426C267.332 26.2919 263.682 28.3894 260.921 31.7089C258.023 35.1946 256.662 39.3666 256.662 43.7002H276.662ZM275.646 44.2589L278.111 43.963L275.728 24.1054L273.263 24.4013L275.646 44.2589ZM286.92 34.0342V23.7764H266.92V34.0342H286.92ZM286.92 23.7764C286.92 23.8208 286.919 24.2202 286.745 24.8392C286.564 25.4843 286.173 26.4393 285.358 27.4067C283.465 29.655 281.059 30.0283 280.076 30.0283V10.0283C276.989 10.0283 273.005 11.0263 270.06 14.524C267.392 17.6925 266.92 21.3648 266.92 23.7764H286.92Z" fill="white" mask="url(#path-1-outside-1_46_226)"/>
</svg>
