<svg width="289" height="145" viewBox="0 0 289 145" fill="none" xmlns="http://www.w3.org/2000/svg">
<mask id="path-1-outside-1_47_227" maskUnits="userSpaceOnUse" x="-10" y="-10" width="309" height="165" fill="black">
<rect fill="white" x="-10" y="-10" width="309" height="165"/>
<path d="M3.70703 1.30176C5.08789 1.30176 6.33724 3.27441 7.45508 7.21973H8.04688C10.2826 5.51009 13.4059 4.49089 17.417 4.16211C29.0557 4.16211 36.8477 14.6829 40.793 35.7246L42.2725 52.1963C42.2725 71.0023 35.5654 83.2327 22.1514 88.8877L17.0225 89.4795H16.8252C15.3786 89.4795 13.2087 88.9863 10.3154 88V88.8877L10.6113 90.7617C10.6113 91.6823 9.69076 92.6029 7.84961 93.5234C5.35091 93.5234 4.10156 90.8275 4.10156 85.4355C2.39193 62.3555 1.53711 48.1852 1.53711 42.9248L2.52344 13.9268C2.52344 10.9678 1.80013 7.71289 0.353516 4.16211C0.353516 2.64974 1.47135 1.69629 3.70703 1.30176ZM7.45508 42.5303L8.93457 75.1777C10.5785 80.8327 12.9785 83.6602 16.1348 83.6602H18.6992C22.25 83.6602 26.1624 80.9642 30.4365 75.5723C34.1846 69.5885 36.0586 62.5199 36.0586 54.3662V49.1387C36.0586 35.9876 33.3626 24.9079 27.9707 15.8994C24.8145 12.1514 21.9212 10.2773 19.291 10.2773H15.543C11.3346 10.2773 8.93457 12.8747 8.34277 18.0693L7.45508 42.5303ZM57.4619 52.7881C61.1442 52.7881 63.6429 56.1087 64.958 62.75C63.2484 70.1803 59.7305 73.8955 54.4043 73.8955H54.0098V74.1914C55.0618 80.1751 57.8564 83.167 62.3936 83.167C65.8786 83.167 68.7061 80.1751 70.876 74.1914L73.0459 73.3037C74.4925 73.3037 75.4131 74.4215 75.8076 76.6572C75.8076 80.734 72.6185 84.5807 66.2402 88.1973L61.5059 89.085C55.8509 89.085 51.6097 85.041 48.7822 76.9531C47.9932 73.7311 47.5986 71.068 47.5986 68.9639V67.6816C47.5986 60.9746 50.3932 56.1087 55.9824 53.084L57.4619 52.7881ZM53.8125 65.2158V65.4131L55.9824 67.6816C56.9688 67.6816 57.8893 66.3337 58.7441 63.6377V62.0596C58.4154 60.0212 57.988 59.002 57.4619 59.002H56.8701C55.8838 59.002 54.8646 61.0732 53.8125 65.2158ZM81.3311 50.125C83.1722 50.125 84.5202 53.1497 85.375 59.1992C88.597 67.4844 90.8984 72.4489 92.2793 74.0928H92.5752C94.4163 58.1143 96.6849 50.125 99.3809 50.125H99.7754C101.551 50.8483 102.438 51.9004 102.438 53.2812C100.795 56.5033 98.9535 67.583 96.915 86.5205C95.5342 87.7699 94.5807 88.3945 94.0547 88.3945C92.4766 88.3945 90.2409 84.5479 87.3477 76.8545C82.0215 67.2542 78.9967 59.2979 78.2734 52.9854C78.2734 51.8675 79.2926 50.9141 81.3311 50.125ZM115.754 52.7881C119.436 52.7881 121.935 56.1087 123.25 62.75C121.54 70.1803 118.022 73.8955 112.696 73.8955H112.302V74.1914C113.354 80.1751 116.148 83.167 120.686 83.167C124.171 83.167 126.998 80.1751 129.168 74.1914L131.338 73.3037C132.785 73.3037 133.705 74.4215 134.1 76.6572C134.1 80.734 130.91 84.5807 124.532 88.1973L119.798 89.085C114.143 89.085 109.902 85.041 107.074 76.9531C106.285 73.7311 105.891 71.068 105.891 68.9639V67.6816C105.891 60.9746 108.685 56.1087 114.274 53.084L115.754 52.7881ZM112.104 65.2158V65.4131L114.274 67.6816C115.261 67.6816 116.181 66.3337 117.036 63.6377V62.0596C116.707 60.0212 116.28 59.002 115.754 59.002H115.162C114.176 59.002 113.157 61.0732 112.104 65.2158ZM143.568 0.611328C144.555 0.677083 145.475 1.49902 146.33 3.07715C145.87 3.80046 145.574 5.11556 145.442 7.02246L145.344 8.30469L145.936 47.166C145.607 64.7884 145.804 77.7093 146.527 85.9287L146.725 86.7178C146.133 87.9671 145.179 88.5589 143.864 88.4932C140.905 88.2959 139.722 84.2191 140.313 76.2627C139.919 71.9229 139.722 51.9661 139.722 16.3926C139.327 14.2227 139.229 11.3623 139.426 7.81152V7.41699C139.755 2.74837 141.135 0.479818 143.568 0.611328ZM166.55 53.9717C172.205 56.0101 175.197 62.2568 175.525 72.7119V73.3037C175.262 82.0492 172.994 87.4082 168.72 89.3809L165.958 89.7754C158.922 88.0658 155.404 82.7725 155.404 73.8955V73.5996C155.404 63.9993 158.495 57.5882 164.676 54.3662L166.55 53.9717ZM161.224 72.7119V74.8818C161.947 81.0628 163.854 84.1533 166.944 84.1533C168.72 82.1807 169.607 78.3669 169.607 72.7119V72.1201C169.279 65.0843 168.161 61.2376 166.254 60.5801C162.9 62.0924 161.224 66.1364 161.224 72.7119ZM196.041 51.5059C202.682 51.5059 208.337 56.7992 213.006 67.3857L214.387 73.8955C214.387 81.8519 209.192 86.5205 198.803 87.9014H198.112C195.745 87.9014 193.608 87.2767 191.701 86.0273H190.715C191.701 113.25 192.194 131.53 192.194 140.867C191.603 143.169 190.55 144.319 189.038 144.319C186.934 144.319 185.882 142.643 185.882 139.289V138.007C185.882 127.881 185.52 110.225 184.797 85.041C183.942 73.8626 183.515 65.2816 183.515 59.2979V57.2266C183.515 53.873 184.534 52.1963 186.572 52.1963H187.953C189.137 52.9196 189.729 53.8402 189.729 54.958C191.833 52.9196 193.378 51.9004 194.364 51.9004L196.041 51.5059ZM192.293 68.0762C191.109 77.3477 192.852 81.9834 197.521 81.9834H199.099C204.425 81.9834 207.548 79.4847 208.469 74.4873V73.5996C208.469 69.194 206.167 64.6569 201.564 59.9883C199.658 58.2786 197.915 57.4238 196.337 57.4238C194.167 57.2923 192.819 60.8431 192.293 68.0762ZM228.59 52.7881C232.272 52.7881 234.771 56.1087 236.086 62.75C234.376 70.1803 230.858 73.8955 225.532 73.8955H225.138V74.1914C226.19 80.1751 228.984 83.167 233.521 83.167C237.007 83.167 239.834 80.1751 242.004 74.1914L244.174 73.3037C245.62 73.3037 246.541 74.4215 246.936 76.6572C246.936 80.734 243.746 84.5807 237.368 88.1973L232.634 89.085C226.979 89.085 222.738 85.041 219.91 76.9531C219.121 73.7311 218.727 71.068 218.727 68.9639V67.6816C218.727 60.9746 221.521 56.1087 227.11 53.084L228.59 52.7881ZM224.94 65.2158V65.4131L227.11 67.6816C228.097 67.6816 229.017 66.3337 229.872 63.6377V62.0596C229.543 60.0212 229.116 59.002 228.59 59.002H227.998C227.012 59.002 225.993 61.0732 224.94 65.2158ZM252.262 48.3496C254.037 48.3496 255.385 50.4867 256.306 54.7607H256.602C259.1 51.8018 261.796 50.3223 264.689 50.3223C269.424 51.1771 271.791 52.6566 271.791 54.7607C271.199 56.6019 270.18 57.5225 268.733 57.5225L264.985 56.3389H263.999C260.119 57.0622 258.18 65.0514 258.18 80.3066V84.9424C257.785 86.9808 256.865 88 255.418 88C253.314 88 252.262 86.7507 252.262 84.252V72.8105C252.262 64.3939 251.21 57.0293 249.105 50.7168C249.632 49.1387 250.684 48.3496 252.262 48.3496ZM285.205 81.6875C286.717 81.6875 287.77 82.641 288.361 84.5479C288.361 85.9287 287.211 87.1781 284.909 88.2959C283.2 88.2959 282.18 87.1452 281.852 84.8438C282.838 82.7396 283.956 81.6875 285.205 81.6875Z"/>
</mask>
<path d="M3.70703 1.30176C5.08789 1.30176 6.33724 3.27441 7.45508 7.21973H8.04688C10.2826 5.51009 13.4059 4.49089 17.417 4.16211C29.0557 4.16211 36.8477 14.6829 40.793 35.7246L42.2725 52.1963C42.2725 71.0023 35.5654 83.2327 22.1514 88.8877L17.0225 89.4795H16.8252C15.3786 89.4795 13.2087 88.9863 10.3154 88V88.8877L10.6113 90.7617C10.6113 91.6823 9.69076 92.6029 7.84961 93.5234C5.35091 93.5234 4.10156 90.8275 4.10156 85.4355C2.39193 62.3555 1.53711 48.1852 1.53711 42.9248L2.52344 13.9268C2.52344 10.9678 1.80013 7.71289 0.353516 4.16211C0.353516 2.64974 1.47135 1.69629 3.70703 1.30176ZM7.45508 42.5303L8.93457 75.1777C10.5785 80.8327 12.9785 83.6602 16.1348 83.6602H18.6992C22.25 83.6602 26.1624 80.9642 30.4365 75.5723C34.1846 69.5885 36.0586 62.5199 36.0586 54.3662V49.1387C36.0586 35.9876 33.3626 24.9079 27.9707 15.8994C24.8145 12.1514 21.9212 10.2773 19.291 10.2773H15.543C11.3346 10.2773 8.93457 12.8747 8.34277 18.0693L7.45508 42.5303ZM57.4619 52.7881C61.1442 52.7881 63.6429 56.1087 64.958 62.75C63.2484 70.1803 59.7305 73.8955 54.4043 73.8955H54.0098V74.1914C55.0618 80.1751 57.8564 83.167 62.3936 83.167C65.8786 83.167 68.7061 80.1751 70.876 74.1914L73.0459 73.3037C74.4925 73.3037 75.4131 74.4215 75.8076 76.6572C75.8076 80.734 72.6185 84.5807 66.2402 88.1973L61.5059 89.085C55.8509 89.085 51.6097 85.041 48.7822 76.9531C47.9932 73.7311 47.5986 71.068 47.5986 68.9639V67.6816C47.5986 60.9746 50.3932 56.1087 55.9824 53.084L57.4619 52.7881ZM53.8125 65.2158V65.4131L55.9824 67.6816C56.9688 67.6816 57.8893 66.3337 58.7441 63.6377V62.0596C58.4154 60.0212 57.988 59.002 57.4619 59.002H56.8701C55.8838 59.002 54.8646 61.0732 53.8125 65.2158ZM81.3311 50.125C83.1722 50.125 84.5202 53.1497 85.375 59.1992C88.597 67.4844 90.8984 72.4489 92.2793 74.0928H92.5752C94.4163 58.1143 96.6849 50.125 99.3809 50.125H99.7754C101.551 50.8483 102.438 51.9004 102.438 53.2812C100.795 56.5033 98.9535 67.583 96.915 86.5205C95.5342 87.7699 94.5807 88.3945 94.0547 88.3945C92.4766 88.3945 90.2409 84.5479 87.3477 76.8545C82.0215 67.2542 78.9967 59.2979 78.2734 52.9854C78.2734 51.8675 79.2926 50.9141 81.3311 50.125ZM115.754 52.7881C119.436 52.7881 121.935 56.1087 123.25 62.75C121.54 70.1803 118.022 73.8955 112.696 73.8955H112.302V74.1914C113.354 80.1751 116.148 83.167 120.686 83.167C124.171 83.167 126.998 80.1751 129.168 74.1914L131.338 73.3037C132.785 73.3037 133.705 74.4215 134.1 76.6572C134.1 80.734 130.91 84.5807 124.532 88.1973L119.798 89.085C114.143 89.085 109.902 85.041 107.074 76.9531C106.285 73.7311 105.891 71.068 105.891 68.9639V67.6816C105.891 60.9746 108.685 56.1087 114.274 53.084L115.754 52.7881ZM112.104 65.2158V65.4131L114.274 67.6816C115.261 67.6816 116.181 66.3337 117.036 63.6377V62.0596C116.707 60.0212 116.28 59.002 115.754 59.002H115.162C114.176 59.002 113.157 61.0732 112.104 65.2158ZM143.568 0.611328C144.555 0.677083 145.475 1.49902 146.33 3.07715C145.87 3.80046 145.574 5.11556 145.442 7.02246L145.344 8.30469L145.936 47.166C145.607 64.7884 145.804 77.7093 146.527 85.9287L146.725 86.7178C146.133 87.9671 145.179 88.5589 143.864 88.4932C140.905 88.2959 139.722 84.2191 140.313 76.2627C139.919 71.9229 139.722 51.9661 139.722 16.3926C139.327 14.2227 139.229 11.3623 139.426 7.81152V7.41699C139.755 2.74837 141.135 0.479818 143.568 0.611328ZM166.55 53.9717C172.205 56.0101 175.197 62.2568 175.525 72.7119V73.3037C175.262 82.0492 172.994 87.4082 168.72 89.3809L165.958 89.7754C158.922 88.0658 155.404 82.7725 155.404 73.8955V73.5996C155.404 63.9993 158.495 57.5882 164.676 54.3662L166.55 53.9717ZM161.224 72.7119V74.8818C161.947 81.0628 163.854 84.1533 166.944 84.1533C168.72 82.1807 169.607 78.3669 169.607 72.7119V72.1201C169.279 65.0843 168.161 61.2376 166.254 60.5801C162.9 62.0924 161.224 66.1364 161.224 72.7119ZM196.041 51.5059C202.682 51.5059 208.337 56.7992 213.006 67.3857L214.387 73.8955C214.387 81.8519 209.192 86.5205 198.803 87.9014H198.112C195.745 87.9014 193.608 87.2767 191.701 86.0273H190.715C191.701 113.25 192.194 131.53 192.194 140.867C191.603 143.169 190.55 144.319 189.038 144.319C186.934 144.319 185.882 142.643 185.882 139.289V138.007C185.882 127.881 185.52 110.225 184.797 85.041C183.942 73.8626 183.515 65.2816 183.515 59.2979V57.2266C183.515 53.873 184.534 52.1963 186.572 52.1963H187.953C189.137 52.9196 189.729 53.8402 189.729 54.958C191.833 52.9196 193.378 51.9004 194.364 51.9004L196.041 51.5059ZM192.293 68.0762C191.109 77.3477 192.852 81.9834 197.521 81.9834H199.099C204.425 81.9834 207.548 79.4847 208.469 74.4873V73.5996C208.469 69.194 206.167 64.6569 201.564 59.9883C199.658 58.2786 197.915 57.4238 196.337 57.4238C194.167 57.2923 192.819 60.8431 192.293 68.0762ZM228.59 52.7881C232.272 52.7881 234.771 56.1087 236.086 62.75C234.376 70.1803 230.858 73.8955 225.532 73.8955H225.138V74.1914C226.19 80.1751 228.984 83.167 233.521 83.167C237.007 83.167 239.834 80.1751 242.004 74.1914L244.174 73.3037C245.62 73.3037 246.541 74.4215 246.936 76.6572C246.936 80.734 243.746 84.5807 237.368 88.1973L232.634 89.085C226.979 89.085 222.738 85.041 219.91 76.9531C219.121 73.7311 218.727 71.068 218.727 68.9639V67.6816C218.727 60.9746 221.521 56.1087 227.11 53.084L228.59 52.7881ZM224.94 65.2158V65.4131L227.11 67.6816C228.097 67.6816 229.017 66.3337 229.872 63.6377V62.0596C229.543 60.0212 229.116 59.002 228.59 59.002H227.998C227.012 59.002 225.993 61.0732 224.94 65.2158ZM252.262 48.3496C254.037 48.3496 255.385 50.4867 256.306 54.7607H256.602C259.1 51.8018 261.796 50.3223 264.689 50.3223C269.424 51.1771 271.791 52.6566 271.791 54.7607C271.199 56.6019 270.18 57.5225 268.733 57.5225L264.985 56.3389H263.999C260.119 57.0622 258.18 65.0514 258.18 80.3066V84.9424C257.785 86.9808 256.865 88 255.418 88C253.314 88 252.262 86.7507 252.262 84.252V72.8105C252.262 64.3939 251.21 57.0293 249.105 50.7168C249.632 49.1387 250.684 48.3496 252.262 48.3496ZM285.205 81.6875C286.717 81.6875 287.77 82.641 288.361 84.5479C288.361 85.9287 287.211 87.1781 284.909 88.2959C283.2 88.2959 282.18 87.1452 281.852 84.8438C282.838 82.7396 283.956 81.6875 285.205 81.6875Z" fill="black"/>
<path d="M3.70703 1.30176V-8.69824H2.83144L1.96918 -8.54608L3.70703 1.30176ZM7.45508 7.21973L-2.16619 9.94575L-0.10523 17.2197H7.45508V7.21973ZM8.04688 7.21973V17.2197H11.4322L14.1214 15.1633L8.04688 7.21973ZM17.417 4.16211V-5.83789H17.0078L16.6001 -5.80447L17.417 4.16211ZM40.793 35.7246L50.7529 34.83L50.71 34.3527L50.6217 33.8817L40.793 35.7246ZM42.2725 52.1963H52.2725V51.7481L52.2324 51.3017L42.2725 52.1963ZM22.1514 88.8877L23.2976 98.8218L24.7182 98.6579L26.036 98.1023L22.1514 88.8877ZM17.0225 89.4795V99.4795H17.5975L18.1687 99.4136L17.0225 89.4795ZM10.3154 88L13.5422 78.5349L0.31543 74.0258V88H10.3154ZM10.3154 88.8877H0.31543V89.6723L0.4378 90.4473L10.3154 88.8877ZM10.6113 90.7617H20.6113V89.9771L20.489 89.2021L10.6113 90.7617ZM7.84961 93.5234V103.523H10.2103L12.3217 102.468L7.84961 93.5234ZM4.10156 85.4355H14.1016V85.0657L14.0742 84.6968L4.10156 85.4355ZM1.53711 42.9248L-8.45711 42.5849L-8.46289 42.7548V42.9248H1.53711ZM2.52344 13.9268L12.5177 14.2667L12.5234 14.0968V13.9268H2.52344ZM0.353516 4.16211H-9.64648V6.12098L-8.90741 7.93508L0.353516 4.16211ZM7.45508 42.5303L-2.53834 42.1676L-2.55314 42.5754L-2.53467 42.983L7.45508 42.5303ZM8.93457 75.1777L-1.05518 75.6304L-1.00114 76.8229L-0.667927 77.9692L8.93457 75.1777ZM30.4365 75.5723L38.2731 81.7842L38.6172 81.3501L38.9113 80.8806L30.4365 75.5723ZM27.9707 15.8994L36.5512 10.7637L36.138 10.0734L35.6198 9.45806L27.9707 15.8994ZM8.34277 18.0693L-1.59296 16.9374L-1.63665 17.3209L-1.65065 17.7067L8.34277 18.0693ZM3.70703 11.3018C1.49904 11.3018 -0.219724 10.4683 -1.28198 9.67163C-2.23841 8.95431 -2.68309 8.26663 -2.7685 8.13177C-2.90689 7.91327 -2.62882 8.31295 -2.16619 9.94575L17.0763 4.4937C16.4211 2.18119 15.5156 -0.378111 14.1279 -2.56927C12.9548 -4.42157 9.68166 -8.69824 3.70703 -8.69824V11.3018ZM7.45508 17.2197H8.04688V-2.78027H7.45508V17.2197ZM14.1214 15.1633C14.3127 15.017 15.3511 14.365 18.2339 14.1287L16.6001 -5.80447C11.4607 -5.38321 6.25245 -3.99685 1.97237 -0.723852L14.1214 15.1633ZM17.417 14.1621C19.6387 14.1621 21.6733 14.925 23.954 18.0044C26.5527 21.5132 29.1141 27.7003 30.9642 37.5675L50.6217 33.8817C48.5265 22.7073 45.2193 13.1131 40.026 6.10106C34.5147 -1.34032 26.834 -5.83789 17.417 -5.83789V14.1621ZM30.8331 36.6192L32.3126 53.0909L52.2324 51.3017L50.7529 34.83L30.8331 36.6192ZM32.2725 52.1963C32.2725 60.4797 30.7868 66.4481 28.4741 70.6653C26.2549 74.7121 22.9934 77.6804 18.2668 79.673L26.036 98.1023C34.7234 94.44 41.5225 88.4657 46.0103 80.282C50.4047 72.2687 52.2725 62.7189 52.2725 52.1963H32.2725ZM21.0051 78.9536L15.8762 79.5454L18.1687 99.4136L23.2976 98.8218L21.0051 78.9536ZM17.0225 79.4795H16.8252V99.4795H17.0225V79.4795ZM16.8252 79.4795C17.1329 79.4795 17.031 79.5178 16.329 79.3583C15.685 79.2119 14.77 78.9535 13.5422 78.5349L7.08869 97.4651C10.1288 98.5015 13.6241 99.4795 16.8252 99.4795V79.4795ZM0.31543 88V88.8877H20.3154V88H0.31543ZM0.4378 90.4473L0.733698 92.3213L20.489 89.2021L20.1931 87.3281L0.4378 90.4473ZM0.611328 90.7617C0.611328 87.6344 2.22015 85.7012 2.84983 85.0715C3.45905 84.4623 3.82747 84.3542 3.37747 84.5792L12.3217 102.468C13.7129 101.772 15.4622 100.743 16.992 99.2136C18.5422 97.6634 20.6113 94.8096 20.6113 90.7617H0.611328ZM7.84961 83.5234C9.13829 83.5234 10.6743 83.911 12.0491 84.8999C13.3226 85.8159 13.9035 86.8476 14.1117 87.2969C14.3102 87.7252 14.2814 87.854 14.2186 87.4474C14.1605 87.0711 14.1016 86.4228 14.1016 85.4355H-5.89844C-5.89844 88.5887 -5.58249 92.3657 -4.03453 95.7061C-3.20168 97.5033 -1.83998 99.546 0.370544 101.136C2.68238 102.799 5.31158 103.523 7.84961 103.523V83.5234ZM14.0742 84.6968C12.3526 61.4553 11.5371 47.7259 11.5371 42.9248H-8.46289C-8.46289 48.6446 -7.56879 63.2556 -5.87111 86.1743L14.0742 84.6968ZM11.5313 43.2647L12.5177 14.2667L-7.47078 13.5868L-8.45711 42.5849L11.5313 43.2647ZM12.5234 13.9268C12.5234 9.35345 11.4115 4.80005 9.61444 0.389141L-8.90741 7.93508C-7.81122 10.6257 -7.47656 12.5821 -7.47656 13.9268H12.5234ZM10.3535 4.16211C10.3535 5.04043 10.1847 6.12816 9.67093 7.26151C9.15362 8.40264 8.42284 9.28865 7.68136 9.92109C6.3378 11.0671 5.20533 11.1919 5.44488 11.1496L1.96918 -8.54608C-0.0269432 -8.19382 -2.83617 -7.39503 -5.29757 -5.2956C-8.15805 -2.85577 -9.64648 0.576939 -9.64648 4.16211H10.3535ZM-2.53467 42.983L-1.05518 75.6304L18.9243 74.725L17.4448 42.0776L-2.53467 42.983ZM-0.667927 77.9692C0.341706 81.4423 1.85328 85.0769 4.34376 88.0109C7.07564 91.2293 11.0957 93.6602 16.1348 93.6602V73.6602C16.9015 73.6602 17.7161 73.8468 18.4447 74.2176C19.1329 74.5678 19.4935 74.953 19.5913 75.0682C19.6762 75.1682 19.5634 75.0624 19.3359 74.5854C19.1125 74.1167 18.8332 73.4051 18.5371 72.3863L-0.667927 77.9692ZM16.1348 93.6602H18.6992V73.6602H16.1348V93.6602ZM18.6992 93.6602C27.2036 93.6602 33.7276 87.5185 38.2731 81.7842L22.5999 69.3603C20.829 71.5944 19.4853 72.8093 18.6225 73.4038C17.7808 73.9838 17.8657 73.6602 18.6992 73.6602V93.6602ZM38.9113 80.8806C43.8025 73.0718 46.0586 64.1008 46.0586 54.3662H26.0586C26.0586 60.9389 24.5666 66.1053 21.9618 70.2639L38.9113 80.8806ZM46.0586 54.3662V49.1387H26.0586V54.3662H46.0586ZM46.0586 49.1387C46.0586 34.6315 43.0798 21.6713 36.5512 10.7637L19.3903 21.0352C23.6455 28.1445 26.0586 37.3438 26.0586 49.1387H46.0586ZM35.6198 9.45806C32.0763 5.25011 26.6069 0.277344 19.291 0.277344V20.2773C18.162 20.2773 17.6753 19.8676 17.9971 20.076C18.3457 20.3018 19.1355 20.9323 20.3216 22.3408L35.6198 9.45806ZM19.291 0.277344H15.543V20.2773H19.291V0.277344ZM15.543 0.277344C11.2256 0.277344 6.69352 1.70369 3.2422 5.43868C0.0569079 8.88578 -1.16616 13.1911 -1.59296 16.9374L18.2785 19.2013C18.4435 17.7529 18.7164 18.1622 17.9311 19.012C17.5039 19.4744 16.9551 19.8467 16.3837 20.0713C15.8503 20.281 15.5155 20.2773 15.543 20.2773V0.277344ZM-1.65065 17.7067L-2.53834 42.1676L17.4485 42.8929L18.3362 18.432L-1.65065 17.7067ZM57.4619 52.7881V42.7881H56.4717L55.5008 42.9823L57.4619 52.7881ZM64.958 62.75L74.7034 64.9923L75.1832 62.9068L74.7675 60.8075L64.958 62.75ZM54.0098 73.8955V63.8955H44.0098V73.8955H54.0098ZM54.0098 74.1914H44.0098V75.0638L44.1608 75.9231L54.0098 74.1914ZM70.876 74.1914L67.0896 64.9359L62.9864 66.6145L61.475 70.7823L70.876 74.1914ZM73.0459 73.3037V63.3037H71.0795L69.2596 64.0482L73.0459 73.3037ZM75.8076 76.6572H85.8076V75.7816L85.6555 74.9194L75.8076 76.6572ZM66.2402 88.1973L68.0831 98.026L69.7221 97.7187L71.1726 96.8962L66.2402 88.1973ZM61.5059 89.085V99.085H62.4353L63.3487 98.9137L61.5059 89.085ZM48.7822 76.9531L39.0693 79.3318L39.1837 79.7991L39.3424 80.2532L48.7822 76.9531ZM55.9824 53.084L54.0213 43.2782L52.546 43.5732L51.2229 44.2893L55.9824 53.084ZM53.8125 65.2158L44.1202 62.7543L43.8125 63.9658V65.2158H53.8125ZM53.8125 65.4131H43.8125V69.4257L46.5861 72.3253L53.8125 65.4131ZM55.9824 67.6816L48.756 74.5939L51.7095 77.6816H55.9824V67.6816ZM58.7441 63.6377L68.2764 66.6601L68.7441 65.1851V63.6377H58.7441ZM58.7441 62.0596H68.7441V61.2583L68.6166 60.4672L58.7441 62.0596ZM57.4619 62.7881C56.8156 62.7881 56.0243 62.6257 55.2691 62.2199C54.5522 61.8348 54.1943 61.407 54.1072 61.2912C54.0383 61.1997 54.1784 61.36 54.4108 61.967C54.639 62.5633 54.9021 63.4481 55.1485 64.6925L74.7675 60.8075C73.9801 56.8312 72.638 52.6545 70.0882 49.2659C67.2277 45.4645 62.8805 42.7881 57.4619 42.7881V62.7881ZM55.2126 60.5077C54.5755 63.2767 53.8498 64.1557 53.7761 64.2335C53.7716 64.2382 53.8076 64.1998 53.8885 64.143C53.9709 64.0852 54.0732 64.0271 54.187 63.9793C54.4365 63.8745 54.553 63.8955 54.4043 63.8955V83.8955C59.6875 83.8955 64.5657 81.927 68.2986 77.9848C71.7428 74.3474 73.6308 69.6537 74.7034 64.9923L55.2126 60.5077ZM54.4043 63.8955H54.0098V83.8955H54.4043V63.8955ZM44.0098 73.8955V74.1914H64.0098V73.8955H44.0098ZM44.1608 75.9231C44.8698 79.9552 46.3719 84.3072 49.5869 87.7491C53.0908 91.5004 57.6869 93.167 62.3936 93.167V73.167C62.3674 73.167 62.6505 73.1656 63.0957 73.3472C63.5638 73.5383 63.9489 73.8254 64.2027 74.0971C64.43 74.3404 64.4274 74.4365 64.317 74.179C64.2027 73.9124 64.0192 73.3729 63.8587 72.4597L44.1608 75.9231ZM62.3936 93.167C72.8837 93.167 77.9484 84.0216 80.2769 77.6005L61.475 70.7823C61.0735 71.8896 60.7003 72.6932 60.3882 73.2536C60.0728 73.8201 59.8754 74.0382 59.86 74.0545C59.8559 74.0589 60.0885 73.8126 60.6011 73.5696C61.1476 73.3106 61.78 73.167 62.3936 73.167V93.167ZM74.6623 83.4469L76.8322 82.5592L69.2596 64.0482L67.0896 64.9359L74.6623 83.4469ZM73.0459 83.3037C72.0879 83.3037 70.9364 83.1103 69.7622 82.5558C68.5882 82.0014 67.7088 81.236 67.102 80.4992C66.014 79.1781 65.9077 78.0997 65.9598 78.3951L85.6555 74.9194C85.313 72.9791 84.5491 70.2239 82.5406 67.785C80.183 64.9222 76.7609 63.3037 73.0459 63.3037V83.3037ZM65.8076 76.6572C65.8076 75.8733 66.1717 75.6695 65.7174 76.2174C65.1687 76.8793 63.8904 78.034 61.3078 79.4983L71.1726 96.8962C78.17 92.9286 85.8076 86.5063 85.8076 76.6572H65.8076ZM64.3973 78.3685L59.663 79.2562L63.3487 98.9137L68.0831 98.026L64.3973 78.3685ZM61.5059 79.085C61.3977 79.085 61.3413 79.0756 61.3247 79.0724C61.3198 79.0715 61.3165 79.0707 61.3145 79.0702C61.3126 79.0698 61.3117 79.0695 61.3115 79.0695C61.3114 79.0694 61.3116 79.0695 61.312 79.0696C61.3125 79.0698 61.3127 79.0699 61.3125 79.0698C61.3123 79.0697 61.3112 79.0693 61.3093 79.0684C61.3074 79.0675 61.3041 79.0659 61.2995 79.0634C61.2905 79.0587 61.2739 79.0494 61.2495 79.0332C61.2017 79.0017 61.112 78.9362 60.9845 78.8146C60.4164 78.273 59.3367 76.8417 58.222 73.653L39.3424 80.2532C42.7175 89.9073 49.4877 99.085 61.5059 99.085V79.085ZM58.4952 74.5744C57.8009 71.7395 57.5986 69.9446 57.5986 68.9639H37.5986C37.5986 72.1915 38.1854 75.7227 39.0693 79.3318L58.4952 74.5744ZM57.5986 68.9639V67.6816H37.5986V68.9639H57.5986ZM57.5986 67.6816C57.5986 65.7339 57.995 64.6285 58.3662 63.9823C58.7208 63.3649 59.3583 62.6275 60.7419 61.8787L51.2229 44.2893C47.0173 46.5652 43.463 49.7732 41.023 54.0216C38.5995 58.2413 37.5986 62.9223 37.5986 67.6816H57.5986ZM57.9436 62.8898L59.4231 62.5939L55.5008 42.9823L54.0213 43.2782L57.9436 62.8898ZM43.8125 65.2158V65.4131H63.8125V65.2158H43.8125ZM46.5861 72.3253L48.756 74.5939L63.2088 60.7694L61.0389 58.5009L46.5861 72.3253ZM55.9824 77.6816C61.4879 77.6816 64.5803 73.9068 65.6706 72.3103C66.9404 70.4509 67.7362 68.3639 68.2764 66.6601L49.2118 60.6153C48.8972 61.6075 48.8053 61.5425 49.1546 61.031C49.3488 60.7466 49.9005 59.9962 50.9375 59.2631C52.0691 58.4632 53.8032 57.6816 55.9824 57.6816V77.6816ZM68.7441 63.6377V62.0596H48.7441V63.6377H68.7441ZM68.6166 60.4672C68.4149 59.2167 68.0776 57.5174 67.3989 55.8991C67.0694 55.1132 66.4028 53.7107 65.1407 52.3615C63.7765 50.9032 61.1828 49.002 57.4619 49.002V69.002C54.0041 69.002 51.661 67.2281 50.5352 66.0246C49.5114 64.9302 49.0709 63.9099 48.9551 63.6336C48.7038 63.0346 48.7447 62.864 48.8717 63.6519L68.6166 60.4672ZM57.4619 49.002H56.8701V69.002H57.4619V49.002ZM56.8701 49.002C52.876 49.002 50.2021 51.1307 48.94 52.4342C47.6627 53.7534 46.8667 55.1784 46.3934 56.1403C45.4193 58.12 44.699 60.475 44.1202 62.7543L63.5048 67.6774C63.7248 66.8111 63.9194 66.1481 64.0822 65.6595C64.2522 65.1497 64.3466 64.9541 64.3385 64.9705C64.3305 64.9868 64.2644 65.1208 64.128 65.3303C63.998 65.5301 63.7347 65.9062 63.3084 66.3464C62.5477 67.1321 60.3711 69.002 56.8701 69.002V49.002ZM81.3311 50.125V40.125H79.4631L77.7211 40.7993L81.3311 50.125ZM85.375 59.1992L75.4734 60.5984L75.6353 61.7447L76.055 62.8237L85.375 59.1992ZM92.2793 74.0928L84.6222 80.5247L87.6194 84.0928H92.2793V74.0928ZM92.5752 74.0928V84.0928H101.489L102.509 75.2375L92.5752 74.0928ZM99.7754 50.125L103.548 40.8641L101.734 40.125H99.7754V50.125ZM102.438 53.2812L111.346 57.826L112.438 55.6849V53.2812H102.438ZM96.915 86.5205L103.624 93.9359L106.45 91.3793L106.858 87.5907L96.915 86.5205ZM87.3477 76.8545L96.7077 73.3345L96.4488 72.6462L96.0921 72.0032L87.3477 76.8545ZM78.2734 52.9854H68.2734V53.5564L68.3384 54.1237L78.2734 52.9854ZM81.3311 60.125C78.7479 60.125 76.8145 58.9689 75.7379 57.9477C75.2512 57.4862 74.9556 57.0757 74.8043 56.8424C74.7246 56.7195 74.6705 56.6234 74.6382 56.5628C74.6057 56.5018 74.5902 56.467 74.5889 56.4641C74.5885 56.4633 74.6269 56.5506 74.6919 56.7511C74.7559 56.9488 74.8352 57.2237 74.9237 57.5883C75.1029 58.3266 75.2922 59.3165 75.4734 60.5984L95.2766 57.8001C94.8091 54.4911 94.1043 51.1219 92.8569 48.323C91.9211 46.2231 88.6857 40.125 81.3311 40.125V60.125ZM76.055 62.8237C77.7016 67.058 79.1685 70.5887 80.445 73.3423C81.5677 75.7641 82.9715 78.5596 84.6222 80.5247L99.9363 67.6609C100.195 67.9686 100.153 67.9917 99.8065 67.3698C99.5067 66.8318 99.1029 66.0367 98.5901 64.9307C97.5652 62.7197 96.2704 59.6256 94.695 55.5748L76.055 62.8237ZM92.2793 84.0928H92.5752V64.0928H92.2793V84.0928ZM102.509 75.2375C103.414 67.3861 104.37 62.0436 105.277 58.8485C105.752 57.1748 106.043 56.7242 105.933 56.901C105.865 57.0098 105.438 57.6921 104.498 58.4173C103.455 59.222 101.694 60.125 99.3809 60.125V40.125C93.2817 40.125 90.0279 44.6028 88.9453 46.345C87.5943 48.5191 86.6968 51.0645 86.0378 53.3854C84.6765 58.1795 83.5774 64.8209 82.6409 72.9481L102.509 75.2375ZM99.3809 60.125H99.7754V40.125H99.3809V60.125ZM96.0024 59.3859C95.9475 59.3635 95.0578 59.0051 94.1298 57.9053C93.0463 56.6211 92.4385 54.9431 92.4385 53.2812H112.438C112.438 50.2386 111.387 47.3441 109.416 45.0078C107.6 42.8559 105.379 41.6098 103.548 40.8641L96.0024 59.3859ZM93.5309 48.7365C92.5653 50.6291 91.9242 52.8692 91.4529 54.8036C90.9366 56.9221 90.4422 59.4664 89.96 62.3683C88.9939 68.1821 88.0002 75.9022 86.9725 85.4503L106.858 87.5907C107.868 78.2013 108.814 70.9128 109.689 65.6468C110.128 63.0088 110.529 60.9955 110.884 59.5386C111.284 57.8975 111.49 57.5444 111.346 57.826L93.5309 48.7365ZM90.2059 79.1051C89.6917 79.5703 89.5428 79.654 89.684 79.5614C89.7583 79.5127 90.0932 79.2956 90.6396 79.0649C91.1024 78.8695 92.3363 78.3945 94.0547 78.3945V98.3945C97.5062 98.3945 100.045 96.6835 100.645 96.2906C101.739 95.5734 102.757 94.72 103.624 93.9359L90.2059 79.1051ZM94.0547 78.3945C95.9332 78.3945 97.3814 78.972 98.2639 79.459C99.1196 79.9313 99.6407 80.4224 99.8492 80.6326C100.23 81.0163 100.208 81.1171 99.8402 80.4846C99.1441 79.287 98.093 77.0183 96.7077 73.3345L77.9877 80.3745C79.4955 84.3841 81.0089 87.8853 82.5485 90.5344C83.2988 91.8253 84.3126 93.3686 85.6465 94.7139C86.7441 95.821 89.6227 98.3945 94.0547 98.3945V78.3945ZM96.0921 72.0032C91.0067 62.8369 88.7113 56.2357 88.2084 51.847L68.3384 54.1237C69.2822 62.36 73.0363 71.6716 78.6033 81.7058L96.0921 72.0032ZM88.2734 52.9854C88.2734 55.852 86.8446 57.8223 85.8694 58.7346C85.0676 59.4847 84.5147 59.6157 84.941 59.4507L77.7211 40.7993C76.109 41.4234 74.0273 42.4257 72.2063 44.1292C70.2119 45.9949 68.2734 49.0009 68.2734 52.9854H88.2734ZM115.754 52.7881V42.7881H114.764L113.793 42.9823L115.754 52.7881ZM123.25 62.75L132.995 64.9923L133.475 62.9068L133.06 60.8075L123.25 62.75ZM112.302 73.8955V63.8955H102.302V73.8955H112.302ZM112.302 74.1914H102.302V75.0638L102.453 75.9231L112.302 74.1914ZM129.168 74.1914L125.382 64.9359L121.278 66.6145L119.767 70.7823L129.168 74.1914ZM131.338 73.3037V63.3037H129.372L127.552 64.0482L131.338 73.3037ZM134.1 76.6572H144.1V75.7816L143.947 74.9194L134.1 76.6572ZM124.532 88.1973L126.375 98.026L128.014 97.7187L129.465 96.8962L124.532 88.1973ZM119.798 89.085V99.085H120.727L121.641 98.9137L119.798 89.085ZM107.074 76.9531L97.3612 79.3318L97.4757 79.7991L97.6344 80.2532L107.074 76.9531ZM114.274 53.084L112.313 43.2782L110.838 43.5732L109.515 44.2893L114.274 53.084ZM112.104 65.2158L102.412 62.7543L102.104 63.9658V65.2158H112.104ZM112.104 65.4131H102.104V69.4257L104.878 72.3253L112.104 65.4131ZM114.274 67.6816L107.048 74.5939L110.002 77.6816H114.274V67.6816ZM117.036 63.6377L126.568 66.6601L127.036 65.1851V63.6377H117.036ZM117.036 62.0596H127.036V61.2583L126.909 60.4672L117.036 62.0596ZM115.754 62.7881C115.108 62.7881 114.316 62.6257 113.561 62.2199C112.844 61.8348 112.486 61.407 112.399 61.2912C112.33 61.1997 112.47 61.36 112.703 61.967C112.931 62.5633 113.194 63.4481 113.44 64.6925L133.06 60.8075C132.272 56.8312 130.93 52.6545 128.38 49.2659C125.52 45.4645 121.172 42.7881 115.754 42.7881V62.7881ZM113.505 60.5077C112.868 63.2767 112.142 64.1557 112.068 64.2335C112.064 64.2382 112.1 64.1998 112.181 64.143C112.263 64.0852 112.365 64.0271 112.479 63.9793C112.728 63.8745 112.845 63.8955 112.696 63.8955V83.8955C117.979 83.8955 122.858 81.927 126.591 77.9848C130.035 74.3474 131.923 69.6537 132.995 64.9923L113.505 60.5077ZM112.696 63.8955H112.302V83.8955H112.696V63.8955ZM102.302 73.8955V74.1914H122.302V73.8955H102.302ZM102.453 75.9231C103.162 79.9552 104.664 84.3072 107.879 87.7491C111.383 91.5004 115.979 93.167 120.686 93.167V73.167C120.659 73.167 120.943 73.1656 121.388 73.3472C121.856 73.5383 122.241 73.8254 122.495 74.0971C122.722 74.3404 122.719 74.4365 122.609 74.179C122.495 73.9124 122.311 73.3729 122.151 72.4597L102.453 75.9231ZM120.686 93.167C131.176 93.167 136.24 84.0216 138.569 77.6005L119.767 70.7823C119.365 71.8896 118.992 72.6932 118.68 73.2536C118.365 73.8201 118.167 74.0382 118.152 74.0545C118.148 74.0589 118.381 73.8126 118.893 73.5696C119.44 73.3106 120.072 73.167 120.686 73.167V93.167ZM132.954 83.4469L135.124 82.5592L127.552 64.0482L125.382 64.9359L132.954 83.4469ZM131.338 83.3037C130.38 83.3037 129.228 83.1103 128.054 82.5558C126.88 82.0014 126.001 81.236 125.394 80.4992C124.306 79.1781 124.2 78.0997 124.252 78.3951L143.947 74.9194C143.605 72.9791 142.841 70.2239 140.833 67.785C138.475 64.9222 135.053 63.3037 131.338 63.3037V83.3037ZM124.1 76.6572C124.1 75.8733 124.464 75.6695 124.009 76.2174C123.461 76.8793 122.182 78.034 119.6 79.4983L129.465 96.8962C136.462 92.9286 144.1 86.5063 144.1 76.6572H124.1ZM122.689 78.3685L117.955 79.2562L121.641 98.9137L126.375 98.026L122.689 78.3685ZM119.798 79.085C119.69 79.085 119.633 79.0756 119.617 79.0724C119.612 79.0715 119.608 79.0707 119.607 79.0702C119.605 79.0698 119.604 79.0695 119.604 79.0695C119.603 79.0694 119.604 79.0695 119.604 79.0696C119.604 79.0698 119.605 79.0699 119.604 79.0698C119.604 79.0697 119.603 79.0693 119.601 79.0684C119.599 79.0675 119.596 79.0659 119.591 79.0634C119.583 79.0587 119.566 79.0494 119.542 79.0332C119.494 79.0017 119.404 78.9362 119.276 78.8146C118.708 78.273 117.629 76.8417 116.514 73.653L97.6344 80.2532C101.009 89.9073 107.78 99.085 119.798 99.085V79.085ZM116.787 74.5744C116.093 71.7395 115.891 69.9446 115.891 68.9639H95.8906C95.8906 72.1915 96.4774 75.7227 97.3612 79.3318L116.787 74.5744ZM115.891 68.9639V67.6816H95.8906V68.9639H115.891ZM115.891 67.6816C115.891 65.7339 116.287 64.6285 116.658 63.9823C117.013 63.3649 117.65 62.6275 119.034 61.8787L109.515 44.2893C105.309 46.5652 101.755 49.7732 99.315 54.0216C96.8915 58.2413 95.8906 62.9223 95.8906 67.6816H115.891ZM116.236 62.8898L117.715 62.5939L113.793 42.9823L112.313 43.2782L116.236 62.8898ZM102.104 65.2158V65.4131H122.104V65.2158H102.104ZM104.878 72.3253L107.048 74.5939L121.501 60.7694L119.331 58.5009L104.878 72.3253ZM114.274 77.6816C119.78 77.6816 122.872 73.9068 123.963 72.3103C125.232 70.4509 126.028 68.3639 126.568 66.6601L107.504 60.6153C107.189 61.6075 107.097 61.5425 107.447 61.031C107.641 60.7466 108.192 59.9962 109.229 59.2631C110.361 58.4632 112.095 57.6816 114.274 57.6816V77.6816ZM127.036 63.6377V62.0596H107.036V63.6377H127.036ZM126.909 60.4672C126.707 59.2167 126.37 57.5174 125.691 55.8991C125.361 55.1132 124.695 53.7107 123.433 52.3615C122.068 50.9032 119.475 49.002 115.754 49.002V69.002C112.296 69.002 109.953 67.2281 108.827 66.0246C107.803 64.9302 107.363 63.9099 107.247 63.6336C106.996 63.0346 107.037 62.864 107.164 63.6519L126.909 60.4672ZM115.754 49.002H115.162V69.002H115.754V49.002ZM115.162 49.002C111.168 49.002 108.494 51.1307 107.232 52.4342C105.955 53.7534 105.159 55.1784 104.685 56.1403C103.711 58.12 102.991 60.475 102.412 62.7543L121.797 67.6774C122.017 66.8111 122.211 66.1481 122.374 65.6595C122.544 65.1497 122.639 64.9541 122.631 64.9705C122.623 64.9868 122.556 65.1208 122.42 65.3303C122.29 65.5301 122.027 65.9062 121.6 66.3464C120.84 67.1321 118.663 69.002 115.162 69.002V49.002ZM143.568 0.611328L144.234 -9.36652L144.171 -9.3707L144.108 -9.37409L143.568 0.611328ZM146.33 3.07715L154.767 8.4459L157.924 3.48487L155.123 -1.68568L146.33 3.07715ZM145.442 7.02246L155.413 7.78943L155.416 7.74997L155.419 7.71048L145.442 7.02246ZM145.344 8.30469L135.373 7.53772L135.338 7.99669L135.345 8.45695L145.344 8.30469ZM145.936 47.166L155.934 47.3525L155.937 47.1832L155.934 47.0137L145.936 47.166ZM146.527 85.9287L136.566 86.8053L136.635 87.5899L136.826 88.3541L146.527 85.9287ZM146.725 86.7178L155.762 90.9986L157.294 87.7644L156.426 84.2924L146.725 86.7178ZM143.864 88.4932L143.199 98.471L143.282 98.4765L143.365 98.4807L143.864 88.4932ZM140.313 76.2627L150.286 77.0044L150.347 76.1803L150.272 75.3573L140.313 76.2627ZM139.722 16.3926H149.722V15.4909L149.56 14.6037L139.722 16.3926ZM139.426 7.81152L149.41 8.36622L149.426 8.08909V7.81152H139.426ZM139.426 7.41699L129.45 6.71451L129.426 7.06532V7.41699H139.426ZM142.903 10.5892C140.669 10.4402 139.119 9.43324 138.338 8.73648C137.642 8.11437 137.432 7.6464 137.537 7.83998L155.123 -1.68568C153.942 -3.8663 150.696 -8.9357 144.234 -9.36652L142.903 10.5892ZM137.893 -2.29161C135.961 0.744818 135.604 4.33646 135.466 6.33444L155.419 7.71048C155.44 7.40803 155.464 7.18034 155.485 7.01826C155.507 6.85332 155.522 6.7872 155.519 6.80108C155.517 6.80928 155.484 6.95959 155.391 7.20866C155.302 7.4485 155.115 7.89792 154.767 8.4459L137.893 -2.29161ZM135.472 6.2555L135.373 7.53772L155.314 9.07165L155.413 7.78943L135.472 6.2555ZM135.345 8.45695L135.937 47.3183L155.934 47.0137L155.343 8.15242L135.345 8.45695ZM135.937 46.9795C135.608 64.6525 135.793 78.0223 136.566 86.8053L156.489 85.0521C155.815 77.3963 155.606 64.9244 155.934 47.3525L135.937 46.9795ZM136.826 88.3541L137.023 89.1431L156.426 84.2924L156.229 83.5034L136.826 88.3541ZM137.687 82.4369C138.023 81.728 138.792 80.533 140.292 79.6022C141.827 78.6495 143.351 78.455 144.364 78.5056L143.365 98.4807C145.692 98.5971 148.351 98.1396 150.839 96.595C153.292 95.0724 154.834 92.9569 155.762 90.9986L137.687 82.4369ZM144.529 78.5153C145.301 78.5667 146.17 78.7596 147.047 79.1664C147.923 79.5731 148.628 80.1104 149.159 80.6581C149.674 81.1896 149.978 81.6804 150.143 81.9945C150.305 82.305 150.36 82.4972 150.361 82.4995C150.363 82.5056 150.33 82.3923 150.291 82.1266C150.253 81.8645 150.214 81.498 150.19 81.0114C150.142 80.0251 150.159 78.7061 150.286 77.0044L130.341 75.5209C130.02 79.832 130.054 84.2858 131.154 88.0757C131.723 90.036 132.763 92.4786 134.797 94.5775C137.032 96.8828 139.979 98.2563 143.199 98.471L144.529 78.5153ZM150.272 75.3573C149.931 71.6055 149.722 52.3217 149.722 16.3926H129.722C129.722 51.6106 129.907 72.2402 130.355 77.1681L150.272 75.3573ZM149.56 14.6037C149.365 13.5296 149.234 11.5477 149.41 8.36622L129.441 7.25682C129.223 11.1769 129.289 14.9157 129.883 18.1814L149.56 14.6037ZM149.426 7.81152V7.41699H129.426V7.81152H149.426ZM149.401 8.11948C149.455 7.35814 149.537 6.931 149.579 6.7584C149.627 6.56266 149.582 6.86861 149.25 7.41358C148.892 8.00159 148.145 8.94943 146.829 9.68649C145.467 10.4496 144.089 10.6541 143.029 10.5968L144.108 -9.37409C141.831 -9.49716 139.368 -9.05845 137.053 -7.76107C134.784 -6.48976 133.214 -4.70764 132.166 -2.98536C130.235 0.187769 129.654 3.82966 129.45 6.71451L149.401 8.11948ZM166.55 53.9717L169.941 44.5642L167.269 43.6011L164.49 44.1862L166.55 53.9717ZM175.525 72.7119H185.525V72.5547L185.52 72.3976L175.525 72.7119ZM175.525 73.3037L185.521 73.6043L185.525 73.4541V73.3037H175.525ZM168.72 89.3809L170.134 99.2804L171.582 99.0735L172.91 98.4605L168.72 89.3809ZM165.958 89.7754L163.597 99.4926L165.467 99.9471L167.372 99.6749L165.958 89.7754ZM164.676 54.3662L162.616 44.5807L161.271 44.8637L160.053 45.4987L164.676 54.3662ZM161.224 74.8818H151.224V75.465L151.291 76.0441L161.224 74.8818ZM166.944 84.1533V94.1533H171.398L174.377 90.843L166.944 84.1533ZM169.607 72.1201H179.607V71.8866L179.597 71.6533L169.607 72.1201ZM166.254 60.5801L169.514 51.1264L165.761 49.8324L162.143 51.4642L166.254 60.5801ZM163.159 63.3792C163.262 63.4164 163.306 63.4459 163.373 63.51C163.46 63.5935 163.708 63.8614 164.016 64.5051C164.686 65.9034 165.389 68.5453 165.53 73.0262L185.52 72.3976C185.166 61.1412 181.823 48.8474 169.941 44.5642L163.159 63.3792ZM165.525 72.7119V73.3037H185.525V72.7119H165.525ZM165.53 73.0031C165.419 76.7001 164.89 78.8675 164.418 79.9838C164.014 80.9378 163.905 80.5892 164.529 80.3013L172.91 98.4605C182.842 93.8767 185.243 82.8492 185.521 73.6043L165.53 73.0031ZM167.306 79.4814L164.544 79.8759L167.372 99.6749L170.134 99.2804L167.306 79.4814ZM168.319 80.0582C166.88 79.7084 166.543 79.2462 166.371 78.9881C166.055 78.5129 165.404 77.1175 165.404 73.8955H145.404C145.404 79.5505 146.512 85.2402 149.714 90.0583C153.061 95.0935 158 98.1327 163.597 99.4926L168.319 80.0582ZM165.404 73.8955V73.5996H145.404V73.8955H165.404ZM165.404 73.5996C165.404 66.1142 167.642 64.0971 169.298 63.2337L160.053 45.4987C149.348 51.0793 145.404 61.8845 145.404 73.5996H165.404ZM166.736 64.1517L168.61 63.7572L164.49 44.1862L162.616 44.5807L166.736 64.1517ZM151.224 72.7119V74.8818H171.224V72.7119H151.224ZM151.291 76.0441C151.718 79.6917 152.603 83.7109 154.686 87.0865C157.087 90.9771 161.273 94.1533 166.944 94.1533V74.1533C167.929 74.1533 169.069 74.4261 170.108 75.0688C171.08 75.6701 171.556 76.3406 171.707 76.5844C171.843 76.8053 171.762 76.7509 171.608 76.2089C171.46 75.686 171.292 74.8791 171.156 73.7196L151.291 76.0441ZM174.377 90.843C176.806 88.1439 178.023 84.9067 178.681 82.0805C179.356 79.1824 179.607 75.997 179.607 72.7119H159.607C159.607 75.0817 159.415 76.6308 159.202 77.5465C158.972 78.5341 158.858 78.1901 159.511 77.4637L174.377 90.843ZM179.607 72.7119V72.1201H159.607V72.7119H179.607ZM179.597 71.6533C179.419 67.8455 179.009 64.2102 178.125 61.1677C177.482 58.9545 175.539 53.2041 169.514 51.1264L162.994 70.0338C160.806 69.2792 159.655 67.8727 159.234 67.2461C158.834 66.6507 158.804 66.3518 158.92 66.7488C159.018 67.0885 159.163 67.7282 159.3 68.7589C159.435 69.771 159.546 71.0375 159.618 72.5869L179.597 71.6533ZM162.143 51.4642C152.971 55.6005 151.224 65.4532 151.224 72.7119H171.224C171.224 71.4797 171.303 70.5273 171.416 69.8146C171.529 69.0972 171.661 68.7165 171.719 68.5775C171.771 68.45 171.723 68.6167 171.466 68.9005C171.189 69.2065 170.805 69.4975 170.365 69.6959L162.143 51.4642ZM196.041 51.5059V41.5059H194.88L193.751 41.7717L196.041 51.5059ZM213.006 67.3857L222.788 65.3107L222.573 64.298L222.156 63.3507L213.006 67.3857ZM214.387 73.8955H224.387V72.8466L224.169 71.8205L214.387 73.8955ZM198.803 87.9014V97.9014H199.464L200.12 97.8142L198.803 87.9014ZM191.701 86.0273L197.181 77.6627L194.685 76.0273H191.701V86.0273ZM190.715 86.0273V76.0273H180.346L180.721 86.3894L190.715 86.0273ZM192.194 140.867L201.879 143.358L202.194 142.132V140.867H192.194ZM184.797 85.041L194.793 84.7539L194.786 84.5159L194.768 84.2785L184.797 85.041ZM187.953 52.1963L193.168 43.6635L190.767 42.1963H187.953V52.1963ZM189.729 54.958H179.729V78.5684L196.686 62.1404L189.729 54.958ZM194.364 51.9004V61.9004H195.525L196.655 61.6346L194.364 51.9004ZM192.293 68.0762L202.212 69.3425L202.247 69.0727L202.267 68.8015L192.293 68.0762ZM208.469 74.4873L218.303 76.2989L218.469 75.4007V74.4873H208.469ZM201.564 59.9883L208.685 52.9675L208.469 52.7482L208.24 52.5426L201.564 59.9883ZM196.337 57.4238L195.732 67.4055L196.034 67.4238H196.337V57.4238ZM196.041 61.5059C196.406 61.5059 197.125 61.5559 198.429 62.7765C199.911 64.1631 201.822 66.8079 203.856 71.4207L222.156 63.3507C217.154 52.009 209.039 41.5059 196.041 41.5059V61.5059ZM203.224 69.4608L204.604 75.9706L224.169 71.8205L222.788 65.3107L203.224 69.4608ZM204.387 73.8955C204.387 74.7926 204.242 75.253 204.165 75.4413C204.1 75.5987 204.015 75.7386 203.806 75.9266C203.285 76.395 201.623 77.4386 197.485 77.9885L200.12 97.8142C206.372 96.9833 212.502 95.0021 217.175 90.8019C222.187 86.2973 224.387 80.274 224.387 73.8955H204.387ZM198.803 77.9014H198.112V97.9014H198.803V77.9014ZM198.112 77.9014C197.613 77.9014 197.395 77.8026 197.181 77.6627L186.221 94.392C189.821 96.7507 193.877 97.9014 198.112 97.9014V77.9014ZM191.701 76.0273H190.715V96.0273H191.701V76.0273ZM180.721 86.3894C181.709 113.638 182.194 131.74 182.194 140.867H202.194C202.194 131.32 201.694 112.862 200.708 85.6653L180.721 86.3894ZM182.509 138.377C182.426 138.701 182.572 137.812 183.581 136.709C184.139 136.099 184.937 135.454 185.992 134.98C187.055 134.503 188.114 134.319 189.038 134.319V154.319C192.699 154.319 195.988 152.779 198.342 150.204C200.403 147.95 201.371 145.335 201.879 143.358L182.509 138.377ZM189.038 134.319C189.858 134.319 191.062 134.49 192.349 135.174C193.662 135.871 194.577 136.847 195.142 137.747C196.09 139.258 195.882 140.243 195.882 139.289H175.882C175.882 141.688 176.2 145.189 178.2 148.377C180.69 152.345 184.806 154.319 189.038 154.319V134.319ZM195.882 139.289V138.007H175.882V139.289H195.882ZM195.882 138.007C195.882 127.721 195.516 109.935 194.793 84.7539L174.801 85.3281C175.524 110.516 175.882 128.04 175.882 138.007H195.882ZM194.768 84.2785C193.919 73.176 193.515 64.8958 193.515 59.2979H173.515C173.515 65.6673 173.965 74.5493 174.826 85.8035L194.768 84.2785ZM193.515 59.2979V57.2266H173.515V59.2979H193.515ZM193.515 57.2266C193.515 56.2372 193.723 57.169 192.824 58.648C192.285 59.5355 191.384 60.5436 190.043 61.2788C188.72 62.0044 187.458 62.1963 186.572 62.1963V42.1963C182.226 42.1963 178.142 44.2985 175.734 48.2597C173.816 51.4155 173.515 54.8625 173.515 57.2266H193.515ZM186.572 62.1963H187.953V42.1963H186.572V62.1963ZM182.739 60.7291C182.377 60.508 181.581 59.939 180.873 58.8368C180.109 57.6479 179.729 56.2731 179.729 54.958H199.729C199.729 49.486 196.497 45.6979 193.168 43.6635L182.739 60.7291ZM196.686 62.1404C197.077 61.7617 197.388 61.4829 197.624 61.2855C197.866 61.0828 197.978 61.0081 197.972 61.0125C197.964 61.0175 197.905 61.0564 197.797 61.1152C197.69 61.173 197.508 61.266 197.254 61.3679C196.808 61.5477 195.786 61.9004 194.364 61.9004V41.9004C190.839 41.9004 188.147 43.5339 186.96 44.3171C185.459 45.3071 184.044 46.5423 182.771 47.7756L196.686 62.1404ZM196.655 61.6346L198.331 61.24L193.751 41.7717L192.074 42.1662L196.655 61.6346ZM182.373 66.8099C181.728 71.867 181.596 77.3538 183.352 82.0251C184.304 84.5595 185.956 87.2275 188.708 89.2177C191.506 91.2405 194.64 91.9834 197.521 91.9834V71.9834C198.067 71.9834 199.232 72.1468 200.427 73.0107C201.577 73.8419 201.991 74.7716 202.073 74.9881C202.131 75.1418 201.989 74.8283 201.946 73.759C201.904 72.7296 201.965 71.2821 202.212 69.3425L182.373 66.8099ZM197.521 91.9834H199.099V71.9834H197.521V91.9834ZM199.099 91.9834C203.278 91.9834 207.837 90.9945 211.683 87.9181C215.586 84.7952 217.528 80.5051 218.303 76.2989L198.634 72.6757C198.558 73.0907 198.489 73.1584 198.564 73.0189C198.603 72.9467 198.674 72.8327 198.785 72.6974C198.898 72.561 199.034 72.4249 199.189 72.3007C199.517 72.0381 199.785 71.9429 199.844 71.9254C199.877 71.9156 199.663 71.9834 199.099 71.9834V91.9834ZM218.469 74.4873V73.5996H198.469V74.4873H218.469ZM218.469 73.5996C218.469 65.524 214.242 58.6038 208.685 52.9675L194.443 67.009C198.092 70.71 198.469 72.864 198.469 73.5996H218.469ZM208.24 52.5426C205.574 50.1528 201.518 47.4238 196.337 47.4238V67.4238C195.289 67.4238 194.614 67.1363 194.423 67.0428C194.256 66.961 194.415 67.0087 194.889 67.434L208.24 52.5426ZM196.942 47.4421C188.684 46.9417 185.269 54.0172 184.35 56.4391C183.147 59.6056 182.601 63.4768 182.319 67.3508L202.267 68.8015C202.381 67.2248 202.531 65.9901 202.694 65.0539C202.862 64.0843 203.011 63.6334 203.047 63.5374C203.122 63.3418 202.859 64.1898 201.833 65.1865C201.266 65.7377 200.427 66.3693 199.289 66.8265C198.123 67.295 196.898 67.4762 195.732 67.4055L196.942 47.4421ZM228.59 52.7881V42.7881H227.6L226.629 42.9823L228.59 52.7881ZM236.086 62.75L245.831 64.9923L246.311 62.9068L245.895 60.8075L236.086 62.75ZM225.138 73.8955V63.8955H215.138V73.8955H225.138ZM225.138 74.1914H215.138V75.0638L215.289 75.9231L225.138 74.1914ZM242.004 74.1914L238.218 64.9359L234.114 66.6145L232.603 70.7823L242.004 74.1914ZM244.174 73.3037V63.3037H242.207L240.387 64.0482L244.174 73.3037ZM246.936 76.6572H256.936V75.7816L256.783 74.9194L246.936 76.6572ZM237.368 88.1973L239.211 98.026L240.85 97.7187L242.301 96.8962L237.368 88.1973ZM232.634 89.085V99.085H233.563L234.477 98.9137L232.634 89.085ZM219.91 76.9531L210.197 79.3318L210.312 79.7991L210.47 80.2532L219.91 76.9531ZM227.11 53.084L225.149 43.2782L223.674 43.5732L222.351 44.2893L227.11 53.084ZM224.94 65.2158L215.248 62.7543L214.94 63.9658V65.2158H224.94ZM224.94 65.4131H214.94V69.4257L217.714 72.3253L224.94 65.4131ZM227.11 67.6816L219.884 74.5939L222.837 77.6816H227.11V67.6816ZM229.872 63.6377L239.404 66.6601L239.872 65.1851V63.6377H229.872ZM229.872 62.0596H239.872V61.2583L239.744 60.4672L229.872 62.0596ZM228.59 62.7881C227.943 62.7881 227.152 62.6257 226.397 62.2199C225.68 61.8348 225.322 61.407 225.235 61.2912C225.166 61.1997 225.306 61.36 225.539 61.967C225.767 62.5633 226.03 63.4481 226.276 64.6925L245.895 60.8075C245.108 56.8312 243.766 52.6545 241.216 49.2659C238.356 45.4645 234.008 42.7881 228.59 42.7881V62.7881ZM226.341 60.5077C225.703 63.2767 224.978 64.1557 224.904 64.2335C224.9 64.2382 224.936 64.1998 225.016 64.143C225.099 64.0852 225.201 64.0271 225.315 63.9793C225.564 63.8745 225.681 63.8955 225.532 63.8955V83.8955C230.815 83.8955 235.694 81.927 239.426 77.9848C242.871 74.3474 244.759 69.6537 245.831 64.9923L226.341 60.5077ZM225.532 63.8955H225.138V83.8955H225.532V63.8955ZM215.138 73.8955V74.1914H235.138V73.8955H215.138ZM215.289 75.9231C215.998 79.9552 217.5 84.3072 220.715 87.7491C224.219 91.5004 228.815 93.167 233.521 93.167V73.167C233.495 73.167 233.778 73.1656 234.224 73.3472C234.692 73.5383 235.077 73.8254 235.331 74.0971C235.558 74.3404 235.555 74.4365 235.445 74.179C235.331 73.9124 235.147 73.3729 234.987 72.4597L215.289 75.9231ZM233.521 93.167C244.012 93.167 249.076 84.0216 251.405 77.6005L232.603 70.7823C232.201 71.8896 231.828 72.6932 231.516 73.2536C231.201 73.8201 231.003 74.0382 230.988 74.0545C230.984 74.0589 231.216 73.8126 231.729 73.5696C232.276 73.3106 232.908 73.167 233.521 73.167V93.167ZM245.79 83.4469L247.96 82.5592L240.387 64.0482L238.218 64.9359L245.79 83.4469ZM244.174 83.3037C243.216 83.3037 242.064 83.1103 240.89 82.5558C239.716 82.0014 238.837 81.236 238.23 80.4992C237.142 79.1781 237.036 78.0997 237.088 78.3951L256.783 74.9194C256.441 72.9791 255.677 70.2239 253.669 67.785C251.311 64.9222 247.889 63.3037 244.174 63.3037V83.3037ZM236.936 76.6572C236.936 75.8733 237.3 75.6695 236.845 76.2174C236.297 76.8793 235.018 78.034 232.436 79.4983L242.301 96.8962C249.298 92.9286 256.936 86.5063 256.936 76.6572H236.936ZM235.525 78.3685L230.791 79.2562L234.477 98.9137L239.211 98.026L235.525 78.3685ZM232.634 79.085C232.526 79.085 232.469 79.0756 232.453 79.0724C232.448 79.0715 232.444 79.0707 232.442 79.0702C232.441 79.0698 232.44 79.0695 232.439 79.0695C232.439 79.0694 232.44 79.0695 232.44 79.0696C232.44 79.0698 232.441 79.0699 232.44 79.0698C232.44 79.0697 232.439 79.0693 232.437 79.0684C232.435 79.0675 232.432 79.0659 232.427 79.0634C232.418 79.0587 232.402 79.0494 232.377 79.0332C232.33 79.0017 232.24 78.9362 232.112 78.8146C231.544 78.273 230.465 76.8417 229.35 73.653L210.47 80.2532C213.845 89.9073 220.616 99.085 232.634 99.085V79.085ZM229.623 74.5744C228.929 71.7395 228.727 69.9446 228.727 68.9639H208.727C208.727 72.1915 209.313 75.7227 210.197 79.3318L229.623 74.5744ZM228.727 68.9639V67.6816H208.727V68.9639H228.727ZM228.727 67.6816C228.727 65.7339 229.123 64.6285 229.494 63.9823C229.849 63.3649 230.486 62.6275 231.87 61.8787L222.351 44.2893C218.145 46.5652 214.591 49.7732 212.151 54.0216C209.727 58.2413 208.727 62.9223 208.727 67.6816H228.727ZM229.072 62.8898L230.551 62.5939L226.629 42.9823L225.149 43.2782L229.072 62.8898ZM214.94 65.2158V65.4131H234.94V65.2158H214.94ZM217.714 72.3253L219.884 74.5939L234.337 60.7694L232.167 58.5009L217.714 72.3253ZM227.11 77.6816C232.616 77.6816 235.708 73.9068 236.799 72.3103C238.068 70.4509 238.864 68.3639 239.404 66.6601L220.34 60.6153C220.025 61.6075 219.933 61.5425 220.283 61.031C220.477 60.7466 221.028 59.9962 222.065 59.2631C223.197 58.4632 224.931 57.6816 227.11 57.6816V77.6816ZM239.872 63.6377V62.0596H219.872V63.6377H239.872ZM239.744 60.4672C239.543 59.2167 239.206 57.5174 238.527 55.8991C238.197 55.1132 237.531 53.7107 236.269 52.3615C234.904 50.9032 232.311 49.002 228.59 49.002V69.002C225.132 69.002 222.789 67.2281 221.663 66.0246C220.639 64.9302 220.199 63.9099 220.083 63.6336C219.832 63.0346 219.873 62.864 220 63.6519L239.744 60.4672ZM228.59 49.002H227.998V69.002H228.59V49.002ZM227.998 49.002C224.004 49.002 221.33 51.1307 220.068 52.4342C218.791 53.7534 217.995 55.1784 217.521 56.1403C216.547 58.12 215.827 60.475 215.248 62.7543L234.633 67.6774C234.853 66.8111 235.047 66.1481 235.21 65.6595C235.38 65.1497 235.475 64.9541 235.466 64.9705C235.458 64.9868 235.392 65.1208 235.256 65.3303C235.126 65.5301 234.863 65.9062 234.436 66.3464C233.676 67.1321 231.499 69.002 227.998 69.002V49.002ZM256.306 54.7607L246.53 56.8663L248.23 64.7607H256.306V54.7607ZM256.602 54.7607V64.7607H261.246L264.242 61.2125L256.602 54.7607ZM264.689 50.3223L266.466 40.4814L265.585 40.3223H264.689V50.3223ZM271.791 54.7607L281.311 57.8208L281.791 56.3284V54.7607H271.791ZM268.733 57.5225L265.722 67.0583L267.192 67.5225H268.733V57.5225ZM264.985 56.3389L267.997 46.803L266.527 46.3389H264.985V56.3389ZM263.999 56.3389V46.3389H263.075L262.166 46.5083L263.999 56.3389ZM258.18 84.9424L267.997 86.8426L268.18 85.9012V84.9424H258.18ZM249.105 50.7168L239.619 47.5545L238.565 50.7168L239.619 53.8791L249.105 50.7168ZM252.262 58.3496C250.555 58.3496 249.024 57.7953 247.866 57.0034C246.821 56.288 246.306 55.541 246.146 55.2874C245.978 55.0202 245.993 54.9669 246.108 55.2917C246.216 55.5963 246.366 56.1037 246.53 56.8663L266.081 52.6552C265.527 50.083 264.657 47.1464 263.062 44.6174C261.403 41.9874 257.915 38.3496 252.262 38.3496V58.3496ZM256.306 64.7607H256.602V44.7607H256.306V64.7607ZM264.242 61.2125C264.896 60.4382 265.277 60.2159 265.309 60.1986C265.316 60.1943 265.25 60.2312 265.115 60.2667C264.978 60.303 264.829 60.3223 264.689 60.3223V40.3223C257.936 40.3223 252.678 43.9079 248.961 48.3089L264.242 61.2125ZM262.913 60.1631C263.762 60.3166 264.33 60.4675 264.674 60.5805C265.037 60.7 264.991 60.7253 264.716 60.553C264.441 60.3815 263.697 59.8615 263.003 58.8114C262.243 57.6598 261.791 56.2369 261.791 54.7607H281.791C281.791 49.161 278.35 45.4894 275.316 43.593C272.545 41.8616 269.312 40.9951 266.466 40.4814L262.913 60.1631ZM262.271 51.7007C262.305 51.5937 262.656 50.5165 263.88 49.411C265.313 48.1169 267.125 47.5225 268.733 47.5225V67.5225C271.789 67.5225 274.834 66.4678 277.286 64.2531C279.529 62.227 280.685 59.7689 281.311 57.8208L262.271 51.7007ZM271.745 47.9866L267.997 46.803L261.974 65.8747L265.722 67.0583L271.745 47.9866ZM264.985 46.3389H263.999V66.3389H264.985V46.3389ZM262.166 46.5083C257.765 47.3288 254.852 50.1218 253.137 52.6895C251.497 55.1459 250.539 57.951 249.917 60.5139C248.663 65.6785 248.18 72.4373 248.18 80.3066H268.18C268.18 72.9208 268.666 68.0574 269.352 65.2327C269.7 63.8009 269.955 63.5197 269.769 63.798C269.509 64.1874 268.293 65.7105 265.832 66.1695L262.166 46.5083ZM248.18 80.3066V84.9424H268.18V80.3066H248.18ZM248.362 83.0422C248.368 83.0126 248.42 82.7441 248.599 82.329C248.779 81.9097 249.13 81.2436 249.772 80.5327C250.441 79.7921 251.339 79.1021 252.45 78.6241C253.547 78.1514 254.586 78 255.418 78V98C258.799 98 262.147 96.6705 264.614 93.9385C266.769 91.5535 267.618 88.8027 267.997 86.8426L248.362 83.0422ZM255.418 78C256.401 78 258.807 78.3733 260.7 80.6216C261.515 81.589 261.906 82.544 262.087 83.1892C262.261 83.8081 262.262 84.2075 262.262 84.252H242.262C242.262 86.6635 242.733 90.3358 245.402 93.5043C248.347 97.0021 252.331 98 255.418 98V78ZM262.262 84.252V72.8105H242.262V84.252H262.262ZM262.262 72.8105C262.262 63.5904 261.113 55.1156 258.592 47.5545L239.619 53.8791C241.307 58.9429 242.262 65.1974 242.262 72.8105H262.262ZM258.592 53.8791C258.383 54.5075 257.774 55.8274 256.289 56.9414C254.759 58.0889 253.191 58.3496 252.262 58.3496V38.3496C249.754 38.3496 246.871 39.0048 244.289 40.9414C241.752 42.8445 240.354 45.3479 239.619 47.5545L258.592 53.8791ZM288.361 84.5479H298.361V83.0318L297.912 81.5839L288.361 84.5479ZM284.909 88.2959V98.2959H287.209L289.278 97.291L284.909 88.2959ZM281.852 84.8438L272.797 80.5994L271.53 83.3026L271.952 86.258L281.852 84.8438ZM285.205 91.6875C283.656 91.6875 281.853 91.1176 280.413 89.8125C279.181 88.6958 278.84 87.6075 278.811 87.5118L297.912 81.5839C297.29 79.5813 296.128 77.0628 293.844 74.9927C291.351 72.7341 288.267 71.6875 285.205 71.6875V91.6875ZM278.361 84.5479C278.361 82.1819 279.428 80.5219 280.143 79.7458C280.731 79.1069 281.079 79.0391 280.54 79.3008L289.278 97.291C292.035 95.9517 298.361 92.2227 298.361 84.5479H278.361ZM284.909 78.2959C285.612 78.2959 286.578 78.4172 287.642 78.8659C288.732 79.3256 289.65 80.0143 290.348 80.8025C291.017 81.5573 291.368 82.2697 291.543 82.7168C291.714 83.1555 291.751 83.4273 291.751 83.4295L271.952 86.258C272.261 88.4187 273.063 91.4512 275.377 94.0632C278.01 97.0361 281.551 98.2959 284.909 98.2959V78.2959ZM290.906 89.0881C291.112 88.65 290.989 89.0942 290.283 89.7586C289.434 90.5582 287.681 91.6875 285.205 91.6875V71.6875C277.552 71.6875 273.983 78.069 272.797 80.5994L290.906 89.0881Z" fill="white" mask="url(#path-1-outside-1_47_227)"/>
</svg>
