<svg width="940" height="70" viewBox="0 0 940 70" fill="none" xmlns="http://www.w3.org/2000/svg">
<mask id="path-1-outside-1_57_235" maskUnits="userSpaceOnUse" x="-1" y="-1" width="942" height="72" fill="black">
<rect fill="white" x="-1" y="-1" width="942" height="72"/>
<path d="M39.634 8.628V20.41H15.038V33.138H33.442V44.576H15.038V69H0.332V8.628H39.634ZM69.2073 69.688C64.5059 69.688 60.2633 68.6847 56.4793 66.678C52.7526 64.6713 49.7999 61.8047 47.6213 58.078C45.4999 54.3513 44.4393 49.994 44.4393 45.006C44.4393 40.0753 45.5286 35.7467 47.7072 32.02C49.8859 28.236 52.8673 25.3407 56.6513 23.334C60.4353 21.3273 64.6779 20.324 69.3793 20.324C74.0806 20.324 78.3233 21.3273 82.1073 23.334C85.8913 25.3407 88.8726 28.236 91.0513 32.02C93.2299 35.7467 94.3193 40.0753 94.3193 45.006C94.3193 49.9367 93.2013 54.294 90.9653 58.078C88.7866 61.8047 85.7766 64.6713 81.9353 66.678C78.1513 68.6847 73.9086 69.688 69.2073 69.688ZM69.2073 56.96C72.0166 56.96 74.3959 55.928 76.3453 53.864C78.3519 51.8 79.3553 48.8473 79.3553 45.006C79.3553 41.1647 78.3806 38.212 76.4313 36.148C74.5393 34.084 72.1886 33.052 69.3793 33.052C66.5126 33.052 64.1333 34.084 62.2413 36.148C60.3493 38.1547 59.4033 41.1073 59.4033 45.006C59.4033 48.8473 60.3206 51.8 62.1553 53.864C64.0473 55.928 66.3979 56.96 69.2073 56.96ZM123.965 69.688C119.264 69.688 115.021 68.6847 111.237 66.678C107.51 64.6713 104.558 61.8047 102.379 58.078C100.258 54.3513 99.1971 49.994 99.1971 45.006C99.1971 40.0753 100.286 35.7467 102.465 32.02C104.644 28.236 107.625 25.3407 111.409 23.334C115.193 21.3273 119.436 20.324 124.137 20.324C128.838 20.324 133.081 21.3273 136.865 23.334C140.649 25.3407 143.63 28.236 145.809 32.02C147.988 35.7467 149.077 40.0753 149.077 45.006C149.077 49.9367 147.959 54.294 145.723 58.078C143.544 61.8047 140.534 64.6713 136.693 66.678C132.909 68.6847 128.666 69.688 123.965 69.688ZM123.965 56.96C126.774 56.96 129.154 55.928 131.103 53.864C133.11 51.8 134.113 48.8473 134.113 45.006C134.113 41.1647 133.138 38.212 131.189 36.148C129.297 34.084 126.946 33.052 124.137 33.052C121.27 33.052 118.891 34.084 116.999 36.148C115.107 38.1547 114.161 41.1073 114.161 45.006C114.161 48.8473 115.078 51.8 116.913 53.864C118.805 55.928 121.156 56.96 123.965 56.96ZM153.955 44.92C153.955 39.9893 154.872 35.6607 156.707 31.934C158.599 28.2073 161.15 25.3407 164.361 23.334C167.572 21.3273 171.155 20.324 175.111 20.324C178.264 20.324 181.131 20.9833 183.711 22.302C186.348 23.6207 188.412 25.398 189.903 27.634V5.36H204.609V69H189.903V62.12C188.527 64.4133 186.549 66.248 183.969 67.624C181.446 69 178.494 69.688 175.111 69.688C171.155 69.688 167.572 68.6847 164.361 66.678C161.15 64.614 158.599 61.7187 156.707 57.992C154.872 54.208 153.955 49.8507 153.955 44.92ZM189.903 45.006C189.903 41.3367 188.871 38.4413 186.807 36.32C184.8 34.1987 182.335 33.138 179.411 33.138C176.487 33.138 173.993 34.1987 171.929 36.32C169.922 38.384 168.919 41.2507 168.919 44.92C168.919 48.5893 169.922 51.5133 171.929 53.692C173.993 55.8133 176.487 56.874 179.411 56.874C182.335 56.874 184.8 55.8133 186.807 53.692C188.871 51.5707 189.903 48.6753 189.903 45.006ZM222.644 16.024C220.064 16.024 217.943 15.2787 216.28 13.788C214.675 12.24 213.872 10.348 213.872 8.112C213.872 5.81867 214.675 3.92666 216.28 2.436C217.943 0.887995 220.064 0.113995 222.644 0.113995C225.167 0.113995 227.231 0.887995 228.836 2.436C230.499 3.92666 231.33 5.81867 231.33 8.112C231.33 10.348 230.499 12.24 228.836 13.788C227.231 15.2787 225.167 16.024 222.644 16.024ZM229.954 21.012V69H215.248V21.012H229.954ZM285.847 44.232C285.847 45.608 285.761 47.0413 285.589 48.532H252.307C252.537 51.5133 253.483 53.8067 255.145 55.412C256.865 56.96 258.958 57.734 261.423 57.734C265.093 57.734 267.644 56.186 269.077 53.09H284.729C283.927 56.2433 282.465 59.0813 280.343 61.604C278.279 64.1267 275.671 66.1047 272.517 67.538C269.364 68.9713 265.838 69.688 261.939 69.688C257.238 69.688 253.053 68.6847 249.383 66.678C245.714 64.6713 242.847 61.8047 240.783 58.078C238.719 54.3513 237.687 49.994 237.687 45.006C237.687 40.018 238.691 35.6607 240.697 31.934C242.761 28.2073 245.628 25.3407 249.297 23.334C252.967 21.3273 257.181 20.324 261.939 20.324C266.583 20.324 270.711 21.2987 274.323 23.248C277.935 25.1973 280.745 27.978 282.751 31.59C284.815 35.202 285.847 39.416 285.847 44.232ZM270.797 40.362C270.797 37.8393 269.937 35.8327 268.217 34.342C266.497 32.8513 264.347 32.106 261.767 32.106C259.302 32.106 257.209 32.8227 255.489 34.256C253.827 35.6893 252.795 37.7247 252.393 40.362H270.797ZM358.012 69L352.422 63.582C346.861 67.8247 340.21 69.946 332.47 69.946C327.826 69.946 323.784 69.2007 320.344 67.71C316.904 66.162 314.238 64.012 312.346 61.26C310.511 58.4507 309.594 55.1827 309.594 51.456C309.594 47.672 310.597 44.2607 312.604 41.222C314.668 38.126 317.735 35.6033 321.806 33.654C320.315 31.8193 319.255 30.0707 318.624 28.408C317.993 26.688 317.678 24.8247 317.678 22.818C317.678 19.9513 318.423 17.3427 319.914 14.992C321.405 12.6413 323.555 10.8067 326.364 9.488C329.231 8.112 332.613 7.424 336.512 7.424C340.468 7.424 343.822 8.14066 346.574 9.574C349.326 11.0073 351.39 12.928 352.766 15.336C354.142 17.744 354.773 20.3813 354.658 23.248H340.812C340.869 21.7 340.468 20.5247 339.608 19.722C338.805 18.862 337.716 18.432 336.34 18.432C334.964 18.432 333.817 18.8333 332.9 19.636C331.983 20.4387 331.524 21.4707 331.524 22.732C331.524 23.936 331.897 25.1973 332.642 26.516C333.445 27.8347 334.677 29.354 336.34 31.074L351.046 45.436C351.161 45.1493 351.304 44.8053 351.476 44.404C351.705 44.0027 351.935 43.544 352.164 43.028L355.346 37.61H370.052L365.924 45.092C364.376 48.4747 362.599 51.6853 360.592 54.724L375.126 69H358.012ZM333.158 58.078C336.999 58.078 340.411 56.9887 343.392 54.81L329.976 41.824C325.848 43.9453 323.784 46.812 323.784 50.424C323.784 52.6027 324.615 54.4373 326.278 55.928C327.998 57.3613 330.291 58.078 333.158 58.078ZM436.252 58.336H413.72L410.108 69H394.714L416.558 8.628H433.586L455.43 69H439.864L436.252 58.336ZM432.468 46.984L424.986 24.882L417.59 46.984H432.468ZM491.318 20.496C496.937 20.496 501.409 22.3307 504.734 26C508.117 29.612 509.808 34.6 509.808 40.964V69H495.188V42.942C495.188 39.7313 494.357 37.2373 492.694 35.46C491.031 33.6827 488.795 32.794 485.986 32.794C483.177 32.794 480.941 33.6827 479.278 35.46C477.615 37.2373 476.784 39.7313 476.784 42.942V69H462.078V21.012H476.784V27.376C478.275 25.2547 480.281 23.592 482.804 22.388C485.327 21.1267 488.165 20.496 491.318 20.496ZM527.423 16.024C524.843 16.024 522.722 15.2787 521.059 13.788C519.454 12.24 518.651 10.348 518.651 8.112C518.651 5.81867 519.454 3.92666 521.059 2.436C522.722 0.887995 524.843 0.113995 527.423 0.113995C529.946 0.113995 532.01 0.887995 533.615 2.436C535.278 3.92666 536.109 5.81867 536.109 8.112C536.109 10.348 535.278 12.24 533.615 13.788C532.01 15.2787 529.946 16.024 527.423 16.024ZM534.733 21.012V69H520.027V21.012H534.733ZM606.623 20.496C612.585 20.496 617.315 22.302 620.813 25.914C624.367 29.526 626.145 34.5427 626.145 40.964V69H611.525V42.942C611.525 39.846 610.693 37.4667 609.031 35.804C607.425 34.084 605.189 33.224 602.323 33.224C599.456 33.224 597.191 34.084 595.529 35.804C593.923 37.4667 593.121 39.846 593.121 42.942V69H578.501V42.942C578.501 39.846 577.669 37.4667 576.007 35.804C574.401 34.084 572.165 33.224 569.299 33.224C566.432 33.224 564.167 34.084 562.505 35.804C560.899 37.4667 560.097 39.846 560.097 42.942V69H545.391V21.012H560.097V27.032C561.587 25.0253 563.537 23.4487 565.945 22.302C568.353 21.098 571.076 20.496 574.115 20.496C577.727 20.496 580.937 21.27 583.747 22.818C586.613 24.366 588.849 26.5733 590.455 29.44C592.117 26.8027 594.382 24.6527 597.249 22.99C600.115 21.3273 603.24 20.496 606.623 20.496ZM681.666 44.232C681.666 45.608 681.58 47.0413 681.408 48.532H648.126C648.355 51.5133 649.301 53.8067 650.964 55.412C652.684 56.96 654.776 57.734 657.242 57.734C660.911 57.734 663.462 56.186 664.896 53.09H680.548C679.745 56.2433 678.283 59.0813 676.162 61.604C674.098 64.1267 671.489 66.1047 668.336 67.538C665.182 68.9713 661.656 69.688 657.758 69.688C653.056 69.688 648.871 68.6847 645.202 66.678C641.532 64.6713 638.666 61.8047 636.602 58.078C634.538 54.3513 633.506 49.994 633.506 45.006C633.506 40.018 634.509 35.6607 636.516 31.934C638.58 28.2073 641.446 25.3407 645.116 23.334C648.785 21.3273 652.999 20.324 657.758 20.324C662.402 20.324 666.53 21.2987 670.142 23.248C673.754 25.1973 676.563 27.978 678.57 31.59C680.634 35.202 681.666 39.416 681.666 44.232ZM666.616 40.362C666.616 37.8393 665.756 35.8327 664.036 34.342C662.316 32.8513 660.166 32.106 657.586 32.106C655.12 32.106 653.028 32.8227 651.308 34.256C649.645 35.6893 648.613 37.7247 648.212 40.362H666.616ZM722.354 57.648H741.618V69H707.648V8.628H722.354V57.648ZM770.477 69.688C765.775 69.688 761.533 68.6847 757.749 66.678C754.022 64.6713 751.069 61.8047 748.891 58.078C746.769 54.3513 745.709 49.994 745.709 45.006C745.709 40.0753 746.798 35.7467 748.977 32.02C751.155 28.236 754.137 25.3407 757.921 23.334C761.705 21.3273 765.947 20.324 770.649 20.324C775.35 20.324 779.593 21.3273 783.377 23.334C787.161 25.3407 790.142 28.236 792.321 32.02C794.499 35.7467 795.589 40.0753 795.589 45.006C795.589 49.9367 794.471 54.294 792.235 58.078C790.056 61.8047 787.046 64.6713 783.205 66.678C779.421 68.6847 775.178 69.688 770.477 69.688ZM770.477 56.96C773.286 56.96 775.665 55.928 777.615 53.864C779.621 51.8 780.625 48.8473 780.625 45.006C780.625 41.1647 779.65 38.212 777.701 36.148C775.809 34.084 773.458 33.052 770.649 33.052C767.782 33.052 765.403 34.084 763.511 36.148C761.619 38.1547 760.673 41.1073 760.673 45.006C760.673 48.8473 761.59 51.8 763.425 53.864C765.317 55.928 767.667 56.96 770.477 56.96ZM824.977 55.24L835.383 21.012H851.035L834.007 69H815.861L798.833 21.012H814.571L824.977 55.24ZM902.461 44.232C902.461 45.608 902.375 47.0413 902.203 48.532H868.921C869.15 51.5133 870.096 53.8067 871.759 55.412C873.479 56.96 875.571 57.734 878.037 57.734C881.706 57.734 884.257 56.186 885.691 53.09H901.343C900.54 56.2433 899.078 59.0813 896.957 61.604C894.893 64.1267 892.284 66.1047 889.131 67.538C885.977 68.9713 882.451 69.688 878.553 69.688C873.851 69.688 869.666 68.6847 865.997 66.678C862.327 64.6713 859.461 61.8047 857.397 58.078C855.333 54.3513 854.301 49.994 854.301 45.006C854.301 40.018 855.304 35.6607 857.311 31.934C859.375 28.2073 862.241 25.3407 865.911 23.334C869.58 21.3273 873.794 20.324 878.553 20.324C883.197 20.324 887.325 21.2987 890.937 23.248C894.549 25.1973 897.358 27.978 899.365 31.59C901.429 35.202 902.461 39.416 902.461 44.232ZM887.411 40.362C887.411 37.8393 886.551 35.8327 884.831 34.342C883.111 32.8513 880.961 32.106 878.381 32.106C875.915 32.106 873.823 32.8227 872.103 34.256C870.44 35.6893 869.408 37.7247 869.007 40.362H887.411ZM924.925 29.01C926.645 26.3727 928.795 24.3087 931.375 22.818C933.955 21.27 936.821 20.496 939.975 20.496V36.062H935.933C932.263 36.062 929.511 36.8647 927.677 38.47C925.842 40.018 924.925 42.77 924.925 46.726V69H910.219V21.012H924.925V29.01Z"/>
</mask>
<path d="M39.634 8.628V20.41H15.038V33.138H33.442V44.576H15.038V69H0.332V8.628H39.634ZM69.2073 69.688C64.5059 69.688 60.2633 68.6847 56.4793 66.678C52.7526 64.6713 49.7999 61.8047 47.6213 58.078C45.4999 54.3513 44.4393 49.994 44.4393 45.006C44.4393 40.0753 45.5286 35.7467 47.7072 32.02C49.8859 28.236 52.8673 25.3407 56.6513 23.334C60.4353 21.3273 64.6779 20.324 69.3793 20.324C74.0806 20.324 78.3233 21.3273 82.1073 23.334C85.8913 25.3407 88.8726 28.236 91.0513 32.02C93.2299 35.7467 94.3193 40.0753 94.3193 45.006C94.3193 49.9367 93.2013 54.294 90.9653 58.078C88.7866 61.8047 85.7766 64.6713 81.9353 66.678C78.1513 68.6847 73.9086 69.688 69.2073 69.688ZM69.2073 56.96C72.0166 56.96 74.3959 55.928 76.3453 53.864C78.3519 51.8 79.3553 48.8473 79.3553 45.006C79.3553 41.1647 78.3806 38.212 76.4313 36.148C74.5393 34.084 72.1886 33.052 69.3793 33.052C66.5126 33.052 64.1333 34.084 62.2413 36.148C60.3493 38.1547 59.4033 41.1073 59.4033 45.006C59.4033 48.8473 60.3206 51.8 62.1553 53.864C64.0473 55.928 66.3979 56.96 69.2073 56.96ZM123.965 69.688C119.264 69.688 115.021 68.6847 111.237 66.678C107.51 64.6713 104.558 61.8047 102.379 58.078C100.258 54.3513 99.1971 49.994 99.1971 45.006C99.1971 40.0753 100.286 35.7467 102.465 32.02C104.644 28.236 107.625 25.3407 111.409 23.334C115.193 21.3273 119.436 20.324 124.137 20.324C128.838 20.324 133.081 21.3273 136.865 23.334C140.649 25.3407 143.63 28.236 145.809 32.02C147.988 35.7467 149.077 40.0753 149.077 45.006C149.077 49.9367 147.959 54.294 145.723 58.078C143.544 61.8047 140.534 64.6713 136.693 66.678C132.909 68.6847 128.666 69.688 123.965 69.688ZM123.965 56.96C126.774 56.96 129.154 55.928 131.103 53.864C133.11 51.8 134.113 48.8473 134.113 45.006C134.113 41.1647 133.138 38.212 131.189 36.148C129.297 34.084 126.946 33.052 124.137 33.052C121.27 33.052 118.891 34.084 116.999 36.148C115.107 38.1547 114.161 41.1073 114.161 45.006C114.161 48.8473 115.078 51.8 116.913 53.864C118.805 55.928 121.156 56.96 123.965 56.96ZM153.955 44.92C153.955 39.9893 154.872 35.6607 156.707 31.934C158.599 28.2073 161.15 25.3407 164.361 23.334C167.572 21.3273 171.155 20.324 175.111 20.324C178.264 20.324 181.131 20.9833 183.711 22.302C186.348 23.6207 188.412 25.398 189.903 27.634V5.36H204.609V69H189.903V62.12C188.527 64.4133 186.549 66.248 183.969 67.624C181.446 69 178.494 69.688 175.111 69.688C171.155 69.688 167.572 68.6847 164.361 66.678C161.15 64.614 158.599 61.7187 156.707 57.992C154.872 54.208 153.955 49.8507 153.955 44.92ZM189.903 45.006C189.903 41.3367 188.871 38.4413 186.807 36.32C184.8 34.1987 182.335 33.138 179.411 33.138C176.487 33.138 173.993 34.1987 171.929 36.32C169.922 38.384 168.919 41.2507 168.919 44.92C168.919 48.5893 169.922 51.5133 171.929 53.692C173.993 55.8133 176.487 56.874 179.411 56.874C182.335 56.874 184.8 55.8133 186.807 53.692C188.871 51.5707 189.903 48.6753 189.903 45.006ZM222.644 16.024C220.064 16.024 217.943 15.2787 216.28 13.788C214.675 12.24 213.872 10.348 213.872 8.112C213.872 5.81867 214.675 3.92666 216.28 2.436C217.943 0.887995 220.064 0.113995 222.644 0.113995C225.167 0.113995 227.231 0.887995 228.836 2.436C230.499 3.92666 231.33 5.81867 231.33 8.112C231.33 10.348 230.499 12.24 228.836 13.788C227.231 15.2787 225.167 16.024 222.644 16.024ZM229.954 21.012V69H215.248V21.012H229.954ZM285.847 44.232C285.847 45.608 285.761 47.0413 285.589 48.532H252.307C252.537 51.5133 253.483 53.8067 255.145 55.412C256.865 56.96 258.958 57.734 261.423 57.734C265.093 57.734 267.644 56.186 269.077 53.09H284.729C283.927 56.2433 282.465 59.0813 280.343 61.604C278.279 64.1267 275.671 66.1047 272.517 67.538C269.364 68.9713 265.838 69.688 261.939 69.688C257.238 69.688 253.053 68.6847 249.383 66.678C245.714 64.6713 242.847 61.8047 240.783 58.078C238.719 54.3513 237.687 49.994 237.687 45.006C237.687 40.018 238.691 35.6607 240.697 31.934C242.761 28.2073 245.628 25.3407 249.297 23.334C252.967 21.3273 257.181 20.324 261.939 20.324C266.583 20.324 270.711 21.2987 274.323 23.248C277.935 25.1973 280.745 27.978 282.751 31.59C284.815 35.202 285.847 39.416 285.847 44.232ZM270.797 40.362C270.797 37.8393 269.937 35.8327 268.217 34.342C266.497 32.8513 264.347 32.106 261.767 32.106C259.302 32.106 257.209 32.8227 255.489 34.256C253.827 35.6893 252.795 37.7247 252.393 40.362H270.797ZM358.012 69L352.422 63.582C346.861 67.8247 340.21 69.946 332.47 69.946C327.826 69.946 323.784 69.2007 320.344 67.71C316.904 66.162 314.238 64.012 312.346 61.26C310.511 58.4507 309.594 55.1827 309.594 51.456C309.594 47.672 310.597 44.2607 312.604 41.222C314.668 38.126 317.735 35.6033 321.806 33.654C320.315 31.8193 319.255 30.0707 318.624 28.408C317.993 26.688 317.678 24.8247 317.678 22.818C317.678 19.9513 318.423 17.3427 319.914 14.992C321.405 12.6413 323.555 10.8067 326.364 9.488C329.231 8.112 332.613 7.424 336.512 7.424C340.468 7.424 343.822 8.14066 346.574 9.574C349.326 11.0073 351.39 12.928 352.766 15.336C354.142 17.744 354.773 20.3813 354.658 23.248H340.812C340.869 21.7 340.468 20.5247 339.608 19.722C338.805 18.862 337.716 18.432 336.34 18.432C334.964 18.432 333.817 18.8333 332.9 19.636C331.983 20.4387 331.524 21.4707 331.524 22.732C331.524 23.936 331.897 25.1973 332.642 26.516C333.445 27.8347 334.677 29.354 336.34 31.074L351.046 45.436C351.161 45.1493 351.304 44.8053 351.476 44.404C351.705 44.0027 351.935 43.544 352.164 43.028L355.346 37.61H370.052L365.924 45.092C364.376 48.4747 362.599 51.6853 360.592 54.724L375.126 69H358.012ZM333.158 58.078C336.999 58.078 340.411 56.9887 343.392 54.81L329.976 41.824C325.848 43.9453 323.784 46.812 323.784 50.424C323.784 52.6027 324.615 54.4373 326.278 55.928C327.998 57.3613 330.291 58.078 333.158 58.078ZM436.252 58.336H413.72L410.108 69H394.714L416.558 8.628H433.586L455.43 69H439.864L436.252 58.336ZM432.468 46.984L424.986 24.882L417.59 46.984H432.468ZM491.318 20.496C496.937 20.496 501.409 22.3307 504.734 26C508.117 29.612 509.808 34.6 509.808 40.964V69H495.188V42.942C495.188 39.7313 494.357 37.2373 492.694 35.46C491.031 33.6827 488.795 32.794 485.986 32.794C483.177 32.794 480.941 33.6827 479.278 35.46C477.615 37.2373 476.784 39.7313 476.784 42.942V69H462.078V21.012H476.784V27.376C478.275 25.2547 480.281 23.592 482.804 22.388C485.327 21.1267 488.165 20.496 491.318 20.496ZM527.423 16.024C524.843 16.024 522.722 15.2787 521.059 13.788C519.454 12.24 518.651 10.348 518.651 8.112C518.651 5.81867 519.454 3.92666 521.059 2.436C522.722 0.887995 524.843 0.113995 527.423 0.113995C529.946 0.113995 532.01 0.887995 533.615 2.436C535.278 3.92666 536.109 5.81867 536.109 8.112C536.109 10.348 535.278 12.24 533.615 13.788C532.01 15.2787 529.946 16.024 527.423 16.024ZM534.733 21.012V69H520.027V21.012H534.733ZM606.623 20.496C612.585 20.496 617.315 22.302 620.813 25.914C624.367 29.526 626.145 34.5427 626.145 40.964V69H611.525V42.942C611.525 39.846 610.693 37.4667 609.031 35.804C607.425 34.084 605.189 33.224 602.323 33.224C599.456 33.224 597.191 34.084 595.529 35.804C593.923 37.4667 593.121 39.846 593.121 42.942V69H578.501V42.942C578.501 39.846 577.669 37.4667 576.007 35.804C574.401 34.084 572.165 33.224 569.299 33.224C566.432 33.224 564.167 34.084 562.505 35.804C560.899 37.4667 560.097 39.846 560.097 42.942V69H545.391V21.012H560.097V27.032C561.587 25.0253 563.537 23.4487 565.945 22.302C568.353 21.098 571.076 20.496 574.115 20.496C577.727 20.496 580.937 21.27 583.747 22.818C586.613 24.366 588.849 26.5733 590.455 29.44C592.117 26.8027 594.382 24.6527 597.249 22.99C600.115 21.3273 603.24 20.496 606.623 20.496ZM681.666 44.232C681.666 45.608 681.58 47.0413 681.408 48.532H648.126C648.355 51.5133 649.301 53.8067 650.964 55.412C652.684 56.96 654.776 57.734 657.242 57.734C660.911 57.734 663.462 56.186 664.896 53.09H680.548C679.745 56.2433 678.283 59.0813 676.162 61.604C674.098 64.1267 671.489 66.1047 668.336 67.538C665.182 68.9713 661.656 69.688 657.758 69.688C653.056 69.688 648.871 68.6847 645.202 66.678C641.532 64.6713 638.666 61.8047 636.602 58.078C634.538 54.3513 633.506 49.994 633.506 45.006C633.506 40.018 634.509 35.6607 636.516 31.934C638.58 28.2073 641.446 25.3407 645.116 23.334C648.785 21.3273 652.999 20.324 657.758 20.324C662.402 20.324 666.53 21.2987 670.142 23.248C673.754 25.1973 676.563 27.978 678.57 31.59C680.634 35.202 681.666 39.416 681.666 44.232ZM666.616 40.362C666.616 37.8393 665.756 35.8327 664.036 34.342C662.316 32.8513 660.166 32.106 657.586 32.106C655.12 32.106 653.028 32.8227 651.308 34.256C649.645 35.6893 648.613 37.7247 648.212 40.362H666.616ZM722.354 57.648H741.618V69H707.648V8.628H722.354V57.648ZM770.477 69.688C765.775 69.688 761.533 68.6847 757.749 66.678C754.022 64.6713 751.069 61.8047 748.891 58.078C746.769 54.3513 745.709 49.994 745.709 45.006C745.709 40.0753 746.798 35.7467 748.977 32.02C751.155 28.236 754.137 25.3407 757.921 23.334C761.705 21.3273 765.947 20.324 770.649 20.324C775.35 20.324 779.593 21.3273 783.377 23.334C787.161 25.3407 790.142 28.236 792.321 32.02C794.499 35.7467 795.589 40.0753 795.589 45.006C795.589 49.9367 794.471 54.294 792.235 58.078C790.056 61.8047 787.046 64.6713 783.205 66.678C779.421 68.6847 775.178 69.688 770.477 69.688ZM770.477 56.96C773.286 56.96 775.665 55.928 777.615 53.864C779.621 51.8 780.625 48.8473 780.625 45.006C780.625 41.1647 779.65 38.212 777.701 36.148C775.809 34.084 773.458 33.052 770.649 33.052C767.782 33.052 765.403 34.084 763.511 36.148C761.619 38.1547 760.673 41.1073 760.673 45.006C760.673 48.8473 761.59 51.8 763.425 53.864C765.317 55.928 767.667 56.96 770.477 56.96ZM824.977 55.24L835.383 21.012H851.035L834.007 69H815.861L798.833 21.012H814.571L824.977 55.24ZM902.461 44.232C902.461 45.608 902.375 47.0413 902.203 48.532H868.921C869.15 51.5133 870.096 53.8067 871.759 55.412C873.479 56.96 875.571 57.734 878.037 57.734C881.706 57.734 884.257 56.186 885.691 53.09H901.343C900.54 56.2433 899.078 59.0813 896.957 61.604C894.893 64.1267 892.284 66.1047 889.131 67.538C885.977 68.9713 882.451 69.688 878.553 69.688C873.851 69.688 869.666 68.6847 865.997 66.678C862.327 64.6713 859.461 61.8047 857.397 58.078C855.333 54.3513 854.301 49.994 854.301 45.006C854.301 40.018 855.304 35.6607 857.311 31.934C859.375 28.2073 862.241 25.3407 865.911 23.334C869.58 21.3273 873.794 20.324 878.553 20.324C883.197 20.324 887.325 21.2987 890.937 23.248C894.549 25.1973 897.358 27.978 899.365 31.59C901.429 35.202 902.461 39.416 902.461 44.232ZM887.411 40.362C887.411 37.8393 886.551 35.8327 884.831 34.342C883.111 32.8513 880.961 32.106 878.381 32.106C875.915 32.106 873.823 32.8227 872.103 34.256C870.44 35.6893 869.408 37.7247 869.007 40.362H887.411ZM924.925 29.01C926.645 26.3727 928.795 24.3087 931.375 22.818C933.955 21.27 936.821 20.496 939.975 20.496V36.062H935.933C932.263 36.062 929.511 36.8647 927.677 38.47C925.842 40.018 924.925 42.77 924.925 46.726V69H910.219V21.012H924.925V29.01Z" fill="#1E1E1E"/>
<path d="M39.634 8.628H40.634V7.628H39.634V8.628ZM39.634 20.41V21.41H40.634V20.41H39.634ZM15.038 20.41V19.41H14.038V20.41H15.038ZM15.038 33.138H14.038V34.138H15.038V33.138ZM33.442 33.138H34.442V32.138H33.442V33.138ZM33.442 44.576V45.576H34.442V44.576H33.442ZM15.038 44.576V43.576H14.038V44.576H15.038ZM15.038 69V70H16.038V69H15.038ZM0.332 69H-0.668V70H0.332V69ZM0.332 8.628V7.628H-0.668V8.628H0.332ZM38.634 8.628V20.41H40.634V8.628H38.634ZM39.634 19.41H15.038V21.41H39.634V19.41ZM14.038 20.41V33.138H16.038V20.41H14.038ZM15.038 34.138H33.442V32.138H15.038V34.138ZM32.442 33.138V44.576H34.442V33.138H32.442ZM33.442 43.576H15.038V45.576H33.442V43.576ZM14.038 44.576V69H16.038V44.576H14.038ZM15.038 68H0.332V70H15.038V68ZM1.332 69V8.628H-0.668V69H1.332ZM0.332 9.628H39.634V7.628H0.332V9.628ZM56.4793 66.678L56.0051 67.5585L56.0107 67.5615L56.4793 66.678ZM47.6213 58.078L46.7521 58.5727L46.758 58.5827L47.6213 58.078ZM47.7072 32.02L48.5706 32.5247L48.5739 32.519L47.7072 32.02ZM56.6512 23.334L57.1198 24.2175H57.1198L56.6512 23.334ZM82.1073 23.334L81.6387 24.2175L82.1073 23.334ZM91.0513 32.02L90.1846 32.519L90.188 32.5247L91.0513 32.02ZM90.9652 58.078L90.1043 57.5693L90.102 57.5733L90.9652 58.078ZM81.9352 66.678L81.4722 65.7916L81.4668 65.7945L81.9352 66.678ZM76.3453 53.864L75.6283 53.1669L75.6232 53.1721L75.6182 53.1774L76.3453 53.864ZM76.4313 36.148L75.6941 36.8237L75.6991 36.8292L75.7042 36.8346L76.4313 36.148ZM62.2412 36.148L62.9689 36.8341L62.9784 36.8237L62.2412 36.148ZM62.1553 53.864L61.4078 54.5284L61.4129 54.5341L61.4181 54.5397L62.1553 53.864ZM69.2073 68.688C64.653 68.688 60.5737 67.7174 56.9478 65.7945L56.0107 67.5615C59.9528 69.6519 64.3589 70.688 69.2073 70.688V68.688ZM56.9534 65.7975C53.3918 63.8798 50.5724 61.1447 48.4845 57.5733L46.758 58.5827C49.0274 62.4647 52.1133 65.4629 56.0051 67.5585L56.9534 65.7975ZM48.4903 57.5833C46.4679 54.0304 45.4393 49.8491 45.4393 45.006H43.4393C43.4393 50.1389 44.5319 54.6722 46.7522 58.5727L48.4903 57.5833ZM45.4393 45.006C45.4393 40.2271 46.4935 36.0775 48.5705 32.5247L46.844 31.5153C44.5636 35.4158 43.4393 39.9236 43.4393 45.006H45.4393ZM48.5739 32.519C50.6606 28.8947 53.5054 26.1342 57.1198 24.2175L56.1827 22.4505C52.2291 24.5472 49.1113 27.5773 46.8406 31.521L48.5739 32.519ZM57.1198 24.2175C60.7457 22.2946 64.825 21.324 69.3792 21.324V19.324C64.5309 19.324 60.1248 20.3601 56.1827 22.4505L57.1198 24.2175ZM69.3792 21.324C73.9335 21.324 78.0128 22.2946 81.6387 24.2175L82.5758 22.4505C78.6337 20.3601 74.2276 19.324 69.3792 19.324V21.324ZM81.6387 24.2175C85.2531 26.1342 88.0979 28.8947 90.1846 32.519L91.9179 31.521C89.6472 27.5773 86.5294 24.5472 82.5758 22.4505L81.6387 24.2175ZM90.188 32.5247C92.265 36.0775 93.3193 40.2271 93.3193 45.006H95.3193C95.3193 39.9236 94.1949 35.4158 91.9146 31.5153L90.188 32.5247ZM93.3193 45.006C93.3193 49.78 92.2386 53.9575 90.1043 57.5693L91.8262 58.5867C94.1639 54.6305 95.3193 50.0933 95.3193 45.006H93.3193ZM90.102 57.5733C88.0186 61.137 85.1476 63.8717 81.4722 65.7916L82.3983 67.5643C86.4056 65.471 89.5546 62.4724 91.8285 58.5827L90.102 57.5733ZM81.4668 65.7945C77.8408 67.7174 73.7615 68.688 69.2073 68.688V70.688C74.0556 70.688 78.4617 69.6519 82.4038 67.5615L81.4668 65.7945ZM69.2073 57.96C72.295 57.96 74.9363 56.8122 77.0723 54.5506L75.6182 53.1774C73.8556 55.0438 71.7382 55.96 69.2073 55.96V57.96ZM77.0622 54.5611C79.3045 52.2548 80.3553 49.0181 80.3553 45.006H78.3553C78.3553 48.6765 77.3994 51.3452 75.6283 53.1669L77.0622 54.5611ZM80.3553 45.006C80.3553 41.0012 79.3372 37.7685 77.1583 35.4614L75.7042 36.8346C77.424 38.6555 78.3553 41.3282 78.3553 45.006H80.3553ZM77.1684 35.4723C75.0863 33.2009 72.4678 32.052 69.3792 32.052V34.052C71.9093 34.052 73.9922 34.9671 75.6941 36.8237L77.1684 35.4723ZM69.3792 32.052C66.2399 32.052 63.5906 33.1961 61.5041 35.4723L62.9784 36.8237C64.6759 34.9719 66.7853 34.052 69.3792 34.052V32.052ZM61.5137 35.462C59.3856 37.719 58.4033 40.958 58.4033 45.006H60.4033C60.4033 41.2566 61.3129 38.5903 62.9688 36.834L61.5137 35.462ZM58.4033 45.006C58.4033 48.9965 59.3565 52.2206 61.4078 54.5284L62.9027 53.1996C61.2847 51.3794 60.4033 48.6982 60.4033 45.006H58.4033ZM61.4181 54.5397C63.5002 56.8111 66.1187 57.96 69.2073 57.96V55.96C66.6772 55.96 64.5943 55.0449 62.8924 53.1883L61.4181 54.5397ZM111.237 66.678L110.763 67.5585L110.769 67.5615L111.237 66.678ZM102.379 58.078L101.51 58.5727L101.516 58.5827L102.379 58.078ZM102.465 32.02L103.328 32.5247L103.332 32.519L102.465 32.02ZM111.409 23.334L111.878 24.2175L111.409 23.334ZM136.865 23.334L136.397 24.2175L136.865 23.334ZM145.809 32.02L144.942 32.519L144.946 32.5247L145.809 32.02ZM145.723 58.078L144.862 57.5693L144.86 57.5733L145.723 58.078ZM136.693 66.678L136.23 65.7916L136.225 65.7945L136.693 66.678ZM131.103 53.864L130.386 53.1669L130.381 53.1721L130.376 53.1774L131.103 53.864ZM131.189 36.148L130.452 36.8237L130.457 36.8292L130.462 36.8346L131.189 36.148ZM116.999 36.148L117.727 36.8341L117.736 36.8237L116.999 36.148ZM116.913 53.864L116.166 54.5284L116.171 54.5341L116.176 54.5397L116.913 53.864ZM123.965 68.688C119.411 68.688 115.332 67.7174 111.706 65.7945L110.769 67.5615C114.711 69.6519 119.117 70.688 123.965 70.688V68.688ZM111.711 65.7975C108.15 63.8798 105.33 61.1447 103.242 57.5733L101.516 58.5827C103.785 62.4647 106.871 65.4629 110.763 67.5585L111.711 65.7975ZM103.248 57.5833C101.226 54.0304 100.197 49.8491 100.197 45.006H98.1971C98.1971 50.1389 99.2897 54.6722 101.51 58.5727L103.248 57.5833ZM100.197 45.006C100.197 40.2271 101.251 36.0775 103.328 32.5247L101.602 31.5153C99.3215 35.4158 98.1971 39.9236 98.1971 45.006H100.197ZM103.332 32.519C105.418 28.8947 108.263 26.1342 111.878 24.2175L110.941 22.4505C106.987 24.5472 103.869 27.5773 101.598 31.521L103.332 32.519ZM111.878 24.2175C115.504 22.2946 119.583 21.324 124.137 21.324V19.324C119.289 19.324 114.883 20.3601 110.941 22.4505L111.878 24.2175ZM124.137 21.324C128.691 21.324 132.771 22.2946 136.397 24.2175L137.334 22.4505C133.392 20.3601 128.985 19.324 124.137 19.324V21.324ZM136.397 24.2175C140.011 26.1342 142.856 28.8947 144.942 32.519L146.676 31.521C144.405 27.5773 141.287 24.5472 137.334 22.4505L136.397 24.2175ZM144.946 32.5247C147.023 36.0775 148.077 40.2271 148.077 45.006H150.077C150.077 39.9236 148.953 35.4158 146.672 31.5153L144.946 32.5247ZM148.077 45.006C148.077 49.78 146.996 53.9575 144.862 57.5693L146.584 58.5867C148.922 54.6305 150.077 50.0933 150.077 45.006H148.077ZM144.86 57.5733C142.776 61.137 139.905 63.8717 136.23 65.7916L137.156 67.5643C141.163 65.471 144.312 62.4724 146.586 58.5827L144.86 57.5733ZM136.225 65.7945C132.599 67.7174 128.519 68.688 123.965 68.688V70.688C128.813 70.688 133.22 69.6519 137.162 67.5615L136.225 65.7945ZM123.965 57.96C127.053 57.96 129.694 56.8122 131.83 54.5506L130.376 53.1774C128.613 55.0438 126.496 55.96 123.965 55.96V57.96ZM131.82 54.5611C134.062 52.2548 135.113 49.0181 135.113 45.006H133.113C133.113 48.6765 132.157 51.3452 130.386 53.1669L131.82 54.5611ZM135.113 45.006C135.113 41.0012 134.095 37.7685 131.916 35.4614L130.462 36.8346C132.182 38.6555 133.113 41.3282 133.113 45.006H135.113ZM131.926 35.4723C129.844 33.2009 127.226 32.052 124.137 32.052V34.052C126.667 34.052 128.75 34.9671 130.452 36.8237L131.926 35.4723ZM124.137 32.052C120.998 32.052 118.348 33.1961 116.262 35.4723L117.736 36.8237C119.434 34.9719 121.543 34.052 124.137 34.052V32.052ZM116.271 35.462C114.143 37.719 113.161 40.958 113.161 45.006H115.161C115.161 41.2566 116.071 38.5903 117.727 36.834L116.271 35.462ZM113.161 45.006C113.161 48.9965 114.114 52.2206 116.166 54.5284L117.66 53.1996C116.043 51.3794 115.161 48.6982 115.161 45.006H113.161ZM116.176 54.5397C118.258 56.8111 120.876 57.96 123.965 57.96V55.96C121.435 55.96 119.352 55.0449 117.65 53.1883L116.176 54.5397ZM156.707 31.934L155.815 31.4813L155.81 31.4923L156.707 31.934ZM164.361 23.334L164.891 24.182L164.361 23.334ZM183.711 22.302L183.256 23.1925L183.264 23.1964L183.711 22.302ZM189.903 27.634L189.071 28.1887L190.903 30.9368V27.634H189.903ZM189.903 5.36V4.36H188.903V5.36H189.903ZM204.609 5.36H205.609V4.36H204.609V5.36ZM204.609 69V70H205.609V69H204.609ZM189.903 69H188.903V70H189.903V69ZM189.903 62.12H190.903V58.5097L189.045 61.6055L189.903 62.12ZM183.969 67.624L183.498 66.7416L183.49 66.7461L183.969 67.624ZM164.361 66.678L163.82 67.5192L163.831 67.526L164.361 66.678ZM156.707 57.992L155.807 58.4283L155.811 58.4365L155.815 58.4447L156.707 57.992ZM186.807 36.32L186.08 37.0073L186.09 37.0174L186.807 36.32ZM171.929 36.32L171.212 35.6226L171.212 35.6229L171.929 36.32ZM171.929 53.692L171.193 54.3695L171.203 54.3795L171.212 54.3894L171.929 53.692ZM186.807 53.692L186.09 52.9946L186.08 53.0048L186.807 53.692ZM154.955 44.92C154.955 40.1141 155.849 35.9415 157.604 32.3757L155.81 31.4923C153.896 35.3798 152.955 39.8646 152.955 44.92H154.955ZM157.599 32.3867C159.417 28.8049 161.85 26.0824 164.891 24.182L163.831 22.486C160.45 24.5989 157.781 27.6098 155.815 31.4813L157.599 32.3867ZM164.891 24.182C167.935 22.2792 171.333 21.324 175.111 21.324V19.324C170.976 19.324 167.208 20.3754 163.831 22.486L164.891 24.182ZM175.111 21.324C178.12 21.324 180.829 21.952 183.256 23.1924L184.166 21.4116C181.433 20.0147 178.408 19.324 175.111 19.324V21.324ZM183.264 23.1964C185.761 24.445 187.686 26.1113 189.071 28.1887L190.735 27.0793C189.139 24.6847 186.936 22.7963 184.158 21.4076L183.264 23.1964ZM190.903 27.634V5.36H188.903V27.634H190.903ZM189.903 6.36H204.609V4.36H189.903V6.36ZM203.609 5.36V69H205.609V5.36H203.609ZM204.609 68H189.903V70H204.609V68ZM190.903 69V62.12H188.903V69H190.903ZM189.045 61.6055C187.771 63.7291 185.934 65.4427 183.498 66.7416L184.439 68.5064C187.164 67.0533 189.283 65.0976 190.76 62.6345L189.045 61.6055ZM183.49 66.7461C181.138 68.0289 178.356 68.688 175.111 68.688V70.688C178.631 70.688 181.754 69.9711 184.448 68.5019L183.49 66.7461ZM175.111 68.688C171.333 68.688 167.935 67.7328 164.891 65.83L163.831 67.526C167.208 69.6366 170.976 70.688 175.111 70.688V68.688ZM164.902 65.8368C161.854 63.8778 159.418 61.1231 157.599 57.5393L155.815 58.4447C157.78 62.3142 160.446 65.3502 163.82 67.5192L164.902 65.8368ZM157.607 57.5557C155.848 53.9293 154.955 49.7255 154.955 44.92H152.955C152.955 49.9759 153.896 54.4867 155.807 58.4283L157.607 57.5557ZM190.903 45.006C190.903 41.1421 189.811 37.9731 187.524 35.6226L186.09 37.0174C187.931 38.9096 188.903 41.5313 188.903 45.006H190.903ZM187.533 35.6328C185.338 33.3115 182.609 32.138 179.411 32.138V34.138C182.06 34.138 184.263 35.0858 186.08 37.0072L187.533 35.6328ZM179.411 32.138C176.213 32.138 173.462 33.3105 171.212 35.6226L172.646 37.0174C174.524 35.0868 176.761 34.138 179.411 34.138V32.138ZM171.212 35.6229C168.978 37.9211 167.919 41.065 167.919 44.92H169.919C169.919 41.4363 170.867 38.8469 172.646 37.0171L171.212 35.6229ZM167.919 44.92C167.919 48.7776 168.978 51.9647 171.193 54.3695L172.664 53.0145C170.866 51.062 169.919 48.401 169.919 44.92H167.919ZM171.212 54.3894C173.462 56.7015 176.213 57.874 179.411 57.874V55.874C176.761 55.874 174.524 54.9252 172.646 52.9946L171.212 54.3894ZM179.411 57.874C182.609 57.874 185.338 56.7005 187.533 54.3792L186.08 53.0048C184.263 54.9262 182.06 55.874 179.411 55.874V57.874ZM187.524 54.3894C189.811 52.0389 190.903 48.8699 190.903 45.006H188.903C188.903 48.4807 187.931 51.1024 186.09 52.9946L187.524 54.3894ZM216.28 13.788L215.586 14.5078L215.599 14.5204L215.612 14.5326L216.28 13.788ZM216.28 2.436L216.96 3.16879L216.961 3.16789L216.28 2.436ZM228.836 2.436L228.142 3.15584L228.155 3.16844L228.168 3.18056L228.836 2.436ZM228.836 13.788L229.516 14.5208L229.517 14.5199L228.836 13.788ZM229.954 21.012H230.954V20.012H229.954V21.012ZM229.954 69V70H230.954V69H229.954ZM215.248 69H214.248V70H215.248V69ZM215.248 21.012V20.012H214.248V21.012H215.248ZM222.644 15.024C220.27 15.024 218.399 14.3443 216.948 13.0434L215.612 14.5326C217.487 16.213 219.858 17.024 222.644 17.024V15.024ZM216.974 13.0682C215.565 11.7092 214.872 10.0773 214.872 8.112H212.872C212.872 10.6187 213.785 12.7708 215.586 14.5078L216.974 13.0682ZM214.872 8.112C214.872 6.08205 215.569 4.46048 216.96 3.16879L215.6 1.7032C213.78 3.39285 212.872 5.55528 212.872 8.112H214.872ZM216.961 3.16789C218.414 1.81582 220.28 1.11399 222.644 1.11399V-0.886005C219.848 -0.886005 217.472 -0.0398331 215.599 1.7041L216.961 3.16789ZM222.644 1.11399C224.945 1.11399 226.748 1.81159 228.142 3.15584L229.53 1.71615C227.714 -0.0356007 225.389 -0.886005 222.644 -0.886005V1.11399ZM228.168 3.18056C229.613 4.47579 230.33 6.09408 230.33 8.112H232.33C232.33 5.54325 231.384 3.37753 229.504 1.69143L228.168 3.18056ZM230.33 8.112C230.33 10.0654 229.618 11.6938 228.155 13.0561L229.517 14.5199C231.38 12.7862 232.33 10.6306 232.33 8.112H230.33ZM228.156 13.0552C226.763 14.3481 224.955 15.024 222.644 15.024V17.024C225.378 17.024 227.698 16.2092 229.516 14.5208L228.156 13.0552ZM228.954 21.012V69H230.954V21.012H228.954ZM229.954 68H215.248V70H229.954V68ZM216.248 69V21.012H214.248V69H216.248ZM215.248 22.012H229.954V20.012H215.248V22.012ZM285.589 48.532V49.532H286.481L286.583 48.6466L285.589 48.532ZM252.307 48.532V47.532H251.227L251.31 48.6087L252.307 48.532ZM255.145 55.412L254.451 56.1314L254.463 56.1436L254.476 56.1553L255.145 55.412ZM269.077 53.09V52.09H268.438L268.17 52.6699L269.077 53.09ZM284.729 53.09L285.698 53.3367L286.016 52.09H284.729V53.09ZM280.343 61.604L279.578 60.9603L279.569 60.9708L280.343 61.604ZM272.517 67.538L272.931 68.4484L272.517 67.538ZM249.383 66.678L248.903 67.5554L249.383 66.678ZM240.783 58.078L241.658 57.5935L240.783 58.078ZM240.697 31.934L239.822 31.4495L239.817 31.4599L240.697 31.934ZM249.297 23.334L249.777 24.2114L249.297 23.334ZM274.323 23.248L273.848 24.128L274.323 23.248ZM282.751 31.59L281.877 32.0757L281.883 32.0861L282.751 31.59ZM270.797 40.362V41.362H271.797V40.362H270.797ZM268.217 34.342L268.872 33.5863L268.217 34.342ZM255.489 34.256L254.849 33.4878L254.843 33.4931L254.836 33.4986L255.489 34.256ZM252.393 40.362L251.405 40.2116L251.23 41.362H252.393V40.362ZM284.847 44.232C284.847 45.5664 284.764 46.9614 284.596 48.4174L286.583 48.6466C286.759 47.1213 286.847 45.6496 286.847 44.232H284.847ZM285.589 47.532H252.307V49.532H285.589V47.532ZM251.31 48.6087C251.553 51.7605 252.565 54.311 254.451 56.1314L255.84 54.6926C254.4 53.3023 253.521 51.2661 253.304 48.4553L251.31 48.6087ZM254.476 56.1553C256.393 57.88 258.729 58.734 261.423 58.734V56.734C259.187 56.734 257.338 56.04 255.814 54.6687L254.476 56.1553ZM261.423 58.734C263.399 58.734 265.143 58.3164 266.608 57.4279C268.077 56.5366 269.197 55.2118 269.985 53.5101L268.17 52.6699C267.524 54.0642 266.652 55.0614 265.57 55.7181C264.483 56.3776 263.117 56.734 261.423 56.734V58.734ZM269.077 54.09H284.729V52.09H269.077V54.09ZM283.76 52.8433C282.995 55.8487 281.604 58.5515 279.578 60.9604L281.109 62.2476C283.326 59.6112 284.858 56.6379 285.698 53.3367L283.76 52.8433ZM279.569 60.9708C277.609 63.3672 275.126 65.2537 272.103 66.6276L272.931 68.4484C276.215 66.9556 278.95 64.8861 281.117 62.2372L279.569 60.9708ZM272.103 66.6276C269.096 67.9949 265.713 68.688 261.939 68.688V70.688C265.963 70.688 269.632 69.9478 272.931 68.4484L272.103 66.6276ZM261.939 68.688C257.384 68.688 253.368 67.7173 249.863 65.8006L248.903 67.5554C252.737 69.6521 257.091 70.688 261.939 70.688V68.688ZM249.863 65.8006C246.363 63.8866 243.632 61.1577 241.658 57.5935L239.909 58.5625C242.062 62.4516 245.065 65.456 248.903 67.5554L249.863 65.8006ZM241.658 57.5935C239.689 54.0387 238.687 49.8536 238.687 45.006H236.687C236.687 50.1344 237.749 54.664 239.909 58.5625L241.658 57.5935ZM238.687 45.006C238.687 40.1539 239.662 35.9651 241.578 32.4081L239.817 31.4599C237.719 35.3563 236.687 39.8821 236.687 45.006H238.687ZM241.572 32.4185C243.546 28.8543 246.277 26.1254 249.777 24.2114L248.817 22.4566C244.979 24.556 241.976 27.5604 239.823 31.4495L241.572 32.4185ZM249.777 24.2114C253.28 22.2957 257.325 21.324 261.939 21.324V19.324C257.036 19.324 252.653 20.359 248.817 22.4566L249.777 24.2114ZM261.939 21.324C266.44 21.324 270.401 22.2673 273.848 24.128L274.798 22.368C271.022 20.33 266.727 19.324 261.939 19.324V21.324ZM273.848 24.128C277.291 25.986 279.963 28.6293 281.877 32.0756L283.625 31.1044C281.527 27.3267 278.579 24.4086 274.798 22.368L273.848 24.128ZM281.883 32.0861C283.848 35.5247 284.847 39.5623 284.847 44.232H286.847C286.847 39.2697 285.783 34.8793 283.62 31.0939L281.883 32.0861ZM271.797 40.362C271.797 37.5846 270.837 35.2889 268.872 33.5863L267.562 35.0977C269.038 36.3765 269.797 38.0941 269.797 40.362H271.797ZM268.872 33.5863C266.946 31.917 264.554 31.106 261.767 31.106V33.106C264.141 33.106 266.048 33.7857 267.562 35.0977L268.872 33.5863ZM261.767 31.106C259.093 31.106 256.767 31.8892 254.849 33.4878L256.129 35.0242C257.651 33.7561 259.511 33.106 261.767 33.106V31.106ZM254.836 33.4986C252.956 35.1194 251.834 37.3912 251.405 40.2116L253.382 40.5124C253.755 38.0581 254.697 36.2592 256.142 35.0134L254.836 33.4986ZM252.393 41.362H270.797V39.362H252.393V41.362ZM358.012 69L357.316 69.7181L357.607 70H358.012V69ZM352.422 63.582L353.118 62.8639L352.5 62.2648L351.816 62.7869L352.422 63.582ZM320.344 67.71L319.934 68.622L319.946 68.6276L320.344 67.71ZM312.346 61.26L311.509 61.8068L311.515 61.8167L311.522 61.8265L312.346 61.26ZM312.604 41.222L311.772 40.6673L311.77 40.6709L312.604 41.222ZM321.806 33.654L322.238 34.5559L323.382 34.008L322.582 33.0234L321.806 33.654ZM318.624 28.408L317.685 28.7523L317.689 28.7627L318.624 28.408ZM319.914 14.992L319.07 14.4565L319.914 14.992ZM326.364 9.488L326.789 10.3933L326.797 10.3895L326.364 9.488ZM346.574 9.574L347.036 8.68708V8.68708L346.574 9.574ZM352.766 15.336L353.634 14.8399L352.766 15.336ZM354.658 23.248V24.248H355.619L355.657 23.288L354.658 23.248ZM340.812 23.248L339.813 23.211L339.774 24.248H340.812V23.248ZM339.608 19.722L338.877 20.4043L338.901 20.4295L338.926 20.4531L339.608 19.722ZM332.642 26.516L331.771 27.0081L331.779 27.0221L331.788 27.0359L332.642 26.516ZM336.34 31.074L335.621 31.769L335.631 31.7794L335.641 31.7894L336.34 31.074ZM351.046 45.436L350.347 46.1514L351.418 47.1975L351.975 45.8074L351.046 45.436ZM351.476 44.404L350.608 43.9079L350.579 43.9575L350.557 44.0101L351.476 44.404ZM352.164 43.028L351.302 42.5216L351.273 42.5703L351.25 42.6219L352.164 43.028ZM355.346 37.61V36.61H354.774L354.484 37.1036L355.346 37.61ZM370.052 37.61L370.928 38.0931L371.746 36.61H370.052V37.61ZM365.924 45.092L365.048 44.6089L365.03 44.6418L365.015 44.6759L365.924 45.092ZM360.592 54.724L359.758 54.1729L359.304 54.8602L359.891 55.4374L360.592 54.724ZM375.126 69V70H377.571L375.827 68.2866L375.126 69ZM343.392 54.81L343.982 55.6174L344.94 54.917L344.088 54.0915L343.392 54.81ZM329.976 41.824L330.672 41.1055L330.157 40.6069L329.519 40.9346L329.976 41.824ZM326.278 55.928L325.611 56.6726L325.624 56.6846L325.638 56.6962L326.278 55.928ZM358.708 68.2819L353.118 62.8639L351.726 64.3001L357.316 69.7181L358.708 68.2819ZM351.816 62.7869C346.447 66.8825 340.016 68.946 332.47 68.946V70.946C340.405 70.946 347.274 68.7669 353.029 64.3771L351.816 62.7869ZM332.47 68.946C327.931 68.946 324.03 68.2174 320.742 66.7924L319.946 68.6276C323.538 70.1839 327.721 70.946 332.47 70.946V68.946ZM320.754 66.7981C317.459 65.3152 314.945 63.2758 313.17 60.6935L311.522 61.8265C313.531 64.7482 316.349 67.0088 319.934 68.6219L320.754 66.7981ZM313.183 60.7132C311.466 58.0842 310.594 55.0107 310.594 51.456H308.594C308.594 55.3546 309.556 58.8172 311.509 61.8068L313.183 60.7132ZM310.594 51.456C310.594 47.8598 311.544 44.6416 313.439 41.7731L311.77 40.6709C309.651 43.8797 308.594 47.4842 308.594 51.456H310.594ZM313.436 41.7767C315.381 38.8593 318.295 36.4441 322.238 34.5559L321.374 32.7521C317.176 34.7625 313.955 37.3927 311.772 40.6673L313.436 41.7767ZM322.582 33.0234C321.138 31.2461 320.142 29.5894 319.559 28.0533L317.689 28.7627C318.368 30.5519 319.493 32.3926 321.03 34.2846L322.582 33.0234ZM319.563 28.0637C318.976 26.4641 318.678 24.7184 318.678 22.818H316.678C316.678 24.9309 317.01 26.9119 317.685 28.7523L319.563 28.0637ZM318.678 22.818C318.678 20.135 319.373 17.7131 320.759 15.5275L319.07 14.4565C317.474 16.9723 316.678 19.7677 316.678 22.818H318.678ZM320.759 15.5275C322.136 13.3556 324.131 11.6407 326.789 10.3932L325.939 8.58276C322.978 9.97265 320.674 11.9271 319.07 14.4565L320.759 15.5275ZM326.797 10.3895C329.501 9.09132 332.73 8.424 336.512 8.424V6.424C332.497 6.424 328.96 7.13268 325.931 8.58648L326.797 10.3895ZM336.512 8.424C340.35 8.424 343.537 9.11949 346.112 10.4609L347.036 8.68708C344.108 7.16184 340.586 6.424 336.512 6.424V8.424ZM346.112 10.4609C348.715 11.8165 350.628 13.61 351.898 15.8321L353.634 14.8399C352.152 12.246 349.937 10.1981 347.036 8.68708L346.112 10.4609ZM351.898 15.8321C353.177 18.0714 353.766 20.522 353.659 23.208L355.657 23.288C355.779 20.2406 355.107 17.4165 353.634 14.8399L351.898 15.8321ZM354.658 22.248H340.812V24.248H354.658V22.248ZM341.811 23.285C341.876 21.5447 341.425 20.0496 340.29 18.9909L338.926 20.4531C339.511 20.9997 339.863 21.8553 339.813 23.211L341.811 23.285ZM340.339 19.0397C339.315 17.9424 337.942 17.432 336.34 17.432V19.432C337.49 19.432 338.296 19.7816 338.877 20.4043L340.339 19.0397ZM336.34 17.432C334.755 17.432 333.365 17.9006 332.242 18.8834L333.559 20.3886C334.27 19.7661 335.173 19.432 336.34 19.432V17.432ZM332.242 18.8834C331.099 19.8834 330.524 21.1938 330.524 22.732H332.524C332.524 21.7476 332.867 20.9939 333.559 20.3886L332.242 18.8834ZM330.524 22.732C330.524 24.1475 330.963 25.5774 331.771 27.0081L333.513 26.0239C332.831 24.8173 332.524 23.7245 332.524 22.732H330.524ZM331.788 27.0359C332.644 28.4423 333.932 30.0215 335.621 31.769L337.059 30.379C335.423 28.6865 334.246 27.227 333.496 25.9961L331.788 27.0359ZM335.641 31.7894L350.347 46.1514L351.745 44.7206L337.039 30.3586L335.641 31.7894ZM351.975 45.8074C352.085 45.5306 352.225 45.1946 352.395 44.7979L350.557 44.0101C350.383 44.4161 350.236 44.768 350.118 45.0646L351.975 45.8074ZM352.344 44.9001C352.593 44.464 352.838 43.9744 353.078 43.4341L351.25 42.6219C351.032 43.1136 350.817 43.5413 350.608 43.9079L352.344 44.9001ZM353.026 43.5344L356.208 38.1164L354.484 37.1036L351.302 42.5216L353.026 43.5344ZM355.346 38.61H370.052V36.61H355.346V38.61ZM369.176 37.1269L365.048 44.6089L366.8 45.5751L370.928 38.0931L369.176 37.1269ZM365.015 44.6759C363.488 48.0127 361.735 51.1782 359.758 54.1729L361.427 55.2751C363.462 52.1925 365.264 48.9366 366.833 45.5081L365.015 44.6759ZM359.891 55.4374L374.425 69.7134L375.827 68.2866L361.293 54.0106L359.891 55.4374ZM375.126 68H358.012V70H375.126V68ZM333.158 59.078C337.202 59.078 340.822 57.9265 343.982 55.6174L342.802 54.0026C339.999 56.0508 336.796 57.078 333.158 57.078V59.078ZM344.088 54.0915L330.672 41.1055L329.281 42.5425L342.697 55.5285L344.088 54.0915ZM329.519 40.9346C325.17 43.1696 322.784 46.326 322.784 50.424H324.784C324.784 47.298 326.526 44.721 330.433 42.7134L329.519 40.9346ZM322.784 50.424C322.784 52.8948 323.742 54.9976 325.611 56.6726L326.946 55.1834C325.488 53.877 324.784 52.3105 324.784 50.424H322.784ZM325.638 56.6962C327.583 58.3172 330.124 59.078 333.158 59.078V57.078C330.458 57.078 328.413 56.4055 326.918 55.1598L325.638 56.6962ZM436.252 58.336L437.199 58.0152L436.969 57.336H436.252V58.336ZM413.72 58.336V57.336H413.003L412.773 58.0152L413.72 58.336ZM410.108 69V70H410.825L411.055 69.3208L410.108 69ZM394.714 69L393.774 68.6598L393.289 70H394.714V69ZM416.558 8.628V7.628H415.856L415.618 8.28776L416.558 8.628ZM433.586 8.628L434.526 8.28776L434.288 7.628H433.586V8.628ZM455.43 69V70H456.855L456.37 68.6598L455.43 69ZM439.864 69L438.917 69.3208L439.147 70H439.864V69ZM432.468 46.984V47.984H433.862L433.415 46.6634L432.468 46.984ZM424.986 24.882L425.933 24.5614L424.98 21.7471L424.038 24.5647L424.986 24.882ZM417.59 46.984L416.642 46.6667L416.201 47.984H417.59V46.984ZM436.252 57.336H413.72V59.336H436.252V57.336ZM412.773 58.0152L409.161 68.6792L411.055 69.3208L414.667 58.6568L412.773 58.0152ZM410.108 68H394.714V70H410.108V68ZM395.654 69.3402L417.498 8.96824L415.618 8.28776L393.774 68.6598L395.654 69.3402ZM416.558 9.628H433.586V7.628H416.558V9.628ZM432.646 8.96824L454.49 69.3402L456.37 68.6598L434.526 8.28776L432.646 8.96824ZM455.43 68H439.864V70H455.43V68ZM440.811 68.6792L437.199 58.0152L435.305 58.6568L438.917 69.3208L440.811 68.6792ZM433.415 46.6634L425.933 24.5614L424.039 25.2026L431.521 47.3046L433.415 46.6634ZM424.038 24.5647L416.642 46.6667L418.538 47.3013L425.934 25.1993L424.038 24.5647ZM417.59 47.984H432.468V45.984H417.59V47.984ZM504.734 26L503.993 26.6715L503.999 26.6776L504.004 26.6836L504.734 26ZM509.808 69V70H510.808V69H509.808ZM495.188 69H494.188V70H495.188V69ZM492.694 35.46L491.964 36.1432V36.1432L492.694 35.46ZM479.278 35.46L480.008 36.1432V36.1432L479.278 35.46ZM476.784 69V70H477.784V69H476.784ZM462.078 69H461.078V70H462.078V69ZM462.078 21.012V20.012H461.078V21.012H462.078ZM476.784 21.012H477.784V20.012H476.784V21.012ZM476.784 27.376H475.784V30.5384L477.602 27.9509L476.784 27.376ZM482.804 22.388L483.235 23.2905L483.243 23.2865L483.251 23.2824L482.804 22.388ZM491.318 21.496C496.697 21.496 500.884 23.2406 503.993 26.6715L505.475 25.3285C501.934 21.4207 497.177 19.496 491.318 19.496V21.496ZM504.004 26.6836C507.168 30.0618 508.808 34.7787 508.808 40.964H510.808C510.808 34.4213 509.066 29.1622 505.464 25.3164L504.004 26.6836ZM508.808 40.964V69H510.808V40.964H508.808ZM509.808 68H495.188V70H509.808V68ZM496.188 69V42.942H494.188V69H496.188ZM496.188 42.942C496.188 39.5608 495.31 36.7923 493.424 34.7768L491.964 36.1432C493.404 37.6823 494.188 39.9019 494.188 42.942H496.188ZM493.424 34.7768C491.543 32.7656 489.025 31.794 485.986 31.794V33.794C488.565 33.794 490.52 34.5997 491.964 36.1432L493.424 34.7768ZM485.986 31.794C482.947 31.794 480.429 32.7656 478.548 34.7768L480.008 36.1432C481.452 34.5997 483.407 33.794 485.986 33.794V31.794ZM478.548 34.7768C476.662 36.7923 475.784 39.5608 475.784 42.942H477.784C477.784 39.9019 478.568 37.6823 480.008 36.1432L478.548 34.7768ZM475.784 42.942V69H477.784V42.942H475.784ZM476.784 68H462.078V70H476.784V68ZM463.078 69V21.012H461.078V69H463.078ZM462.078 22.012H476.784V20.012H462.078V22.012ZM475.784 21.012V27.376H477.784V21.012H475.784ZM477.602 27.9509C478.986 25.9812 480.855 24.4264 483.235 23.2905L482.373 21.4855C479.708 22.7576 477.563 24.5281 475.966 26.8011L477.602 27.9509ZM483.251 23.2824C485.619 22.0984 488.301 21.496 491.318 21.496V19.496C488.028 19.496 485.034 20.155 482.357 21.4936L483.251 23.2824ZM521.059 13.788L520.365 14.5078L520.378 14.5204L520.392 14.5326L521.059 13.788ZM521.059 2.436L521.74 3.16879L521.741 3.16789L521.059 2.436ZM533.615 2.436L532.921 3.15584L532.934 3.16844L532.948 3.18056L533.615 2.436ZM533.615 13.788L534.296 14.5208L534.297 14.5199L533.615 13.788ZM534.733 21.012H535.733V20.012H534.733V21.012ZM534.733 69V70H535.733V69H534.733ZM520.027 69H519.027V70H520.027V69ZM520.027 21.012V20.012H519.027V21.012H520.027ZM527.423 15.024C525.049 15.024 523.178 14.3443 521.727 13.0434L520.392 14.5326C522.266 16.213 524.638 17.024 527.423 17.024V15.024ZM521.753 13.0682C520.344 11.7092 519.651 10.0773 519.651 8.112H517.651C517.651 10.6187 518.564 12.7708 520.365 14.5078L521.753 13.0682ZM519.651 8.112C519.651 6.08205 520.349 4.46048 521.74 3.16879L520.379 1.7032C518.559 3.39285 517.651 5.55528 517.651 8.112H519.651ZM521.741 3.16789C523.193 1.81582 525.059 1.11399 527.423 1.11399V-0.886005C524.627 -0.886005 522.251 -0.0398331 520.378 1.7041L521.741 3.16789ZM527.423 1.11399C529.724 1.11399 531.527 1.81159 532.921 3.15584L534.309 1.71615C532.493 -0.0356007 530.168 -0.886005 527.423 -0.886005V1.11399ZM532.948 3.18056C534.392 4.47579 535.109 6.09408 535.109 8.112H537.109C537.109 5.54325 536.164 3.37753 534.283 1.69143L532.948 3.18056ZM535.109 8.112C535.109 10.0654 534.397 11.6938 532.934 13.0561L534.297 14.5199C536.159 12.7862 537.109 10.6306 537.109 8.112H535.109ZM532.935 13.0552C531.542 14.3481 529.735 15.024 527.423 15.024V17.024C530.157 17.024 532.477 16.2092 534.296 14.5208L532.935 13.0552ZM533.733 21.012V69H535.733V21.012H533.733ZM534.733 68H520.027V70H534.733V68ZM521.027 69V21.012H519.027V69H521.027ZM520.027 22.012H534.733V20.012H520.027V22.012ZM620.813 25.914L620.094 26.6096L620.1 26.6154L620.813 25.914ZM626.145 69V70H627.145V69H626.145ZM611.525 69H610.525V70H611.525V69ZM609.031 35.804L608.3 36.4863L608.311 36.4989L608.323 36.5111L609.031 35.804ZM595.529 35.804L594.81 35.109L594.809 35.1094L595.529 35.804ZM593.121 69V70H594.121V69H593.121ZM578.501 69H577.501V70H578.501V69ZM576.007 35.804L575.276 36.4863L575.287 36.4989L575.299 36.5111L576.007 35.804ZM562.505 35.804L561.786 35.109L561.785 35.1094L562.505 35.804ZM560.097 69V70H561.097V69H560.097ZM545.391 69H544.391V70H545.391V69ZM545.391 21.012V20.012H544.391V21.012H545.391ZM560.097 21.012H561.097V20.012H560.097V21.012ZM560.097 27.032H559.097V30.0551L560.899 27.6283L560.097 27.032ZM565.945 22.302L566.375 23.2049L566.383 23.2007L566.392 23.1964L565.945 22.302ZM583.747 22.818L583.264 23.6939L583.271 23.6979L583.747 22.818ZM590.455 29.44L589.582 29.9286L590.404 31.3958L591.301 29.9733L590.455 29.44ZM606.623 21.496C612.369 21.496 616.82 23.228 620.094 26.6096L621.531 25.2184C617.811 21.376 612.802 19.496 606.623 19.496V21.496ZM620.1 26.6154C623.425 29.9938 625.145 34.7316 625.145 40.964H627.145C627.145 34.3537 625.31 29.0582 621.525 25.2126L620.1 26.6154ZM625.145 40.964V69H627.145V40.964H625.145ZM626.145 68H611.525V70H626.145V68ZM612.525 69V42.942H610.525V69H612.525ZM612.525 42.942C612.525 39.6679 611.642 37.0008 609.738 35.0969L608.323 36.5111C609.745 37.9325 610.525 40.0241 610.525 42.942H612.525ZM609.762 35.1217C607.927 33.1558 605.401 32.224 602.323 32.224V34.224C604.977 34.224 606.924 35.0121 608.3 36.4863L609.762 35.1217ZM602.323 32.224C599.243 32.224 596.697 33.156 594.81 35.109L596.248 36.499C597.685 35.012 599.669 34.224 602.323 34.224V32.224ZM594.809 35.1094C592.97 37.0147 592.121 39.6771 592.121 42.942H594.121C594.121 40.0149 594.877 37.9187 596.248 36.4986L594.809 35.1094ZM592.121 42.942V69H594.121V42.942H592.121ZM593.121 68H578.501V70H593.121V68ZM579.501 69V42.942H577.501V69H579.501ZM579.501 42.942C579.501 39.6679 578.618 37.0008 576.714 35.0969L575.299 36.5111C576.721 37.9325 577.501 40.0241 577.501 42.942H579.501ZM576.738 35.1217C574.903 33.1558 572.377 32.224 569.299 32.224V34.224C571.953 34.224 573.9 35.0121 575.276 36.4863L576.738 35.1217ZM569.299 32.224C566.219 32.224 563.673 33.156 561.786 35.109L563.224 36.499C564.661 35.012 566.645 34.224 569.299 34.224V32.224ZM561.785 35.1094C559.946 37.0147 559.097 39.6771 559.097 42.942H561.097C561.097 40.0149 561.853 37.9187 563.224 36.4986L561.785 35.1094ZM559.097 42.942V69H561.097V42.942H559.097ZM560.097 68H545.391V70H560.097V68ZM546.391 69V21.012H544.391V69H546.391ZM545.391 22.012H560.097V20.012H545.391V22.012ZM559.097 21.012V27.032H561.097V21.012H559.097ZM560.899 27.6283C562.286 25.7615 564.104 24.2862 566.375 23.2049L565.515 21.3991C562.969 22.6112 560.888 24.2892 559.294 26.4357L560.899 27.6283ZM566.392 23.1964C568.644 22.0703 571.211 21.496 574.115 21.496V19.496C570.941 19.496 568.061 20.1257 565.497 21.4076L566.392 23.1964ZM574.115 21.496C577.579 21.496 580.62 22.2371 583.264 23.6938L584.229 21.9422C581.254 20.3029 577.874 19.496 574.115 19.496V21.496ZM583.271 23.6979C585.97 25.155 588.069 27.2259 589.582 29.9286L591.327 28.9514C589.63 25.9207 587.257 23.577 584.222 21.9381L583.271 23.6979ZM591.301 29.9733C592.872 27.4813 595.014 25.4418 597.75 23.855L596.747 22.125C593.749 23.8635 591.363 26.124 589.609 28.9067L591.301 29.9733ZM597.75 23.855C600.461 22.2827 603.412 21.496 606.623 21.496V19.496C603.068 19.496 599.769 20.372 596.747 22.125L597.75 23.855ZM681.408 48.532V49.532H682.299L682.401 48.6466L681.408 48.532ZM648.126 48.532V47.532H647.046L647.129 48.6087L648.126 48.532ZM650.964 55.412L650.269 56.1314L650.282 56.1436L650.295 56.1553L650.964 55.412ZM664.896 53.09V52.09H664.257L663.988 52.6699L664.896 53.09ZM680.548 53.09L681.517 53.3367L681.834 52.09H680.548V53.09ZM676.162 61.604L675.396 60.9603L675.388 60.9708L676.162 61.604ZM668.336 67.538L668.749 68.4484L668.336 67.538ZM645.202 66.678L644.722 67.5554L645.202 66.678ZM636.602 58.078L637.476 57.5935L636.602 58.078ZM636.516 31.934L635.641 31.4495L635.635 31.4599L636.516 31.934ZM645.116 23.334L645.595 24.2114L645.116 23.334ZM670.142 23.248L669.667 24.128L670.142 23.248ZM678.57 31.59L677.695 32.0757L677.701 32.0861L678.57 31.59ZM666.616 40.362V41.362H667.616V40.362H666.616ZM664.036 34.342L664.691 33.5863L664.036 34.342ZM651.308 34.256L650.667 33.4878L650.661 33.4931L650.655 33.4986L651.308 34.256ZM648.212 40.362L647.223 40.2116L647.048 41.362H648.212V40.362ZM680.666 44.232C680.666 45.5664 680.582 46.9614 680.414 48.4174L682.401 48.6466C682.577 47.1213 682.666 45.6496 682.666 44.232H680.666ZM681.408 47.532H648.126V49.532H681.408V47.532ZM647.129 48.6087C647.371 51.7605 648.384 54.311 650.269 56.1314L651.658 54.6926C650.218 53.3023 649.339 51.2661 649.123 48.4553L647.129 48.6087ZM650.295 56.1553C652.211 57.88 654.547 58.734 657.242 58.734V56.734C655.006 56.734 653.156 56.04 651.633 54.6687L650.295 56.1553ZM657.242 58.734C659.217 58.734 660.961 58.3164 662.426 57.4279C663.895 56.5366 665.015 55.2118 665.803 53.5101L663.988 52.6699C663.343 54.0642 662.471 55.0614 661.388 55.7181C660.301 56.3776 658.935 56.734 657.242 56.734V58.734ZM664.896 54.09H680.548V52.09H664.896V54.09ZM679.579 52.8433C678.814 55.8487 677.422 58.5515 675.396 60.9604L676.927 62.2476C679.144 59.6112 680.676 56.6379 681.517 53.3367L679.579 52.8433ZM675.388 60.9708C673.427 63.3672 670.944 65.2537 667.922 66.6276L668.749 68.4484C672.034 66.9556 674.768 64.8861 676.936 62.2372L675.388 60.9708ZM667.922 66.6276C664.914 67.9949 661.532 68.688 657.758 68.688V70.688C661.781 70.688 665.451 69.9478 668.749 68.4484L667.922 66.6276ZM657.758 68.688C653.203 68.688 649.186 67.7173 645.681 65.8006L644.722 67.5554C648.556 69.6521 652.91 70.688 657.758 70.688V68.688ZM645.681 65.8006C642.182 63.8866 639.45 61.1577 637.476 57.5935L635.727 58.5625C637.881 62.4516 640.883 65.456 644.722 67.5554L645.681 65.8006ZM637.476 57.5935C635.508 54.0387 634.506 49.8536 634.506 45.006H632.506C632.506 50.1344 633.568 54.664 635.727 58.5625L637.476 57.5935ZM634.506 45.006C634.506 40.1539 635.481 35.9651 637.396 32.4081L635.635 31.4599C633.537 35.3563 632.506 39.8821 632.506 45.006H634.506ZM637.39 32.4185C639.364 28.8543 642.096 26.1254 645.595 24.2114L644.636 22.4566C640.797 24.556 637.795 27.5604 635.641 31.4495L637.39 32.4185ZM645.595 24.2114C649.098 22.2957 653.143 21.324 657.758 21.324V19.324C652.855 19.324 648.472 20.359 644.636 22.4566L645.595 24.2114ZM657.758 21.324C662.258 21.324 666.219 22.2673 669.667 24.128L670.617 22.368C666.84 20.33 662.545 19.324 657.758 19.324V21.324ZM669.667 24.128C673.11 25.986 675.781 28.6293 677.695 32.0756L679.444 31.1044C677.345 27.3267 674.398 24.4086 670.617 22.368L669.667 24.128ZM677.701 32.0861C679.666 35.5247 680.666 39.5623 680.666 44.232H682.666C682.666 39.2697 681.601 34.8793 679.438 31.0939L677.701 32.0861ZM667.616 40.362C667.616 37.5846 666.655 35.2889 664.691 33.5863L663.381 35.0977C664.856 36.3765 665.616 38.0941 665.616 40.362H667.616ZM664.691 33.5863C662.764 31.917 660.372 31.106 657.586 31.106V33.106C659.959 33.106 661.867 33.7857 663.381 35.0977L664.691 33.5863ZM657.586 31.106C654.912 31.106 652.586 31.8892 650.667 33.4878L651.948 35.0242C653.47 33.7561 655.329 33.106 657.586 33.106V31.106ZM650.655 33.4986C648.775 35.1194 647.652 37.3912 647.223 40.2116L649.2 40.5124C649.574 38.0581 650.515 36.2592 651.961 35.0134L650.655 33.4986ZM648.212 41.362H666.616V39.362H648.212V41.362ZM722.354 57.648H721.354V58.648H722.354V57.648ZM741.618 57.648H742.618V56.648H741.618V57.648ZM741.618 69V70H742.618V69H741.618ZM707.648 69H706.648V70H707.648V69ZM707.648 8.628V7.628H706.648V8.628H707.648ZM722.354 8.628H723.354V7.628H722.354V8.628ZM722.354 58.648H741.618V56.648H722.354V58.648ZM740.618 57.648V69H742.618V57.648H740.618ZM741.618 68H707.648V70H741.618V68ZM708.648 69V8.628H706.648V69H708.648ZM707.648 9.628H722.354V7.628H707.648V9.628ZM721.354 8.628V57.648H723.354V8.628H721.354ZM757.749 66.678L757.275 67.5585L757.28 67.5615L757.749 66.678ZM748.891 58.078L748.022 58.5727L748.027 58.5827L748.891 58.078ZM748.977 32.02L749.84 32.5247L749.843 32.519L748.977 32.02ZM757.921 23.334L758.389 24.2175L757.921 23.334ZM783.377 23.334L782.908 24.2175L783.377 23.334ZM792.321 32.02L791.454 32.519L791.457 32.5247L792.321 32.02ZM792.235 58.078L791.374 57.5693L791.371 57.5733L792.235 58.078ZM783.205 66.678L782.742 65.7916L782.736 65.7945L783.205 66.678ZM777.615 53.864L776.898 53.1669L776.893 53.1721L776.888 53.1774L777.615 53.864ZM777.701 36.148L776.964 36.8237L776.969 36.8292L776.974 36.8346L777.701 36.148ZM763.511 36.148L764.238 36.8341L764.248 36.8237L763.511 36.148ZM763.425 53.864L762.677 54.5284L762.682 54.5341L762.688 54.5397L763.425 53.864ZM770.477 68.688C765.922 68.688 761.843 67.7174 758.217 65.7945L757.28 67.5615C761.222 69.6519 765.628 70.688 770.477 70.688V68.688ZM758.223 65.7975C754.661 63.8798 751.842 61.1447 749.754 57.5733L748.027 58.5827C750.297 62.4647 753.383 65.4629 757.275 67.5585L758.223 65.7975ZM749.76 57.5833C747.737 54.0304 746.709 49.8491 746.709 45.006H744.709C744.709 50.1389 745.801 54.6722 748.022 58.5727L749.76 57.5833ZM746.709 45.006C746.709 40.2271 747.763 36.0775 749.84 32.5247L748.113 31.5153C745.833 35.4158 744.709 39.9236 744.709 45.006H746.709ZM749.843 32.519C751.93 28.8947 754.775 26.1342 758.389 24.2175L757.452 22.4505C753.499 24.5472 750.381 27.5773 748.11 31.521L749.843 32.519ZM758.389 24.2175C762.015 22.2946 766.095 21.324 770.649 21.324V19.324C765.8 19.324 761.394 20.3601 757.452 22.4505L758.389 24.2175ZM770.649 21.324C775.203 21.324 779.282 22.2946 782.908 24.2175L783.845 22.4505C779.903 20.3601 775.497 19.324 770.649 19.324V21.324ZM782.908 24.2175C786.523 26.1342 789.367 28.8947 791.454 32.519L793.187 31.521C790.917 27.5773 787.799 24.5472 783.845 22.4505L782.908 24.2175ZM791.457 32.5247C793.534 36.0775 794.589 40.2271 794.589 45.006H796.589C796.589 39.9236 795.464 35.4158 793.184 31.5153L791.457 32.5247ZM794.589 45.006C794.589 49.78 793.508 53.9575 791.374 57.5693L793.096 58.5867C795.433 54.6305 796.589 50.0933 796.589 45.006H794.589ZM791.371 57.5733C789.288 61.137 786.417 63.8717 782.742 65.7916L783.668 67.5643C787.675 65.471 790.824 62.4724 793.098 58.5827L791.371 57.5733ZM782.736 65.7945C779.11 67.7174 775.031 68.688 770.477 68.688V70.688C775.325 70.688 779.731 69.6519 783.673 67.5615L782.736 65.7945ZM770.477 57.96C773.565 57.96 776.206 56.8122 778.342 54.5506L776.888 53.1774C775.125 55.0438 773.008 55.96 770.477 55.96V57.96ZM778.332 54.5611C780.574 52.2548 781.625 49.0181 781.625 45.006H779.625C779.625 48.6765 778.669 51.3452 776.898 53.1669L778.332 54.5611ZM781.625 45.006C781.625 41.0012 780.607 37.7685 778.428 35.4614L776.974 36.8346C778.694 38.6555 779.625 41.3282 779.625 45.006H781.625ZM778.438 35.4723C776.356 33.2009 773.737 32.052 770.649 32.052V34.052C773.179 34.052 775.262 34.9671 776.964 36.8237L778.438 35.4723ZM770.649 32.052C767.509 32.052 764.86 33.1961 762.774 35.4723L764.248 36.8237C765.945 34.9719 768.055 34.052 770.649 34.052V32.052ZM762.783 35.462C760.655 37.719 759.673 40.958 759.673 45.006H761.673C761.673 41.2566 762.582 38.5903 764.238 36.834L762.783 35.462ZM759.673 45.006C759.673 48.9965 760.626 52.2206 762.677 54.5284L764.172 53.1996C762.554 51.3794 761.673 48.6982 761.673 45.006H759.673ZM762.688 54.5397C764.77 56.8111 767.388 57.96 770.477 57.96V55.96C767.947 55.96 765.864 55.0449 764.162 53.1883L762.688 54.5397ZM824.977 55.24L824.02 55.5309L824.977 58.6779L825.933 55.5309L824.977 55.24ZM835.383 21.012V20.012H834.641L834.426 20.7211L835.383 21.012ZM851.035 21.012L851.977 21.3464L852.451 20.012H851.035V21.012ZM834.007 69V70H834.713L834.949 69.3344L834.007 69ZM815.861 69L814.918 69.3344L815.154 70H815.861V69ZM798.833 21.012V20.012H797.417L797.89 21.3464L798.833 21.012ZM814.571 21.012L815.527 20.7211L815.312 20.012H814.571V21.012ZM825.933 55.5309L836.339 21.3029L834.426 20.7211L824.02 54.9491L825.933 55.5309ZM835.383 22.012H851.035V20.012H835.383V22.012ZM850.092 20.6776L833.064 68.6656L834.949 69.3344L851.977 21.3464L850.092 20.6776ZM834.007 68H815.861V70H834.007V68ZM816.803 68.6656L799.775 20.6776L797.89 21.3464L814.918 69.3344L816.803 68.6656ZM798.833 22.012H814.571V20.012H798.833V22.012ZM813.614 21.3029L824.02 55.5309L825.933 54.9491L815.527 20.7211L813.614 21.3029ZM902.203 48.532V49.532H903.094L903.196 48.6466L902.203 48.532ZM868.921 48.532V47.532H867.841L867.924 48.6087L868.921 48.532ZM871.759 55.412L871.064 56.1314L871.077 56.1436L871.09 56.1553L871.759 55.412ZM885.691 53.09V52.09H885.052L884.783 52.6699L885.691 53.09ZM901.343 53.09L902.312 53.3367L902.629 52.09H901.343V53.09ZM896.957 61.604L896.191 60.9603L896.183 60.9708L896.957 61.604ZM889.131 67.538L889.544 68.4484L889.131 67.538ZM865.997 66.678L865.517 67.5554L865.997 66.678ZM857.397 58.078L858.271 57.5935L857.397 58.078ZM857.311 31.934L856.436 31.4495L856.43 31.4599L857.311 31.934ZM865.911 23.334L866.39 24.2114L865.911 23.334ZM890.937 23.248L890.462 24.128L890.937 23.248ZM899.365 31.59L898.49 32.0757L898.496 32.0861L899.365 31.59ZM887.411 40.362V41.362H888.411V40.362H887.411ZM884.831 34.342L885.486 33.5863L884.831 34.342ZM872.103 34.256L871.462 33.4878L871.456 33.4931L871.45 33.4986L872.103 34.256ZM869.007 40.362L868.018 40.2116L867.843 41.362H869.007V40.362ZM901.461 44.232C901.461 45.5664 901.377 46.9614 901.209 48.4174L903.196 48.6466C903.372 47.1213 903.461 45.6496 903.461 44.232H901.461ZM902.203 47.532H868.921V49.532H902.203V47.532ZM867.924 48.6087C868.166 51.7605 869.179 54.311 871.064 56.1314L872.453 54.6926C871.013 53.3023 870.134 51.2661 869.918 48.4553L867.924 48.6087ZM871.09 56.1553C873.006 57.88 875.342 58.734 878.037 58.734V56.734C875.801 56.734 873.951 56.04 872.428 54.6687L871.09 56.1553ZM878.037 58.734C880.012 58.734 881.756 58.3164 883.221 57.4279C884.69 56.5366 885.81 55.2118 886.598 53.5101L884.783 52.6699C884.138 54.0642 883.266 55.0614 882.183 55.7181C881.096 56.3776 879.73 56.734 878.037 56.734V58.734ZM885.691 54.09H901.343V52.09H885.691V54.09ZM900.373 52.8433C899.608 55.8487 898.217 58.5515 896.191 60.9604L897.722 62.2476C899.939 59.6112 901.471 56.6379 902.312 53.3367L900.373 52.8433ZM896.183 60.9708C894.222 63.3672 891.739 65.2537 888.717 66.6276L889.544 68.4484C892.828 66.9556 895.563 64.8861 897.731 62.2372L896.183 60.9708ZM888.717 66.6276C885.709 67.9949 882.326 68.688 878.553 68.688V70.688C882.576 70.688 886.246 69.9478 889.544 68.4484L888.717 66.6276ZM878.553 68.688C873.998 68.688 869.981 67.7173 866.476 65.8006L865.517 67.5554C869.351 69.6521 873.705 70.688 878.553 70.688V68.688ZM866.476 65.8006C862.977 63.8866 860.245 61.1577 858.271 57.5935L856.522 58.5625C858.676 62.4516 861.678 65.456 865.517 67.5554L866.476 65.8006ZM858.271 57.5935C856.303 54.0387 855.301 49.8536 855.301 45.006H853.301C853.301 50.1344 854.363 54.664 856.522 58.5625L858.271 57.5935ZM855.301 45.006C855.301 40.1539 856.276 35.9651 858.191 32.4081L856.43 31.4599C854.332 35.3563 853.301 39.8821 853.301 45.006H855.301ZM858.185 32.4185C860.159 28.8543 862.891 26.1254 866.39 24.2114L865.431 22.4566C861.592 24.556 858.59 27.5604 856.436 31.4495L858.185 32.4185ZM866.39 24.2114C869.893 22.2957 873.938 21.324 878.553 21.324V19.324C873.65 19.324 869.266 20.359 865.431 22.4566L866.39 24.2114ZM878.553 21.324C883.053 21.324 887.014 22.2673 890.462 24.128L891.411 22.368C887.635 20.33 883.34 19.324 878.553 19.324V21.324ZM890.462 24.128C893.904 25.986 896.576 28.6293 898.49 32.0756L900.239 31.1044C898.14 27.3267 895.193 24.4086 891.411 22.368L890.462 24.128ZM898.496 32.0861C900.461 35.5247 901.461 39.5623 901.461 44.232H903.461C903.461 39.2697 902.396 34.8793 900.233 31.0939L898.496 32.0861ZM888.411 40.362C888.411 37.5846 887.45 35.2889 885.486 33.5863L884.176 35.0977C885.651 36.3765 886.411 38.0941 886.411 40.362H888.411ZM885.486 33.5863C883.559 31.917 881.167 31.106 878.381 31.106V33.106C880.754 33.106 882.662 33.7857 884.176 35.0977L885.486 33.5863ZM878.381 31.106C875.707 31.106 873.381 31.8892 871.462 33.4878L872.743 35.0242C874.265 33.7561 876.124 33.106 878.381 33.106V31.106ZM871.45 33.4986C869.569 35.1194 868.447 37.3912 868.018 40.2116L869.995 40.5124C870.369 38.0581 871.31 36.2592 872.755 35.0134L871.45 33.4986ZM869.007 41.362H887.411V39.362H869.007V41.362ZM924.925 29.01H923.925V32.3739L925.762 29.5563L924.925 29.01ZM931.375 22.818L931.875 23.6839L931.882 23.6797L931.889 23.6755L931.375 22.818ZM939.975 20.496H940.975V19.496H939.975V20.496ZM939.975 36.062V37.062H940.975V36.062H939.975ZM927.677 38.47L928.322 39.2343L928.328 39.2285L928.335 39.2226L927.677 38.47ZM924.925 69V70H925.925V69H924.925ZM910.219 69H909.219V70H910.219V69ZM910.219 21.012V20.012H909.219V21.012H910.219ZM924.925 21.012H925.925V20.012H924.925V21.012ZM925.762 29.5563C927.402 27.0428 929.439 25.0915 931.875 23.6839L930.874 21.9521C928.151 23.5258 925.888 25.7025 924.087 28.4637L925.762 29.5563ZM931.889 23.6755C934.306 22.2253 936.994 21.496 939.975 21.496V19.496C936.649 19.496 933.603 20.3147 930.86 21.9605L931.889 23.6755ZM938.975 20.496V36.062H940.975V20.496H938.975ZM939.975 35.062H935.933V37.062H939.975V35.062ZM935.933 35.062C932.14 35.062 929.108 35.8889 927.018 37.7174L928.335 39.2226C929.915 37.8405 932.387 37.062 935.933 37.062V35.062ZM927.032 37.7057C924.861 39.5378 923.925 42.6617 923.925 46.726H925.925C925.925 42.8783 926.824 40.4982 928.322 39.2343L927.032 37.7057ZM923.925 46.726V69H925.925V46.726H923.925ZM924.925 68H910.219V70H924.925V68ZM911.219 69V21.012H909.219V69H911.219ZM910.219 22.012H924.925V20.012H910.219V22.012ZM923.925 21.012V29.01H925.925V21.012H923.925Z" fill="#E9E757" mask="url(#path-1-outside-1_57_235)"/>
</svg>
