<svg width="272" height="92" viewBox="0 0 272 92" fill="none" xmlns="http://www.w3.org/2000/svg">
<mask id="path-1-outside-1_245_72" maskUnits="userSpaceOnUse" x="4" y="16" width="263" height="63" fill="black">
<rect fill="white" x="4" y="16" width="263" height="63"/>
<path d="M35.108 21.092V46.904C35.108 50.9 33.974 53.978 31.706 56.138C29.474 58.298 26.45 59.378 22.634 59.378C18.638 59.378 15.434 58.244 13.022 55.976C10.61 53.708 9.404 50.486 9.404 46.31H18.584C18.584 47.894 18.908 49.1 19.556 49.928C20.204 50.72 21.14 51.116 22.364 51.116C23.48 51.116 24.344 50.756 24.956 50.036C25.568 49.316 25.874 48.272 25.874 46.904V21.092H35.108ZM56.2828 59.432C53.3308 59.432 50.6668 58.802 48.2908 57.542C45.9508 56.282 44.0968 54.482 42.7288 52.142C41.3968 49.802 40.7308 47.066 40.7308 43.934C40.7308 40.838 41.4148 38.12 42.7827 35.78C44.1508 33.404 46.0228 31.586 48.3988 30.326C50.7748 29.066 53.4388 28.436 56.3908 28.436C59.3428 28.436 62.0068 29.066 64.3828 30.326C66.7588 31.586 68.6308 33.404 69.9988 35.78C71.3668 38.12 72.0508 40.838 72.0508 43.934C72.0508 47.03 71.3488 49.766 69.9448 52.142C68.5768 54.482 66.6868 56.282 64.2748 57.542C61.8988 58.802 59.2348 59.432 56.2828 59.432ZM56.2828 51.44C58.0468 51.44 59.5408 50.792 60.7648 49.496C62.0248 48.2 62.6548 46.346 62.6548 43.934C62.6548 41.522 62.0428 39.668 60.8188 38.372C59.6308 37.076 58.1548 36.428 56.3908 36.428C54.5908 36.428 53.0968 37.076 51.9088 38.372C50.7208 39.632 50.1268 41.486 50.1268 43.934C50.1268 46.346 50.7028 48.2 51.8548 49.496C53.0428 50.792 54.5188 51.44 56.2828 51.44ZM106.704 28.868V59H97.4696V54.896C96.5336 56.228 95.2556 57.308 93.6356 58.136C92.0516 58.928 90.2876 59.324 88.3436 59.324C86.0396 59.324 84.0056 58.82 82.2416 57.812C80.4776 56.768 79.1096 55.274 78.1376 53.33C77.1656 51.386 76.6796 49.1 76.6796 46.472V28.868H85.8596V45.23C85.8596 47.246 86.3816 48.812 87.4256 49.928C88.4696 51.044 89.8736 51.602 91.6376 51.602C93.4376 51.602 94.8596 51.044 95.9036 49.928C96.9476 48.812 97.4696 47.246 97.4696 45.23V28.868H106.704ZM122.57 33.89C123.65 32.234 125 30.938 126.62 30.002C128.24 29.03 130.04 28.544 132.02 28.544V38.318H129.482C127.178 38.318 125.45 38.822 124.298 39.83C123.146 40.802 122.57 42.53 122.57 45.014V59H113.336V28.868H122.57V33.89ZM154.794 28.544C158.322 28.544 161.13 29.696 163.218 32C165.342 34.268 166.404 37.4 166.404 41.396V59H157.224V42.638C157.224 40.622 156.702 39.056 155.658 37.94C154.614 36.824 153.21 36.266 151.446 36.266C149.682 36.266 148.278 36.824 147.234 37.94C146.19 39.056 145.668 40.622 145.668 42.638V59H136.434V28.868H145.668V32.864C146.604 31.532 147.864 30.488 149.448 29.732C151.032 28.94 152.814 28.544 154.794 28.544ZM201.225 43.448C201.225 44.312 201.171 45.212 201.063 46.148H180.165C180.309 48.02 180.903 49.46 181.947 50.468C183.027 51.44 184.341 51.926 185.889 51.926C188.193 51.926 189.795 50.954 190.695 49.01H200.523C200.019 50.99 199.101 52.772 197.769 54.356C196.473 55.94 194.835 57.182 192.855 58.082C190.875 58.982 188.661 59.432 186.213 59.432C183.261 59.432 180.633 58.802 178.329 57.542C176.025 56.282 174.225 54.482 172.929 52.142C171.633 49.802 170.985 47.066 170.985 43.934C170.985 40.802 171.615 38.066 172.875 35.726C174.171 33.386 175.971 31.586 178.275 30.326C180.579 29.066 183.225 28.436 186.213 28.436C189.129 28.436 191.721 29.048 193.989 30.272C196.257 31.496 198.021 33.242 199.281 35.51C200.577 37.778 201.225 40.424 201.225 43.448ZM191.775 41.018C191.775 39.434 191.235 38.174 190.155 37.238C189.075 36.302 187.725 35.834 186.105 35.834C184.557 35.834 183.243 36.284 182.163 37.184C181.119 38.084 180.471 39.362 180.219 41.018H191.775ZM236.876 28.868L217.976 73.31H208.04L214.952 57.974L202.694 28.868H213.008L219.974 47.714L226.886 28.868H236.876ZM255.979 59.432C254.359 59.432 253.027 58.964 251.983 58.028C250.975 57.056 250.471 55.868 250.471 54.464C250.471 53.024 250.975 51.818 251.983 50.846C253.027 49.874 254.359 49.388 255.979 49.388C257.563 49.388 258.859 49.874 259.867 50.846C260.911 51.818 261.433 53.024 261.433 54.464C261.433 55.868 260.911 57.056 259.867 58.028C258.859 58.964 257.563 59.432 255.979 59.432ZM255.979 37.454C254.359 37.454 253.027 36.986 251.983 36.05C250.975 35.078 250.471 33.89 250.471 32.486C250.471 31.046 250.975 29.84 251.983 28.868C253.027 27.896 254.359 27.41 255.979 27.41C257.563 27.41 258.859 27.896 259.867 28.868C260.911 29.84 261.433 31.046 261.433 32.486C261.433 33.89 260.911 35.078 259.867 36.05C258.859 36.986 257.563 37.454 255.979 37.454Z"/>
</mask>
<path d="M35.108 21.092V46.904C35.108 50.9 33.974 53.978 31.706 56.138C29.474 58.298 26.45 59.378 22.634 59.378C18.638 59.378 15.434 58.244 13.022 55.976C10.61 53.708 9.404 50.486 9.404 46.31H18.584C18.584 47.894 18.908 49.1 19.556 49.928C20.204 50.72 21.14 51.116 22.364 51.116C23.48 51.116 24.344 50.756 24.956 50.036C25.568 49.316 25.874 48.272 25.874 46.904V21.092H35.108ZM56.2828 59.432C53.3308 59.432 50.6668 58.802 48.2908 57.542C45.9508 56.282 44.0968 54.482 42.7288 52.142C41.3968 49.802 40.7308 47.066 40.7308 43.934C40.7308 40.838 41.4148 38.12 42.7827 35.78C44.1508 33.404 46.0228 31.586 48.3988 30.326C50.7748 29.066 53.4388 28.436 56.3908 28.436C59.3428 28.436 62.0068 29.066 64.3828 30.326C66.7588 31.586 68.6308 33.404 69.9988 35.78C71.3668 38.12 72.0508 40.838 72.0508 43.934C72.0508 47.03 71.3488 49.766 69.9448 52.142C68.5768 54.482 66.6868 56.282 64.2748 57.542C61.8988 58.802 59.2348 59.432 56.2828 59.432ZM56.2828 51.44C58.0468 51.44 59.5408 50.792 60.7648 49.496C62.0248 48.2 62.6548 46.346 62.6548 43.934C62.6548 41.522 62.0428 39.668 60.8188 38.372C59.6308 37.076 58.1548 36.428 56.3908 36.428C54.5908 36.428 53.0968 37.076 51.9088 38.372C50.7208 39.632 50.1268 41.486 50.1268 43.934C50.1268 46.346 50.7028 48.2 51.8548 49.496C53.0428 50.792 54.5188 51.44 56.2828 51.44ZM106.704 28.868V59H97.4696V54.896C96.5336 56.228 95.2556 57.308 93.6356 58.136C92.0516 58.928 90.2876 59.324 88.3436 59.324C86.0396 59.324 84.0056 58.82 82.2416 57.812C80.4776 56.768 79.1096 55.274 78.1376 53.33C77.1656 51.386 76.6796 49.1 76.6796 46.472V28.868H85.8596V45.23C85.8596 47.246 86.3816 48.812 87.4256 49.928C88.4696 51.044 89.8736 51.602 91.6376 51.602C93.4376 51.602 94.8596 51.044 95.9036 49.928C96.9476 48.812 97.4696 47.246 97.4696 45.23V28.868H106.704ZM122.57 33.89C123.65 32.234 125 30.938 126.62 30.002C128.24 29.03 130.04 28.544 132.02 28.544V38.318H129.482C127.178 38.318 125.45 38.822 124.298 39.83C123.146 40.802 122.57 42.53 122.57 45.014V59H113.336V28.868H122.57V33.89ZM154.794 28.544C158.322 28.544 161.13 29.696 163.218 32C165.342 34.268 166.404 37.4 166.404 41.396V59H157.224V42.638C157.224 40.622 156.702 39.056 155.658 37.94C154.614 36.824 153.21 36.266 151.446 36.266C149.682 36.266 148.278 36.824 147.234 37.94C146.19 39.056 145.668 40.622 145.668 42.638V59H136.434V28.868H145.668V32.864C146.604 31.532 147.864 30.488 149.448 29.732C151.032 28.94 152.814 28.544 154.794 28.544ZM201.225 43.448C201.225 44.312 201.171 45.212 201.063 46.148H180.165C180.309 48.02 180.903 49.46 181.947 50.468C183.027 51.44 184.341 51.926 185.889 51.926C188.193 51.926 189.795 50.954 190.695 49.01H200.523C200.019 50.99 199.101 52.772 197.769 54.356C196.473 55.94 194.835 57.182 192.855 58.082C190.875 58.982 188.661 59.432 186.213 59.432C183.261 59.432 180.633 58.802 178.329 57.542C176.025 56.282 174.225 54.482 172.929 52.142C171.633 49.802 170.985 47.066 170.985 43.934C170.985 40.802 171.615 38.066 172.875 35.726C174.171 33.386 175.971 31.586 178.275 30.326C180.579 29.066 183.225 28.436 186.213 28.436C189.129 28.436 191.721 29.048 193.989 30.272C196.257 31.496 198.021 33.242 199.281 35.51C200.577 37.778 201.225 40.424 201.225 43.448ZM191.775 41.018C191.775 39.434 191.235 38.174 190.155 37.238C189.075 36.302 187.725 35.834 186.105 35.834C184.557 35.834 183.243 36.284 182.163 37.184C181.119 38.084 180.471 39.362 180.219 41.018H191.775ZM236.876 28.868L217.976 73.31H208.04L214.952 57.974L202.694 28.868H213.008L219.974 47.714L226.886 28.868H236.876ZM255.979 59.432C254.359 59.432 253.027 58.964 251.983 58.028C250.975 57.056 250.471 55.868 250.471 54.464C250.471 53.024 250.975 51.818 251.983 50.846C253.027 49.874 254.359 49.388 255.979 49.388C257.563 49.388 258.859 49.874 259.867 50.846C260.911 51.818 261.433 53.024 261.433 54.464C261.433 55.868 260.911 57.056 259.867 58.028C258.859 58.964 257.563 59.432 255.979 59.432ZM255.979 37.454C254.359 37.454 253.027 36.986 251.983 36.05C250.975 35.078 250.471 33.89 250.471 32.486C250.471 31.046 250.975 29.84 251.983 28.868C253.027 27.896 254.359 27.41 255.979 27.41C257.563 27.41 258.859 27.896 259.867 28.868C260.911 29.84 261.433 31.046 261.433 32.486C261.433 33.89 260.911 35.078 259.867 36.05C258.859 36.986 257.563 37.454 255.979 37.454Z" fill="#E3E3E3"/>
<path d="M35.108 21.092H40.108V16.092H35.108V21.092ZM31.706 56.138L28.2577 52.5173L28.2433 52.5311L28.2289 52.545L31.706 56.138ZM13.022 55.976L9.59687 59.6186H9.59687L13.022 55.976ZM9.404 46.31V41.31H4.404V46.31H9.404ZM18.584 46.31H23.584V41.31H18.584V46.31ZM19.556 49.928L15.6185 53.0095L15.6519 53.0522L15.6862 53.0942L19.556 49.928ZM24.956 50.036L21.1463 46.7978L21.1463 46.7978L24.956 50.036ZM25.874 21.092V16.092H20.874V21.092H25.874ZM30.108 21.092V46.904H40.108V21.092H30.108ZM30.108 46.904C30.108 49.9307 29.2789 51.5448 28.2577 52.5173L35.1543 59.7587C38.6692 56.4112 40.108 51.8693 40.108 46.904H30.108ZM28.2289 52.545C27.1327 53.6058 25.4658 54.378 22.634 54.378V64.378C27.4342 64.378 31.8153 62.9902 35.1831 59.731L28.2289 52.545ZM22.634 54.378C19.6321 54.378 17.7469 53.5556 16.4471 52.3334L9.59687 59.6186C13.1211 62.9324 17.6439 64.378 22.634 64.378V54.378ZM16.4471 52.3334C15.2889 51.2443 14.404 49.4899 14.404 46.31H4.404C4.404 51.4821 5.93112 56.1717 9.59687 59.6186L16.4471 52.3334ZM9.404 51.31H18.584V41.31H9.404V51.31ZM13.584 46.31C13.584 48.4714 14.0104 50.9548 15.6185 53.0095L23.4935 46.8465C23.6535 47.0508 23.6757 47.1793 23.6558 47.1052C23.6331 47.0207 23.584 46.7752 23.584 46.31H13.584ZM15.6862 53.0942C17.4726 55.2775 19.9662 56.116 22.364 56.116V46.116C22.2875 46.116 22.4315 46.1039 22.6922 46.2142C22.9774 46.3348 23.2393 46.5339 23.4258 46.7618L15.6862 53.0942ZM22.364 56.116C24.6535 56.116 27.0288 55.3176 28.7657 53.2742L21.1463 46.7978C21.3465 46.5622 21.6219 46.3573 21.9259 46.2306C22.2085 46.1129 22.3864 46.116 22.364 46.116V56.116ZM28.7657 53.2742C30.4265 51.3204 30.874 48.9385 30.874 46.904H20.874C20.874 47.0612 20.8651 47.1711 20.8564 47.24C20.8477 47.3087 20.8402 47.3275 20.8464 47.3066C20.8528 47.2848 20.8738 47.2202 20.9223 47.1271C20.9716 47.0324 21.0442 46.9178 21.1463 46.7978L28.7657 53.2742ZM30.874 46.904V21.092H20.874V46.904H30.874ZM25.874 26.092H35.108V16.092H25.874V26.092ZM48.2908 57.542L45.9202 61.9444L45.9342 61.9519L45.9482 61.9593L48.2908 57.542ZM42.7288 52.142L38.3834 54.6155L38.3977 54.6406L38.4123 54.6655L42.7288 52.142ZM42.7827 35.78L47.0992 38.3035L47.1076 38.2892L47.1159 38.2748L42.7827 35.78ZM48.3988 30.326L50.7413 34.7433L48.3988 30.326ZM64.3828 30.326L62.0402 34.7433L64.3828 30.326ZM69.9988 35.78L65.6656 38.2748L65.6739 38.2892L65.6823 38.3035L69.9988 35.78ZM69.9448 52.142L65.6401 49.5984L65.6342 49.6084L65.6283 49.6185L69.9448 52.142ZM64.2747 57.542L61.9597 53.1103L61.9459 53.1174L61.9322 53.1247L64.2747 57.542ZM60.7648 49.496L57.1798 46.0106L57.1545 46.0366L57.1297 46.0629L60.7648 49.496ZM60.8187 38.372L57.133 41.7506L57.1581 41.7781L57.1837 41.8051L60.8187 38.372ZM51.9088 38.372L55.5467 41.8021L55.5708 41.7765L55.5945 41.7506L51.9088 38.372ZM51.8548 49.496L48.1177 52.8178L48.1431 52.8464L48.169 52.8746L51.8548 49.496ZM56.2827 54.432C54.0661 54.432 52.2191 53.9657 50.6333 53.1247L45.9482 61.9593C49.1144 63.6383 52.5954 64.432 56.2827 64.432V54.432ZM50.6613 53.1396C49.147 52.3243 47.9592 51.1819 47.0452 49.6185L38.4123 54.6655C40.2343 57.782 42.7545 60.2397 45.9202 61.9444L50.6613 53.1396ZM47.0741 49.6685C46.2367 48.1974 45.7308 46.3416 45.7308 43.934H35.7307C35.7307 47.7904 36.5568 51.4066 38.3834 54.6155L47.0741 49.6685ZM45.7308 43.934C45.7308 41.5966 46.2394 39.7742 47.0992 38.3035L38.4663 33.2565C36.5901 36.4658 35.7307 40.0794 35.7307 43.934H45.7308ZM47.1159 38.2748C48.0241 36.6974 49.2134 35.5536 50.7413 34.7433L46.0562 25.9087C42.8321 27.6184 40.2774 30.1106 38.4496 33.2852L47.1159 38.2748ZM50.7413 34.7433C52.3271 33.9023 54.1741 33.436 56.3908 33.436V23.436C52.7034 23.436 49.2224 24.2297 46.0562 25.9087L50.7413 34.7433ZM56.3908 33.436C58.6074 33.436 60.4544 33.9023 62.0402 34.7433L66.7253 25.9087C63.5591 24.2297 60.0781 23.436 56.3908 23.436V33.436ZM62.0402 34.7433C63.5681 35.5536 64.7574 36.6974 65.6656 38.2748L74.3319 33.2852C72.5041 30.1106 69.9494 27.6184 66.7253 25.9087L62.0402 34.7433ZM65.6823 38.3035C66.5421 39.7742 67.0508 41.5966 67.0508 43.934H77.0508C77.0508 40.0794 76.1914 36.4658 74.3152 33.2565L65.6823 38.3035ZM67.0508 43.934C67.0508 46.2467 66.5353 48.0834 65.6401 49.5984L74.2494 54.6856C76.1622 51.4486 77.0508 47.8133 77.0508 43.934H67.0508ZM65.6283 49.6185C64.7367 51.1435 63.5419 52.2837 61.9597 53.1103L66.5898 61.9737C69.8316 60.2803 72.4168 57.8205 74.2612 54.6655L65.6283 49.6185ZM61.9322 53.1247C60.3464 53.9657 58.4994 54.432 56.2827 54.432V64.432C59.9701 64.432 63.4511 63.6383 66.6173 61.9593L61.9322 53.1247ZM56.2827 56.44C59.4388 56.44 62.2426 55.2132 64.3998 52.9291L57.1297 46.0629C56.8389 46.3708 56.6547 46.44 56.2827 46.44V56.44ZM64.3497 52.9814C66.7875 50.474 67.6548 47.2001 67.6548 43.934H57.6548C57.6548 45.4919 57.262 45.926 57.1798 46.0106L64.3497 52.9814ZM67.6548 43.934C67.6548 40.7046 66.8257 37.4503 64.4538 34.9389L57.1837 41.8051C57.2598 41.8857 57.6548 42.3394 57.6548 43.934H67.6548ZM64.5045 34.9934C62.3659 32.6603 59.5509 31.428 56.3908 31.428V41.428C56.6466 41.428 56.764 41.4717 56.8108 41.4922C56.8572 41.5126 56.9653 41.5677 57.133 41.7506L64.5045 34.9934ZM56.3908 31.428C53.2272 31.428 50.3834 32.6366 48.223 34.9934L55.5945 41.7506C55.8101 41.5154 55.9543 41.428 56.3908 41.428V31.428ZM48.2708 34.9419C45.9025 37.4538 45.1268 40.7394 45.1268 43.934H55.1268C55.1268 42.2326 55.539 41.8102 55.5467 41.8021L48.2708 34.9419ZM45.1268 43.934C45.1268 47.0918 45.8821 50.3028 48.1177 52.8178L55.5918 46.1742C55.5234 46.0972 55.1268 45.6002 55.1268 43.934H45.1268ZM48.169 52.8746C50.3076 55.2077 53.1226 56.44 56.2827 56.44V46.44C56.0269 46.44 55.9095 46.3963 55.8627 46.3758C55.8163 46.3554 55.7082 46.3003 55.5405 46.1174L48.169 52.8746ZM106.704 28.868H111.704V23.868H106.704V28.868ZM106.704 59V64H111.704V59H106.704ZM97.4696 59H92.4696V64H97.4696V59ZM97.4696 54.896H102.47V39.0841L93.3786 52.0213L97.4696 54.896ZM93.6356 58.136L95.8716 62.6081L95.8914 62.5982L95.9111 62.5882L93.6356 58.136ZM82.2416 57.812L79.695 62.1149L79.7278 62.1343L79.7609 62.1532L82.2416 57.812ZM78.1376 53.33L73.6654 55.5661L78.1376 53.33ZM76.6796 28.868V23.868H71.6796V28.868H76.6796ZM85.8596 28.868H90.8596V23.868H85.8596V28.868ZM87.4256 49.928L83.7742 53.3438L87.4256 49.928ZM97.4696 28.868V23.868H92.4696V28.868H97.4696ZM101.704 28.868V59H111.704V28.868H101.704ZM106.704 54H97.4696V64H106.704V54ZM102.47 59V54.896H92.4696V59H102.47ZM93.3786 52.0213C92.9632 52.6124 92.342 53.1819 91.36 53.6838L95.9111 62.5882C98.1691 61.4341 100.104 59.8436 101.561 57.7707L93.3786 52.0213ZM91.3995 53.6639C90.5756 54.0758 89.5884 54.324 88.3436 54.324V64.324C90.9867 64.324 93.5276 63.7802 95.8716 62.6081L91.3995 53.6639ZM88.3436 54.324C86.7911 54.324 85.634 53.9918 84.7223 53.4708L79.7609 62.1532C82.3771 63.6482 85.2881 64.324 88.3436 64.324V54.324ZM84.7882 53.5091C83.9021 52.9847 83.179 52.2326 82.6097 51.0939L73.6654 55.5661C75.0401 58.3154 77.053 60.5513 79.695 62.1149L84.7882 53.5091ZM82.6097 51.0939C82.05 49.9746 81.6796 48.4841 81.6796 46.472H71.6796C71.6796 49.7159 72.2811 52.7974 73.6654 55.5661L82.6097 51.0939ZM81.6796 46.472V28.868H71.6796V46.472H81.6796ZM76.6796 33.868H85.8596V23.868H76.6796V33.868ZM80.8596 28.868V45.23H90.8596V28.868H80.8596ZM80.8596 45.23C80.8596 48.0988 81.6162 51.037 83.7742 53.3438L91.0769 46.5122C91.0749 46.51 91.069 46.5038 91.0583 46.4855C91.047 46.4661 91.0227 46.4201 90.9945 46.3354C90.9362 46.1606 90.8596 45.8152 90.8596 45.23H80.8596ZM83.7742 53.3438C85.9123 55.6294 88.7235 56.602 91.6376 56.602V46.602C91.2836 46.602 91.1328 46.5468 91.1082 46.537C91.0941 46.5314 91.0936 46.5298 91.0984 46.5331C91.103 46.5362 91.096 46.5327 91.0769 46.5122L83.7742 53.3438ZM91.6376 56.602C94.5536 56.602 97.3969 55.6507 99.5549 53.3438L92.2522 46.5122C92.2382 46.5272 92.235 46.5278 92.2414 46.5235C92.2479 46.5191 92.2463 46.5217 92.2276 46.529C92.1923 46.5429 92.0219 46.602 91.6376 46.602V56.602ZM99.5549 53.3438C101.713 51.037 102.47 48.0988 102.47 45.23H92.4696C92.4696 45.8152 92.3929 46.1606 92.3346 46.3354C92.3064 46.4201 92.2822 46.4661 92.2708 46.4855C92.2601 46.5038 92.2543 46.51 92.2522 46.5122L99.5549 53.3438ZM102.47 45.23V28.868H92.4696V45.23H102.47ZM97.4696 33.868H106.704V23.868H97.4696V33.868ZM122.57 33.89H117.57V50.7097L126.758 36.6213L122.57 33.89ZM126.62 30.002L129.122 34.3313L129.157 34.3107L129.193 34.2895L126.62 30.002ZM132.02 28.544H137.02V23.544H132.02V28.544ZM132.02 38.318V43.318H137.02V38.318H132.02ZM124.298 39.83L127.523 43.6515L127.557 43.6225L127.591 43.5929L124.298 39.83ZM122.57 59V64H127.57V59H122.57ZM113.336 59H108.336V64H113.336V59ZM113.336 28.868V23.868H108.336V28.868H113.336ZM122.57 28.868H127.57V23.868H122.57V28.868ZM126.758 36.6213C127.434 35.5847 128.22 34.8522 129.122 34.3313L124.119 25.6727C121.78 27.0238 119.866 28.8833 118.382 31.1587L126.758 36.6213ZM129.193 34.2895C129.998 33.8066 130.901 33.544 132.02 33.544V23.544C129.18 23.544 126.483 24.2534 124.048 25.7145L129.193 34.2895ZM127.02 28.544V38.318H137.02V28.544H127.02ZM132.02 33.318H129.482V43.318H132.02V33.318ZM129.482 33.318C126.559 33.318 123.433 33.943 121.006 36.0671L127.591 43.5929C127.467 43.701 127.797 43.318 129.482 43.318V33.318ZM121.074 36.0085C118.239 38.4008 117.57 41.9886 117.57 45.014H127.57C127.57 44.1278 127.677 43.6427 127.746 43.4361C127.804 43.2619 127.783 43.4317 127.523 43.6515L121.074 36.0085ZM117.57 45.014V59H127.57V45.014H117.57ZM122.57 54H113.336V64H122.57V54ZM118.336 59V28.868H108.336V59H118.336ZM113.336 33.868H122.57V23.868H113.336V33.868ZM117.57 28.868V33.89H127.57V28.868H117.57ZM163.218 32L159.513 35.3576L159.54 35.3879L159.568 35.4178L163.218 32ZM166.404 59V64H171.404V59H166.404ZM157.224 59H152.224V64H157.224V59ZM155.658 37.94L152.007 41.3558V41.3558L155.658 37.94ZM147.234 37.94L150.885 41.3558V41.3558L147.234 37.94ZM145.668 59V64H150.668V59H145.668ZM136.434 59H131.434V64H136.434V59ZM136.434 28.868V23.868H131.434V28.868H136.434ZM145.668 28.868H150.668V23.868H145.668V28.868ZM145.668 32.864H140.668V48.6759L149.759 35.7387L145.668 32.864ZM149.448 29.732L151.602 34.2444L151.643 34.2246L151.684 34.2041L149.448 29.732ZM154.794 33.544C157.121 33.544 158.505 34.2457 159.513 35.3576L166.923 28.6424C163.755 25.1463 159.523 23.544 154.794 23.544V33.544ZM159.568 35.4178C160.598 36.5171 161.404 38.2933 161.404 41.396H171.404C171.404 36.5067 170.086 32.0189 166.867 28.5822L159.568 35.4178ZM161.404 41.396V59H171.404V41.396H161.404ZM166.404 54H157.224V64H166.404V54ZM162.224 59V42.638H152.224V59H162.224ZM162.224 42.638C162.224 39.7692 161.467 36.831 159.309 34.5242L152.007 41.3558C152.009 41.358 152.015 41.3642 152.025 41.3825C152.037 41.4019 152.061 41.4479 152.089 41.5326C152.147 41.7074 152.224 42.0528 152.224 42.638H162.224ZM159.309 34.5242C157.171 32.2386 154.36 31.266 151.446 31.266V41.266C151.8 41.266 151.951 41.3212 151.975 41.331C151.989 41.3366 151.99 41.3382 151.985 41.3349C151.98 41.3318 151.987 41.3353 152.007 41.3558L159.309 34.5242ZM151.446 31.266C148.532 31.266 145.721 32.2386 143.583 34.5242L150.885 41.3558C150.904 41.3353 150.911 41.3318 150.907 41.3349C150.902 41.3382 150.903 41.3366 150.917 41.331C150.941 41.3212 151.092 41.266 151.446 41.266V31.266ZM143.583 34.5242C141.425 36.831 140.668 39.7692 140.668 42.638H150.668C150.668 42.0528 150.745 41.7074 150.803 41.5326C150.831 41.4479 150.855 41.4019 150.867 41.3825C150.877 41.3642 150.883 41.358 150.885 41.3558L143.583 34.5242ZM140.668 42.638V59H150.668V42.638H140.668ZM145.668 54H136.434V64H145.668V54ZM141.434 59V28.868H131.434V59H141.434ZM136.434 33.868H145.668V23.868H136.434V33.868ZM140.668 28.868V32.864H150.668V28.868H140.668ZM149.759 35.7387C150.162 35.1646 150.731 34.6599 151.602 34.2444L147.294 25.2196C144.997 26.3161 143.046 27.8994 141.577 29.9893L149.759 35.7387ZM151.684 34.2041C152.495 33.7984 153.498 33.544 154.794 33.544V23.544C152.13 23.544 149.568 24.0815 147.212 25.2599L151.684 34.2041ZM201.063 46.148V51.148H205.519L206.03 46.7211L201.063 46.148ZM180.165 46.148V41.148H174.765L175.179 46.5315L180.165 46.148ZM181.947 50.468L178.474 54.065L178.537 54.1259L178.602 54.1845L181.947 50.468ZM190.695 49.01V44.01H187.5L186.157 46.9094L190.695 49.01ZM200.523 49.01L205.368 50.2434L206.955 44.01H200.523V49.01ZM197.769 54.356L193.942 51.138L193.92 51.1638L193.899 51.1898L197.769 54.356ZM192.855 58.082L194.924 62.6338L192.855 58.082ZM178.329 57.542L175.93 61.9289L178.329 57.542ZM172.929 52.142L177.303 49.7195L172.929 52.142ZM172.875 35.726L168.501 33.3035L168.486 33.3294L168.472 33.3555L172.875 35.726ZM178.275 30.326L180.674 34.7129V34.7129L178.275 30.326ZM193.989 30.272L191.614 34.6721V34.6721L193.989 30.272ZM199.281 35.51L194.91 37.9382L194.924 37.9645L194.939 37.9907L199.281 35.51ZM191.775 41.018V46.018H196.775V41.018H191.775ZM190.155 37.238L193.429 33.4596L190.155 37.238ZM182.163 37.184L178.962 33.3429L178.93 33.3697L178.898 33.3969L182.163 37.184ZM180.219 41.018L175.276 40.2658L174.4 46.018H180.219V41.018ZM196.225 43.448C196.225 44.1042 196.184 44.8123 196.096 45.5749L206.03 46.7211C206.158 45.6117 206.225 44.5198 206.225 43.448H196.225ZM201.063 41.148H180.165V51.148H201.063V41.148ZM175.179 46.5315C175.389 49.2559 176.316 51.9817 178.474 54.065L185.42 46.871C185.418 46.8697 185.413 46.8652 185.404 46.8505C185.393 46.8349 185.37 46.7968 185.34 46.7253C185.28 46.5787 185.19 46.2808 185.15 45.7645L175.179 46.5315ZM178.602 54.1845C180.663 56.0399 183.194 56.926 185.889 56.926V46.926C185.488 46.926 185.39 46.8401 185.291 46.7515L178.602 54.1845ZM185.889 56.926C187.746 56.926 189.667 56.5302 191.412 55.4717C193.18 54.3991 194.426 52.8512 195.232 51.1106L186.157 46.9094C186.104 47.0253 186.074 47.0519 186.093 47.0299C186.116 47.0037 186.162 46.9603 186.225 46.9223C186.285 46.8855 186.313 46.8828 186.278 46.8917C186.236 46.902 186.115 46.926 185.889 46.926V56.926ZM190.695 54.01H200.523V44.01H190.695V54.01ZM195.677 47.7766C195.361 49.0171 194.796 50.1226 193.942 51.138L201.595 57.574C203.406 55.4214 204.676 52.9629 205.368 50.2434L195.677 47.7766ZM193.899 51.1898C193.119 52.1428 192.112 52.9273 190.786 53.5302L194.924 62.6338C197.557 61.4367 199.826 59.7372 201.638 57.5222L193.899 51.1898ZM190.786 53.5302C189.533 54.0998 188.037 54.432 186.213 54.432V64.432C189.285 64.432 192.217 63.8642 194.924 62.6338L190.786 53.5302ZM186.213 54.432C183.993 54.432 182.209 53.965 180.728 53.1551L175.93 61.9289C179.057 63.639 182.528 64.432 186.213 64.432V54.432ZM180.728 53.1551C179.271 52.3585 178.149 51.2472 177.303 49.7195L168.555 54.5645C170.301 57.7168 172.778 60.2055 175.93 61.9289L180.728 53.1551ZM177.303 49.7195C176.482 48.2386 175.985 46.364 175.985 43.934H165.985C165.985 47.768 166.783 51.3654 168.555 54.5645L177.303 49.7195ZM175.985 43.934C175.985 41.4816 176.474 39.5881 177.277 38.0965L168.472 33.3555C166.755 36.5439 165.985 40.1223 165.985 43.934H175.985ZM177.249 38.1485C178.095 36.6208 179.217 35.5095 180.674 34.7129L175.876 25.9391C172.724 27.6625 170.247 30.1512 168.501 33.3035L177.249 38.1485ZM180.674 34.7129C182.146 33.9078 183.946 33.436 186.213 33.436V23.436C182.503 23.436 179.011 24.2242 175.876 25.9391L180.674 34.7129ZM186.213 33.436C188.41 33.436 190.167 33.8912 191.614 34.6721L196.363 25.8719C193.274 24.2048 189.847 23.436 186.213 23.436V33.436ZM191.614 34.6721C193.036 35.4396 194.11 36.4986 194.91 37.9382L203.651 33.0818C201.931 29.9854 199.477 27.5524 196.363 25.8719L191.614 34.6721ZM194.939 37.9907C195.74 39.3913 196.225 41.1554 196.225 43.448H206.225C206.225 39.6926 205.414 36.1647 203.622 33.0293L194.939 37.9907ZM196.775 41.018C196.775 38.1603 195.732 35.455 193.429 33.4596L186.88 41.0164C186.884 41.0203 186.866 41.0051 186.84 40.969C186.813 40.9323 186.79 40.8917 186.774 40.8546C186.758 40.8184 186.758 40.8042 186.761 40.8235C186.765 40.8442 186.775 40.9059 186.775 41.018H196.775ZM193.429 33.4596C191.319 31.6303 188.756 30.834 186.105 30.834V40.834C186.693 40.834 186.831 40.9737 186.88 41.0164L193.429 33.4596ZM186.105 30.834C183.513 30.834 181.033 31.6169 178.962 33.3429L185.364 41.0251C185.452 40.9511 185.6 40.834 186.105 40.834V30.834ZM178.898 33.3969C176.766 35.2345 175.667 37.6949 175.276 40.2658L185.162 41.7702C185.221 41.381 185.306 41.1712 185.353 41.0787C185.394 40.9979 185.419 40.9784 185.427 40.9711L178.898 33.3969ZM180.219 46.018H191.775V36.018H180.219V46.018ZM236.876 28.868L241.477 30.8248L244.436 23.868H236.876V28.868ZM217.976 73.31V78.31H221.283L222.577 75.2668L217.976 73.31ZM208.04 73.31L203.482 71.2555L200.302 78.31H208.04V73.31ZM214.952 57.974L219.51 60.0285L220.406 58.0417L219.56 56.0333L214.952 57.974ZM202.694 28.868V23.868H195.163L198.086 30.8087L202.694 28.868ZM213.008 28.868L217.698 27.1345L216.491 23.868H213.008V28.868ZM219.974 47.714L215.284 49.4475L219.992 62.185L224.668 49.4357L219.974 47.714ZM226.886 28.868V23.868H223.394L222.192 27.1463L226.886 28.868ZM232.275 26.9112L213.375 71.3532L222.577 75.2668L241.477 30.8248L232.275 26.9112ZM217.976 68.31H208.04V78.31H217.976V68.31ZM212.598 75.3645L219.51 60.0285L210.394 55.9195L203.482 71.2555L212.598 75.3645ZM219.56 56.0333L207.302 26.9273L198.086 30.8087L210.344 59.9147L219.56 56.0333ZM202.694 33.868H213.008V23.868H202.694V33.868ZM208.318 30.6015L215.284 49.4475L224.664 45.9805L217.698 27.1345L208.318 30.6015ZM224.668 49.4357L231.58 30.5897L222.192 27.1463L215.28 45.9923L224.668 49.4357ZM226.886 33.868H236.876V23.868H226.886V33.868ZM251.983 58.028L248.512 61.6272L248.577 61.6902L248.645 61.7508L251.983 58.028ZM251.983 50.846L248.575 47.1865L248.543 47.2164L248.512 47.2468L251.983 50.846ZM259.867 50.846L256.396 54.4452L256.427 54.4756L256.459 54.5055L259.867 50.846ZM259.867 58.028L263.269 61.692L263.274 61.6875L259.867 58.028ZM251.983 36.05L248.512 39.6492L248.577 39.7122L248.645 39.7728L251.983 36.05ZM251.983 28.868L248.575 25.2085L248.543 25.2384L248.512 25.2688L251.983 28.868ZM259.867 28.868L256.396 32.4672L256.427 32.4976L256.459 32.5275L259.867 28.868ZM259.867 36.05L263.269 39.714L263.274 39.7095L259.867 36.05ZM255.979 54.432C255.651 54.432 255.483 54.3852 255.422 54.3637C255.372 54.346 255.35 54.3314 255.32 54.3052L248.645 61.7508C250.747 63.6359 253.331 64.432 255.979 64.432V54.432ZM255.453 54.4288C255.419 54.3953 255.411 54.3819 255.417 54.3912C255.42 54.3954 255.425 54.4035 255.432 54.4152C255.438 54.4269 255.445 54.4404 255.451 54.4552C255.458 54.4701 255.463 54.4841 255.467 54.4966C255.47 54.509 255.472 54.5178 255.473 54.5222C255.475 54.5317 255.471 54.5148 255.471 54.464H245.471C245.471 57.2215 246.524 59.71 248.512 61.6272L255.453 54.4288ZM255.471 54.464C255.471 54.4299 255.472 54.4052 255.474 54.3891C255.475 54.3731 255.476 54.3648 255.477 54.3634C255.477 54.3621 255.476 54.3662 255.474 54.3748C255.471 54.3834 255.467 54.3946 255.462 54.4075C255.456 54.4204 255.45 54.4329 255.444 54.4445C255.438 54.4561 255.432 54.4647 255.428 54.4702C255.425 54.4757 255.424 54.4765 255.427 54.4727C255.43 54.4689 255.438 54.4596 255.453 54.4452L248.512 47.2468C246.496 49.1908 245.471 51.7097 245.471 54.464H255.471ZM255.39 54.5055C255.425 54.4723 255.444 54.462 255.478 54.4496C255.523 54.4334 255.671 54.388 255.979 54.388V44.388C253.279 44.388 250.672 45.2349 248.575 47.1865L255.39 54.5055ZM255.979 54.388C256.257 54.388 256.371 54.4297 256.383 54.4341C256.391 54.4372 256.389 54.437 256.383 54.4332C256.377 54.4295 256.381 54.4309 256.396 54.4452L263.337 47.2468C261.273 45.256 258.673 44.388 255.979 44.388V54.388ZM256.459 54.5055C256.494 54.5379 256.501 54.5496 256.492 54.5377C256.488 54.5323 256.482 54.5228 256.474 54.5097C256.467 54.4966 256.459 54.4817 256.452 54.4656C256.445 54.4496 256.44 54.4346 256.436 54.4215C256.432 54.4085 256.43 54.3995 256.429 54.3956C256.428 54.3869 256.433 54.4071 256.433 54.464H266.433C266.433 51.651 265.344 49.1146 263.274 47.1865L256.459 54.5055ZM256.433 54.464C256.433 54.5039 256.429 54.5097 256.433 54.4894C256.437 54.468 256.447 54.4346 256.463 54.3966C256.48 54.3588 256.496 54.3337 256.504 54.3237C256.51 54.3146 256.5 54.3307 256.459 54.3685L263.274 61.6875C265.315 59.7868 266.433 57.281 266.433 54.464H256.433ZM256.464 54.364C256.453 54.3743 256.451 54.375 256.455 54.3725C256.459 54.3701 256.456 54.3725 256.44 54.3782C256.412 54.3886 256.277 54.432 255.979 54.432V64.432C258.62 64.432 261.196 63.6167 263.269 61.692L256.464 54.364ZM255.979 32.454C255.651 32.454 255.483 32.4072 255.422 32.3857C255.372 32.368 255.35 32.3534 255.32 32.3272L248.645 39.7728C250.747 41.6579 253.331 42.454 255.979 42.454V32.454ZM255.453 32.4508C255.419 32.4173 255.411 32.4039 255.417 32.4132C255.42 32.4174 255.425 32.4255 255.432 32.4372C255.438 32.4489 255.445 32.4624 255.451 32.4772C255.458 32.4921 255.463 32.5061 255.467 32.5186C255.47 32.531 255.472 32.5398 255.473 32.5442C255.475 32.5537 255.471 32.5368 255.471 32.486H245.471C245.471 35.2435 246.524 37.732 248.512 39.6492L255.453 32.4508ZM255.471 32.486C255.471 32.4519 255.472 32.4272 255.474 32.4111C255.475 32.3951 255.476 32.3868 255.477 32.3854C255.477 32.3841 255.476 32.3882 255.474 32.3968C255.471 32.4054 255.467 32.4166 255.462 32.4295C255.456 32.4424 255.45 32.4549 255.444 32.4665C255.438 32.4781 255.432 32.4867 255.428 32.4922C255.425 32.4977 255.424 32.4985 255.427 32.4947C255.43 32.4909 255.438 32.4816 255.453 32.4672L248.512 25.2688C246.496 27.2128 245.471 29.7317 245.471 32.486H255.471ZM255.39 32.5275C255.425 32.4943 255.444 32.484 255.478 32.4716C255.523 32.4554 255.671 32.41 255.979 32.41V22.41C253.279 22.41 250.672 23.2569 248.575 25.2085L255.39 32.5275ZM255.979 32.41C256.257 32.41 256.371 32.4517 256.383 32.4561C256.391 32.4592 256.389 32.459 256.383 32.4552C256.377 32.4515 256.381 32.4529 256.396 32.4672L263.337 25.2688C261.273 23.278 258.673 22.41 255.979 22.41V32.41ZM256.459 32.5275C256.494 32.5599 256.501 32.5716 256.492 32.5597C256.488 32.5543 256.482 32.5448 256.474 32.5317C256.467 32.5186 256.459 32.5037 256.452 32.4876C256.445 32.4716 256.44 32.4566 256.436 32.4435C256.432 32.4305 256.43 32.4215 256.429 32.4176C256.428 32.4089 256.433 32.4291 256.433 32.486H266.433C266.433 29.673 265.344 27.1366 263.274 25.2085L256.459 32.5275ZM256.433 32.486C256.433 32.5259 256.429 32.5317 256.433 32.5114C256.437 32.49 256.447 32.4566 256.463 32.4186C256.48 32.3808 256.496 32.3557 256.504 32.3457C256.51 32.3366 256.5 32.3527 256.459 32.3905L263.274 39.7095C265.315 37.8088 266.433 35.303 266.433 32.486H256.433ZM256.464 32.386C256.453 32.3963 256.451 32.397 256.455 32.3945C256.459 32.3921 256.456 32.3945 256.44 32.4002C256.412 32.4106 256.277 32.454 255.979 32.454V42.454C258.62 42.454 261.196 41.6387 263.269 39.714L256.464 32.386Z" fill="black" mask="url(#path-1-outside-1_245_72)"/>
</svg>
