<svg width="1294" height="12" viewBox="0 0 1294 12" fill="none" xmlns="http://www.w3.org/2000/svg">
<path d="M0.664896 6C0.664896 8.94552 3.05271 11.3333 5.99823 11.3333C8.94375 11.3333 11.3316 8.94552 11.3316 6C11.3316 3.05448 8.94375 0.666667 5.99823 0.666667C3.05271 0.666667 0.664896 3.05448 0.664896 6ZM1282.67 6C1282.67 8.94552 1285.06 11.3333 1288 11.3333C1290.95 11.3333 1293.34 8.94552 1293.34 6C1293.34 3.05448 1290.95 0.666667 1288 0.666667C1285.06 0.666667 1282.67 3.05448 1282.67 6ZM5.99823 7H1288V5H5.99823V7Z" fill="#1E1E1E"/>
</svg>
