<svg width="54" height="81" viewBox="0 0 54 81" fill="none" xmlns="http://www.w3.org/2000/svg">
<rect x="0.5" y="0.5" width="53" height="76" rx="6.5" fill="#D9D9D9" stroke="#1E1E1E"/>
<path d="M10.04 41.2H13.56L25.16 52.6L36.56 41.2H40.04L26.36 54.84V64.8H23.88V54.88L10.04 41.2ZM28.6 67.04V55.76L45.36 38.96H35.68L25.12 49.6L14.4 38.96H4.64L21.68 55.84V67.04H28.6ZM20.68 56.24C19.24 54.8267 17.7333 53.3467 16.16 51.8C14.6133 50.2533 13.04 48.6933 11.44 47.12C9.84 45.52 8.25333 43.9467 6.68 42.4C5.10667 40.8533 3.61333 39.3733 2.2 37.96H14.8L25.08 48.2L35.24 37.96H47.8L51.52 42.08L33.48 60.12V71.92H24.8L20.68 68.04V56.24Z" fill="black"/>
<path d="M13.32 31.32C14.1733 32.1467 15.12 32.7733 16.16 33.2C17.2 33.6267 18.28 33.9333 19.4 34.12C20.52 34.28 21.6667 34.3733 22.84 34.4C24.0133 34.4 25.1467 34.4 26.24 34.4C26.64 34.4 27.1733 34.3867 27.84 34.36C28.5333 34.3333 29.2667 34.28 30.04 34.2C30.84 34.0933 31.64 33.96 32.44 33.8C33.24 33.6133 33.96 33.3733 34.6 33.08C35.2667 32.7867 35.8 32.44 36.2 32.04C36.6267 31.6133 36.84 31.1067 36.84 30.52C36.84 29.9333 36.6133 29.4267 36.16 29C35.7333 28.5467 35.1733 28.16 34.48 27.84C33.7867 27.52 33 27.2533 32.12 27.04C31.2667 26.8 30.4133 26.6267 29.56 26.52C28.7067 26.3867 27.9067 26.2933 27.16 26.24C26.44 26.1867 25.8533 26.16 25.4 26.16H25.44C24.8 26.1333 24.0133 26.0667 23.08 25.96C22.1467 25.8533 21.1733 25.6933 20.16 25.48C19.1467 25.2667 18.1333 25 17.12 24.68C16.1067 24.3333 15.2 23.92 14.4 23.44C13.6 22.96 12.9467 22.4 12.44 21.76C11.9333 21.0933 11.68 20.3333 11.68 19.48C11.68 18.5467 11.92 17.7467 12.4 17.08C12.9067 16.4133 13.5467 15.8533 14.32 15.4C15.12 14.92 16.0133 14.5467 17 14.28C17.9867 13.9867 18.9867 13.76 20 13.6C21.0133 13.44 21.9733 13.3333 22.88 13.28C23.8133 13.2267 24.6 13.2 25.24 13.2C26.28 13.2 27.3333 13.2533 28.4 13.36C29.4933 13.44 30.56 13.6 31.6 13.84C32.64 14.08 33.6533 14.4133 34.64 14.84C35.6267 15.24 36.5333 15.76 37.36 16.4L35.24 17.92C34.4667 17.3867 33.6533 16.9733 32.8 16.68C31.9467 16.36 31.0667 16.12 30.16 15.96C29.2533 15.8 28.3333 15.7067 27.4 15.68C26.4667 15.6267 25.56 15.6 24.68 15.6C24.0667 15.6 23.2267 15.64 22.16 15.72C21.12 15.8 20.08 15.9733 19.04 16.24C18.0267 16.48 17.1467 16.8667 16.4 17.4C15.6533 17.9067 15.28 18.6 15.28 19.48C15.28 20.3333 15.64 21.0267 16.36 21.56C17.08 22.0667 18.0267 22.48 19.2 22.8C20.3733 23.0933 21.7067 23.3333 23.2 23.52C24.72 23.68 26.2667 23.8533 27.84 24.04C29.4133 24.2267 30.9467 24.4533 32.44 24.72C33.96 24.96 35.3067 25.32 36.48 25.8C37.6533 26.2533 38.6 26.8667 39.32 27.64C40.04 28.3867 40.4 29.3467 40.4 30.52C40.4 31.3467 40.1467 32.08 39.64 32.72C39.16 33.36 38.52 33.92 37.72 34.4C36.92 34.8533 36.0133 35.24 35 35.56C34.0133 35.8533 33.0133 36.0933 32 36.28C31.0133 36.4667 30.0667 36.6 29.16 36.68C28.2533 36.76 27.5067 36.8 26.92 36.8H23.92C22.8267 36.8 21.68 36.76 20.48 36.68C19.28 36.6 18.1067 36.4267 16.96 36.16C15.8133 35.8667 14.72 35.4667 13.68 34.96C12.64 34.4533 11.72 33.76 10.92 32.88L13.32 31.32ZM7.6 32.04C8.66667 33.7733 9.93333 35.12 11.4 36.08C12.8667 37.0133 14.4533 37.7067 16.16 38.16C17.8667 38.5867 19.6267 38.84 21.44 38.92C23.28 39 25.1067 39.04 26.92 39.04C27.72 39.04 28.6667 38.9867 29.76 38.88C30.8533 38.7467 31.9867 38.5467 33.16 38.28C34.3333 38.0133 35.48 37.6667 36.6 37.24C37.7467 36.7867 38.76 36.2533 39.64 35.64C40.5467 35 41.2667 34.2667 41.8 33.44C42.36 32.5867 42.64 31.6133 42.64 30.52C42.64 29.2133 42.3467 28.1067 41.76 27.2C41.2 26.2667 40.4533 25.4933 39.52 24.88C38.6133 24.24 37.56 23.7333 36.36 23.36C35.1867 22.96 33.9733 22.6533 32.72 22.44C31.4667 22.2267 30.24 22.0667 29.04 21.96C27.84 21.8533 26.7733 21.76 25.84 21.68C25.52 21.6533 24.9067 21.6 24 21.52C23.0933 21.4133 22.16 21.28 21.2 21.12C20.24 20.9333 19.3867 20.7067 18.64 20.44C17.8933 20.1733 17.52 19.8533 17.52 19.48C17.52 19.0533 17.8667 18.7333 18.56 18.52C19.2533 18.3067 20.04 18.1467 20.92 18.04C21.8267 17.9333 22.6933 17.88 23.52 17.88C24.3733 17.8533 24.9467 17.84 25.24 17.84C26.0933 17.84 26.96 17.88 27.84 17.96C28.72 18.0133 29.5733 18.1467 30.4 18.36C31.2533 18.5733 32.0533 18.88 32.8 19.28C33.5733 19.68 34.28 20.2 34.92 20.84L40.76 16.92C39.7467 15.5333 38.6 14.4533 37.32 13.68C36.04 12.88 34.68 12.28 33.24 11.88C31.8 11.48 30.2933 11.2267 28.72 11.12C27.1733 11.0133 25.6133 10.96 24.04 10.96C23.2133 10.96 22.2667 11.0267 21.2 11.16C20.16 11.2667 19.0933 11.4533 18 11.72C16.9333 11.9867 15.88 12.3333 14.84 12.76C13.8267 13.1867 12.92 13.72 12.12 14.36C11.32 15 10.68 15.7467 10.2 16.6C9.72 17.4267 9.48 18.3867 9.48 19.48C9.48 20.7333 9.78667 21.8133 10.4 22.72C11.0133 23.6267 11.8267 24.4 12.84 25.04C13.8533 25.68 15 26.2 16.28 26.6C17.56 27 18.8533 27.3333 20.16 27.6C21.4933 27.84 22.7733 28.04 24 28.2C25.2533 28.3333 26.3467 28.4533 27.28 28.56C27.5467 28.5867 28.0667 28.64 28.84 28.72C29.64 28.8 30.4667 28.92 31.32 29.08C32.1733 29.2133 32.9333 29.4 33.6 29.64C34.2667 29.88 34.6 30.1733 34.6 30.52C34.6 30.8133 34.3867 31.0667 33.96 31.28C33.5333 31.4667 32.9867 31.6267 32.32 31.76C31.6533 31.8667 30.92 31.9467 30.12 32C29.32 32.0533 28.5333 32.0933 27.76 32.12C27.0133 32.1467 26.3333 32.16 25.72 32.16C25.1333 32.16 24.72 32.16 24.48 32.16C23.4667 32.16 22.4667 32.12 21.48 32.04C20.4933 31.9333 19.5333 31.7467 18.6 31.48C17.6667 31.1867 16.7867 30.7867 15.96 30.28C15.1333 29.7733 14.3867 29.0933 13.72 28.24L7.6 32.04ZM13.4 27.24L11.48 25.28C10.5467 24.5867 9.81333 23.7733 9.28 22.84C8.74667 21.88 8.48 20.76 8.48 19.48C8.48 18.2533 8.73333 17.1733 9.24 16.24C9.77333 15.28 10.4667 14.4533 11.32 13.76C12.1733 13.0667 13.1467 12.48 14.24 12C15.3333 11.4933 16.4533 11.0933 17.6 10.8C18.7467 10.5067 19.88 10.2933 21 10.16C22.12 10.0267 23.1333 9.96 24.04 9.96C25.6133 9.96 27.2 10.0133 28.8 10.12C30.4 10.2 31.96 10.44 33.48 10.84C35.0267 11.24 36.5067 11.8533 37.92 12.68C39.3333 13.5067 40.6533 14.6667 41.88 16.16C42.7067 16.9867 43.36 17.68 43.84 18.24C44.32 18.7733 44.6933 19.2267 44.96 19.6C45.2533 19.9733 45.4667 20.28 45.6 20.52C45.7333 20.7333 45.8667 20.9333 46 21.12L40.88 24.56C41.0133 24.6933 41.16 24.8133 41.32 24.92C41.5067 25 41.76 25.1733 42.08 25.44C42.4 25.7067 42.8133 26.0933 43.32 26.6C43.8533 27.08 44.56 27.7733 45.44 28.68C46.08 29.3467 46.5867 30.2 46.96 31.24C47.3333 32.28 47.52 33.3733 47.52 34.52C47.52 35.72 47.2267 36.7867 46.64 37.72C46.0533 38.6533 45.2933 39.4667 44.36 40.16C43.4267 40.8533 42.36 41.44 41.16 41.92C39.96 42.4 38.7467 42.7867 37.52 43.08C36.2933 43.3733 35.0933 43.5867 33.92 43.72C32.7733 43.8533 31.7733 43.92 30.92 43.92C29.3467 43.92 27.7467 43.92 26.12 43.92C24.4933 43.92 22.8933 43.7867 21.32 43.52C19.7733 43.2533 18.2667 42.8133 16.8 42.2C15.3333 41.5867 13.9867 40.6533 12.76 39.4C11.72 38.44 10.84 37.6 10.12 36.88C9.42667 36.1333 8.82667 35.4667 8.32 34.88C7.84 34.2667 7.42667 33.7067 7.08 33.2C6.76 32.6933 6.45333 32.2 6.16 31.72L13.4 27.24Z" fill="black"/>
</svg>
