<svg width="506" height="42" viewBox="0 0 506 42" fill="none" xmlns="http://www.w3.org/2000/svg">
<path d="M494.667 6C494.667 8.94552 497.054 11.3333 500 11.3333C502.946 11.3333 505.333 8.94552 505.333 6C505.333 3.05448 502.946 0.666667 500 0.666667C497.054 0.666667 494.667 3.05448 494.667 6ZM18 7H500V5H18V7Z" fill="#1E1E1E"/>
<rect x="1.5" y="6.5" width="157" height="34" rx="17" stroke="black" stroke-width="3"/>
<path d="M55.544 18.928V30H54.088V21.744L50.408 30H49.384L45.688 21.728V30H44.232V18.928H45.8L49.896 28.08L53.992 18.928H55.544ZM64.4453 27.52H59.5813L58.6853 30H57.1493L61.1813 18.912H62.8613L66.8773 30H65.3413L64.4453 27.52ZM64.0293 26.336L62.0133 20.704L59.9973 26.336H64.0293ZM71.9465 18.848C73.1625 18.848 74.2132 19.0773 75.0985 19.536C75.9945 19.984 76.6772 20.6293 77.1465 21.472C77.6265 22.3147 77.8665 23.3067 77.8665 24.448C77.8665 25.5893 77.6265 26.5813 77.1465 27.424C76.6772 28.256 75.9945 28.896 75.0985 29.344C74.2132 29.7813 73.1625 30 71.9465 30H68.4745V18.848H71.9465ZM71.9465 28.8C73.3865 28.8 74.4852 28.4213 75.2425 27.664C75.9998 26.896 76.3785 25.824 76.3785 24.448C76.3785 23.0613 75.9945 21.9787 75.2265 21.2C74.4692 20.4213 73.3758 20.032 71.9465 20.032H69.9305V28.8H71.9465ZM81.083 20.032V23.76H85.147V24.96H81.083V28.8H85.627V30H79.627V18.832H85.627V20.032H81.083ZM93.2318 18.848V30H91.7758V18.848H93.2318ZM104.321 30H102.865L97.0093 21.12V30H95.5533V18.832H97.0093L102.865 27.696V18.832H104.321V30ZM111.213 30.096C110.936 30.096 110.701 30 110.509 29.808C110.317 29.616 110.221 29.3813 110.221 29.104C110.221 28.8267 110.317 28.592 110.509 28.4C110.701 28.208 110.936 28.112 111.213 28.112C111.48 28.112 111.704 28.208 111.885 28.4C112.077 28.592 112.173 28.8267 112.173 29.104C112.173 29.3813 112.077 29.616 111.885 29.808C111.704 30 111.48 30.096 111.213 30.096ZM111.213 23.248C110.936 23.248 110.701 23.152 110.509 22.96C110.317 22.768 110.221 22.5333 110.221 22.256C110.221 21.9787 110.317 21.744 110.509 21.552C110.701 21.36 110.936 21.264 111.213 21.264C111.48 21.264 111.704 21.36 111.885 21.552C112.077 21.744 112.173 21.9787 112.173 22.256C112.173 22.5333 112.077 22.768 111.885 22.96C111.704 23.152 111.48 23.248 111.213 23.248Z" fill="black"/>
</svg>
