<svg width="565" height="90" viewBox="0 0 565 90" fill="none" xmlns="http://www.w3.org/2000/svg">
<mask id="path-1-outside-1_46_222" maskUnits="userSpaceOnUse" x="-5" y="-5" width="577" height="100" fill="black">
<rect fill="white" x="-5" y="-5" width="577" height="100"/>
<path d="M77.272 9.608V77H60.856V36.584L45.784 77H32.536L17.368 36.488V77H0.952V9.608H20.344L39.256 56.264L57.976 9.608H77.272ZM97.333 17.864C94.453 17.864 92.085 17.032 90.229 15.368C88.437 13.64 87.541 11.528 87.541 9.032C87.541 6.472 88.437 4.36 90.229 2.696C92.085 0.967995 94.453 0.103994 97.333 0.103994C100.149 0.103994 102.453 0.967995 104.245 2.696C106.101 4.36 107.029 6.472 107.029 9.032C107.029 11.528 106.101 13.64 104.245 15.368C102.453 17.032 100.149 17.864 97.333 17.864ZM105.493 23.432V77H89.077V23.432H105.493ZM150.03 22.856C156.302 22.856 161.294 24.904 165.006 29C168.782 33.032 170.67 38.6 170.67 45.704V77H154.35V47.912C154.35 44.328 153.422 41.544 151.566 39.56C149.71 37.576 147.214 36.584 144.078 36.584C140.942 36.584 138.446 37.576 136.59 39.56C134.734 41.544 133.806 44.328 133.806 47.912V77H117.39V23.432H133.806V30.536C135.47 28.168 137.71 26.312 140.526 24.968C143.342 23.56 146.51 22.856 150.03 22.856ZM190.333 17.864C187.453 17.864 185.085 17.032 183.229 15.368C181.437 13.64 180.541 11.528 180.541 9.032C180.541 6.472 181.437 4.36 183.229 2.696C185.085 0.967995 187.453 0.103994 190.333 0.103994C193.149 0.103994 195.453 0.967995 197.245 2.696C199.101 4.36 200.029 6.472 200.029 9.032C200.029 11.528 199.101 13.64 197.245 15.368C195.453 17.032 193.149 17.864 190.333 17.864ZM198.493 23.432V77H182.077V23.432H198.493ZM278.742 22.856C285.398 22.856 290.678 24.872 294.582 28.904C298.55 32.936 300.534 38.536 300.534 45.704V77H284.214V47.912C284.214 44.456 283.286 41.8 281.43 39.944C279.638 38.024 277.142 37.064 273.942 37.064C270.742 37.064 268.214 38.024 266.358 39.944C264.566 41.8 263.67 44.456 263.67 47.912V77H247.35V47.912C247.35 44.456 246.422 41.8 244.566 39.944C242.774 38.024 240.278 37.064 237.078 37.064C233.878 37.064 231.35 38.024 229.494 39.944C227.702 41.8 226.806 44.456 226.806 47.912V77H210.39V23.432H226.806V30.152C228.47 27.912 230.646 26.152 233.334 24.872C236.022 23.528 239.062 22.856 242.454 22.856C246.486 22.856 250.07 23.72 253.206 25.448C256.406 27.176 258.902 29.64 260.694 32.84C262.55 29.896 265.078 27.496 268.278 25.64C271.478 23.784 274.966 22.856 278.742 22.856ZM308.751 50.12C308.751 44.616 309.775 39.784 311.823 35.624C313.935 31.464 316.783 28.264 320.367 26.024C323.951 23.784 327.951 22.664 332.367 22.664C336.143 22.664 339.439 23.432 342.255 24.968C345.135 26.504 347.343 28.52 348.879 31.016V23.432H365.295V77H348.879V69.416C347.279 71.912 345.039 73.928 342.159 75.464C339.343 77 336.047 77.768 332.271 77.768C327.919 77.768 323.951 76.648 320.367 74.408C316.783 72.104 313.935 68.872 311.823 64.712C309.775 60.488 308.751 55.624 308.751 50.12ZM348.879 50.216C348.879 46.12 347.727 42.888 345.423 40.52C343.183 38.152 340.431 36.968 337.167 36.968C333.903 36.968 331.119 38.152 328.815 40.52C326.575 42.824 325.455 46.024 325.455 50.12C325.455 54.216 326.575 57.48 328.815 59.912C331.119 62.28 333.903 63.464 337.167 63.464C340.431 63.464 343.183 62.28 345.423 59.912C347.727 57.544 348.879 54.312 348.879 50.216ZM393.587 5.96V77H377.171V5.96H393.587ZM413.739 17.864C410.859 17.864 408.491 17.032 406.635 15.368C404.843 13.64 403.947 11.528 403.947 9.032C403.947 6.472 404.843 4.36 406.635 2.696C408.491 0.967995 410.859 0.103994 413.739 0.103994C416.555 0.103994 418.859 0.967995 420.651 2.696C422.507 4.36 423.435 6.472 423.435 9.032C423.435 11.528 422.507 13.64 420.651 15.368C418.859 17.032 416.555 17.864 413.739 17.864ZM421.899 23.432V77H405.483V23.432H421.899ZM455.588 77.768C450.916 77.768 446.756 76.968 443.108 75.368C439.46 73.768 436.58 71.592 434.468 68.84C432.356 66.024 431.172 62.888 430.916 59.432H447.14C447.332 61.288 448.196 62.792 449.732 63.944C451.268 65.096 453.156 65.672 455.396 65.672C457.444 65.672 459.012 65.288 460.1 64.52C461.252 63.688 461.828 62.632 461.828 61.352C461.828 59.816 461.028 58.696 459.428 57.992C457.828 57.224 455.236 56.392 451.652 55.496C447.812 54.6 444.612 53.672 442.052 52.712C439.492 51.688 437.284 50.12 435.428 48.008C433.572 45.832 432.644 42.92 432.644 39.272C432.644 36.2 433.476 33.416 435.14 30.92C436.868 28.36 439.364 26.344 442.628 24.872C445.956 23.4 449.892 22.664 454.436 22.664C461.156 22.664 466.436 24.328 470.276 27.656C474.18 30.984 476.42 35.4 476.996 40.904H461.828C461.572 39.048 460.74 37.576 459.332 36.488C457.988 35.4 456.196 34.856 453.956 34.856C452.036 34.856 450.564 35.24 449.54 36.008C448.516 36.712 448.004 37.704 448.004 38.984C448.004 40.52 448.804 41.672 450.404 42.44C452.068 43.208 454.628 43.976 458.084 44.744C462.052 45.768 465.284 46.792 467.78 47.816C470.276 48.776 472.452 50.376 474.308 52.616C476.228 54.792 477.22 57.736 477.284 61.448C477.284 64.584 476.388 67.4 474.596 69.896C472.868 72.328 470.34 74.248 467.012 75.656C463.748 77.064 459.94 77.768 455.588 77.768ZM517.183 63.08V77H508.831C502.879 77 498.239 75.56 494.911 72.68C491.583 69.736 489.919 64.968 489.919 58.376V37.064H483.391V23.432H489.919V10.376H506.335V23.432H517.087V37.064H506.335V58.568C506.335 60.168 506.719 61.32 507.487 62.024C508.255 62.728 509.535 63.08 511.327 63.08H517.183ZM564.335 61.832L553.679 89.384H543.215L548.783 61.832H564.335Z"/>
</mask>
<path d="M77.272 9.608V77H60.856V36.584L45.784 77H32.536L17.368 36.488V77H0.952V9.608H20.344L39.256 56.264L57.976 9.608H77.272ZM97.333 17.864C94.453 17.864 92.085 17.032 90.229 15.368C88.437 13.64 87.541 11.528 87.541 9.032C87.541 6.472 88.437 4.36 90.229 2.696C92.085 0.967995 94.453 0.103994 97.333 0.103994C100.149 0.103994 102.453 0.967995 104.245 2.696C106.101 4.36 107.029 6.472 107.029 9.032C107.029 11.528 106.101 13.64 104.245 15.368C102.453 17.032 100.149 17.864 97.333 17.864ZM105.493 23.432V77H89.077V23.432H105.493ZM150.03 22.856C156.302 22.856 161.294 24.904 165.006 29C168.782 33.032 170.67 38.6 170.67 45.704V77H154.35V47.912C154.35 44.328 153.422 41.544 151.566 39.56C149.71 37.576 147.214 36.584 144.078 36.584C140.942 36.584 138.446 37.576 136.59 39.56C134.734 41.544 133.806 44.328 133.806 47.912V77H117.39V23.432H133.806V30.536C135.47 28.168 137.71 26.312 140.526 24.968C143.342 23.56 146.51 22.856 150.03 22.856ZM190.333 17.864C187.453 17.864 185.085 17.032 183.229 15.368C181.437 13.64 180.541 11.528 180.541 9.032C180.541 6.472 181.437 4.36 183.229 2.696C185.085 0.967995 187.453 0.103994 190.333 0.103994C193.149 0.103994 195.453 0.967995 197.245 2.696C199.101 4.36 200.029 6.472 200.029 9.032C200.029 11.528 199.101 13.64 197.245 15.368C195.453 17.032 193.149 17.864 190.333 17.864ZM198.493 23.432V77H182.077V23.432H198.493ZM278.742 22.856C285.398 22.856 290.678 24.872 294.582 28.904C298.55 32.936 300.534 38.536 300.534 45.704V77H284.214V47.912C284.214 44.456 283.286 41.8 281.43 39.944C279.638 38.024 277.142 37.064 273.942 37.064C270.742 37.064 268.214 38.024 266.358 39.944C264.566 41.8 263.67 44.456 263.67 47.912V77H247.35V47.912C247.35 44.456 246.422 41.8 244.566 39.944C242.774 38.024 240.278 37.064 237.078 37.064C233.878 37.064 231.35 38.024 229.494 39.944C227.702 41.8 226.806 44.456 226.806 47.912V77H210.39V23.432H226.806V30.152C228.47 27.912 230.646 26.152 233.334 24.872C236.022 23.528 239.062 22.856 242.454 22.856C246.486 22.856 250.07 23.72 253.206 25.448C256.406 27.176 258.902 29.64 260.694 32.84C262.55 29.896 265.078 27.496 268.278 25.64C271.478 23.784 274.966 22.856 278.742 22.856ZM308.751 50.12C308.751 44.616 309.775 39.784 311.823 35.624C313.935 31.464 316.783 28.264 320.367 26.024C323.951 23.784 327.951 22.664 332.367 22.664C336.143 22.664 339.439 23.432 342.255 24.968C345.135 26.504 347.343 28.52 348.879 31.016V23.432H365.295V77H348.879V69.416C347.279 71.912 345.039 73.928 342.159 75.464C339.343 77 336.047 77.768 332.271 77.768C327.919 77.768 323.951 76.648 320.367 74.408C316.783 72.104 313.935 68.872 311.823 64.712C309.775 60.488 308.751 55.624 308.751 50.12ZM348.879 50.216C348.879 46.12 347.727 42.888 345.423 40.52C343.183 38.152 340.431 36.968 337.167 36.968C333.903 36.968 331.119 38.152 328.815 40.52C326.575 42.824 325.455 46.024 325.455 50.12C325.455 54.216 326.575 57.48 328.815 59.912C331.119 62.28 333.903 63.464 337.167 63.464C340.431 63.464 343.183 62.28 345.423 59.912C347.727 57.544 348.879 54.312 348.879 50.216ZM393.587 5.96V77H377.171V5.96H393.587ZM413.739 17.864C410.859 17.864 408.491 17.032 406.635 15.368C404.843 13.64 403.947 11.528 403.947 9.032C403.947 6.472 404.843 4.36 406.635 2.696C408.491 0.967995 410.859 0.103994 413.739 0.103994C416.555 0.103994 418.859 0.967995 420.651 2.696C422.507 4.36 423.435 6.472 423.435 9.032C423.435 11.528 422.507 13.64 420.651 15.368C418.859 17.032 416.555 17.864 413.739 17.864ZM421.899 23.432V77H405.483V23.432H421.899ZM455.588 77.768C450.916 77.768 446.756 76.968 443.108 75.368C439.46 73.768 436.58 71.592 434.468 68.84C432.356 66.024 431.172 62.888 430.916 59.432H447.14C447.332 61.288 448.196 62.792 449.732 63.944C451.268 65.096 453.156 65.672 455.396 65.672C457.444 65.672 459.012 65.288 460.1 64.52C461.252 63.688 461.828 62.632 461.828 61.352C461.828 59.816 461.028 58.696 459.428 57.992C457.828 57.224 455.236 56.392 451.652 55.496C447.812 54.6 444.612 53.672 442.052 52.712C439.492 51.688 437.284 50.12 435.428 48.008C433.572 45.832 432.644 42.92 432.644 39.272C432.644 36.2 433.476 33.416 435.14 30.92C436.868 28.36 439.364 26.344 442.628 24.872C445.956 23.4 449.892 22.664 454.436 22.664C461.156 22.664 466.436 24.328 470.276 27.656C474.18 30.984 476.42 35.4 476.996 40.904H461.828C461.572 39.048 460.74 37.576 459.332 36.488C457.988 35.4 456.196 34.856 453.956 34.856C452.036 34.856 450.564 35.24 449.54 36.008C448.516 36.712 448.004 37.704 448.004 38.984C448.004 40.52 448.804 41.672 450.404 42.44C452.068 43.208 454.628 43.976 458.084 44.744C462.052 45.768 465.284 46.792 467.78 47.816C470.276 48.776 472.452 50.376 474.308 52.616C476.228 54.792 477.22 57.736 477.284 61.448C477.284 64.584 476.388 67.4 474.596 69.896C472.868 72.328 470.34 74.248 467.012 75.656C463.748 77.064 459.94 77.768 455.588 77.768ZM517.183 63.08V77H508.831C502.879 77 498.239 75.56 494.911 72.68C491.583 69.736 489.919 64.968 489.919 58.376V37.064H483.391V23.432H489.919V10.376H506.335V23.432H517.087V37.064H506.335V58.568C506.335 60.168 506.719 61.32 507.487 62.024C508.255 62.728 509.535 63.08 511.327 63.08H517.183ZM564.335 61.832L553.679 89.384H543.215L548.783 61.832H564.335Z" fill="#E3E3E3"/>
<path d="M77.272 9.608H82.272V4.608H77.272V9.608ZM77.272 77V82H82.272V77H77.272ZM60.856 77H55.856V82H60.856V77ZM60.856 36.584H65.856L56.1712 34.8369L60.856 36.584ZM45.784 77V82H49.2558L50.4688 78.7471L45.784 77ZM32.536 77L27.8534 78.7532L29.0691 82H32.536V77ZM17.368 36.488L22.0506 34.7348L12.368 36.488H17.368ZM17.368 77V82H22.368V77H17.368ZM0.952 77H-4.048V82H0.952V77ZM0.952 9.608V4.608H-4.048V9.608H0.952ZM20.344 9.608L24.9778 7.72969L23.7124 4.608H20.344V9.608ZM39.256 56.264L34.6222 58.1423L39.2797 69.6322L43.8964 58.1259L39.256 56.264ZM57.976 9.608V4.608H54.5947L53.3356 7.74611L57.976 9.608ZM72.272 9.608V77H82.272V9.608H72.272ZM77.272 72H60.856V82H77.272V72ZM65.856 77V36.584H55.856V77H65.856ZM56.1712 34.8369L41.0992 75.2529L50.4688 78.7471L65.5408 38.3311L56.1712 34.8369ZM45.784 72H32.536V82H45.784V72ZM37.2186 75.2468L22.0506 34.7348L12.6854 38.2412L27.8534 78.7532L37.2186 75.2468ZM12.368 36.488V77H22.368V36.488H12.368ZM17.368 72H0.952V82H17.368V72ZM5.952 77V9.608H-4.048V77H5.952ZM0.952 14.608H20.344V4.608H0.952V14.608ZM15.7102 11.4863L34.6222 58.1423L43.8898 54.3857L24.9778 7.72969L15.7102 11.4863ZM43.8964 58.1259L62.6164 11.4699L53.3356 7.74611L34.6156 54.4021L43.8964 58.1259ZM57.976 14.608H77.272V4.608H57.976V14.608ZM90.229 15.368L86.7583 18.9672L86.8237 19.0302L86.8913 19.0908L90.229 15.368ZM90.229 2.696L93.6313 6.35996L93.6361 6.35546L90.229 2.696ZM104.245 2.696L100.774 6.29522L100.84 6.35823L100.907 6.41884L104.245 2.696ZM104.245 15.368L107.647 19.032L107.652 19.0275L104.245 15.368ZM105.493 23.432H110.493V18.432H105.493V23.432ZM105.493 77V82H110.493V77H105.493ZM89.077 77H84.077V82H89.077V77ZM89.077 23.432V18.432H84.077V23.432H89.077ZM97.333 12.864C95.481 12.864 94.3642 12.3601 93.5667 11.6451L86.8913 19.0908C89.8058 21.7038 93.425 22.864 97.333 22.864V12.864ZM93.6997 11.7688C92.8879 10.986 92.541 10.1744 92.541 9.032H82.541C82.541 12.8815 83.9861 16.294 86.7583 18.9672L93.6997 11.7688ZM92.541 9.032C92.541 7.78893 92.9107 7.02908 93.6313 6.35996L86.8267 -0.96797C83.9633 1.69092 82.541 5.15507 82.541 9.032H92.541ZM93.6361 6.35546C94.4399 5.60713 95.5326 5.104 97.333 5.104V-4.89601C93.3734 -4.89601 89.7301 -3.67114 86.8219 -0.963474L93.6361 6.35546ZM97.333 5.104C99.0384 5.104 100.039 5.58598 100.774 6.29522L107.716 -0.903227C104.867 -3.64999 101.26 -4.89601 97.333 -4.89601V5.104ZM100.907 6.41884C101.673 7.10564 102.029 7.84906 102.029 9.032H112.029C112.029 5.09494 110.529 1.61436 107.583 -1.02685L100.907 6.41884ZM102.029 9.032C102.029 10.115 101.696 10.9092 100.838 11.7085L107.652 19.0275C110.506 16.3708 112.029 12.941 112.029 9.032H102.029ZM100.843 11.704C100.116 12.3793 99.0919 12.864 97.333 12.864V22.864C101.206 22.864 104.79 21.6847 107.647 19.032L100.843 11.704ZM100.493 23.432V77H110.493V23.432H100.493ZM105.493 72H89.077V82H105.493V72ZM94.077 77V23.432H84.077V77H94.077ZM89.077 28.432H105.493V18.432H89.077V28.432ZM165.006 29L161.301 32.3576L161.328 32.3879L161.356 32.4178L165.006 29ZM170.67 77V82H175.67V77H170.67ZM154.35 77H149.35V82H154.35V77ZM151.566 39.56L147.914 42.9758L151.566 39.56ZM136.59 39.56L140.241 42.9758L136.59 39.56ZM133.805 77V82H138.805V77H133.805ZM117.39 77H112.39V82H117.39V77ZM117.39 23.432V18.432H112.39V23.432H117.39ZM133.805 23.432H138.805V18.432H133.805V23.432ZM133.805 30.536H128.805V46.3479L137.896 33.4107L133.805 30.536ZM140.525 24.968L142.679 29.4804L142.721 29.4606L142.762 29.4401L140.525 24.968ZM150.029 27.856C155.1 27.856 158.669 29.4537 161.301 32.3576L168.71 25.6424C163.918 20.3543 157.503 17.856 150.029 17.856V27.856ZM161.356 32.4178C164.037 35.2811 165.67 39.4933 165.67 45.704H175.67C175.67 37.7067 173.526 30.7829 168.655 25.5822L161.356 32.4178ZM165.67 45.704V77H175.67V45.704H165.67ZM170.67 72H154.35V82H170.67V72ZM159.35 77V47.912H149.35V77H159.35ZM159.35 47.912C159.35 43.4752 158.187 39.319 155.217 36.1442L147.914 42.9758C148.656 43.769 149.35 45.1808 149.35 47.912H159.35ZM155.217 36.1442C152.267 32.9906 148.364 31.584 144.077 31.584V41.584C146.063 41.584 147.152 42.1613 147.914 42.9758L155.217 36.1442ZM144.077 31.584C139.791 31.584 135.888 32.9906 132.938 36.1442L140.241 42.9758C141.003 42.1613 142.092 41.584 144.077 41.584V31.584ZM132.938 36.1442C129.968 39.319 128.805 43.4752 128.805 47.912H138.805C138.805 45.1808 139.499 43.769 140.241 42.9758L132.938 36.1442ZM128.805 47.912V77H138.805V47.912H128.805ZM133.805 72H117.39V82H133.805V72ZM122.39 77V23.432H112.39V77H122.39ZM117.39 28.432H133.805V18.432H117.39V28.432ZM128.805 23.432V30.536H138.805V23.432H128.805ZM137.896 33.4107C139.028 31.8006 140.576 30.4839 142.679 29.4804L138.372 20.4556C134.843 22.1401 131.911 24.5354 129.715 27.6613L137.896 33.4107ZM142.762 29.4401C144.805 28.4184 147.193 27.856 150.029 27.856V17.856C145.826 17.856 141.878 18.7015 138.289 20.4959L142.762 29.4401ZM183.229 15.368L179.758 18.9672L179.824 19.0302L179.891 19.0908L183.229 15.368ZM183.229 2.696L186.631 6.35996L186.636 6.35546L183.229 2.696ZM197.245 2.696L193.774 6.29522L193.84 6.35823L193.907 6.41884L197.245 2.696ZM197.245 15.368L200.647 19.032L200.652 19.0275L197.245 15.368ZM198.493 23.432H203.493V18.432H198.493V23.432ZM198.493 77V82H203.493V77H198.493ZM182.077 77H177.077V82H182.077V77ZM182.077 23.432V18.432H177.077V23.432H182.077ZM190.333 12.864C188.481 12.864 187.364 12.3601 186.567 11.6451L179.891 19.0908C182.806 21.7038 186.425 22.864 190.333 22.864V12.864ZM186.7 11.7688C185.888 10.986 185.541 10.1744 185.541 9.032H175.541C175.541 12.8815 176.986 16.294 179.758 18.9672L186.7 11.7688ZM185.541 9.032C185.541 7.78893 185.911 7.02908 186.631 6.35996L179.827 -0.96797C176.963 1.69092 175.541 5.15507 175.541 9.032H185.541ZM186.636 6.35546C187.44 5.60713 188.533 5.104 190.333 5.104V-4.89601C186.373 -4.89601 182.73 -3.67114 179.822 -0.963474L186.636 6.35546ZM190.333 5.104C192.038 5.104 193.039 5.58598 193.774 6.29522L200.716 -0.903227C197.867 -3.64999 194.26 -4.89601 190.333 -4.89601V5.104ZM193.907 6.41884C194.673 7.10564 195.029 7.84906 195.029 9.032H205.029C205.029 5.09494 203.529 1.61436 200.583 -1.02685L193.907 6.41884ZM195.029 9.032C195.029 10.115 194.696 10.9092 193.838 11.7085L200.652 19.0275C203.506 16.3708 205.029 12.941 205.029 9.032H195.029ZM193.843 11.704C193.116 12.3793 192.092 12.864 190.333 12.864V22.864C194.206 22.864 197.79 21.6847 200.647 19.032L193.843 11.704ZM193.493 23.432V77H203.493V23.432H193.493ZM198.493 72H182.077V82H198.493V72ZM187.077 77V23.432H177.077V77H187.077ZM182.077 28.432H198.493V18.432H182.077V28.432ZM294.582 28.904L290.989 32.3821L291.004 32.3967L291.018 32.4111L294.582 28.904ZM300.534 77V82H305.534V77H300.534ZM284.214 77H279.214V82H284.214V77ZM281.43 39.944L277.774 43.3556L277.833 43.4186L277.894 43.4795L281.43 39.944ZM266.358 39.944L262.763 36.4689L262.76 36.471L266.358 39.944ZM263.669 77V82H268.669V77H263.669ZM247.35 77H242.35V82H247.35V77ZM244.566 39.944L240.91 43.3556L240.969 43.4186L241.03 43.4795L244.566 39.944ZM229.493 39.944L225.899 36.4689L225.896 36.471L229.493 39.944ZM226.805 77V82H231.805V77H226.805ZM210.389 77H205.389V82H210.389V77ZM210.389 23.432V18.432H205.389V23.432H210.389ZM226.805 23.432H231.805V18.432H226.805V23.432ZM226.805 30.152H221.805V45.2675L230.819 33.1336L226.805 30.152ZM233.333 24.872L235.483 29.3863L235.527 29.3656L235.57 29.3441L233.333 24.872ZM253.206 25.448L250.792 29.8272L250.811 29.8374L250.83 29.8475L253.206 25.448ZM260.694 32.84L256.331 35.283L260.439 42.619L264.923 35.5065L260.694 32.84ZM278.742 27.856C284.315 27.856 288.201 29.5022 290.989 32.3821L298.174 25.4259C293.154 20.2418 286.48 17.856 278.742 17.856V27.856ZM291.018 32.4111C293.836 35.275 295.534 39.4806 295.534 45.704H305.534C305.534 37.5914 303.263 30.597 298.145 25.3969L291.018 32.4111ZM295.534 45.704V77H305.534V45.704H295.534ZM300.534 72H284.214V82H300.534V72ZM289.214 77V47.912H279.214V77H289.214ZM289.214 47.912C289.214 43.5657 288.027 39.4709 284.965 36.4085L277.894 43.4795C278.544 44.1291 279.214 45.3463 279.214 47.912H289.214ZM285.085 36.5324C282.146 33.3833 278.201 32.064 273.941 32.064V42.064C276.082 42.064 277.129 42.6647 277.774 43.3556L285.085 36.5324ZM273.941 32.064C269.675 32.064 265.744 33.3842 262.763 36.4689L269.952 43.4191C270.683 42.6638 271.808 42.064 273.941 42.064V32.064ZM262.76 36.471C259.797 39.54 258.669 43.6117 258.669 47.912H268.669C268.669 45.3003 269.334 44.06 269.954 43.417L262.76 36.471ZM258.669 47.912V77H268.669V47.912H258.669ZM263.669 72H247.35V82H263.669V72ZM252.349 77V47.912H242.35V77H252.349ZM252.349 47.912C252.349 43.5657 251.163 39.4709 248.101 36.4085L241.03 43.4795C241.68 44.1291 242.35 45.3463 242.35 47.912H252.349ZM248.221 36.5324C245.282 33.3833 241.337 32.064 237.077 32.064V42.064C239.218 42.064 240.265 42.6647 240.91 43.3556L248.221 36.5324ZM237.077 32.064C232.811 32.064 228.88 33.3842 225.899 36.4689L233.088 43.4191C233.819 42.6638 234.944 42.064 237.077 42.064V32.064ZM225.896 36.471C222.933 39.54 221.805 43.6117 221.805 47.912H231.805C231.805 45.3003 232.47 44.06 233.09 43.417L225.896 36.471ZM221.805 47.912V77H231.805V47.912H221.805ZM226.805 72H210.389V82H226.805V72ZM215.389 77V23.432H205.389V77H215.389ZM210.389 28.432H226.805V18.432H210.389V28.432ZM221.805 23.432V30.152H231.805V23.432H221.805ZM230.819 33.1336C231.964 31.5927 233.482 30.3394 235.483 29.3863L231.184 20.3577C227.809 21.9646 224.975 24.2313 222.792 27.1704L230.819 33.1336ZM235.57 29.3441C237.479 28.3897 239.737 27.856 242.454 27.856V17.856C238.386 17.856 234.564 18.6663 231.097 20.3999L235.57 29.3441ZM242.454 27.856C245.75 27.856 248.485 28.5556 250.792 29.8272L255.619 21.0688C251.654 18.8844 247.221 17.856 242.454 17.856V27.856ZM250.83 29.8475C253.188 31.1209 254.998 32.903 256.331 35.283L265.056 30.397C262.805 26.377 259.623 23.2311 255.581 21.0485L250.83 29.8475ZM264.923 35.5065C266.321 33.2893 268.24 31.4418 270.786 29.9652L265.769 21.3148C261.915 23.5502 258.778 26.5026 256.464 30.1735L264.923 35.5065ZM270.786 29.9652C273.208 28.5607 275.827 27.856 278.742 27.856V17.856C274.104 17.856 269.747 19.0073 265.769 21.3148L270.786 29.9652ZM311.823 35.624L307.364 33.3605L307.35 33.388L307.337 33.4156L311.823 35.624ZM320.366 26.024L323.017 30.264L320.366 26.024ZM342.254 24.968L339.86 29.3575L339.881 29.3687L339.902 29.3798L342.254 24.968ZM348.879 31.016L344.62 33.6365L353.879 48.6812V31.016H348.879ZM348.879 23.432V18.432H343.879V23.432H348.879ZM365.294 23.432H370.294V18.432H365.294V23.432ZM365.294 77V82H370.294V77H365.294ZM348.879 77H343.879V82H348.879V77ZM348.879 69.416H353.879V52.351L344.669 66.7177L348.879 69.416ZM342.159 75.464L339.806 71.0522L339.785 71.0633L339.764 71.0745L342.159 75.464ZM320.366 74.408L317.663 78.6139L317.69 78.6311L317.716 78.648L320.366 74.408ZM311.823 64.712L307.323 66.8934L307.343 66.9346L307.364 66.9755L311.823 64.712ZM345.423 40.52L341.79 43.956L341.814 43.9816L341.839 44.0068L345.423 40.52ZM328.815 40.52L325.231 37.0332L325.23 37.0346L328.815 40.52ZM328.815 59.912L325.137 63.2994L325.183 63.3497L325.231 63.3988L328.815 59.912ZM345.423 59.912L341.839 56.4252L341.814 56.4504L341.79 56.476L345.423 59.912ZM313.75 50.12C313.75 45.2397 314.656 41.1884 316.308 37.8324L307.337 33.4156C304.893 38.3796 303.75 43.9923 303.75 50.12H313.75ZM316.281 37.8875C318.025 34.4517 320.282 31.9728 323.017 30.264L317.716 21.784C313.283 24.5552 309.844 28.4763 307.364 33.3605L316.281 37.8875ZM323.017 30.264C325.769 28.5435 328.844 27.664 332.367 27.664V17.664C327.058 17.664 322.132 19.0245 317.716 21.784L323.017 30.264ZM332.367 27.664C335.454 27.664 337.899 28.2876 339.86 29.3575L344.649 20.5785C340.978 18.5763 336.831 17.664 332.367 17.664V27.664ZM339.902 29.3798C342.09 30.5469 343.6 31.9795 344.62 33.6365L353.137 28.3955C351.085 25.0605 348.179 22.4611 344.607 20.5562L339.902 29.3798ZM353.879 31.016V23.432H343.879V31.016H353.879ZM348.879 28.432H365.294V18.432H348.879V28.432ZM360.294 23.432V77H370.294V23.432H360.294ZM365.294 72H348.879V82H365.294V72ZM353.879 77V69.416H343.879V77H353.879ZM344.669 66.7177C343.577 68.422 342.008 69.8774 339.806 71.0522L344.511 79.8758C348.069 77.9786 350.98 75.402 353.088 72.1143L344.669 66.7177ZM339.764 71.0745C337.803 72.1443 335.358 72.768 332.271 72.768V82.768C336.735 82.768 340.882 81.8557 344.553 79.8535L339.764 71.0745ZM332.271 72.768C328.826 72.768 325.781 71.896 323.017 70.168L317.716 78.648C322.12 81.4 327.011 82.768 332.271 82.768V72.768ZM323.07 70.2021C320.303 68.4232 318.03 65.8942 316.281 62.4485L307.364 66.9755C309.839 71.8498 313.262 75.7848 317.663 78.6139L323.07 70.2021ZM316.322 62.5306C314.655 59.0943 313.75 54.998 313.75 50.12H303.75C303.75 56.25 304.894 61.8817 307.323 66.8934L316.322 62.5306ZM353.879 50.216C353.879 45.1469 352.425 40.5467 349.006 37.0332L341.839 44.0068C343.028 45.2293 343.879 47.0931 343.879 50.216H353.879ZM349.055 37.084C345.869 33.7161 341.803 31.968 337.167 31.968V41.968C339.058 41.968 340.496 42.5879 341.79 43.956L349.055 37.084ZM337.167 31.968C332.534 31.968 328.463 33.7111 325.231 37.0332L332.398 44.0068C333.774 42.5929 335.271 41.968 337.167 41.968V31.968ZM325.23 37.0346C321.851 40.5093 320.454 45.0959 320.454 50.12H330.454C330.454 46.9521 331.298 45.1387 332.399 44.0054L325.23 37.0346ZM320.454 50.12C320.454 55.1575 321.856 59.7369 325.137 63.2994L332.492 56.5246C331.293 55.2231 330.454 53.2745 330.454 50.12H320.454ZM325.231 63.3988C328.463 66.7209 332.534 68.464 337.167 68.464V58.464C335.271 58.464 333.774 57.8391 332.398 56.4252L325.231 63.3988ZM337.167 68.464C341.803 68.464 345.869 66.7159 349.055 63.348L341.79 56.476C340.496 57.8441 339.058 58.464 337.167 58.464V68.464ZM349.006 63.3988C352.425 59.8853 353.879 55.2851 353.879 50.216H343.879C343.879 53.3389 343.028 55.2027 341.839 56.4252L349.006 63.3988ZM393.587 5.96H398.587V0.959999H393.587V5.96ZM393.587 77V82H398.587V77H393.587ZM377.171 77H372.171V82H377.171V77ZM377.171 5.96V0.959999H372.171V5.96H377.171ZM388.587 5.96V77H398.587V5.96H388.587ZM393.587 72H377.171V82H393.587V72ZM382.171 77V5.96H372.171V77H382.171ZM377.171 10.96H393.587V0.959999H377.171V10.96ZM406.635 15.368L403.165 18.9672L403.23 19.0302L403.298 19.0908L406.635 15.368ZM406.635 2.696L410.038 6.35996L410.042 6.35546L406.635 2.696ZM420.651 2.696L417.181 6.29522L417.246 6.35823L417.314 6.41884L420.651 2.696ZM420.651 15.368L424.053 19.032L424.058 19.0275L420.651 15.368ZM421.899 23.432H426.899V18.432H421.899V23.432ZM421.899 77V82H426.899V77H421.899ZM405.483 77H400.483V82H405.483V77ZM405.483 23.432V18.432H400.483V23.432H405.483ZM413.739 12.864C411.887 12.864 410.77 12.3601 409.973 11.6451L403.298 19.0908C406.212 21.7038 409.831 22.864 413.739 22.864V12.864ZM410.106 11.7688C409.294 10.986 408.947 10.1744 408.947 9.032H398.947C398.947 12.8815 400.392 16.294 403.165 18.9672L410.106 11.7688ZM408.947 9.032C408.947 7.78893 409.317 7.02908 410.038 6.35996L403.233 -0.96797C400.37 1.69092 398.947 5.15507 398.947 9.032H408.947ZM410.042 6.35546C410.846 5.60713 411.939 5.104 413.739 5.104V-4.89601C409.78 -4.89601 406.136 -3.67114 403.228 -0.963474L410.042 6.35546ZM413.739 5.104C415.445 5.104 416.445 5.58598 417.181 6.29522L424.122 -0.903227C421.273 -3.64999 417.666 -4.89601 413.739 -4.89601V5.104ZM417.314 6.41884C418.08 7.10564 418.435 7.84906 418.435 9.032H428.435C428.435 5.09494 426.935 1.61436 423.989 -1.02685L417.314 6.41884ZM418.435 9.032C418.435 10.115 418.103 10.9092 417.244 11.7085L424.058 19.0275C426.912 16.3708 428.435 12.941 428.435 9.032H418.435ZM417.249 11.704C416.522 12.3793 415.498 12.864 413.739 12.864V22.864C417.612 22.864 421.197 21.6847 424.053 19.032L417.249 11.704ZM416.899 23.432V77H426.899V23.432H416.899ZM421.899 72H405.483V82H421.899V72ZM410.483 77V23.432H400.483V77H410.483ZM405.483 28.432H421.899V18.432H405.483V28.432ZM443.108 75.368L445.116 70.7891L443.108 75.368ZM434.468 68.84L430.468 71.84L430.484 71.8621L430.501 71.8841L434.468 68.84ZM430.916 59.432V54.432H425.532L425.929 59.8014L430.916 59.432ZM447.14 59.432L452.113 58.9175L451.649 54.432H447.14V59.432ZM449.732 63.944L452.732 59.944L449.732 63.944ZM460.1 64.52L462.983 68.6048L463.005 68.5892L463.027 68.5734L460.1 64.52ZM459.428 57.992L457.264 62.4996L457.339 62.5353L457.414 62.5686L459.428 57.992ZM451.652 55.496L452.864 50.6453L452.826 50.6357L452.788 50.6268L451.652 55.496ZM442.052 52.712L440.195 57.3544L440.245 57.3746L440.296 57.3936L442.052 52.712ZM435.428 48.008L431.624 51.2527L431.648 51.2808L431.672 51.3086L435.428 48.008ZM435.14 30.92L430.996 28.1226L430.987 28.1345L430.979 28.1465L435.14 30.92ZM442.628 24.872L440.605 20.2993L440.589 20.3066L440.572 20.3141L442.628 24.872ZM470.276 27.656L467.001 31.4344L467.017 31.4478L467.032 31.4611L470.276 27.656ZM476.996 40.904V45.904H482.546L481.969 40.3836L476.996 40.904ZM461.828 40.904L456.875 41.5872L457.47 45.904H461.828V40.904ZM459.332 36.488L456.186 40.3742L456.23 40.4098L456.275 40.4444L459.332 36.488ZM449.54 36.008L452.372 40.1282L452.457 40.0698L452.54 40.008L449.54 36.008ZM450.404 42.44L448.24 46.9476L448.274 46.964L448.308 46.9798L450.404 42.44ZM458.084 44.744L459.333 39.9026L459.251 39.8814L459.168 39.8631L458.084 44.744ZM467.78 47.816L465.882 52.4418L465.933 52.4629L465.985 52.4827L467.78 47.816ZM474.308 52.616L470.458 55.8061L470.507 55.8659L470.559 55.9241L474.308 52.616ZM477.284 61.448H482.284V61.4049L482.283 61.3618L477.284 61.448ZM474.596 69.896L470.534 66.98L470.527 66.9899L470.52 67L474.596 69.896ZM467.012 75.656L465.064 71.0512L465.047 71.058L465.031 71.0649L467.012 75.656ZM455.588 72.768C451.489 72.768 448.031 72.0676 445.116 70.7891L441.099 79.9469C445.48 81.8684 450.342 82.768 455.588 82.768V72.768ZM445.116 70.7891C442.124 69.4768 439.962 67.786 438.434 65.7959L430.501 71.8841C433.198 75.398 436.795 78.0592 441.099 79.9469L445.116 70.7891ZM438.468 65.84C436.92 63.7758 436.086 61.5497 435.902 59.0626L425.929 59.8014C426.257 64.2262 427.792 68.2722 430.468 71.84L438.468 65.84ZM430.916 64.432H447.14V54.432H430.916V64.432ZM442.166 59.9465C442.506 63.2334 444.118 65.9834 446.732 67.944L452.732 59.944C452.274 59.6006 452.157 59.3426 452.113 58.9175L442.166 59.9465ZM446.732 67.944C449.272 69.849 452.261 70.672 455.396 70.672V60.672C454.051 60.672 453.264 60.343 452.732 59.944L446.732 67.944ZM455.396 70.672C457.957 70.672 460.709 70.2104 462.983 68.6048L457.216 60.4352C457.28 60.3905 457.22 60.4537 456.918 60.5275C456.611 60.6027 456.121 60.672 455.396 60.672V70.672ZM463.027 68.5734C465.315 66.9214 466.828 64.4321 466.828 61.352H456.828C456.828 61.2107 456.868 60.9633 457.006 60.7097C457.135 60.4741 457.252 60.409 457.172 60.4666L463.027 68.5734ZM466.828 61.352C466.828 59.6682 466.372 57.9591 465.296 56.4538C464.251 54.9897 462.845 54.0331 461.441 53.4154L457.414 62.5686C457.61 62.6549 457.405 62.6103 457.159 62.2662C457.038 62.0973 456.947 61.908 456.89 61.72C456.835 61.5371 456.828 61.4045 456.828 61.352H466.828ZM461.591 53.4844C459.509 52.485 456.504 51.5551 452.864 50.6453L450.439 60.3467C453.968 61.2289 456.146 61.963 457.264 62.4996L461.591 53.4844ZM452.788 50.6268C449.075 49.7604 446.098 48.8895 443.807 48.0303L440.296 57.3936C443.125 58.4545 446.549 59.4396 450.516 60.3652L452.788 50.6268ZM443.909 48.0696C442.093 47.3434 440.531 46.2412 439.184 44.7074L431.672 51.3086C434.036 53.9987 436.89 56.0326 440.195 57.3544L443.909 48.0696ZM439.232 44.7633C438.341 43.7186 437.644 42.0665 437.644 39.272H427.644C427.644 43.7735 428.803 47.9454 431.624 51.2527L439.232 44.7633ZM437.644 39.272C437.644 37.1619 438.197 35.3474 439.3 33.6935L430.979 28.1465C428.754 31.4846 427.644 35.2381 427.644 39.272H437.644ZM439.284 33.7174C440.414 32.0426 442.128 30.5822 444.683 29.4299L440.572 20.3141C436.599 22.1058 433.321 24.6774 430.996 28.1226L439.284 33.7174ZM444.65 29.4447C447.204 28.3153 450.42 27.664 454.436 27.664V17.664C449.363 17.664 444.708 18.4847 440.605 20.2993L444.65 29.4447ZM454.436 27.664C460.346 27.664 464.329 29.1186 467.001 31.4344L473.55 23.8776C468.543 19.5374 461.965 17.664 454.436 17.664V27.664ZM467.032 31.4611C469.878 33.8874 471.569 37.0864 472.023 41.4244L481.969 40.3836C481.271 33.7136 478.481 28.0806 473.519 23.8509L467.032 31.4611ZM476.996 35.904H461.828V45.904H476.996V35.904ZM466.781 40.2208C466.356 37.1437 464.892 34.4661 462.389 32.5316L456.275 40.4444C456.587 40.6859 456.787 40.9523 456.875 41.5872L466.781 40.2208ZM462.478 32.6018C460.009 30.6037 456.998 29.856 453.956 29.856V39.856C455.393 39.856 455.966 40.1963 456.186 40.3742L462.478 32.6018ZM453.956 29.856C451.468 29.856 448.766 30.3384 446.54 32.008L452.54 40.008C452.444 40.0796 452.45 40.0405 452.674 39.9821C452.907 39.9213 453.316 39.856 453.956 39.856V29.856ZM446.707 31.8878C444.278 33.5576 443.004 36.1166 443.004 38.984H453.004C453.004 39.0242 452.991 39.2626 452.831 39.5732C452.668 39.8896 452.461 40.067 452.372 40.1282L446.707 31.8878ZM443.004 38.984C443.004 40.6699 443.46 42.3588 444.497 43.852C445.505 45.3036 446.863 46.2868 448.24 46.9476L452.567 37.9324C452.344 37.8252 452.503 37.8484 452.711 38.148C452.813 38.2958 452.895 38.465 452.946 38.6377C452.996 38.8065 453.004 38.9307 453.004 38.984H443.004ZM448.308 46.9798C450.471 47.9778 453.453 48.837 456.999 49.6249L459.168 39.8631C455.802 39.115 453.665 38.4382 452.499 37.9002L448.308 46.9798ZM456.834 49.5854C460.682 50.5784 463.675 51.5365 465.882 52.4418L469.678 43.1902C466.892 42.0475 463.421 40.9576 459.333 39.9026L456.834 49.5854ZM465.985 52.4827C467.611 53.1083 469.099 54.1668 470.458 55.8061L478.158 49.4259C475.804 46.5852 472.94 44.4437 469.575 43.1493L465.985 52.4827ZM470.559 55.9241C471.493 56.9834 472.235 58.6707 472.284 61.5342L482.283 61.3618C482.204 56.8013 480.962 52.6006 478.057 49.3079L470.559 55.9241ZM472.284 61.448C472.284 63.5609 471.703 65.3524 470.534 66.98L478.657 72.812C481.073 69.4476 482.284 65.6071 482.284 61.448H472.284ZM470.52 67C469.432 68.5304 467.719 69.9278 465.064 71.0512L468.96 80.2608C472.961 78.5682 476.303 76.1256 478.672 72.792L470.52 67ZM465.031 71.0649C462.516 72.1499 459.407 72.768 455.588 72.768V82.768C460.472 82.768 464.979 81.9781 468.992 80.2471L465.031 71.0649ZM517.183 63.08H522.183V58.08H517.183V63.08ZM517.183 77V82H522.183V77H517.183ZM494.911 72.68L491.598 76.425L491.619 76.443L491.639 76.4608L494.911 72.68ZM489.919 37.064H494.919V32.064H489.919V37.064ZM483.391 37.064H478.391V42.064H483.391V37.064ZM483.391 23.432V18.432H478.391V23.432H483.391ZM489.919 23.432V28.432H494.919V23.432H489.919ZM489.919 10.376V5.376H484.919V10.376H489.919ZM506.335 10.376H511.335V5.376H506.335V10.376ZM506.335 23.432H501.335V28.432H506.335V23.432ZM517.087 23.432H522.087V18.432H517.087V23.432ZM517.087 37.064V42.064H522.087V37.064H517.087ZM506.335 37.064V32.064H501.335V37.064H506.335ZM507.487 62.024L504.108 65.7098L507.487 62.024ZM512.183 63.08V77H522.183V63.08H512.183ZM517.183 72H508.831V82H517.183V72ZM508.831 72C503.655 72 500.325 70.7528 498.183 68.8992L491.639 76.4608C496.153 80.3672 502.103 82 508.831 82V72ZM498.224 68.935C496.401 67.3223 494.919 64.2367 494.919 58.376H484.919C484.919 65.6993 486.765 72.1497 491.598 76.425L498.224 68.935ZM494.919 58.376V37.064H484.919V58.376H494.919ZM489.919 32.064H483.391V42.064H489.919V32.064ZM488.391 37.064V23.432H478.391V37.064H488.391ZM483.391 28.432H489.919V18.432H483.391V28.432ZM494.919 23.432V10.376H484.919V23.432H494.919ZM489.919 15.376H506.335V5.376H489.919V15.376ZM501.335 10.376V23.432H511.335V10.376H501.335ZM506.335 28.432H517.087V18.432H506.335V28.432ZM512.087 23.432V37.064H522.087V23.432H512.087ZM517.087 32.064H506.335V42.064H517.087V32.064ZM501.335 37.064V58.568H511.335V37.064H501.335ZM501.335 58.568C501.335 60.8245 501.863 63.6513 504.108 65.7098L510.866 58.3382C511.026 58.4852 511.146 58.6383 511.231 58.7752C511.314 58.9091 511.353 59.0095 511.366 59.0509C511.38 59.0905 511.371 59.0768 511.359 58.993C511.347 58.9092 511.335 58.7707 511.335 58.568H501.335ZM504.108 65.7098C506.267 67.6888 509.113 68.08 511.327 68.08V58.08C511.04 58.08 510.816 58.0658 510.648 58.0465C510.479 58.0271 510.384 58.0047 510.349 57.995C510.27 57.9732 510.527 58.0277 510.866 58.3382L504.108 65.7098ZM511.327 68.08H517.183V58.08H511.327V68.08ZM564.335 61.832L568.998 63.6356L571.629 56.832H564.335V61.832ZM553.679 89.384V94.384H557.106L558.342 91.1876L553.679 89.384ZM543.215 89.384L538.314 88.3936L537.103 94.384H543.215V89.384ZM548.783 61.832V56.832H544.692L543.882 60.8416L548.783 61.832ZM559.671 60.0284L549.015 87.5804L558.342 91.1876L568.998 63.6356L559.671 60.0284ZM553.679 84.384H543.215V94.384H553.679V84.384ZM548.116 90.3744L553.684 62.8224L543.882 60.8416L538.314 88.3936L548.116 90.3744ZM548.783 66.832H564.335V56.832H548.783V66.832Z" fill="black" mask="url(#path-1-outside-1_46_222)"/>
</svg>
