<svg width="737" height="42" viewBox="0 0 737 42" fill="none" xmlns="http://www.w3.org/2000/svg">
<path d="M725.666 5.5C725.666 8.44552 728.054 10.8333 731 10.8333C733.945 10.8333 736.333 8.44552 736.333 5.5C736.333 2.55448 733.945 0.166667 731 0.166667C728.054 0.166667 725.666 2.55448 725.666 5.5ZM16.9996 6.5H731V4.5H16.9996V6.5Z" fill="#1E1E1E"/>
<rect x="1.5" y="6.5" width="157" height="34" rx="17" stroke="black" stroke-width="3"/>
<path d="M58.688 22.112C58.688 23.04 58.368 23.8133 57.728 24.432C57.0987 25.04 56.1333 25.344 54.832 25.344H52.688V30H51.232V18.848H54.832C56.0907 18.848 57.0453 19.152 57.696 19.76C58.3573 20.368 58.688 21.152 58.688 22.112ZM54.832 24.144C55.6427 24.144 56.24 23.968 56.624 23.616C57.008 23.264 57.2 22.7627 57.2 22.112C57.2 20.736 56.4107 20.048 54.832 20.048H52.688V24.144H54.832ZM61.7936 28.816H65.6976V30H60.3376V18.848H61.7936V28.816ZM73.6759 27.52H68.8119L67.9159 30H66.3799L70.4119 18.912H72.0919L76.1079 30H74.5719L73.6759 27.52ZM73.2599 26.336L71.2439 20.704L69.2279 26.336H73.2599ZM77.1611 24.416C77.1611 23.328 77.4065 22.352 77.8971 21.488C78.3878 20.6133 79.0545 19.9307 79.8971 19.44C80.7505 18.9493 81.6945 18.704 82.7291 18.704C83.9451 18.704 85.0065 18.9973 85.9131 19.584C86.8198 20.1707 87.4811 21.0027 87.8971 22.08H86.1531C85.8438 21.408 85.3958 20.8907 84.8091 20.528C84.2331 20.1653 83.5398 19.984 82.7291 19.984C81.9505 19.984 81.2518 20.1653 80.6331 20.528C80.0145 20.8907 79.5291 21.408 79.1771 22.08C78.8251 22.7413 78.6491 23.52 78.6491 24.416C78.6491 25.3013 78.8251 26.08 79.1771 26.752C79.5291 27.4133 80.0145 27.9253 80.6331 28.288C81.2518 28.6507 81.9505 28.832 82.7291 28.832C83.5398 28.832 84.2331 28.656 84.8091 28.304C85.3958 27.9413 85.8438 27.424 86.1531 26.752H87.8971C87.4811 27.8187 86.8198 28.6453 85.9131 29.232C85.0065 29.808 83.9451 30.096 82.7291 30.096C81.6945 30.096 80.7505 29.856 79.8971 29.376C79.0545 28.8853 78.3878 28.208 77.8971 27.344C77.4065 26.48 77.1611 25.504 77.1611 24.416ZM91.3605 20.032V23.76H95.4245V24.96H91.3605V28.8H95.9045V30H89.9045V18.832H95.9045V20.032H91.3605ZM102.517 30.096C102.24 30.096 102.005 30 101.813 29.808C101.621 29.616 101.525 29.3813 101.525 29.104C101.525 28.8267 101.621 28.592 101.813 28.4C102.005 28.208 102.24 28.112 102.517 28.112C102.784 28.112 103.008 28.208 103.189 28.4C103.381 28.592 103.477 28.8267 103.477 29.104C103.477 29.3813 103.381 29.616 103.189 29.808C103.008 30 102.784 30.096 102.517 30.096ZM102.517 23.248C102.24 23.248 102.005 23.152 101.813 22.96C101.621 22.768 101.525 22.5333 101.525 22.256C101.525 21.9787 101.621 21.744 101.813 21.552C102.005 21.36 102.24 21.264 102.517 21.264C102.784 21.264 103.008 21.36 103.189 21.552C103.381 21.744 103.477 21.9787 103.477 22.256C103.477 22.5333 103.381 22.768 103.189 22.96C103.008 23.152 102.784 23.248 102.517 23.248Z" fill="black"/>
</svg>
