<svg width="229" height="80" viewBox="0 0 229 80" fill="none" xmlns="http://www.w3.org/2000/svg">
<circle cx="189" cy="40" r="39" fill="#A4161A"/>
<path d="M27.216 25.304V31.88H18.288V59H10.08V31.88H1.152V25.304H27.216ZM39.0634 36.68C40.0234 35.208 41.2234 34.056 42.6634 33.224C44.1034 32.36 45.7034 31.928 47.4634 31.928V40.616H45.2074C43.1594 40.616 41.6234 41.064 40.5994 41.96C39.5754 42.824 39.0634 44.36 39.0634 46.568V59H30.8554V32.216H39.0634V36.68ZM49.2746 45.56C49.2746 42.808 49.7866 40.392 50.8106 38.312C51.8666 36.232 53.2906 34.632 55.0826 33.512C56.8746 32.392 58.8746 31.832 61.0826 31.832C62.9706 31.832 64.6186 32.216 66.0266 32.984C67.4666 33.752 68.5706 34.76 69.3386 36.008V32.216H77.5466V59H69.3386V55.208C68.5386 56.456 67.4186 57.464 65.9786 58.232C64.5706 59 62.9226 59.384 61.0346 59.384C58.8586 59.384 56.8746 58.824 55.0826 57.704C53.2906 56.552 51.8666 54.936 50.8106 52.856C49.7866 50.744 49.2746 48.312 49.2746 45.56ZM69.3386 45.608C69.3386 43.56 68.7626 41.944 67.6106 40.76C66.4906 39.576 65.1146 38.984 63.4826 38.984C61.8506 38.984 60.4586 39.576 59.3066 40.76C58.1866 41.912 57.6266 43.512 57.6266 45.56C57.6266 47.608 58.1866 49.24 59.3066 50.456C60.4586 51.64 61.8506 52.232 63.4826 52.232C65.1146 52.232 66.4906 51.64 67.6106 50.456C68.7626 49.272 69.3386 47.656 69.3386 45.608ZM95.0527 51.32L100.861 32.216H109.597L100.093 59H89.9647L80.4607 32.216H89.2447L95.0527 51.32ZM137.82 45.176C137.82 45.944 137.772 46.744 137.676 47.576H119.1C119.228 49.24 119.756 50.52 120.684 51.416C121.644 52.28 122.812 52.712 124.188 52.712C126.236 52.712 127.66 51.848 128.46 50.12H137.196C136.748 51.88 135.932 53.464 134.748 54.872C133.596 56.28 132.14 57.384 130.38 58.184C128.62 58.984 126.652 59.384 124.476 59.384C121.852 59.384 119.516 58.824 117.468 57.704C115.42 56.584 113.82 54.984 112.668 52.904C111.516 50.824 110.94 48.392 110.94 45.608C110.94 42.824 111.5 40.392 112.62 38.312C113.772 36.232 115.372 34.632 117.42 33.512C119.468 32.392 121.82 31.832 124.476 31.832C127.068 31.832 129.372 32.376 131.388 33.464C133.404 34.552 134.972 36.104 136.092 38.12C137.244 40.136 137.82 42.488 137.82 45.176ZM129.42 43.016C129.42 41.608 128.94 40.488 127.98 39.656C127.02 38.824 125.82 38.408 124.38 38.408C123.004 38.408 121.836 38.808 120.876 39.608C119.948 40.408 119.372 41.544 119.148 43.016H129.42ZM149.878 23.48V59H141.67V23.48H149.878ZM159.474 29.432C158.034 29.432 156.85 29.016 155.922 28.184C155.026 27.32 154.578 26.264 154.578 25.016C154.578 23.736 155.026 22.68 155.922 21.848C156.85 20.984 158.034 20.552 159.474 20.552C160.882 20.552 162.034 20.984 162.93 21.848C163.858 22.68 164.322 23.736 164.322 25.016C164.322 26.264 163.858 27.32 162.93 28.184C162.034 29.016 160.882 29.432 159.474 29.432ZM163.554 32.216V59H155.346V32.216H163.554ZM183.95 52.04V59H179.774C176.798 59 174.478 58.28 172.814 56.84C171.15 55.368 170.318 52.984 170.318 49.688V39.032H167.054V32.216H170.318V25.688H178.526V32.216H183.902V39.032H178.526V49.784C178.526 50.584 178.718 51.16 179.102 51.512C179.486 51.864 180.126 52.04 181.022 52.04H183.95ZM191.882 59.384C190.442 59.384 189.258 58.968 188.33 58.136C187.434 57.272 186.986 56.216 186.986 54.968C186.986 53.688 187.434 52.616 188.33 51.752C189.258 50.888 190.442 50.456 191.882 50.456C193.29 50.456 194.442 50.888 195.338 51.752C196.266 52.616 196.73 53.688 196.73 54.968C196.73 56.216 196.266 57.272 195.338 58.136C194.442 58.968 193.29 59.384 191.882 59.384Z" fill="white"/>
</svg>
